<?xml version="1.0" encoding="UTF-8"?>
<!DOCTYPE svg PUBLIC "-//W3C//DTD SVG 1.1//EN" "http://www.w3.org/Graphics/SVG/1.1/DTD/svg11.dtd">
<!-- Creator: CorelDRAW 2020 (64-Bit) -->
<svg xmlns="http://www.w3.org/2000/svg" xml:space="preserve" width="100mm" height="20mm" version="1.1" style="shape-rendering:geometricPrecision; text-rendering:geometricPrecision; image-rendering:optimizeQuality; fill-rule:evenodd; clip-rule:evenodd"
viewBox="0 0 10000 2000"
 xmlns:xlink="http://www.w3.org/1999/xlink"
 xmlns:xodm="http://www.corel.com/coreldraw/odm/2003">
 <defs>
  <style type="text/css">
   <![CDATA[
    .fil0 {fill:#2B2A29}
    .fil3 {fill:#114F6F}
    .fil6 {fill:#2B2A29;fill-rule:nonzero}
    .fil1 {fill:#2B2A29;fill-rule:nonzero}
    .fil2 {fill:#114F6F;fill-rule:nonzero}
    .fil5 {fill:#4EC390;fill-rule:nonzero}
    .fil4 {fill:#65CFA9;fill-rule:nonzero}
   ]]>
  </style>
 </defs>
 <g id="Layer_x0020_1">
  <metadata id="CorelCorpID_0Corel-Layer"/>
  <g id="_2247424000624">
   <path class="fil0" d="M439.7 1418.62c-44.41,-27.64 -178.87,23.91 -271.66,-11.41 39.51,71.1 91.8,84.44 181.7,51.84 1.21,-0.43 -3.51,-14.29 -2.3,-14.75 1.89,-0.69 10.64,11.53 12.61,10.87 5.01,-1.65 -5.73,-13.81 -0.13,-16.2 2.27,-0.98 20.7,8.03 23.05,6.96 3.44,-1.54 6.96,-3.18 10.54,-4.86 0.78,-1.18 -6.65,-7.04 24.59,-27.55 2.99,-1.96 4.39,13.78 7.71,12.12 4.55,-2.25 9.18,-4.61 13.89,-7.02zm-46.28 8.26c-30.75,-13.98 -134.44,16.04 -198.73,-1.84 28.39,43.94 83.45,34.91 198.73,1.84z"/>
   <path class="fil0" d="M1914.99 645.69c137.72,6.73 164.43,160.07 107.1,181.98 -5.69,-11.67 -5.56,-22 -3.97,-32.28 2.32,-14.79 -13.99,-23.41 -30.38,-8.5 4.36,-23.19 12.75,-39.79 5.33,-58.07 -5.76,-14.22 -26.32,-28.52 -39.37,-53.96 42.61,41.04 60.73,51.46 48.26,95.86 18.89,-11.58 24.36,7.12 27.33,21.13 23.67,-39.42 -9.24,-119.82 -114.3,-146.16z"/>
   <path class="fil0" d="M1950.66 677.23c-9.44,-4.47 -25.71,8.07 -28.4,15.23 -2.7,7.17 7.42,33.25 -4.28,36.23 -11.72,2.97 -38.19,-1.11 -44.63,6.81 -6.46,7.94 6.31,44.96 6.31,44.96 0,0 -6.44,-31.46 5.02,-41.34 11.47,-9.86 49.17,10.48 50,-3.34 -2.7,-11.62 -7.3,-27.01 -3.81,-38.69 2.56,-8.51 11.07,-14 19.79,-19.86z"/>
   <path class="fil0" d="M1855.68 747.44c0,0 0.08,14.2 -10.72,29.41 -17.07,24.1 -61.36,27.96 -85.34,15.78 -41.46,-21.06 -35,-37.46 -55.07,-53.32 -10.66,-8.43 -25.26,-14.35 -36.6,-18.06 -18.91,-6.17 -18.17,-13.22 -1.28,-27.83 12,-10.37 40.74,-23.42 82.74,-2.85 -50.41,-3.18 -78.32,2.63 -83.56,19.04 5.73,-2.59 39.91,2.48 53.66,22.28 24.01,34.61 30.37,49.6 70.16,52.34 41.27,2.84 66.01,-36.79 66.01,-36.79z"/>
   <path class="fil1" d="M1692.49 634.76c-49.88,-23.04 -107.75,-59.3 -116.66,-115.14 -2.93,-18.36 1.11,-10.97 10.87,0.38 13.86,16.12 31.37,27.95 41.02,34.39l-24.34 -27.3c-10.41,-14.84 -19.38,-26.67 -28.53,-50.17 -7.68,-12.7 -9.84,10.42 -9.74,14.15 0.98,35.78 12.98,66.71 34.34,93.5 23.49,29.5 58.33,53.97 102.42,74.34l-9.38 -24.15z"/>
   <path class="fil0" d="M1754.61 603.95c0,0 4.53,-3.54 11.7,-5.04 7.18,-1.5 12.98,6.76 19.2,19.59 6.2,12.83 -9.97,-14.14 -18.67,-14.75 -8.69,-0.62 -12.23,0.2 -12.23,0.2z"/>
   <path class="fil0" d="M1775.1 609.42c0.15,0.55 -1.59,9.2 -9.21,8.09 -4.99,-0.71 -9.22,-8.03 -5.24,-11.67l3.61 -3.3 6.23 0.55c0,0 4.46,5.78 4.61,6.33z"/>
   <path class="fil0" d="M859.59 645.69c-137.73,6.73 -164.43,160.07 -107.11,181.98 5.7,-11.67 5.55,-22 3.96,-32.28 -2.3,-14.79 14,-23.41 30.37,-8.5 -4.35,-23.19 -12.73,-39.79 -5.31,-58.07 5.76,-14.22 26.32,-28.52 39.36,-53.96 -42.6,41.04 -60.72,51.46 -48.25,95.86 -18.89,-11.58 -24.37,7.12 -27.34,21.13 -23.67,-39.42 9.24,-119.82 114.32,-146.16z"/>
   <path class="fil0" d="M823.9 677.23c9.45,-4.47 25.72,8.07 28.42,15.23 2.68,7.17 -7.44,33.25 4.27,36.23 11.73,2.97 38.19,-1.11 44.64,6.81 6.46,7.94 -6.32,44.96 -6.32,44.96 0,0 6.44,-31.46 -5.01,-41.34 -11.49,-9.86 -49.18,10.48 -50.02,-3.34 2.7,-11.62 7.33,-27.01 3.81,-38.69 -2.55,-8.51 -11.07,-14 -19.79,-19.86z"/>
   <path class="fil0" d="M918.88 747.44c0,0 -0.08,14.2 10.72,29.41 17.08,24.1 61.38,27.96 85.33,15.78 41.47,-21.06 35,-37.46 55.1,-53.32 10.66,-8.43 25.25,-14.35 36.58,-18.06 18.92,-6.17 18.19,-13.22 1.3,-27.83 -12.01,-10.37 -40.77,-23.42 -82.77,-2.85 50.43,-3.18 78.32,2.63 83.58,19.04 -5.73,-2.59 -39.91,2.48 -53.67,22.28 -24.01,34.61 -30.38,49.6 -70.16,52.34 -41.27,2.84 -66.01,-36.79 -66.01,-36.79z"/>
   <path class="fil1" d="M1082.08 634.76c49.89,-23.04 107.75,-59.3 116.66,-115.14 2.92,-18.36 -1.11,-10.97 -10.87,0.38 -13.86,16.12 -31.36,27.95 -41.02,34.39l24.34 -27.3c10.42,-14.84 19.38,-26.67 28.53,-50.17 7.67,-12.7 9.84,10.42 9.73,14.15 -0.99,35.78 -12.97,66.71 -34.32,93.5 -23.49,29.5 -58.35,53.97 -102.42,74.34l9.37 -24.15z"/>
   <path class="fil0" d="M1019.96 603.95c0,0 -4.54,-3.54 -11.72,-5.04 -7.16,-1.5 -12.96,6.76 -19.18,19.59 -6.2,12.83 9.96,-14.14 18.66,-14.75 8.69,-0.62 12.24,0.2 12.24,0.2z"/>
   <path class="fil0" d="M999.47 609.42c-0.16,0.55 1.59,9.2 9.21,8.09 4.98,-0.71 9.22,-8.03 5.23,-11.67l-3.61 -3.3 -6.23 0.55c0,0 -4.44,5.78 -4.6,6.33z"/>
   <path class="fil0" d="M1250.05 353.02l5.17 0 48.1 57.79c-27.01,4.03 -47.87,27.11 -47.87,54.75l0 0c0,24.45 16.35,45.34 38.83,52.6 0.36,0.13 5.25,0.23 5.61,0.34l-39.42 46.39 -10.42 0 0 -211.87zm50.12 0l172.8 0 -47.51 57.17 -23.22 0 0 -0.37 -0.75 0 -29.83 0 -0.75 0 0 0.37 -23.23 0 -47.51 -57.17zm217.75 0l5.17 0 0 211.87 -10.43 0 -39.41 -46.39c0.37,-0.11 5.25,-0.21 5.61,-0.34 22.48,-7.26 38.83,-28.15 38.83,-52.6l0 0c0,-27.64 -20.86,-50.72 -47.87,-54.75l48.1 -57.79zm-50.2 211.87l-65.48 0 0 -13.5 0 -13.07 0 -96.42 52.16 0c15.45,0 28.11,9.73 28.11,23.66l0 0c0,13.92 -12.66,25.31 -28.11,25.31l-49.42 0 13.4 15.82 49.34 58.2zm-96.81 0l-65.49 0 49.34 -58.2 13.41 -15.82 -49.43 0c-15.46,0 -28.11,-11.39 -28.11,-25.31l0 0c0,-13.93 12.65,-23.66 28.11,-23.66l52.17 0 0 96.42 0 13.07 0 13.5z"/>
   <path class="fil1" d="M1466.17 291.84c1.36,-20.38 24.88,-55.08 50.5,-57.83 9.86,-7.87 51.8,-0.37 64.5,11.24 21.31,16.47 34.05,56.06 44.95,89.37 11.94,36.54 27.61,81 55.48,118.26 31.76,24.46 53.44,-17.81 66.52,36.22 2.95,7.2 1.06,20.36 5.4,22.87 4.33,2.5 14.88,-5.62 26.27,-4.59 29.99,-9.95 35.7,11.08 40.6,18.98 3.3,5.33 -0.97,15.72 4.88,19.09 12.88,7.42 35.19,5.3 48.3,4.71 12.5,-0.61 42.45,2.31 56.26,28 7.37,13.69 8.61,30.17 4.13,43.87 -3.99,12.09 -32.09,32.33 -46.62,36.27 -10.58,4.45 7.85,5.98 12.61,4.2 6,-2.25 14.23,-6.09 21.11,-9.09 21.32,-9.29 45.43,2.63 69.3,0.83 65.13,3.31 154.72,8.88 235.55,38.44 79.95,29.22 163.16,82.9 214.11,185.42 6.43,12.93 20.57,46.84 23.25,85.12 -15.67,-25.41 -34.96,-42.55 -59.65,-58.6 24.34,21.58 50.88,63.01 64.52,95.44 11.19,26.55 16.34,70.02 0.49,101.17 -2.42,42.12 14.8,61.37 22.21,102.71 0,0.04 -7.96,18.05 -5.61,42.28 2.85,29.26 19.22,66.45 17.36,76.84 36.61,-53.55 40.75,-53.16 19.89,-114.88 -3.03,-8.94 -32.8,-39.7 -28.66,-111.73 1.11,-19.5 2.23,-39.01 2.34,-59.06l0 -0.06 0 -5.21 0 -0.05c-0.14,-30.58 -3.96,-56.34 -11.17,-81.31 -7.19,-24.89 -17.63,-48.77 -31.05,-75.75 -54.38,-109.46 -136.44,-167.21 -221.95,-198.47 -84.6,-30.93 -171.77,-35.58 -238.59,-39 -27.35,-1.38 -33.57,-35.28 -43.16,-53.12 -21.54,-40.02 -49.6,-50.85 -72.04,-49.8 -18.15,0.84 -34.6,0.68 -44.73,-15.68 -5.97,-10.75 -11.27,-21.45 -30.44,-24.63 -15.05,-2.51 -30.84,7.32 -36.96,-8.95 -4.49,-11.97 -9.76,-26.02 -28.53,-34.66 -8.81,-4.03 -16.81,-6 -24.31,-7.86 -9.13,-2.22 -17.29,-4.23 -22.27,-9.9 -27.5,-31.31 -39.83,-69.01 -51.01,-103.19 -12.19,-37.27 -23.16,-70.74 -50.63,-91.97 -10.15,-7.84 -22.2,-13.17 -34.9,-15.81 -14.67,-3 -30.25,-2.36 -44.77,2.32 -14.71,4.72 -28.33,13.52 -38.92,26.74 -8.36,10.45 -14.77,23.65 -18.18,39.74l-1.84 13.44c-1.21,8.74 0.43,10.16 7.27,5.09 11.5,-8.5 19.14,-2.67 28.53,-10.61 8.73,7.08 8.51,25.02 20.57,18.94 3.92,-1.98 -5.76,-8.22 0.11,-19.47 11.63,-22.22 37.38,-19.03 43.07,-2.32 8.74,25.66 11.44,85.32 18.33,127.32 4.22,25.61 8.02,48.82 12.05,64.27l0 0.06 0.03 0.06c16.37,62.34 61.52,71.28 94.89,101.44 18.95,17.11 10.95,39.27 15.4,60.64 3.38,16.35 29.32,40.99 69.31,45.46 3.04,-1.19 -32.66,-20.48 -46.3,-36.53 -9.95,-11.72 -11.29,-26.42 -11.07,-31.38l0 -0.05c0.86,-18.23 -0.93,-30.09 -16.94,-44.57 -22.07,-19.92 -67.01,-45.26 -80.97,-68.12 -29.77,-48.7 -25.88,-122.55 -35.88,-178.12 -5.57,-30.87 -13.2,-54.97 -28.07,-61.45 -32.59,-14.22 -54.63,25.98 -74.87,16.97z"/>
   <path class="fil1" d="M2468.42 1098.72c-14.37,32.71 -25.45,90.61 -18.61,117.28 6.73,26.2 17.02,50.8 28.29,77.48l-0.01 0 0.05 0.12 0.05 0.05c5.02,11.95 6.9,25.48 7.35,38.64 0.17,5.17 1.28,12.91 -12.68,14.83 -0.09,3.03 12.9,6.4 13.5,9.36 2.11,10.54 7.69,20.52 10,29.27l1.5 5.65c4.2,15.21 -12.36,15.84 -16.39,15.7l-60.64 -5.04c-1.13,4.5 -33.16,9.4 -27.03,-12.34 2.68,-9.51 12.52,-20.59 26.47,-15.27 1.58,-7.28 -35.24,-12.9 -35.86,23.65 -0.1,6.87 -21.51,6.07 -21.49,-1.13 3.95,-26.31 11.08,-33.29 26.64,-26.89 1.24,-2.29 -5.62,-9.06 -4.71,-11.23 1.82,-4.32 11.31,-4.48 12.54,-9.36 -27.92,-24.22 6.73,-28.26 3.62,-35.86 -15.57,-38.02 -29.15,-62.57 -55.23,-88.35 -12.01,-11.82 -27.11,-25.83 -36.79,-42.08 -7.09,-11.91 -12.42,-26.95 -17.41,-59.85 -12.19,-37.9 -47.58,-150.67 -88.5,-163.77 4.97,5.8 11.19,15.69 17.45,27.32 2.99,5.55 5.99,11.53 8.86,17.64 12.45,26.47 22.43,55.6 18.91,66.26 -2.59,7.93 -7.02,19.09 -5.99,26.49 0.38,2.86 -6.49,11.96 -4.11,10.12 17.48,-13.37 37.38,11.69 37.18,25.28 3.91,57.78 8.25,42.22 63.82,100.91 12.28,12.94 18.15,27.9 26.34,42.28 8.41,14.72 11.21,36.29 8.86,55.76 -0.5,4.13 -1.23,8.08 -2.16,11.77 -0.9,3.59 -2.02,7.03 -3.36,10.2 -0.74,1.74 -1.46,3.26 -2.14,4.51l-2.26 4.16 -0.03 -0.02c-6.8,12.46 -11.7,21.44 -12.01,29.98 -0.59,16.27 9.45,23.25 38.28,24.27l93.32 3.34c23.55,0.84 31.11,-3.95 31.67,-18.94 0.18,-5.08 -1.17,-10.01 -3.01,-16.61 -0.84,-3.08 -1.17,-4.14 -1.49,-5.36 -2.04,-7.72 -8.21,-18.77 -7.84,-30.75 1.03,-33.49 -8.26,-61.08 -19.09,-88.82 -15.81,-40.52 -31.65,-75.17 -15.86,-160.65z"/>
   <path class="fil1" d="M2209.15 1164.63c-10.26,35.2 -27.59,84.88 -14.1,110.72 7.25,14.69 19.95,19.41 14.62,36.65l-0.02 -0.01c-5.39,11.13 -39.27,57.81 -24.43,67.07l-0.01 0.03c2.29,1.41 4.88,2.17 7.79,2.22 45.55,0.83 195.5,33.86 121.81,-55.99 -19.31,-30.89 10.13,-62.53 30.24,-84.3l-14.38 -15.55c-18.2,26.19 -46.86,64.82 -31.79,98.06 1.26,2.81 -9.51,3.57 -7.63,6.6 0.85,1.31 14.01,4.88 14.8,6.37 27.5,50.35 -44.48,34.68 -73.62,34.52 10.11,-9.55 9.1,-19.1 -0.13,-28.64 4.85,23.34 -18.33,32.67 -40.58,29.41 -8.53,-20.64 34.98,-35.33 41.41,-49.02 0,-0.02 -3.03,-22.38 -1.08,-22.95 38.54,-11.3 -3.34,-9.83 -8.71,-12.13 -43.09,-18.34 -3.78,-102.58 12.29,-127.26l-2.47 -1.59c-7.58,2.53 -15.86,6.75 -24.01,5.79z"/>
   <path class="fil1" d="M2278.99 1148.68c-38.49,8.81 -94.56,19.62 -140.47,0.78 -46.37,-19.02 -69.38,-35.01 -129.72,-78.22 -1.45,-1.04 -18.06,-16.58 -19.55,-17.65l-8.46 16.52c68.14,47.63 102.21,67.2 151.71,87.5 51.06,20.94 110.17,17.34 154.35,7.25l-7.86 -16.18z"/>
   <path class="fil0" d="M2249.72 1043.85c-10.98,111.85 -125.52,71.25 -210.73,29.79 46.72,41.15 179.8,86.52 225.54,8.35 0,0 -15.79,-39.1 -14.81,-38.14z"/>
   <path class="fil1" d="M2305.95 757.72c-68.77,-34.79 -135.24,-56.84 -211.97,-85.51 60.49,8.87 152.31,38.02 221.57,81.25 48.94,30.57 100.45,87.14 120.38,141.38 -33.22,-32.46 -59.02,-101.21 -129.98,-137.12z"/>
   <path class="fil1" d="M1848.06 822.35c-0.17,8.68 -22.36,87.62 -22.37,96.14 -0.17,82.59 6.9,159.16 28.65,236.74 1.98,7.14 9.63,34.54 14.74,61.19 7.2,37.64 7.59,66.65 -0.12,84.39 -18.69,14.63 -30.32,25.25 -31.78,38.05 -1.5,13.5 -2.89,19.84 4.2,23.28l0.88 -1.54 140.39 0c-1.18,2.68 -2.39,5.35 -3.59,8.01 9.37,-0.67 15.75,-2.56 16.98,-6.92 0.03,-0.11 5.19,-20.64 -6.37,-40.15 -10.5,-32.04 -11.4,-71.96 -6.85,-118.2 3.52,-35.97 4.04,-82.71 -1.51,-111.48 9.89,-6.45 24.07,-41.74 9.42,-107.17 -7.01,-31.32 0.24,-62.37 -1.13,-74.44 -10.09,23.63 -13.82,66.01 -8.22,104.52 2.91,20.05 3.04,33.78 -5.27,53.7 -15.74,23 -41.06,6.27 -38.87,-32.92 -14.42,54.45 21.89,58.95 32.98,59.94 5.52,28.5 1.95,117.05 -2.8,154.09 -0.85,10.04 -2.45,19.01 -3.2,27.95 -1.23,14.83 -15.81,20.21 -15.65,22.47 0.28,4.04 15.99,2.4 17.08,6.75 6.97,6.78 8.61,14.12 12.84,22.35 6.32,10.69 1.34,21.13 -3.13,25.74 -7.6,7.85 -54.9,3.27 -65.7,1.54 -44.68,-1.03 -28.35,-32.69 -15.07,-42.91 -10.89,2.92 -37.37,20.3 -20.01,40.34 -20.23,5.03 -25.53,1.54 -28.11,-5.3 7.17,-38.3 30.71,-27.57 37.09,-35.55 4.06,-5.1 5.86,-16.17 5.99,-30.62 0.13,-15.29 13.49,-18.14 9.68,-19.81 -10.66,-4.67 -11.41,-12.94 -11.86,-17.08 -2.46,-22.34 -6.77,-46.88 -11.73,-68.65 -2.24,-9.83 -4.58,-19.14 -6.88,-27.38 -2.37,-8.45 -4.68,-15.75 -6.83,-21.41l-0.05 -0.16 -0.03 -0.04c-13.62,-36.26 -23.3,-159.17 -18.32,-209.47l4.53 -95.99zm13.79 305.46l0 0 0 0z"/>
   <path class="fil1" d="M1796.27 832.59c-42.47,61.82 -82.51,131.93 -135.38,182.27 -26.16,24.93 -65.7,61.69 -71.02,85.25l-0.01 0.09 -0.05 0.06c-2.52,11.31 -2.15,28.17 -1.76,45.29 0.45,20.25 0.92,39.78 -0.33,45.88l-2.57 0.24 -0.05 0.09c-1.87,2.56 -3.48,5.21 -4.88,7.9 -1.38,2.63 -2.57,5.29 -3.56,7.9 -16.14,42.1 12.05,36.85 37.04,38.06 14.03,0.71 31.33,1.78 45.25,1.78 27.46,0 50.71,1.47 52.57,-9.55l0 -0.14 1.21 -2.93c4.51,-22.17 -8.92,-32.14 -16.26,-44.19 -2.95,-13.79 1.71,-39.53 6.71,-45.22l0.04 -0.05 0.04 -0.01 -0.02 0c0.77,-0.87 -0.15,-5.82 1.84,-7.7 20.19,-19.07 45.17,-43.15 67.26,-61.6 10.02,-8.33 25.56,-21.19 34.88,-22.98 9.2,-1.77 19.51,-2.67 32.36,2.29l8.24 -9.08c-17.65,-6.8 -32.55,-8.66 -46.76,-5.92 -14.09,2.71 -26.73,9.82 -40.07,20.95 -18.98,15.82 -38.58,40.64 -55.15,55.44 -3.11,2.77 -12.54,7.73 -15.14,10.19 -2.52,2.36 -5.72,0.27 -7.07,1.81l-0.05 0.05 -0.02 0.03 0 0c-5.5,6.32 3.15,22.01 2.12,34.92 -1.24,15.34 2.37,15.84 -6.95,33.86 12.11,5.87 23.95,12.23 20.48,29.28 -4.39,21.7 -58.19,10.86 -70.65,10.86 -18.95,7.03 -3.09,-13.73 -12.46,-19.84 -6.17,26.62 -22.42,14.5 -27.31,14.12 -16.93,-8.32 -1.03,-33.69 24.5,-37.67 -16.12,-13.36 -9.34,-25.71 0.6,-30.53 -16,-2.42 -15.99,-55.41 -1.24,-73.97 25.9,-32.58 38.56,-48.16 61.04,-69.58 7.43,-7.06 29.63,-36.69 38.36,-38.5 14.57,-3.03 15.52,28.2 19,9.99 2.83,-14.75 -3.6,-22.95 1.98,-37.49 14.25,-37.13 46.63,-79.14 66.02,-107.5l-2.78 -14.15z"/>
   <path class="fil0" d="M1751.48 788.88c0,0 39.22,14.55 43.36,48.4 4.16,33.85 38.69,90.17 38.69,90.17 10.56,-45.84 -30.26,-60.42 -27.97,-91.32 1.07,-14.48 -9.82,-31.17 -17.26,-37.95l-36.82 -9.3z"/>
   <path class="fil0" d="M1843.97 715.47c3.56,21.87 20.44,44.02 12.99,64.14 -20.3,54.79 -4.09,62.61 -8.66,93.07 -6.31,41.92 -7.62,61 28.12,33.07 19.34,-15.12 26.93,-43.78 72.46,-50.95 85.96,-13.54 92.68,-47.66 92.48,-47.85l-15.1 -12.87c-0.18,7.42 -3.72,-4.73 -5.73,0.68 -7.63,20.39 -26.56,28.17 -43.12,36.76 -37.36,19.44 -68.97,19.92 -115.21,65.51 -6.87,-27.7 -3.59,-60.02 5.04,-105.13 5,-26.32 -13.49,-44.97 -23.27,-76.43z"/>
   <path class="fil0" d="M1788.07 1286.95c-129.04,-99.02 -260.5,-45.93 -361.48,77.84 -4.1,5.03 -1.87,8.29 -5.89,13.57 104.5,-122.88 246.14,-189.22 368.38,-77.75 34.47,31.43 61.66,23.68 92.72,33.21 -43.81,-34.37 -61.93,-22.5 -93.73,-46.87z"/>
   <path class="fil0" d="M1882.7 1322.33c-30.13,-9.84 -54.71,45.83 -96.67,16.08 11.04,26.52 10.24,46.09 -0.02,71.11 -0.44,1.05 -14.71,-108.1 -107.81,-133.33 -93.54,-25.33 -179.82,20.65 -252.44,106.64 -3.53,4.17 -1.6,6.72 -5.06,11.09 77.24,-87.87 168.3,-135.21 264.78,-98.16 63.25,24.29 84.47,76.46 94.56,134.56 2.57,14.81 33.39,-34.05 17.67,-75.29 54,10.53 80.2,-31.11 84.99,-32.7z"/>
   <path class="fil0" d="M1427.23 1410.93c29.4,-39.41 97.93,-90.06 150.5,-99.51 45.83,-8.24 87.23,11.23 92.8,69.47 15.39,-8.36 23.65,4.89 40.45,-12.54 3.3,14.42 11.09,24.1 21.42,35.22 1.44,1.23 2.96,2.55 4.56,3.98l14.76 14.24c15.36,-26.74 16.68,-55.4 -13.75,-93.23 16.21,32.46 20.93,58.05 8.53,67.68 -15.41,-3.25 -26.28,-21.37 -34.09,-43.25 -9.69,16.75 -22.95,10.46 -35.49,15.36 -8.66,-56.72 -54.04,-72.96 -100.06,-64.66 -49.37,8.9 -128.59,61.96 -148.2,103.04 0,0 0.7,4.9 -1.43,4.2z"/>
   <path class="fil1" d="M1453.13 1409.83c1.18,0.69 55.63,-17.37 100.24,-17.44 34.55,-0.03 31.6,28.69 68.29,36.06 11.77,2.38 26.82,3.08 37.82,-2.38 17.75,-8.78 21.86,-29.1 -0.51,-36.47 -15.01,-4.93 -24.97,5.22 -25.22,21.08 -14.7,-1.94 -11.85,-40.73 24.89,-34.44 19.87,5.44 26.27,23.02 21.39,38.09 -8.57,8.01 -17.47,15.71 -26.69,23.02 -10.03,2.11 -21.71,1.14 -31.42,-0.86 -32.89,-6.78 -34.72,-30.42 -68.96,-33.08 -30.56,-2.38 -65.41,4.5 -84.41,8.98 -6.59,1.57 7.14,7.05 -7.66,-0.39l-7.76 -2.17z"/>
   <path class="fil0" d="M1442.77 1402.9c32.58,-25.7 67.84,-50.94 113.31,-52.09 22.58,-0.57 55.31,2.23 69.15,42.3 1.44,4.15 3.76,9.55 7.29,14.72 2.7,3.93 7.05,7.14 9.92,6.31 -12.36,6.64 -16.8,-1.53 -19.58,-8.43 -14.44,-35.6 -33.77,-47.23 -67.23,-46.79 -45.2,0.57 -81.87,23.45 -112.38,51.29l-0.48 -7.31z"/>
   <path class="fil0" d="M1580.22 1408.89c16.6,16.9 16.73,39.68 8.57,52.3 -14.23,21.96 -51.15,20.3 -52.46,-4.93 -3.71,-21.82 31.22,-34.7 35.66,-6.78 2.23,-12.55 -6.12,-22.5 -16.91,-24.84 -24.82,-5.39 -38.79,18.79 -29.99,39.84 11.99,28.73 48.71,26.31 64.28,11.82 17.35,-16.14 19.05,-46.39 -9.15,-67.41z"/>
   <path class="fil0" d="M1422.76 1455.69c-3.53,0.69 -7.5,-2.75 -7.62,-4.16 -3.66,-37.05 15.16,-133.26 51.45,-148.91 -19.63,-12.72 -31.25,-2.6 -41.89,9.51 -12.84,14.64 -19.68,74.67 -22.23,76.68 0,-4.34 9.85,-51.86 6.92,-86.45 -1.18,-13.89 -11.23,-29.83 -22.11,-38.2l0 -8.34c19.31,12.09 31.1,25.88 31.1,45.61 19.07,-13.09 33.72,-19.44 64.02,-2.2 -38.31,20.88 -72.11,119.71 -59.64,156.46z"/>
   <path class="fil0" d="M2399.16 1558.73c-161.76,107.79 -326.52,49.98 -453.07,-84.76 -5.16,-5.48 -2.35,-9.04 -7.4,-14.78 130.99,133.8 306.41,203.92 459.6,82.57 43.2,-34.22 74.63,-16.92 100.31,10.25 -41.12,-12.1 -59.61,-19.84 -99.44,6.72z"/>
   <path class="fil0" d="M2497.08 1551.22c-8.63,-35.03 -20.33,-72.08 -86.15,-51.75 13.81,-26.49 11.67,-28.97 16.56,-57.21 0.1,-0.61 -18.43,26.35 -56.05,58.04 -27.46,23.14 -64.75,51.01 -113.93,61.7 -98.7,21.44 -208.04,-16.45 -296.45,-92.81 -8.39,-7.25 -16.35,-14.69 -24.14,-22.23 0.77,-1.22 1.55,-2.45 2.33,-3.68 8.16,7.82 16.57,15.52 25.66,22.88 91.24,74.08 197.44,115.2 307.63,81.46 33.43,-10.25 65.01,-32.08 89.8,-55.66 33.95,-32.34 58.39,-66.52 86.65,-65.31 -12.98,30.73 -6.03,32.58 -17.49,57 67.69,-10.54 72.29,49.29 65.58,67.57z"/>
   <path class="fil0" d="M2420.01 1443.73c-7.29,-11.32 -31.06,9.99 -43.72,14.25 12.7,-26.51 -7.7,-32.41 -23.79,-36.17 -1.38,-0.3 -14.11,76.26 -121.27,101.58 -93,21.98 -196.3,-22.15 -278.61,-102.68 0.73,-1.29 1.44,-2.59 2.17,-3.9 85.62,78.51 186.64,124.95 290.95,90.19 72.87,-24.28 94.89,-72.81 104.65,-100.93 14.9,1.46 43.89,16.51 33.37,40.93 24.01,-20.2 50.92,-21.62 59.3,-18.68l-23.05 15.41z"/>
   <path class="fil0" d="M1968.31 1391.59c30.25,13.73 76.69,23.17 109.49,17.21 43.52,-7.94 71.51,-40.2 63.4,-72.67 11.26,0.14 40.16,5.13 35.98,44.48 -2.43,-15.75 -12.05,-34.46 -26.57,-34.19 7.54,28.3 -23.13,60.49 -75.15,68.96 -32.66,5.32 -77.58,-3.2 -107.76,-18.57 -0.78,-0.31 -1.31,-0.67 -1.68,-1.03 0.7,-1.4 1.43,-2.8 2.14,-4.23 0.05,0.01 0.11,0.02 0.15,0.04z"/>
   <path class="fil0" d="M1991.2 1450.03c15.82,9.64 39.58,23.03 58.28,29.32 47.13,15.83 108.84,4.78 133.97,0.05 10,-1.87 22.66,8.09 27.33,17.37 9.72,-1.78 25.04,-28.5 -0.77,-53.42 -7.79,2.05 -11.42,2.17 -11.96,3.59 5.57,2.08 10.07,3.89 13.76,7.89 8.73,9.46 8.35,22.43 -1.89,25.3 -16.76,-19.01 -38.4,-10.21 -59.64,-4.26 -27.58,7.75 -68.06,8.44 -100.2,-0.87 -20.01,-5.81 -41.43,-19.13 -59.45,-28.28 -3.22,2.06 -0.47,2.66 0.57,3.31z"/>
   <path class="fil0" d="M2209.48 1445.26c24.56,-6.01 32.36,-37.31 45.73,-45.3 -30.49,-29.48 -93.32,39.88 -152.14,42.24 -41.79,1.69 -92.17,-9.94 -141.58,-37.68 -0.95,1.78 -1.9,3.56 -2.87,5.32 79.86,46.69 175.84,53.56 250.44,3.61 9.05,-6.04 18.16,-11.27 28.34,-10.53 -15.62,16.95 -11.01,26.21 -40.43,43.75l12.51 -1.41z"/>
   <path class="fil0" d="M2153.75 1401.5c16.87,-11.76 20.96,-18.21 58.97,1l10.85 -7.29c-35.65,-17.52 -46.71,-20.59 -69.82,6.29z"/>
   <path class="fil0" d="M2334.73 1417.45c44.93,-27.97 180.96,24.18 274.84,-11.55 -39.96,71.92 -92.87,85.42 -183.82,52.43 -1.22,-0.42 3.56,-14.44 2.33,-14.9 -1.92,-0.71 -10.76,11.66 -12.76,10.99 -5.07,-1.68 5.8,-13.97 0.14,-16.4 -2.3,-0.98 -20.94,8.13 -23.32,7.05 -3.49,-1.56 -7.05,-3.22 -10.66,-4.92 -0.8,-1.18 6.72,-7.11 -24.9,-27.87 -3,-1.98 -4.43,13.94 -7.79,12.26 -4.6,-2.28 -9.28,-4.66 -14.06,-7.09zm46.83 8.34c31.11,-14.15 136.01,16.23 201.04,-1.85 -28.71,44.45 -84.42,35.31 -201.04,1.85z"/>
   <path class="fil0" d="M2172.88 1372.67c32.5,-23.95 130.93,20.72 198.85,-9.88 -29.99,75.17 -77.04,66.42 -198.85,9.88zm32.71 7.5c22.52,-12.13 99.56,13.56 146.63,-1.93 -20.77,38.07 -62.24,30.57 -146.63,1.93z"/>
   <path class="fil0" d="M1909.91 1486.44c-4.87,93.93 -24.68,158.9 -87.66,254.83 -10.74,16.37 -9.07,25.71 -11.71,53.39 -30.59,2.41 -63.13,-11.61 -59.35,-42.51 -20.68,10.52 -49.98,27.75 -74.14,12.75 1.15,-30.72 17.82,-48.99 39.99,-67.91 -6.49,-1.25 -11.8,-8.55 -17.05,-23.58 9.02,-2.61 31.03,-4.75 53.15,-14.89 33.32,-15.3 71.2,-43.52 89.92,-95.12 2.95,-2.93 5.9,-5.86 8.81,-8.85 -4.49,55.71 -53.64,98.44 -91.15,114.96 -19.92,8.77 -43.6,8.17 -48.84,10.55 4.04,10 12.4,13.4 22.05,13.06 -20.73,19.24 -41.74,37.34 -42.03,65.25 25.34,4.96 52.53,-11.3 76.5,-31.95 -22.46,52.11 11.7,53.85 30.33,59.09 -0.5,-19.87 4.78,-43.08 13.38,-55.65 61.13,-89.53 82.59,-158.88 87.77,-230.2 3.41,-4.36 6.73,-8.77 10.03,-13.22z"/>
   <path class="fil0" d="M1744.74 1720.74c66.2,-34.7 122.64,-90.08 137.5,-199.46 -3.92,4.61 -7.89,9.17 -11.93,13.65 -6.96,91.62 -64.55,142.88 -125.57,185.81z"/>
   <path class="fil0" d="M1990.95 1568.73c-4.32,21.61 6.25,39.84 18.18,45.9 20.76,10.55 47.18,-8.86 36.35,-29.62 -7.49,-19.22 -39.28,-12.39 -29.46,12.06 -7.53,-8.92 -6.03,-20.95 0.82,-28.09 15.77,-16.47 37.39,-4.01 40.76,17.09 4.62,28.78 -23.57,44.83 -41.83,40.89 -20.35,-4.38 -35.77,-27.66 -24.82,-58.23z"/>
   <path class="fil0" d="M1934.19 1451.23c15.25,16.14 39.8,45.97 52.69,82.27 5.69,16.04 6.73,33.38 5.62,51.72 -1.23,20.16 -5.75,37.73 -9.56,57.24 -2.7,13.77 -2.6,29.08 11.94,36.89 -16.27,-2.96 -19.76,-13.59 -19.99,-24.63 -0.37,-20.34 2.46,-41.47 3.4,-61.83 0.85,-18.42 1,-35.84 -1.69,-48.86 -8.45,-40.99 -24.26,-65.59 -43.73,-90.72 0.45,-0.69 0.89,-1.39 1.32,-2.08z"/>
   <path class="fil0" d="M1917.57 1475.85c5.58,10.41 11.4,24.08 12.58,37.28 1.65,18.68 -7.38,58.42 -17.42,72.82 -4.22,6.07 -0.55,-11.06 -0.63,-11.69 0.98,-2.91 1.87,-5.77 2.72,-8.59 10.75,-35.99 10.43,-64.86 1.65,-88.26l1.1 -1.56z"/>
   <path class="fil0" d="M1898.48 1586.76c12.33,10.09 20.12,14.42 32.9,11.61 -8.26,3.97 -16.74,11.8 -20.68,29 7.95,1.86 29.29,10.07 38.59,2.16 -1.27,17.37 5.08,35.59 14.94,47.17 9.87,11.59 22.52,18.44 32.29,16.8 -1.45,-0.63 -2.23,-6.14 -3.9,-6.25 -19.55,-1.42 -25.5,-9.45 -30.08,-24.78 -4.27,-14.26 -0.66,-35.54 4.76,-60.83 -16.11,24.16 -32.67,21.45 -42.15,16.25 5.56,-18.79 15.14,-17.26 24.23,-36.95 -12.58,1.56 -24.71,14.68 -37.74,4.67 4.52,-7.98 9.93,-25.29 6.73,-33.27 -6.62,22.83 -13.7,30.59 -19.89,34.42z"/>
   <path class="fil0" d="M1940.66 1500.21c9.91,22.53 19,55.01 7.59,82.74 -2.5,6.06 -14.15,20.17 -14.24,19.52 0.98,-2.9 2.88,-14.67 4.83,-17.49 12.96,-18.84 10.14,-56.94 0.04,-85.39l1.78 0.62z"/>
   <path class="fil0" d="M1983.03 1508.95c14.92,13.43 36.2,30.94 37.11,55.14 0.22,5.31 -7.23,23.09 -7.51,22.63 -0.26,-2.46 -2.83,-11.77 -2.34,-14.51 3.21,-18.15 -11.73,-45.39 -28.8,-63.12l1.54 -0.14z"/>
   <path class="fil0" d="M1960.69 1636.03c-32.01,-32.42 -56.51,32 -94.74,15.78 24.51,56.88 74,30.08 94.74,-15.78zm-12.46 4.67c-14.63,-11.1 -48.89,28.62 -71.61,20.01 32.63,27.53 61.83,3.12 71.61,-20.01z"/>
   <path class="fil0" d="M1992.16 1351.84c-0.9,2.63 27.59,0.87 24.92,27.14 -2.68,26.25 18.69,34.12 18.69,34.12l-41.83 -9.63 -26.73 -10.04c3.57,-7.05 7.01,-14.2 10.32,-21.41 7.47,-10.75 15.08,-21.53 14.63,-20.18z"/>
   <path class="fil0" d="M1417.06 1427.55c0.66,0.68 2.31,5.51 2.82,4.47 21.34,-44.86 63.62,-13.24 48.84,14.17 -8.03,14.88 -32.89,14.75 -34.96,-1.12 -2.39,-14.14 19.83,-20.59 22.7,-2.5 1.46,-8.14 -3.97,-14.57 -10.94,-16.1 -16.09,-3.48 -25.14,12.19 -19.44,25.84 7.76,18.6 35.17,18.36 45.53,6.37 21,-24.3 6.35,-54.43 -24.2,-55.56 -25.33,-0.95 -28.84,25.56 -30.35,24.43z"/>
   <path class="fil0" d="M1491.91 1495.54c-11,-5.13 -21.45,5.12 -6.35,8.07 23.88,4.64 40.19,-19.06 29.22,-37.22 -7.38,-12.25 -29.05,-13.43 -32.86,3.83 -2.4,14.14 21.58,18.17 24.46,0.08 1.46,8.13 -3.27,15.61 -14.1,17.48 -16.25,2.77 -26.55,-12.89 -20.86,-26.52 7.77,-18.6 35.2,-18.36 45.54,-6.38 20.98,24.3 7.56,55.9 -25.17,55.26 -51.28,-1 -12.41,-34.6 0.12,-14.6z"/>
   <path class="fil0" d="M1386.58 1450.38c49.21,0 89.11,25.78 89.11,57.56 0,2.22 -0.19,4.39 -0.55,6.53 -3.84,0.82 -7.7,1.57 -11.56,2.29 0.38,-1.91 0.58,-3.85 0.58,-5.81 0,-26.85 -37.08,-52.27 -77.17,-52.27 -40.09,0 -77.6,25.02 -77.6,51.86 0,2.14 0.25,4.26 0.68,6.32 -4.03,-0.72 -8.05,-1.53 -12.05,-2.38 -0.38,-2.13 -0.58,-4.32 -0.58,-6.54 0,-31.78 39.92,-57.56 89.14,-57.56z"/>
   <path class="fil1" d="M1308.4 291.84c-1.38,-20.38 -24.87,-55.08 -50.51,-57.83 -9.85,-7.87 -51.81,-0.37 -64.49,11.24 -21.31,16.47 -34.05,56.06 -44.95,89.37 -11.94,36.54 -27.62,81 -55.49,118.26 -31.74,24.46 -53.44,-17.81 -66.52,36.22 -2.95,7.2 -1.07,20.36 -5.38,22.87 -4.34,2.5 -14.9,-5.62 -26.29,-4.59 -29.98,-9.95 -35.7,11.08 -40.59,18.98 -3.29,5.33 0.97,15.72 -4.88,19.09 -12.88,7.42 -35.2,5.3 -48.29,4.71 -12.52,-0.61 -42.46,2.31 -56.27,28 -7.36,13.69 -8.61,30.17 -4.12,43.87 3.97,12.09 32.07,32.33 46.6,36.27 10.6,4.45 -7.84,5.98 -12.6,4.2 -6.02,-2.25 -14.23,-6.09 -21.11,-9.09 -21.31,-9.29 -45.44,2.63 -69.3,0.83 -65.13,3.31 -154.72,8.88 -235.55,38.44 -79.95,29.22 -163.16,82.9 -214.11,185.42 -6.42,12.93 -20.57,46.84 -23.26,85.12 15.68,-25.41 34.97,-42.55 59.66,-58.6 -24.34,21.58 -50.89,63.01 -64.53,95.44 -11.19,26.55 -16.33,70.02 -0.47,101.17 2.41,42.12 -14.83,61.37 -22.22,102.71 0,0.04 7.96,18.05 5.6,42.28 -2.83,29.26 -19.21,66.45 -17.35,76.84 -36.61,-53.55 -40.77,-53.16 -19.89,-114.88 3.03,-8.94 32.79,-39.7 28.67,-111.73 -1.12,-19.5 -2.23,-39.01 -2.35,-59.06l0 -0.06 0 -5.21 0 -0.05c0.12,-30.58 3.95,-56.34 11.18,-81.31 7.18,-24.89 17.61,-48.77 31.03,-75.75 54.39,-109.46 136.45,-167.21 221.95,-198.47 84.6,-30.93 171.77,-35.58 238.6,-39 27.35,-1.38 33.57,-35.28 43.16,-53.12 21.52,-40.02 49.6,-50.85 72.03,-49.8 18.15,0.84 34.61,0.68 44.74,-15.68 5.96,-10.75 11.27,-21.45 30.43,-24.63 15.06,-2.51 30.85,7.32 36.96,-8.95 4.49,-11.97 9.76,-26.02 28.53,-34.66 8.83,-4.03 16.83,-6 24.33,-7.86 9.11,-2.22 17.29,-4.23 22.27,-9.9 27.49,-31.31 39.82,-69.01 51.01,-103.19 12.18,-37.27 23.13,-70.74 50.62,-91.97 10.14,-7.84 22.21,-13.17 34.89,-15.81 14.68,-3 30.25,-2.36 44.79,2.32 14.7,4.72 28.33,13.52 38.9,26.74 8.37,10.45 14.78,23.65 18.2,39.74l1.84 13.44c1.2,8.74 -0.45,10.16 -7.29,5.09 -11.49,-8.5 -19.15,-2.67 -28.52,-10.61 -8.75,7.08 -8.51,25.02 -20.56,18.94 -3.92,-1.98 5.75,-8.22 -0.12,-19.47 -11.63,-22.22 -37.38,-19.03 -43.07,-2.32 -8.74,25.66 -11.46,85.32 -18.33,127.32 -4.21,25.61 -8.02,48.82 -12.05,64.27l0 0.06 -0.03 0.06c-16.38,62.34 -61.52,71.28 -94.89,101.44 -18.96,17.11 -10.96,39.27 -15.4,60.64 -3.39,16.35 -29.34,40.99 -69.3,45.46 -3.04,-1.19 32.66,-20.48 46.28,-36.53 9.96,-11.72 11.31,-26.42 11.08,-31.38l0 -0.05c-0.86,-18.23 0.92,-30.09 16.95,-44.57 22.05,-19.92 66.99,-45.26 80.95,-68.12 29.78,-48.7 25.89,-122.55 35.9,-178.12 5.56,-30.87 13.19,-54.97 28.06,-61.45 32.59,-14.22 54.63,25.98 74.87,16.97z"/>
   <path class="fil1" d="M306.15 1098.72c14.37,32.71 25.45,90.61 18.61,117.28 -6.75,26.2 -17.04,50.8 -28.3,77.48l0.03 0 -0.05 0.12 -0.06 0.05c-5.02,11.95 -6.9,25.48 -7.34,38.64 -0.18,5.17 -1.29,12.91 12.66,14.83 0.11,3.03 -12.88,6.4 -13.49,9.36 -2.13,10.54 -7.7,20.52 -9.99,29.27l-1.5 5.65c-4.21,15.21 12.34,15.84 16.37,15.7l60.65 -5.04c1.12,4.5 33.15,9.4 27.02,-12.34 -2.68,-9.51 -12.5,-20.59 -26.47,-15.27 -1.57,-7.28 35.24,-12.9 35.86,23.65 0.12,6.87 21.51,6.07 21.5,-1.13 -3.94,-26.31 -11.09,-33.29 -26.64,-26.89 -1.25,-2.29 5.63,-9.06 4.71,-11.23 -1.83,-4.32 -11.31,-4.48 -12.54,-9.36 27.92,-24.22 -6.74,-28.26 -3.63,-35.86 15.56,-38.02 29.14,-62.57 55.24,-88.35 12,-11.82 27.09,-25.83 36.79,-42.08 7.09,-11.91 12.42,-26.95 17.4,-59.85 12.2,-37.9 47.58,-150.67 88.51,-163.77 -4.98,5.8 -11.19,15.69 -17.45,27.32 -2.99,5.55 -5.99,11.53 -8.86,17.64 -12.44,26.47 -22.42,55.6 -18.92,66.26 2.6,7.93 7.03,19.09 5.99,26.49 -0.38,2.86 6.5,11.96 4.12,10.12 -17.49,-13.37 -37.38,11.69 -37.18,25.28 -3.92,57.78 -8.27,42.22 -63.84,100.91 -12.26,12.94 -18.13,27.9 -26.32,42.28 -8.4,14.72 -11.2,36.29 -8.85,55.76 0.49,4.13 1.22,8.08 2.13,11.77 0.91,3.59 2.04,7.03 3.39,10.2 0.72,1.74 1.45,3.26 2.12,4.51l2.27 4.16 0.01 -0.02c6.81,12.46 11.71,21.44 12.02,29.98 0.61,16.27 -9.44,23.25 -38.28,24.27l-93.32 3.34c-23.54,0.84 -31.11,-3.95 -31.66,-18.94 -0.19,-5.08 1.18,-10.01 3,-16.61 0.85,-3.08 1.18,-4.14 1.5,-5.36 2.03,-7.72 8.21,-18.77 7.84,-30.75 -1.03,-33.49 8.25,-61.08 19.09,-88.82 15.8,-40.52 31.65,-75.17 15.86,-160.65z"/>
   <path class="fil1" d="M565.42 1164.63c14.68,34.95 33.91,84.54 14.11,110.72 -7.25,14.69 -19.96,19.41 -14.63,36.65l0.01 -0.01c5.41,11.13 39.29,57.81 24.43,67.07l0.02 0.03c-2.29,1.41 -4.88,2.17 -7.81,2.22 -45.54,0.83 -195.47,33.86 -121.79,-55.99 19.29,-30.89 -10.14,-62.53 -30.24,-84.3l14.39 -15.55c18.19,26.19 46.84,64.82 31.78,98.06 -1.27,2.81 9.49,3.57 7.61,6.6 -0.83,1.31 -13.98,4.88 -14.79,6.37 -27.5,50.35 44.49,34.68 73.64,34.52 -10.11,-9.55 -9.1,-19.1 0.1,-28.64 -4.84,23.34 18.36,32.67 40.59,29.41 8.55,-20.64 -34.98,-35.33 -41.41,-49.02 0,-0.02 3.02,-22.38 1.08,-22.95 -38.54,-11.3 3.34,-9.83 8.71,-12.13 43.08,-18.34 3.79,-102.58 -12.29,-127.26l2.48 -1.59c7.59,2.53 15.86,6.75 24.01,5.79z"/>
   <path class="fil1" d="M491.09 1156.45c38.49,8.81 99.05,11.85 144.95,-6.99 46.36,-19.02 69.39,-35.01 129.73,-78.22 1.44,-1.04 18.06,-16.58 19.54,-17.65l8.45 16.52c-68.12,47.63 -102.21,67.2 -151.68,87.5 -51.06,20.94 -110.18,17.34 -154.35,7.25l3.36 -8.41z"/>
   <path class="fil0" d="M524.85 1043.85c9.1,110.33 115.79,63.56 210.71,29.79 -46.69,41.15 -179.79,86.52 -225.53,8.35 0,0 15.8,-39.1 14.82,-38.14z"/>
   <path class="fil1" d="M468.62 757.72c68.77,-34.79 135.23,-56.84 211.97,-85.51 -60.49,8.87 -152.32,38.02 -221.58,81.25 -48.94,30.57 -100.44,87.14 -120.38,141.38 33.23,-32.46 59.04,-101.21 129.99,-137.12z"/>
   <path class="fil1" d="M926.51 822.35c0.17,8.68 22.35,87.62 22.37,96.14 0.17,82.59 -6.91,159.16 -28.65,236.74 -1.99,7.14 -9.63,34.54 -14.74,61.19 -7.21,37.64 -7.59,66.65 0.12,84.39 18.69,14.63 30.32,25.25 31.76,38.05 1.6,14.17 3.05,20.45 -5.31,23.79 -0.39,-0.7 -0.79,-1.38 -1.2,-2.05l-140.37 0c1.17,2.64 2.36,5.26 3.55,7.89 -8.56,-0.76 -14.35,-2.67 -15.51,-6.8 -0.05,-0.11 -5.19,-20.64 6.37,-40.15 10.5,-32.04 11.41,-71.96 6.85,-118.2 -3.53,-35.97 -4.05,-82.71 1.51,-111.48 -9.9,-6.45 -24.08,-41.74 -9.43,-107.17 7.02,-31.32 -0.23,-62.37 1.13,-74.44 10.1,23.63 13.84,66.01 8.23,104.52 -2.91,20.05 -3.04,33.78 5.26,53.7 15.73,23 41.06,6.27 38.87,-32.92 14.44,54.45 -21.88,58.95 -32.95,59.94 -5.54,28.5 -1.96,117.05 2.79,154.09 0.83,10.04 2.43,19.01 3.19,27.95 1.23,14.83 15.8,20.21 15.64,22.47 -0.27,4.04 -16,2.4 -17.09,6.75 -6.95,6.78 -8.59,14.12 -12.81,22.35 -6.34,10.69 -1.35,21.13 3.11,25.74 7.59,7.85 54.92,3.27 65.71,1.54 44.68,-1.03 28.35,-32.69 15.06,-42.91 10.88,2.92 37.37,20.3 20.02,40.34 20.22,5.03 25.53,1.54 28.11,-5.3 -7.17,-38.3 -30.7,-27.57 -37.09,-35.55 -4.06,-5.1 -5.85,-16.17 -6,-30.62 -0.13,-15.29 -13.49,-18.14 -9.68,-19.81 10.65,-4.67 11.43,-12.94 11.88,-17.08 2.46,-22.34 6.77,-46.88 11.72,-68.65 2.23,-9.83 4.59,-19.14 6.89,-27.38 2.36,-8.45 4.67,-15.75 6.83,-21.41l0.05 -0.16 0.01 -0.04c13.64,-36.26 23.31,-159.17 18.34,-209.47l-4.54 -95.99zm-13.8 305.46l0.02 0 -0.02 0z"/>
   <path class="fil1" d="M978.29 832.59c42.48,61.82 82.53,131.93 135.39,182.27 26.17,24.93 65.7,61.69 71.01,85.25l0.02 0.09 0.05 0.06c2.53,11.31 2.16,28.17 1.76,45.29 -0.46,20.25 -0.91,39.78 0.34,45.88l2.56 0.24 0.05 0.09c1.85,2.56 3.48,5.21 4.88,7.9 1.39,2.63 2.57,5.29 3.57,7.9 16.14,42.1 -12.06,36.85 -37.05,38.06 -14.03,0.71 -31.35,1.78 -45.26,1.78 -27.48,0 -50.7,1.47 -52.56,-9.55l-0.02 -0.14 -1.19 -2.93c-4.53,-22.17 8.91,-32.14 16.27,-44.19 2.93,-13.79 -1.74,-39.53 -6.72,-45.22l-0.06 -0.05 -0.02 -0.01 0 0c-0.76,-0.87 0.17,-5.82 -1.83,-7.7 -20.2,-19.07 -45.17,-43.15 -67.27,-61.6 -10,-8.33 -25.54,-21.19 -34.87,-22.98 -9.19,-1.77 -19.51,-2.67 -32.35,2.29l-8.24 -9.08c17.64,-6.8 32.56,-8.66 46.76,-5.92 14.08,2.71 26.73,9.82 40.06,20.95 18.97,15.82 38.59,40.64 55.16,55.44 3.11,2.77 12.54,7.73 15.12,10.19 2.54,2.36 5.74,0.27 7.07,1.81l0.07 0.05 0.01 0.03 0 0c5.49,6.32 -3.16,22.01 -2.11,34.92 1.24,15.34 -2.37,15.84 6.93,33.86 -12.09,5.87 -23.92,12.23 -20.45,29.28 4.36,21.7 58.17,10.86 70.63,10.86 18.96,7.03 3.1,-13.73 12.46,-19.84 6.18,26.62 22.42,14.5 27.32,14.12 16.92,-8.32 1.03,-33.69 -24.5,-37.67 16.1,-13.36 9.34,-25.71 -0.61,-30.53 16.01,-2.42 15.99,-55.41 1.23,-73.97 -25.87,-32.58 -38.56,-48.16 -61.03,-69.58 -7.41,-7.06 -29.61,-36.69 -38.36,-38.5 -14.56,-3.03 -15.51,28.2 -18.99,9.99 -2.82,-14.75 3.6,-22.95 -1.99,-37.49 -14.26,-37.13 -46.62,-79.14 -66.01,-107.5l2.77 -14.15z"/>
   <path class="fil0" d="M1023.08 788.88c0,0 -39.23,14.55 -43.36,48.4 -4.15,33.85 -38.69,90.17 -38.69,90.17 -10.55,-45.84 30.27,-60.42 27.96,-91.32 -1.04,-14.48 9.82,-31.17 17.27,-37.95l36.82 -9.3z"/>
   <path class="fil0" d="M930.6 715.47c-3.55,21.87 -20.45,44.02 -12.99,64.14 20.29,54.79 4.08,62.61 8.66,93.07 6.31,41.92 7.63,61 -28.12,33.07 -19.34,-15.12 -26.92,-43.78 -72.46,-50.95 -85.96,-13.54 -92.68,-47.66 -92.47,-47.85l15.09 -12.87c0.16,7.42 3.72,-4.73 5.74,0.68 7.62,20.39 26.55,28.17 43.11,36.76 37.37,19.44 68.97,19.92 115.18,65.51 6.89,-27.7 3.6,-60.02 -5.01,-105.13 -5,-26.32 13.49,-44.97 23.27,-76.43z"/>
   <path class="fil0" d="M986.51 1286.95c129.03,-99.02 260.48,-45.93 361.46,77.84 4.11,5.03 1.88,8.29 5.9,13.57 -104.51,-122.88 -246.16,-189.22 -368.38,-77.75 -34.47,31.43 -61.67,23.68 -92.71,33.21 43.81,-34.37 61.92,-22.5 93.73,-46.87z"/>
   <path class="fil0" d="M891.87 1322.33c30.13,-9.84 54.7,45.83 96.66,16.08 -11.03,26.52 -10.24,46.09 0.04,71.11 0.42,1.05 14.7,-108.1 107.79,-133.33 93.54,-25.33 179.84,20.65 252.44,106.64 3.54,4.17 1.61,6.72 5.07,11.09 -77.25,-87.87 -168.3,-135.21 -264.78,-98.16 -63.26,24.29 -84.46,76.46 -94.55,134.56 -2.58,14.81 -33.39,-34.05 -17.69,-75.29 -53.99,10.53 -80.18,-31.11 -84.98,-32.7z"/>
   <path class="fil0" d="M1347.34 1410.93c-29.41,-39.41 -97.94,-90.06 -150.5,-99.51 -45.85,-8.24 -87.23,11.23 -92.81,69.47 -15.37,-8.36 -23.66,4.89 -40.46,-12.54 -2.83,12.52 -9.07,21.47 -17.45,30.91 -2.95,2.22 -6.23,4.97 -9.94,8.29l-13.84 13.35c-14.88,-26.49 -15.83,-54.93 14.26,-92.34 -16.22,32.46 -20.95,58.05 -8.52,67.68 15.38,-3.25 26.27,-21.37 34.07,-43.25 9.71,16.75 22.95,10.46 35.49,15.36 8.67,-56.72 54.05,-72.96 100.08,-64.66 49.34,8.9 128.57,61.96 148.2,103.04 0,0 -0.73,4.9 1.42,4.2z"/>
   <path class="fil1" d="M1321.44 1409.83c-1.18,0.69 -55.64,-17.37 -100.24,-17.44 -34.55,-0.03 -31.6,28.69 -68.28,36.06 -11.8,2.38 -26.82,3.08 -37.83,-2.38 -17.74,-8.78 -21.85,-29.1 0.52,-36.47 15.01,-4.93 24.97,5.22 25.21,21.08 14.71,-1.94 11.85,-40.73 -24.88,-34.44 -20.76,5.68 -26.84,24.62 -20.68,40.1 7.73,7.13 15.7,13.98 23.96,20.54 10.42,2.72 23.07,1.76 33.42,-0.39 32.9,-6.78 34.72,-30.42 68.97,-33.08 30.56,-2.38 65.41,4.5 84.4,8.98 6.59,1.57 -7.14,7.05 7.68,-0.39l7.75 -2.17z"/>
   <path class="fil0" d="M1331.79 1402.9c-32.59,-25.7 -67.84,-50.94 -113.31,-52.09 -22.56,-0.57 -55.31,2.23 -69.14,42.3 -1.45,4.15 -3.76,9.55 -7.31,14.72 -2.68,3.93 -7.03,7.14 -9.9,6.31 12.35,6.64 16.8,-1.53 19.59,-8.43 14.43,-35.6 33.77,-47.23 67.23,-46.79 45.19,0.57 81.87,23.45 112.37,51.29l0.47 -7.31z"/>
   <path class="fil0" d="M1194.34 1408.89c-16.59,16.9 -16.72,39.68 -8.56,52.3 14.22,21.96 51.15,20.3 52.46,-4.93 3.71,-21.82 -31.22,-34.7 -35.66,-6.78 -2.23,-12.55 6.12,-22.5 16.9,-24.84 24.84,-5.39 38.8,18.79 30,39.84 -12,28.73 -48.72,26.31 -64.28,11.82 -17.36,-16.14 -19.06,-46.39 9.14,-67.41z"/>
   <path class="fil0" d="M1351.79 1455.69c3.54,0.69 7.52,-2.75 7.65,-4.16 3.65,-37.05 -15.17,-133.26 -51.48,-148.91 19.64,-12.72 31.27,-2.6 41.9,9.51 12.86,14.64 19.67,74.67 22.24,76.68 0,-4.34 -9.86,-51.86 -6.92,-86.45 1.16,-13.89 11.24,-29.83 22.1,-38.2l0 -8.34c-19.31,12.09 -31.09,25.88 -31.09,45.61 -19.08,-13.09 -33.72,-19.44 -64.02,-2.2 38.31,20.88 72.11,119.71 59.62,156.46z"/>
   <path class="fil0" d="M375.42 1558.73c161.74,107.79 326.5,49.98 453.06,-84.76 5.16,-5.48 2.36,-9.04 7.39,-14.78 -130.99,133.8 -306.41,203.92 -459.59,82.57 -43.22,-34.22 -74.63,-16.92 -100.32,10.25 41.13,-12.1 59.62,-19.84 99.46,6.72z"/>
   <path class="fil0" d="M277.48 1551.22c8.64,-35.03 20.33,-72.08 86.17,-51.75 -13.83,-26.49 -11.68,-28.97 -16.58,-57.21 -0.1,-0.61 18.44,26.35 56.06,58.04 27.46,23.14 64.76,51.01 113.93,61.7 98.7,21.44 208.04,-16.45 296.45,-92.81 8.07,-6.97 15.75,-14.12 23.26,-21.37 -0.78,-1.22 -1.57,-2.45 -2.32,-3.68 -7.9,7.51 -16.05,14.92 -24.79,22.02 -91.24,74.08 -197.46,115.2 -307.63,81.46 -33.44,-10.25 -65,-32.08 -89.79,-55.66 -33.96,-32.34 -58.41,-66.52 -86.65,-65.31 12.98,30.73 6.02,32.58 17.47,57 -67.67,-10.54 -72.28,49.29 -65.58,67.57z"/>
   <path class="fil0" d="M354.56 1443.73c7.29,-11.32 31.04,9.99 43.71,14.25 -12.69,-26.51 7.7,-32.41 23.8,-36.17 1.38,-0.3 14.09,76.26 121.27,101.58 92.64,21.9 195.53,-21.82 277.69,-101.79 -0.75,-1.3 -1.48,-2.6 -2.21,-3.91 -85.4,77.97 -186.06,123.94 -289.99,89.31 -72.86,-24.28 -94.89,-72.81 -104.66,-100.93 -14.89,1.46 -43.9,16.51 -33.37,40.93 -23.99,-20.2 -50.91,-21.62 -59.28,-18.68l23.04 15.41z"/>
   <path class="fil0" d="M805.23 1392.05c-30.27,13.47 -76.03,22.66 -108.47,16.75 -43.52,-7.94 -71.52,-40.2 -63.4,-72.67 -11.25,0.14 -40.15,5.13 -35.99,44.48 2.45,-15.75 12.07,-34.46 26.59,-34.19 -7.53,28.3 23.13,60.49 75.14,68.96 32.66,5.32 77.58,-3.2 107.78,-18.57 0.23,-0.09 0.44,-0.2 0.62,-0.29 -0.75,-1.48 -1.52,-2.96 -2.27,-4.47z"/>
   <path class="fil0" d="M783.35 1450.03c-15.78,9.64 -39.56,23.03 -58.25,29.32 -47.16,15.83 -108.84,4.78 -133.98,0.05 -10,-1.87 -22.66,8.09 -27.33,17.37 -9.72,-1.78 -25.05,-28.5 0.77,-53.42 7.79,2.05 11.41,2.17 11.97,3.59 -5.59,2.08 -10.08,3.89 -13.76,7.89 -8.73,9.46 -8.36,22.43 1.88,25.3 16.76,-19.01 38.4,-10.21 59.64,-4.26 27.59,7.75 68.05,8.44 100.2,-0.87 20.02,-5.81 41.43,-19.13 59.45,-28.28 3.22,2.06 0.47,2.66 -0.59,3.31z"/>
   <path class="fil0" d="M565.08 1445.26c-24.56,-6.01 -32.35,-37.31 -45.71,-45.3 30.48,-29.48 93.31,39.88 152.13,42.24 41.47,1.68 91.4,-9.78 140.47,-37.08 0.96,1.8 1.91,3.58 2.89,5.36 -79.65,46.12 -175.09,52.68 -249.35,2.97 -9.05,-6.04 -18.16,-11.27 -28.35,-10.53 15.62,16.95 11.01,26.21 40.44,43.75l-12.52 -1.41z"/>
   <path class="fil0" d="M620.82 1401.5c-16.87,-11.76 -20.96,-18.21 -58.98,1l-10.83 -7.29c35.64,-17.52 46.69,-20.59 69.81,6.29z"/>
   <path class="fil0" d="M601.68 1372.67c-32.49,-23.95 -130.91,20.72 -198.84,-9.88 29.98,75.17 77.03,66.42 198.84,9.88zm-32.71 7.5c-22.51,-12.13 -99.56,13.56 -146.61,-1.93 20.77,38.07 62.22,30.57 146.61,1.93z"/>
   <path class="fil0" d="M864.78 1488.52c5.05,92.8 25.04,157.52 87.54,252.75 10.74,16.37 9.07,25.71 11.69,53.39 30.61,2.41 63.15,-11.61 59.36,-42.51 20.69,10.52 49.98,27.75 74.14,12.75 -1.15,-30.72 -17.8,-48.99 -39.97,-67.91 6.48,-1.25 11.77,-8.55 17.02,-23.58 -9.01,-2.61 -31,-4.75 -53.13,-14.89 -32.85,-15.07 -70.12,-42.73 -89.09,-92.94 -3.2,-3.11 -6.37,-6.27 -9.51,-9.43 5.29,54.92 53.86,97 91.01,113.36 19.93,8.77 43.61,8.17 48.84,10.55 -4.03,10 -12.38,13.4 -22.05,13.06 20.73,19.24 41.76,37.34 42.04,65.25 -25.34,4.96 -52.54,-11.3 -76.52,-31.95 22.49,52.11 -11.67,53.85 -30.32,59.09 0.49,-19.87 -4.77,-43.08 -13.36,-55.65 -60.58,-88.7 -82.19,-157.6 -87.65,-228.21 -3.39,-4.32 -6.75,-8.71 -10.04,-13.13z"/>
   <path class="fil0" d="M1029.81 1720.74c-65.78,-34.5 -121.95,-89.39 -137.22,-197.47 3.88,4.51 7.82,8.99 11.8,13.4 7.56,90.51 64.82,141.41 125.42,184.07z"/>
   <path class="fil0" d="M783.63 1568.73c4.31,21.61 -6.26,39.84 -18.19,45.9 -20.77,10.55 -47.18,-8.86 -36.35,-29.62 7.49,-19.22 39.27,-12.39 29.47,12.06 7.51,-8.92 6.02,-20.95 -0.83,-28.09 -15.77,-16.47 -37.4,-4.01 -40.77,17.09 -4.62,28.78 23.57,44.83 41.84,40.89 20.34,-4.38 35.78,-27.66 24.83,-58.23z"/>
   <path class="fil0" d="M839.51 1452.13c-15.29,16.34 -39.16,45.74 -51.82,81.37 -5.69,16.04 -6.74,33.38 -5.62,51.72 1.23,20.16 5.75,37.73 9.56,57.24 2.71,13.77 2.61,29.08 -11.94,36.89 16.26,-2.96 19.76,-13.59 19.97,-24.63 0.38,-20.34 -2.45,-41.47 -3.39,-61.83 -0.83,-18.42 -0.99,-35.84 1.71,-48.86 8.34,-40.43 23.82,-64.94 42.95,-89.73 -0.48,-0.73 -0.95,-1.43 -1.42,-2.17z"/>
   <path class="fil0" d="M856.39 1477c-5.38,10.25 -10.83,23.4 -11.97,36.13 -1.65,18.68 7.38,58.42 17.41,72.82 4.23,6.07 0.57,-11.06 0.65,-11.69 -0.98,-2.91 -1.88,-5.77 -2.73,-8.59 -10.54,-35.3 -10.44,-63.77 -2.13,-86.94l-1.23 -1.73z"/>
   <path class="fil0" d="M876.09 1586.76c-12.32,10.09 -20.11,14.42 -32.89,11.61 8.26,3.97 16.72,11.8 20.66,29 -7.93,1.86 -29.28,10.07 -38.57,2.16 1.26,17.37 -5.09,35.59 -14.96,47.17 -9.88,11.59 -22.51,18.44 -32.29,16.8 1.47,-0.63 2.24,-6.14 3.91,-6.25 19.55,-1.42 25.5,-9.45 30.08,-24.78 4.27,-14.26 0.66,-35.54 -4.75,-60.83 16.1,24.16 32.66,21.45 42.14,16.25 -5.56,-18.79 -15.15,-17.26 -24.23,-36.95 12.58,1.56 24.71,14.68 37.73,4.67 -4.51,-7.98 -9.93,-25.29 -6.74,-33.27 6.64,22.83 13.72,30.59 19.91,34.42z"/>
   <path class="fil0" d="M833.9 1500.21c-9.9,22.53 -18.99,55.01 -7.59,82.74 2.49,6.06 14.15,20.17 14.23,19.52 -0.97,-2.9 -2.87,-14.67 -4.81,-17.49 -12.95,-18.84 -10.13,-56.94 -0.04,-85.39l-1.79 0.62z"/>
   <path class="fil0" d="M791.55 1508.95c-14.93,13.43 -36.2,30.94 -37.14,55.14 -0.2,5.31 7.25,23.09 7.54,22.63 0.25,-2.46 2.81,-11.77 2.33,-14.51 -3.22,-18.15 11.73,-45.39 28.79,-63.12l-1.52 -0.14z"/>
   <path class="fil0" d="M813.88 1636.03c32.01,-32.42 56.52,32 94.73,15.78 -24.51,56.88 -73.98,30.08 -94.73,-15.78zm12.44 4.67c14.65,-11.1 48.92,28.62 71.63,20.01 -32.62,27.53 -61.84,3.12 -71.63,-20.01z"/>
   <path class="fil0" d="M782.42 1351.84c0.88,2.63 -27.6,0.87 -24.93,27.14 2.67,26.25 -18.69,34.12 -18.69,34.12l41.82 -9.63 25.53 -9.58c-4.59,-9.09 -8.94,-18.29 -13.12,-27.61 -5.95,-8.5 -10.99,-15.55 -10.61,-14.44z"/>
   <path class="fil0" d="M1357.52 1427.55c-0.69,0.68 -2.34,5.51 -2.82,4.47 -21.36,-44.86 -63.63,-13.24 -48.86,14.17 8.03,14.88 32.9,14.75 34.96,-1.12 2.41,-14.14 -19.81,-20.59 -22.7,-2.5 -1.44,-8.14 3.97,-14.57 10.96,-16.1 16.08,-3.48 25.13,12.19 19.44,25.84 -7.78,18.6 -35.18,18.36 -45.54,6.37 -20.99,-24.3 -6.34,-54.43 24.19,-55.56 25.35,-0.95 28.85,25.56 30.37,24.43z"/>
   <path class="fil0" d="M1282.65 1495.54c11.01,-5.13 21.45,5.12 6.37,8.07 -23.88,4.64 -40.19,-19.06 -29.22,-37.22 7.37,-12.25 29.05,-13.43 32.85,3.83 2.41,14.14 -21.6,18.17 -24.47,0.08 -1.44,8.13 3.27,15.61 14.12,17.48 16.23,2.77 26.54,-12.89 20.84,-26.52 -7.76,-18.6 -35.19,-18.36 -45.54,-6.38 -20.96,24.3 -7.54,55.9 25.17,55.26 51.29,-1 12.42,-34.6 -0.12,-14.6z"/>
   <path class="fil1" d="M1386.57 1536.48l-0.05 0 0 -0.03c-59.06,0 -115.39,-11.73 -166.73,-32.96 -8.56,-3.53 -16.8,-7.25 -24.67,-11.1l0 -0.01c-41.55,-20.3 -79.38,-47.04 -112.15,-78.86 -9.65,-9.37 -15.46,-14.75 -20.26,-15.13l-0.01 0c-4.8,-0.39 -11.05,3.94 -22.16,13.87l-23.74 22.89 -0.08 0.08 -1.28 1.19c-1.38,1.25 -2.72,2.48 -3.71,3.45 -6.61,6.49 -8.97,12.7 9.87,31.24l0.03 0 0.02 0.04 0 0.01c13.1,12.9 26.91,25.14 41.36,36.6 14.45,11.49 29.51,22.21 45.16,32.12 80.45,50.96 175.97,80.53 278.4,80.53l0 -0.03 0.06 0 0 0.03c71.11,0 138.92,-14.27 200.66,-40.04 10.15,-4.25 20.04,-8.74 29.66,-13.51 49.95,-24.65 95.34,-57.11 134.57,-95.72 18.87,-18.57 16.51,-24.78 9.88,-31.27l-0.02 0c-1.4,-1.39 -2.51,-2.4 -3.67,-3.45l-1.28 -1.19 -0.09 -0.08 -23.74 -22.89c-11.12,-9.93 -17.35,-14.26 -22.16,-13.87l-0.01 0c-4.79,0.38 -10.6,5.75 -20.23,15.09l0.03 0.03 -0.04 0.02 -0.05 0.03c-11.01,10.66 -22.52,20.74 -34.54,30.17 -11.94,9.39 -24.51,18.21 -37.63,26.44 -67.03,42 -146.38,66.31 -231.4,66.31zm-0.05 -12.74l0 -0.01 0.05 0c82.52,0 159.49,-23.55 224.45,-64.26 12.54,-7.88 24.75,-16.45 36.54,-25.7 11.68,-9.18 22.87,-18.95 33.46,-29.25l-0.01 0 0.04 -0.05 0.04 -0.01c11.78,-11.43 19.07,-18.03 28.29,-18.77l0 0c9.22,-0.76 17.92,4.63 31.93,17.15l0.17 0.18 23.83 22.95 0 0 1.28 1.19c1.51,1.39 2.99,2.75 3.97,3.7l-0.03 0.01c12.17,11.93 17.28,22.54 -9.83,49.24 -40.19,39.57 -86.73,72.83 -137.96,98.12 -10.06,4.96 -20.2,9.57 -30.39,13.83 -63.26,26.43 -132.78,41.03 -205.72,41.06l0 0.01 -0.06 0 0 -0.01c-105.04,0 -202.95,-30.29 -285.38,-82.53 -16.03,-10.17 -31.5,-21.16 -46.28,-32.91 -14.79,-11.74 -28.96,-24.28 -42.41,-37.52l-0.01 0 -0.04 -0.03 0 -0.02c-27.13,-26.7 -22.01,-37.31 -9.83,-49.25 1.39,-1.38 2.66,-2.53 3.93,-3.7l1.28 -1.19 0 0 23.82 -22.95 0.17 -0.18c14.03,-12.52 22.73,-17.91 31.94,-17.15l0 0c9.21,0.74 16.5,7.34 28.28,18.77 31.81,30.88 68.5,56.81 108.83,76.53l0.03 0c8.04,3.93 16.03,7.53 23.91,10.81 49.79,20.58 104.42,31.94 161.71,31.94z"/>
   <path class="fil1" d="M1386.57 1756.33l-0.05 0 0 -0.02c-67.46,-0.02 -132.5,-10.14 -193.69,-28.93 -29.84,-9.16 -58.82,-20.43 -86.79,-33.6 -143.46,-67.62 -258.3,-185.5 -321.49,-330.7l-3.86 -8.86 9.8 0 140.37 0 3.84 0 1.83 3.31 0 0c12.48,21.85 26.46,42.68 41.82,62.32 15.39,19.67 32.21,38.23 50.29,55.48 92.87,88.68 219,143.21 357.93,143.21l0 -0.02 0.05 0 0 0.02c64.29,0 125.86,-11.7 182.71,-33.07 18.59,-6.99 36.6,-14.97 53.89,-23.84 89.53,-45.93 163.85,-117.16 213.4,-204.14l1.85 -3.27 3.79 0 140.39 0 9.81 0 -3.86 8.86 -0.03 0.07c-14.11,32.41 -30.78,63.44 -49.72,92.8 -18.93,29.34 -40.22,57.13 -63.61,83.11 -120.04,133.32 -294.49,217.23 -488.67,217.25l0 0.02zm-0.05 -12.74l0 -0.01 0.05 0 0 0.01c190.33,0 361.3,-82.27 478.99,-212.96 22.84,-25.35 43.7,-52.61 62.35,-81.5 16.88,-26.17 31.89,-53.63 44.83,-82.14l-126.69 0c-50.76,87.61 -126.17,159.38 -216.85,205.89 -17.95,9.22 -36.42,17.42 -55.25,24.5 -58.22,21.89 -121.36,33.86 -187.33,33.87l0 0.03 -0.05 0 0 -0.03c-142.46,-0.01 -271.78,-55.89 -366.97,-146.81 -18.5,-17.65 -35.71,-36.65 -51.49,-56.81 -15.05,-19.24 -28.78,-39.52 -41.03,-60.64l-126.67 0c62.71,138.29 173.52,250.44 311.22,315.33 27.28,12.86 55.7,23.89 85.05,32.91 60.02,18.43 123.78,28.36 189.84,28.36z"/>
   <path class="fil0" d="M1990.73 1351.84c-0.9,2.63 27.58,0.87 24.92,27.14 -2.67,26.25 18.69,34.12 18.69,34.12l-41.83 -9.63 -30.27 -11.38c0,0 29.37,-42.87 28.49,-40.25z"/>
   <path class="fil1" d="M855.54 1413.48l41.25 -25.32 19.1 30.05 -6.99 4.29 -13.89 -21.86 -9.15 5.62 12.94 20.34 -6.95 4.26 -12.93 -20.34 -11.23 6.89 14.4 22.64 -6.94 4.26 -19.61 -30.83zm37.24 28.77l6.37 7.05c-2.27,2.31 -3.47,4.6 -3.66,6.88 -0.17,2.26 0.6,4.57 2.35,6.94 1.86,2.51 3.8,4.02 5.82,4.51 2.04,0.52 3.77,0.25 5.23,-0.79 0.93,-0.65 1.52,-1.48 1.77,-2.49 0.27,-1 0.13,-2.35 -0.37,-4.02 -0.34,-1.15 -1.33,-3.65 -2.91,-7.49 -2.04,-4.93 -2.89,-8.81 -2.6,-11.58 0.39,-3.92 2.17,-7 5.27,-9.22 2.01,-1.43 4.29,-2.2 6.87,-2.33 2.55,-0.13 5.08,0.53 7.55,1.97 2.46,1.46 4.79,3.66 6.99,6.64 3.59,4.85 5.19,9.27 4.86,13.27 -0.37,4.01 -2.3,7.35 -5.83,10.06l-6.11 -7.55c1.77,-1.79 2.7,-3.54 2.76,-5.28 0.08,-1.73 -0.7,-3.69 -2.32,-5.88 -1.67,-2.27 -3.46,-3.72 -5.35,-4.33 -1.23,-0.4 -2.34,-0.22 -3.36,0.5 -0.92,0.68 -1.45,1.63 -1.53,2.89 -0.12,1.57 0.76,4.6 2.68,9.04 1.88,4.46 3.02,7.94 3.39,10.45 0.36,2.52 0.09,4.9 -0.85,7.13 -0.92,2.24 -2.63,4.24 -5.12,6.02 -2.25,1.6 -4.81,2.5 -7.68,2.67 -2.89,0.16 -5.65,-0.51 -8.26,-2.09 -2.63,-1.56 -5.18,-4.02 -7.67,-7.38 -3.61,-4.89 -5.24,-9.47 -4.87,-13.73 0.36,-4.26 2.56,-8.24 6.58,-11.86zm24.31 56.53l30.94 -25.53 -9.27 -10.86 6.32 -5.18 24.83 29.09 -6.31 5.19 -9.25 -10.84 -30.94 25.53 -6.32 -7.4zm56.77 -8.3l12.48 12.69c2.81,2.85 4.73,5.24 5.76,7.17 1.38,2.58 2,5.33 1.85,8.24 -0.11,2.9 -0.92,5.8 -2.43,8.67 -1.49,2.85 -3.89,5.84 -7.17,8.95 -2.87,2.74 -5.7,4.75 -8.48,6.03 -3.38,1.55 -6.65,2.28 -9.79,2.16 -2.38,-0.05 -4.9,-0.81 -7.59,-2.21 -1.98,-1.06 -4.24,-2.87 -6.78,-5.45l-12.82 -13.05 34.97 -33.2zm0.9 12.55l-23.15 22 5.08 5.17c1.91,1.94 3.39,3.24 4.46,3.9 1.4,0.83 2.81,1.31 4.21,1.41 1.41,0.1 3.13,-0.38 5.17,-1.38 2.01,-1.04 4.39,-2.82 7.1,-5.39 2.7,-2.56 4.54,-4.77 5.53,-6.61 0.98,-1.85 1.47,-3.59 1.46,-5.19 -0.03,-1.61 -0.53,-3.21 -1.52,-4.77 -0.73,-1.18 -2.49,-3.18 -5.27,-6.02l-3.07 -3.12zm1.19 56.44l6.23 -6.81 6.92 6.12 -6.23 6.81 -6.92 -6.12zm60.5 -11.83l15.32 11.78c3.04,2.31 5.21,4.18 6.51,5.57 1.28,1.4 2.21,2.93 2.75,4.64 0.54,1.69 0.69,3.46 0.44,5.39 -0.25,1.91 -1.03,3.68 -2.33,5.3 -1.4,1.77 -3.16,3.02 -5.31,3.75 -2.14,0.73 -4.32,0.84 -6.56,0.31 1.79,2.44 2.69,4.97 2.66,7.52 -0.02,2.6 -0.9,4.95 -2.63,7.13 -1.36,1.71 -3.08,3.08 -5.18,4.08 -2.09,0.99 -4.24,1.44 -6.41,1.32 -2.17,-0.11 -4.37,-0.83 -6.62,-2.2 -1.38,-0.86 -4.55,-3.14 -9.51,-6.91l-13.06 -10 29.93 -37.68zm2.77 12.21l-6.93 8.72 5.08 3.89c3.01,2.31 4.92,3.72 5.72,4.19 1.45,0.86 2.85,1.22 4.18,1.05 1.35,-0.18 2.5,-0.86 3.48,-2.08 0.94,-1.16 1.37,-2.35 1.29,-3.58 -0.08,-1.23 -0.71,-2.41 -1.87,-3.56 -0.69,-0.68 -2.87,-2.41 -6.51,-5.2l-4.44 -3.43zm-11.91 14.99l-8 10.07 7.16 5.48c2.79,2.15 4.61,3.44 5.49,3.85 1.31,0.69 2.64,0.9 4,0.65 1.35,-0.22 2.57,-1.02 3.63,-2.35 0.91,-1.13 1.39,-2.3 1.45,-3.52 0.06,-1.22 -0.29,-2.41 -1.04,-3.59 -0.78,-1.15 -2.92,-3.1 -6.44,-5.79l-6.25 -4.8zm31.74 46.98l11.15 -16.88 0.41 -32.73 9.64 6.16 -0.86 21.99 19.87 -9.86 9.48 6.06 -30.36 13.69 -11.12 16.82 -8.21 -5.25zm73.95 20.66l3.59 -7.24 19.02 9.12 -8.5 17.12c-2.72,0.86 -6.16,1.12 -10.34,0.79 -4.17,-0.35 -8.06,-1.39 -11.65,-3.11 -4.57,-2.18 -8.08,-5.04 -10.56,-8.55 -2.45,-3.52 -3.66,-7.44 -3.64,-11.76 0.04,-4.33 1.08,-8.56 3.11,-12.68 2.22,-4.47 5.15,-8 8.79,-10.56 3.63,-2.56 7.73,-3.89 12.35,-3.97 3.49,-0.09 7.34,0.87 11.51,2.87 5.43,2.6 9.12,5.75 11.06,9.46 1.94,3.69 2.36,7.72 1.28,12.09l-9.55 -2.58c0.42,-2.41 0.09,-4.65 -1.02,-6.68 -1.08,-2.03 -2.9,-3.65 -5.44,-4.87 -3.86,-1.85 -7.52,-2.12 -10.99,-0.82 -3.48,1.32 -6.37,4.34 -8.72,9.07 -2.52,5.1 -3.28,9.47 -2.23,13.14 1.04,3.65 3.43,6.36 7.16,8.16 1.86,0.88 3.88,1.41 6.09,1.59 2.21,0.18 4.25,0.08 6.07,-0.29l2.72 -5.45 -10.11 -4.85zm28.88 6.3c1.77,-4.56 3.95,-8.11 6.54,-10.67 1.92,-1.87 4.13,-3.39 6.62,-4.53 2.48,-1.12 4.97,-1.73 7.43,-1.78 3.31,-0.14 6.79,0.53 10.49,1.93 6.68,2.51 11.23,6.56 13.66,12.17 2.42,5.58 2.21,12.01 -0.62,19.27 -2.83,7.21 -7.01,12.09 -12.59,14.65 -5.57,2.57 -11.69,2.58 -18.36,0.07 -6.76,-2.54 -11.32,-6.6 -13.73,-12.14 -2.41,-5.54 -2.22,-11.88 0.56,-18.97zm9.56 3.25c-1.97,5.06 -2.28,9.34 -0.94,12.83 1.38,3.51 3.88,5.94 7.53,7.32 3.65,1.39 7.15,1.23 10.51,-0.49 3.35,-1.69 6.05,-5.12 8.06,-10.3 2.01,-5.11 2.34,-9.36 1.06,-12.74 -1.31,-3.39 -3.85,-5.78 -7.61,-7.2 -3.8,-1.43 -7.33,-1.31 -10.66,0.37 -3.28,1.68 -5.94,5.07 -7.95,10.21zm47.83 40.76l-2.41 -50.72 10.2 3.06 1.23 37.37 21.92 -30.41 9.96 3 -30.86 40.7 -10.04 -3zm34.28 9.87l8.44 -47.07 35.52 6.15 -1.44 7.97 -25.82 -4.47 -1.88 10.43 24.03 4.17 -1.43 7.92 -24.02 -4.17 -2.31 12.81 26.76 4.64 -1.42 7.92 -36.43 -6.3zm47.44 7.68l5.08 -47.54 20.55 2.13c5.19,0.53 8.88,1.35 11.14,2.43 2.25,1.12 3.97,2.82 5.15,5.15 1.17,2.34 1.6,4.89 1.29,7.7 -0.38,3.57 -1.77,6.41 -4.14,8.5 -2.37,2.12 -5.73,3.24 -10.04,3.42 1.99,1.42 3.59,2.93 4.8,4.52 1.22,1.6 2.79,4.37 4.74,8.31l4.92 9.88 -11.68 -1.21 -5.95 -11.08c-2.12,-3.96 -3.59,-6.46 -4.41,-7.51 -0.82,-1.06 -1.73,-1.82 -2.71,-2.29 -1,-0.46 -2.62,-0.81 -4.87,-1.05l-1.98 -0.2 -2.1 19.85 -9.79 -1.01zm12.71 -26.43l7.21 0.76c4.69,0.47 7.64,0.59 8.85,0.31 1.2,-0.26 2.18,-0.84 2.95,-1.73 0.76,-0.87 1.21,-2.02 1.37,-3.45 0.17,-1.6 -0.13,-2.94 -0.9,-4.01 -0.75,-1.07 -1.91,-1.82 -3.46,-2.25 -0.78,-0.18 -3.16,-0.49 -7.13,-0.9l-7.61 -0.78 -1.28 12.05zm39.17 31.43l1.69 -47.78 9.55 0.35 18.77 32.58 1.12 -31.91 9.13 0.32 -1.71 47.76 -9.85 -0.34 -18.47 -31.81 -1.11 31.15 -9.12 -0.32zm51.56 0.85l-3.4 -47.7 14.65 -0.99 11.13 31.9 6.36 -33.12 14.71 -1.01 3.38 47.69 -9.1 0.62 -2.64 -37.52 -6.97 38.18 -9.43 0.65 -12.28 -36.88 2.67 37.54 -9.08 0.64zm59.37 -4.54l-8.44 -47.06 35.49 -6.15 1.43 7.95 -25.82 4.49 1.88 10.43 24.03 -4.17 1.42 7.94 -24.03 4.15 2.28 12.83 26.76 -4.64 1.43 7.92 -36.43 6.31zm47.36 -7.1l-12.58 -46.18 9.23 -2.43 27.62 25.78 -8.4 -30.84 8.82 -2.32 12.58 46.17 -9.52 2.52 -27.14 -25.14 8.21 30.11 -8.82 2.33zm60.58 -16.48l-13.15 -37.56 -13.64 4.62 -2.68 -7.65 36.54 -12.38 2.69 7.68 -13.62 4.59 13.14 37.53 -9.28 3.17zm37.21 -38.26c-2.09,-4.42 -3.18,-8.42 -3.26,-12.03 -0.04,-2.66 0.39,-5.26 1.29,-7.82 0.91,-2.53 2.19,-4.71 3.84,-6.5 2.21,-2.42 5.1,-4.43 8.7,-6.07 6.49,-2.97 12.61,-3.38 18.39,-1.2 5.77,2.15 10.35,6.77 13.69,13.82 3.32,7.01 3.97,13.35 1.99,19.09 -2,5.71 -6.24,10.06 -12.7,13.01 -6.56,3.02 -12.7,3.43 -18.44,1.29 -5.73,-2.16 -10.22,-6.7 -13.5,-13.59zm9.02 -4.5c2.34,4.93 5.26,8.11 8.75,9.58 3.52,1.47 7.04,1.4 10.6,-0.22 3.53,-1.63 5.86,-4.22 6.94,-7.78 1.08,-3.56 0.43,-7.83 -1.95,-12.86 -2.36,-4.97 -5.23,-8.16 -8.6,-9.59 -3.37,-1.43 -6.89,-1.29 -10.57,0.39 -3.66,1.66 -6.02,4.27 -7.1,7.77 -1.06,3.48 -0.43,7.73 1.93,12.71zm52.91 1.96l-24.3 -41.39 28.87 -16.38 4.12 7.01 -20.37 11.56 5.75 9.77 17.58 -9.96 4.13 7 -17.58 9.99 10.33 17.57 -8.53 4.83zm54.1 -32.46l-27.9 -39.14 8.06 -5.53 12.38 17.38 3.86 -28.57 10.81 -7.43 -4.13 25.57 32.84 13.01 -10.41 7.16 -24.03 -10.83 -1.87 11.03 8.43 11.82 -8.04 5.53zm41.91 -29.63l-31.25 -36.6 27.6 -22.79 5.29 6.21 -20.09 16.56 6.92 8.12 18.72 -15.42 5.26 6.16 -18.7 15.42 8.5 9.98 20.81 -17.17 5.26 6.17 -28.32 23.36zm36.83 -30.43l-34.99 -33.2 14.37 -14.62c3.61,-3.68 6.55,-6.04 8.81,-7.12 2.26,-1.07 4.69,-1.33 7.27,-0.82 2.61,0.53 4.92,1.76 7,3.75 2.63,2.48 4.05,5.31 4.27,8.45 0.23,3.12 -0.94,6.41 -3.46,9.85 2.38,-0.66 4.57,-0.96 6.6,-0.92 2.02,0.02 5.2,0.51 9.55,1.44l10.96 2.27 -8.16 8.31 -12.55 -2.22c-4.47,-0.79 -7.38,-1.19 -8.73,-1.22 -1.35,-0.01 -2.51,0.23 -3.52,0.7 -0.98,0.51 -2.25,1.54 -3.82,3.14l-1.38 1.4 14.6 13.86 -6.82 6.95zm-13.36 -26.11l5.04 -5.14c3.28,-3.32 5.17,-5.54 5.71,-6.64 0.52,-1.09 0.66,-2.22 0.43,-3.36 -0.25,-1.12 -0.89,-2.18 -1.93,-3.2 -1.18,-1.11 -2.44,-1.69 -3.76,-1.77 -1.34,-0.07 -2.66,0.38 -3.94,1.31 -0.64,0.5 -2.33,2.14 -5.11,4.96l-5.3 5.42 8.86 8.42zm77.43 -43.18l-6.86 8.04 -11.19 -3.77 -12.5 14.63 5.88 10 -6.69 7.85 -25.07 -44.99 6.67 -7.82 49.76 16.06zm-26.35 1.47l-18.13 -6.36 9.6 16.35 8.53 -9.99zm31.5 -8.25l-39.02 -27.87 5.76 -7.81 32.4 23.14 14.35 -19.42 6.63 4.75 -20.12 27.21zm48.67 -71.27l-5.66 8.93 -11.62 -2.24 -10.29 16.22 7.24 9.1 -5.52 8.68 -31.2 -41.12 5.49 -8.66 51.56 9.09zm-25.88 5.06l-18.88 -3.81 11.84 14.87 7.04 -11.06z"/>
   <path class="fil1" d="M1129.95 1466.97l32.77 19.7c7.13,4.28 8.75,12.48 4.86,24.6l-1.25 3.27c-5.13,8.55 -12.87,12.26 -23.18,11.16l4.43 21.07 -0.6 0.99 -14.96 -8.99 -7.09 -37.24 0.28 -0.43 18.25 10.96c4.21,2.54 8.46,1.33 12.73,-3.62 2.6,-4.34 1.9,-8.27 -2.12,-11.81l-21.2 -12.75 -23.85 39.73 -1.57 0.4 -8.64 -5.21 -0.39 -1.55 29.96 -49.88 1.57 -0.4zm84.02 110.36l-33.76 -12.97c-3.36,-1.28 -5.68,-3.42 -6.95,-6.4 -1.28,-2.96 -1.28,-6.07 -0.05,-9.31l17.51 -45.58 11.34 4.35 -17.49 45.59 33.75 12.95 17.51 -45.58 11.26 4.31 -17.52 45.6c-1.2,3.17 -3.25,5.46 -6.08,6.89 -2.86,1.43 -6.03,1.48 -9.52,0.15zm102.49 -23.93l-23.75 -4.62 -9.33 47.94 -11.82 -2.3 9.31 -47.95 -23.66 -4.59 2.31 -11.93 59.27 11.5 -2.33 11.95zm17.49 -8.71l38.2 2c8.29,0.45 13.57,6.93 15.83,19.47l0.44 3.45c-0.52,9.96 -5.59,16.87 -15.24,20.73l13.81 16.55 -0.05 1.14 -17.45 -0.92 -23.73 -29.53 0.03 -0.52 21.28 1.11c4.91,0.27 8.08,-2.8 9.53,-9.18 0.26,-5.05 -2.2,-8.2 -7.43,-9.44l-24.68 -1.28 -2.43 46.26 -1.21 1.09 -10.06 -0.53 -1.07 -1.19 3.03 -58.12 1.2 -1.09zm124.51 58.58l-36.12 3.16c-6.42,0.57 -10.52,-1.78 -12.29,-7.05 -0.39,-1.22 -0.65,-2.56 -0.78,-4.01l-3.19 -36.54c-0.28,-3.16 0.61,-6.08 2.68,-8.73 2.07,-2.65 4.82,-4.12 8.26,-4.43l36.12 -3.16c3.39,-0.28 6.35,0.65 8.86,2.83 2.52,2.19 3.93,4.92 4.21,8.23l3.2 36.55c0.72,8.07 -2.95,12.46 -10.95,13.15zm-1.05 -12.11l-3.21 -36.53 -36.12 3.16 3.2 36.53 36.13 -3.16zm94.78 -10.87l-7.29 2.09 -50.09 -26.93 10.94 38.16 -11.59 3.32 -16.81 -58.64 7.19 -2.05 50.19 26.89 -10.94 -38.14 11.59 -3.34 16.81 58.64zm34.91 -14.1l-11.26 4.31 -21.85 -56.92 11.25 -4.32 21.86 56.93zm84.66 -44.03l-14.45 8 -28.05 -10.11 -6.29 29.15 -14.55 8.06 10.61 -40.69 -40.18 -12.66 14.54 -8.05 28.07 10.09 6.3 -29.13 14.44 -8.02 -10.45 40.72 40.01 12.64z"/>
   <path class="fil1" d="M1387.23 600.12c75.5,0 143.85,30.59 193.33,80.05 49.52,49.5 80.16,117.87 80.16,193.33 0,75.57 -30.61,143.95 -80.08,193.42 -49.47,49.47 -117.87,80.08 -193.41,80.08 -75.49,-0.06 -143.87,-30.66 -193.33,-80.16 -49.46,-49.47 -80.05,-117.84 -80.05,-193.34 0,-75.49 30.61,-143.86 80.06,-193.32 49.46,-49.45 117.83,-80.06 193.32,-80.06zm173.16 100.34c-44.29,-44.26 -105.5,-71.67 -173.16,-71.67 -67.57,0 -128.75,27.41 -173.03,71.68 -44.27,44.27 -71.66,105.46 -71.66,173.03 0,67.66 27.38,128.87 71.65,173.17 44.27,44.29 105.47,71.71 173.04,71.71 67.63,-0.07 128.83,-27.46 173.12,-71.75 44.28,-44.28 71.68,-105.5 71.68,-173.13 0,-67.62 -27.38,-128.81 -71.64,-173.04z"/>
   <path class="fil0" d="M1229.08 672.22l113.71 111.78c8.37,1.34 12.44,-1.23 16.08,-7.69l-3.93 -158.1 -7.95 1.4 1.14 153.73 -111.92 -107.81 -7.13 6.69zm187.3 -53.58l-0.12 158.93c4.98,6.87 9.67,7.94 16.82,5.94l110.43 -116.18 -6.26 -4.75 -109.68 111.24 -2.88 -155.37 -8.31 0.19z"/>
   <path class="fil0" d="M1134.05 841.53l161.32 -1.02c6.85,-4.99 7.92,-9.67 5.95,-16.82l-113 -108.1 -6.21 5.69 109.5 107.89 -159.22 3.46 1.66 8.9z"/>
   <path class="fil0" d="M1187.46 1028.97l114.33 -114.97c1.33,-8.37 -1.23,-12.46 -7.69,-16.11l-159.08 3.47 -0.37 8.41 156.47 -1.14 -111.11 115.22 7.45 5.12z"/>
   <path class="fil0" d="M1357.65 1126.58l0.65 -165.17c-4.98,-6.87 -9.68,-7.92 -16.84,-5.94l-113.02 117.92 5.68 6.22 112.85 -114.44 1.79 163.06 8.89 -1.65z"/>
   <path class="fil0" d="M1549.49 1072.06l-117.7 -117.08c-8.37,-1.34 -12.46,1.24 -16.12,7.7l2.91 165.12 8.41 0.38 -0.57 -162.55 117.96 113.89 5.11 -7.46z"/>
   <path class="fil0" d="M1641.05 898.01l-161.85 0.46c-6.87,4.98 -7.92,9.69 -5.95,16.84l119.02 110.83 6.21 -5.68 -115.54 -110.65 159.76 -2.9 -1.65 -8.9z"/>
   <path class="fil0" d="M1583.78 713.32l-111.02 111.66c-1.32,8.39 1.24,12.46 7.71,16.11l159.06 -3.45 0.37 -8.41 -156.48 1.12 107.82 -111.91 -7.46 -5.12z"/>
   <path class="fil0" d="M1353.43 1131.12l0 -239.82 0 239.82zm66.91 -243.64l0 243.64 0 -243.64zm-34.45 -53.7c20.93,0 37.9,16.98 37.9,37.92 0,5.62 -1.26,10.98 -3.45,15.78 -5.98,13.07 -19.14,22.13 -34.45,22.13 -13.77,0 -25.83,-7.33 -32.46,-18.31 -3.46,-5.72 -5.45,-12.44 -5.45,-19.6 0,-20.94 16.98,-37.92 37.91,-37.92z"/>
   <path class="fil1" d="M1339.1 1131.12l0 -236.3c-1.46,-2.92 -2.64,-5.98 -3.51,-9.11 -1.27,-4.58 -1.94,-9.29 -1.94,-14.01 0,-14.39 5.86,-27.46 15.29,-36.92 9.52,-9.48 22.56,-15.34 36.95,-15.34 14.4,0 27.46,5.87 36.95,15.36 9.43,9.45 15.29,22.51 15.29,36.9 0,3.77 -0.42,7.5 -1.2,11.09 -0.61,2.57 -1.35,5.03 -2.25,7.4l0 240.93 -28.68 0 0 -211.21c-6.2,2.6 -13,4.04 -20.11,4.04 -6.35,0 -12.46,-1.14 -18.12,-3.24l0 210.41 -28.67 0zm63.45 -276.15c-4.24,-4.22 -10.13,-6.85 -16.66,-6.85 -6.52,0 -12.42,2.64 -16.69,6.87 -4.23,4.26 -6.88,10.19 -6.88,16.71 0,2.32 0.29,4.47 0.84,6.39 0.57,2.09 1.42,4.07 2.48,5.82 2.15,3.47 5.12,6.36 8.64,8.33 3.4,1.92 7.37,3.03 11.61,3.03 4.7,0 9.08,-1.37 12.7,-3.69 3.81,-2.45 6.89,-5.95 8.76,-10.04 0.69,-1.52 1.24,-3.13 1.6,-4.79 0.3,-1.6 0.5,-3.3 0.5,-5.05 0,-6.53 -2.66,-12.46 -6.9,-16.73z"/>
  </g>
  <path class="fil2" d="M3093.95 1532.13l159.74 0 271.26 -750.49 -181.2 0 -161.89 466.37c-5.36,15.02 -7.5,23.6 -7.5,25.74 -1.08,-2.14 -3.22,-12.87 -8.58,-25.74l-160.83 -466.37 -183.33 0 272.33 750.49z"/>
  <polygon class="fil2" points="3588.42,1532.13 3757.81,1532.13 3757.81,781.64 3588.42,781.64 "/>
  <path class="fil3" d="M3963.9 1545c117.93,0 263.74,-62.19 263.74,-279.83l0 -483.53 -16.43 0 0 -2.6 -299.76 0 0 139.18 145.72 0 0 335.16c0,102.93 -45.03,127.58 -93.27,127.58 -24.23,0 -44.94,-8.38 -63.37,-23.52l-82.22 143.02c44.12,28.86 94.37,44.54 145.59,44.54z"/>
  <polygon class="fil2" points="5050.51,1532.13 5217.76,1532.13 5217.76,1240.52 5506.18,781.64 5314.27,781.64 5134.14,1060.4 4952.95,781.64 4762.11,781.64 5050.51,1240.52 "/>
  <polygon class="fil2" points="6712.96,1532.13 7260.82,1532.13 7260.82,1370.24 6882.35,1370.24 6882.35,1225.5 7260.82,1225.5 7260.82,1064.68 6882.35,1064.68 6882.35,942.46 7260.82,942.46 7260.82,781.64 6712.96,781.64 "/>
  <path class="fil2" d="M8016.77 781.64l0 750.49 280.89 0c275.54,0 370.96,-204.77 370.96,-375.24 0,-187.63 -103.99,-375.25 -366.67,-375.25l-285.18 0zm296.97 588.6l-127.58 0 0 -427.78 139.38 0c115.79,0 167.25,111.51 167.25,214.43 0,98.63 -49.32,213.35 -179.05,213.35z"/>
  <polygon class="fil2" points="9216.59,1532.13 9387.06,1532.13 9387.06,781.64 9216.59,781.64 9216.59,1065.76 8923.89,1065.76 8923.89,781.64 8754.5,781.64 8754.5,1532.13 8923.89,1532.13 8923.89,1227.65 9216.59,1227.65 "/>
  <polygon class="fil2" points="9503.66,1532.13 9673.05,1532.13 9673.05,781.64 9503.66,781.64 "/>
  <path class="fil2" d="M4513.85 781.65l159.75 0 271.25 750.5 -181.19 0 -161.9 -466.38c-5.36,-15.02 -7.5,-23.59 -7.5,-25.73 -1.07,2.14 -3.21,12.86 -8.58,25.73l-160.82 466.38 -183.34 0 272.33 -750.5z"/>
  <path class="fil2" d="M5586.31 781.65l159.74 0 271.26 750.5 -181.2 0 -161.9 -466.38c-5.35,-15.02 -7.49,-23.59 -7.49,-25.73 -1.08,2.14 -3.22,12.86 -8.59,25.73l-160.82 466.38 -183.33 0 272.33 -750.5z"/>
  <polygon class="fil2" points="7371.51,1532.13 7919.38,1532.13 7919.38,1370.24 7540.9,1370.24 7540.9,1225.5 7919.38,1225.5 7919.38,1064.68 7540.9,1064.68 7540.9,942.46 7919.38,942.46 7919.38,781.64 7371.51,781.64 "/>
  <path class="fil4" d="M6377.02 1532.13l-135.58 0 365.91 -1039.83c13.91,-39.56 43.85,-62.68 102,-62.68l99.15 0 -379.7 1052.75c-17.02,47.23 -26.54,49.76 -51.78,49.76z"/>
  <path class="fil5" d="M6119.73 1532.13l256.79 0 -238.07 -680.25c-18.04,-50.68 -63.14,-70.24 -113.2,-70.24l-177.85 0 272.33 750.49z"/>
  <path class="fil6" d="M3060.99 617.34l-83.56 -104.52 78.25 -92.42 -51.67 0 -69.69 87.99 0 -87.99 -41.92 0 0 196.94 41.92 0 0 -60.53 15.36 -18.3 59.64 78.83 51.67 0zm158.56 0l0 -36.91 -97.44 0 0 -44.58 95.37 0 0 -36.91 -95.37 0 0 -41.63 97.44 0 0 -36.91 -139.36 0 0 196.94 139.36 0zm192.22 0l-44.29 -75c21.26,-5.02 43.11,-23.62 43.11,-58.46 0,-36.61 -25.1,-63.48 -66.14,-63.48l-92.12 0 0 196.94 41.92 0 0 -69.98 30.71 0 38.68 69.98 48.13 0zm-73.52 -106.88l-44 0 0 -53.15 44 0c16.83,0 29.52,10.04 29.52,26.57 0,16.54 -12.69,26.58 -29.52,26.58zm287.58 106.88l-75.88 -196.94 -52.56 0 -76.18 196.94 47.84 0 12.4 -33.36 84.44 0 12.11 33.36 47.83 0zm-71.45 -70.27l-61.42 0 30.71 -84.74 30.71 84.74zm214.95 70.27l0 -36.91 -83.27 0 0 -160.03 -41.92 0 0 196.94 125.19 0zm212.88 0l-75.88 -196.94 -52.56 0 -76.18 196.94 47.84 0 12.4 -33.36 84.44 0 12.11 33.36 47.83 0zm-71.45 -70.27l-61.42 0 30.71 -84.74 30.71 84.74zm235.32 73.81c53.15,0 78.84,-27.16 78.84,-63.18 0,-73.52 -113.09,-52.56 -113.09,-83.86 0,-11.81 10.04,-19.78 28.05,-19.78 20.08,0 41.34,6.79 57.28,21.56l23.33 -30.71c-19.49,-18.01 -45.47,-27.46 -76.77,-27.46 -46.35,0 -74.7,27.16 -74.7,59.94 0,74.11 113.38,50.19 113.38,85.03 0,11.22 -11.22,21.85 -34.25,21.85 -27.16,0 -48.72,-12.1 -62.59,-26.57l-22.74 31.89c18.31,18.6 45.47,31.29 83.26,31.29zm191.04 -3.54l0 -160.03 57.28 0 0 -36.91 -157.08 0 0 36.91 57.58 0 0 160.03 42.22 0zm248.9 0l-75.88 -196.94 -52.56 0 -76.18 196.94 47.84 0 12.4 -33.36 84.44 0 12.11 33.36 47.83 0zm-71.45 -70.27l-61.42 0 30.71 -84.74 30.71 84.74zm158.55 70.27l0 -160.03 57.28 0 0 -36.91 -157.08 0 0 36.91 57.58 0 0 160.03 42.22 0zm223.51 0l0 -36.91 -97.44 0 0 -44.58 95.37 0 0 -36.91 -95.37 0 0 -41.63 97.44 0 0 -36.91 -139.36 0 0 196.94 139.36 0zm267.81 0l-44.29 -75c21.26,-5.02 43.11,-23.62 43.11,-58.46 0,-36.61 -25.1,-63.48 -66.14,-63.48l-92.12 0 0 196.94 41.92 0 0 -69.98 30.71 0 38.68 69.98 48.13 0zm-73.52 -106.88l-44 0 0 -53.15 44 0c16.83,0 29.52,10.04 29.52,26.57 0,16.54 -12.69,26.58 -29.52,26.58zm192.8 110.42c59.94,0 88.87,-33.36 88.87,-82.37l0 -118.11 -42.81 0 0 116.92c0,27.46 -15.65,46.36 -46.06,46.36 -30.41,0 -46.36,-18.9 -46.36,-46.36l0 -116.92 -42.51 0 0 118.4c0,48.42 28.93,82.08 88.87,82.08zm215.25 -3.54l0 -160.03 57.28 0 0 -36.91 -157.08 0 0 36.91 57.58 0 0 160.03 42.22 0zm243.59 0l-44.29 -75c21.26,-5.02 43.11,-23.62 43.11,-58.46 0,-36.61 -25.1,-63.48 -66.14,-63.48l-92.12 0 0 196.94 41.92 0 0 -69.98 30.71 0 38.68 69.98 48.13 0zm-73.52 -106.88l-44 0 0 -53.15 44 0c16.83,0 29.52,10.04 29.52,26.57 0,16.54 -12.69,26.58 -29.52,26.58zm197.23 110.42c59.64,0 103.05,-42.51 103.05,-101.86 0,-59.35 -43.41,-101.87 -103.05,-101.87 -59.35,0 -102.75,42.52 -102.75,101.87 0,59.35 43.4,101.86 102.75,101.86zm0 -37.2c-36.32,0 -59.64,-28.05 -59.64,-64.66 0,-36.91 23.32,-64.66 59.64,-64.66 36.32,0 59.94,27.75 59.94,64.66 0,36.61 -23.62,64.66 -59.94,64.66zm308.84 33.66l0 -196.94 -41.93 0 0 123.72 -91.23 -123.72 -43.11 0 0 196.94 41.92 0 0 -128.44 93.9 128.44 40.45 0zm80.89 0l0 -196.94 -41.92 0 0 196.94 41.92 0zm217.61 0l-71.45 -101.27 67.02 -95.67 -50.49 0 -44.58 67.32 -45.18 -67.32 -49.9 0 67.03 95.96 -71.46 100.98 49.9 0 49.61 -72.04 49.31 72.04 50.19 0z"/>
 </g>
</svg>
