<?xml version="1.0" encoding="UTF-8"?>
<!DOCTYPE svg PUBLIC "-//W3C//DTD SVG 1.1//EN" "http://www.w3.org/Graphics/SVG/1.1/DTD/svg11.dtd">
<!-- Creator: CorelDRAW 2020 (64-Bit) -->
<svg xmlns="http://www.w3.org/2000/svg" xml:space="preserve" width="100mm" height="20mm" version="1.1" style="shape-rendering:geometricPrecision; text-rendering:geometricPrecision; image-rendering:optimizeQuality; fill-rule:evenodd; clip-rule:evenodd"
viewBox="0 0 10000 2000"
 xmlns:xlink="http://www.w3.org/1999/xlink"
 xmlns:xodm="http://www.corel.com/coreldraw/odm/2003">
 <defs>
  <style type="text/css">
   <![CDATA[
    .fil0 {fill:#2B2A29}
    .fil3 {fill:#114F6F}
    .fil6 {fill:#2B2A29;fill-rule:nonzero}
    .fil1 {fill:#2B2A29;fill-rule:nonzero}
    .fil2 {fill:#114F6F;fill-rule:nonzero}
    .fil5 {fill:#4EC390;fill-rule:nonzero}
    .fil4 {fill:#65CFA9;fill-rule:nonzero}
   ]]>
  </style>
 </defs>
 <g id="Layer_x0020_1">
  <metadata id="CorelCorpID_0Corel-Layer"/>
  <g id="_2247109840032">
   <path class="fil0" d="M486.19 1398.49c-42.24,-26.29 -170.11,22.73 -258.36,-10.86 37.58,67.62 87.3,80.31 172.8,49.3 1.15,-0.4 -3.34,-13.58 -2.18,-14.02 1.79,-0.66 10.11,10.97 11.98,10.34 4.77,-1.58 -5.44,-13.14 -0.12,-15.41 2.16,-0.93 19.69,7.63 21.92,6.61 3.28,-1.45 6.62,-3.01 10.03,-4.61 0.74,-1.12 -6.33,-6.69 23.39,-26.21 2.84,-1.86 4.17,13.11 7.33,11.53 4.33,-2.14 8.73,-4.38 13.21,-6.67zm-44.02 7.85c-29.25,-13.3 -127.86,15.26 -188.99,-1.75 26.99,41.79 79.36,33.2 188.99,1.75z"/>
   <path class="fil0" d="M1889.22 663.41c130.97,6.4 156.37,152.23 101.85,173.07 -5.41,-11.1 -5.28,-20.92 -3.77,-30.7 2.2,-14.06 -13.31,-22.26 -28.9,-8.09 4.16,-22.05 12.13,-37.84 5.07,-55.22 -5.47,-13.52 -25.03,-27.12 -37.43,-51.31 40.52,39.02 57.75,48.93 45.89,91.16 17.96,-11.02 23.17,6.77 25.99,20.09 22.51,-37.49 -8.78,-113.94 -108.7,-139z"/>
   <path class="fil0" d="M1923.14 693.41c-8.98,-4.25 -24.45,7.67 -27,14.48 -2.57,6.82 7.05,31.62 -4.08,34.45 -11.15,2.83 -36.32,-1.05 -42.44,6.48 -6.14,7.55 6,42.76 6,42.76 0,0 -6.13,-29.91 4.78,-39.31 10.9,-9.39 46.75,9.96 47.55,-3.18 -2.57,-11.05 -6.95,-25.69 -3.63,-36.8 2.43,-8.09 10.53,-13.31 18.82,-18.88z"/>
   <path class="fil0" d="M1832.81 760.18c0,0 0.08,13.5 -10.19,27.97 -16.24,22.92 -58.36,26.59 -81.16,15 -39.43,-20.02 -33.29,-35.62 -52.37,-50.7 -10.14,-8.02 -24.03,-13.65 -34.81,-17.18 -17.99,-5.87 -17.28,-12.58 -1.22,-26.46 11.41,-9.87 38.75,-22.28 78.69,-2.72 -47.94,-3.02 -74.49,2.5 -79.47,18.11 5.45,-2.46 37.95,2.36 51.04,21.19 22.83,32.92 28.88,47.17 66.72,49.78 39.25,2.7 62.77,-34.99 62.77,-34.99z"/>
   <path class="fil1" d="M1677.62 653.02c-47.44,-21.92 -102.48,-56.4 -110.95,-109.51 -2.78,-17.46 1.05,-10.43 10.34,0.37 13.18,15.33 29.83,26.58 39.01,32.7l-23.15 -25.96c-9.9,-14.11 -18.43,-25.36 -27.14,-47.71 -7.29,-12.08 -9.35,9.91 -9.25,13.46 0.93,34.02 12.34,63.43 32.65,88.92 22.34,28.05 55.48,51.32 97.41,70.7l-8.92 -22.97z"/>
   <path class="fil0" d="M1736.69 623.72c0,0 4.32,-3.37 11.13,-4.79 6.83,-1.44 12.34,6.42 18.26,18.63 5.9,12.2 -9.48,-13.45 -17.75,-14.03 -8.27,-0.59 -11.64,0.19 -11.64,0.19z"/>
   <path class="fil0" d="M1756.18 628.91c0.15,0.53 -1.51,8.76 -8.76,7.7 -4.74,-0.68 -8.77,-7.63 -4.98,-11.09l3.43 -3.15 5.93 0.53c0,0 4.24,5.5 4.38,6.01z"/>
   <path class="fil0" d="M885.51 663.41c-130.99,6.4 -156.37,152.23 -101.87,173.07 5.42,-11.1 5.29,-20.92 3.78,-30.7 -2.19,-14.06 13.31,-22.26 28.88,-8.09 -4.14,-22.05 -12.12,-37.84 -5.06,-55.22 5.49,-13.52 25.04,-27.12 37.44,-51.31 -40.52,39.02 -57.75,48.93 -45.89,91.16 -17.96,-11.02 -23.17,6.77 -26,20.09 -22.51,-37.49 8.79,-113.94 108.72,-139z"/>
   <path class="fil0" d="M851.57 693.41c8.98,-4.25 24.46,7.67 27.02,14.48 2.56,6.82 -7.07,31.62 4.07,34.45 11.15,2.83 36.31,-1.05 42.45,6.48 6.14,7.55 -6.01,42.76 -6.01,42.76 0,0 6.12,-29.91 -4.77,-39.31 -10.92,-9.39 -46.77,9.96 -47.56,-3.18 2.56,-11.05 6.97,-25.69 3.62,-36.8 -2.43,-8.09 -10.53,-13.31 -18.82,-18.88z"/>
   <path class="fil0" d="M941.89 760.18c0,0 -0.07,13.5 10.2,27.97 16.24,22.92 58.37,26.59 81.15,15 39.44,-20.02 33.29,-35.62 52.4,-50.7 10.14,-8.02 24.01,-13.65 34.79,-17.18 17.99,-5.87 17.3,-12.58 1.24,-26.46 -11.43,-9.87 -38.77,-22.28 -78.71,-2.72 47.95,-3.02 74.48,2.5 79.47,18.11 -5.44,-2.46 -37.95,2.36 -51.03,21.19 -22.83,32.92 -28.9,47.17 -66.72,49.78 -39.25,2.7 -62.79,-34.99 -62.79,-34.99z"/>
   <path class="fil1" d="M1097.1 653.02c47.45,-21.92 102.47,-56.4 110.95,-109.51 2.78,-17.46 -1.06,-10.43 -10.34,0.37 -13.18,15.33 -29.83,26.58 -39.01,32.7l23.15 -25.96c9.91,-14.11 18.43,-25.36 27.13,-47.71 7.3,-12.08 9.36,9.91 9.26,13.46 -0.94,34.02 -12.34,63.43 -32.64,88.92 -22.35,28.05 -55.49,51.32 -97.41,70.7l8.91 -22.97z"/>
   <path class="fil0" d="M1038.03 623.72c0,0 -4.32,-3.37 -11.15,-4.79 -6.81,-1.44 -12.33,6.42 -18.24,18.63 -5.9,12.2 9.47,-13.45 17.75,-14.03 8.26,-0.59 11.64,0.19 11.64,0.19z"/>
   <path class="fil0" d="M1018.54 628.91c-0.15,0.53 1.51,8.76 8.75,7.7 4.75,-0.68 8.77,-7.63 4.99,-11.09l-3.44 -3.15 -5.92 0.53c0,0 -4.23,5.5 -4.38,6.01z"/>
   <path class="fil0" d="M1256.85 385.07l4.91 0 45.74 54.96c-25.68,3.84 -45.52,25.79 -45.52,52.07l0 0c0,23.26 15.55,43.12 36.93,50.03 0.34,0.12 5,0.21 5.33,0.33l-37.48 44.11 -9.91 0 0 -201.5zm47.66 0l164.34 0 -45.19 54.37 -22.07 0 0 -0.35 -0.72 0 -28.37 0 -0.72 0 0 0.35 -22.09 0 -45.18 -54.37zm207.08 0l4.92 0 0 201.5 -9.91 0 -37.49 -44.11c0.35,-0.12 5,-0.21 5.34,-0.33 21.38,-6.91 36.93,-26.77 36.93,-50.03l0 0c0,-26.28 -19.84,-48.23 -45.53,-52.07l45.74 -54.96zm-47.74 201.5l-62.26 0 0 -12.84 0 -12.43 0 -91.69 49.6 0c14.69,0 26.73,9.24 26.73,22.49l0 0c0,13.25 -12.04,24.08 -26.73,24.08l-47 0 12.74 15.04 46.92 55.35zm-92.07 0l-62.28 0 46.92 -55.35 12.76 -15.04 -47.01 0c-14.7,0 -26.73,-10.83 -26.73,-24.08l0 0c0,-13.25 12.03,-22.49 26.73,-22.49l49.61 0 0 91.69 0 12.43 0 12.84z"/>
   <path class="fil1" d="M1462.38 326.89c1.3,-19.38 23.66,-52.38 48.03,-54.99 9.37,-7.49 49.26,-0.36 61.34,10.69 20.26,15.66 32.38,53.31 42.74,84.99 11.36,34.75 26.27,77.03 52.77,112.47 30.21,23.26 50.83,-16.95 63.27,34.44 2.8,6.84 1,19.36 5.13,21.75 4.11,2.38 14.15,-5.34 24.98,-4.36 28.52,-9.46 33.95,10.54 38.61,18.05 3.14,5.07 -0.92,14.94 4.64,18.15 12.25,7.06 33.47,5.04 45.94,4.48 11.89,-0.58 40.37,2.2 53.5,26.63 7.01,13.02 8.19,28.69 3.93,41.73 -3.79,11.49 -30.52,30.74 -44.33,34.49 -10.07,4.23 7.46,5.68 11.98,3.99 5.71,-2.14 13.54,-5.79 20.08,-8.65 20.28,-8.83 43.21,2.51 65.9,0.8 61.95,3.14 147.15,8.44 224.02,36.55 76.03,27.79 155.17,78.84 203.62,176.34 6.12,12.29 19.57,44.55 22.12,80.95 -14.91,-24.16 -33.25,-40.47 -56.73,-55.73 23.14,20.52 48.39,59.92 61.36,90.76 10.64,25.25 15.53,66.6 0.46,96.23 -2.3,40.05 14.08,58.35 21.12,97.68 0,0.03 -7.57,17.15 -5.33,40.2 2.71,27.82 18.28,63.2 16.51,73.07 34.82,-50.92 38.75,-50.55 18.92,-109.25 -2.89,-8.5 -31.2,-37.75 -27.26,-106.26 1.05,-18.54 2.12,-37.1 2.22,-56.17l0 -0.05 0 -4.95 0 -0.05c-0.12,-29.09 -3.76,-53.58 -10.62,-77.33 -6.84,-23.67 -16.76,-46.38 -29.53,-72.04 -51.72,-104.1 -129.76,-159.02 -211.07,-188.74 -80.46,-29.43 -163.36,-33.84 -226.91,-37.1 -26.02,-1.31 -31.93,-33.55 -41.05,-50.52 -20.48,-38.05 -47.17,-48.36 -68.51,-47.36 -17.26,0.8 -32.9,0.65 -42.54,-14.91 -5.67,-10.23 -10.72,-20.4 -28.95,-23.42 -14.31,-2.39 -29.33,6.95 -35.14,-8.52 -4.28,-11.38 -9.29,-24.74 -27.14,-32.96 -8.38,-3.83 -15.99,-5.71 -23.12,-7.47 -8.68,-2.11 -16.44,-4.02 -21.18,-9.42 -26.16,-29.78 -37.88,-65.63 -48.51,-98.13 -11.6,-35.45 -22.03,-67.28 -48.15,-87.47 -9.65,-7.46 -21.11,-12.53 -33.19,-15.03 -13.95,-2.86 -28.77,-2.25 -42.58,2.2 -13.99,4.49 -26.94,12.86 -37.01,25.44 -7.95,9.93 -14.05,22.49 -17.3,37.78l-1.74 12.79c-1.15,8.31 0.41,9.66 6.92,4.84 10.93,-8.09 18.2,-2.54 27.13,-10.09 8.3,6.73 8.09,23.79 19.56,18.01 3.72,-1.88 -5.48,-7.82 0.1,-18.51 11.06,-21.14 35.55,-18.11 40.96,-2.22 8.31,24.41 10.88,81.15 17.43,121.09 4.02,24.36 7.63,46.43 11.46,61.13l0 0.05 0.03 0.06c15.57,59.29 58.51,67.79 90.25,96.47 18.02,16.27 10.41,37.35 14.64,57.67 3.22,15.54 27.89,38.98 65.91,43.23 2.9,-1.13 -31.05,-19.47 -44.02,-34.74 -9.46,-11.15 -10.75,-25.12 -10.53,-29.84l0 -0.05c0.81,-17.34 -0.88,-28.62 -16.12,-42.38 -20.98,-18.95 -63.73,-43.05 -77,-64.79 -28.31,-46.31 -24.61,-116.55 -34.12,-169.39 -5.3,-29.36 -12.56,-52.28 -26.7,-58.45 -30.99,-13.52 -51.95,24.71 -71.2,16.14z"/>
   <path class="fil1" d="M2415.54 1094.26c-13.66,31.1 -24.2,86.16 -17.7,111.52 6.41,24.92 16.19,48.32 26.91,73.7l-0.01 0 0.05 0.11 0.05 0.05c4.77,11.36 6.55,24.23 6.98,36.74 0.16,4.92 1.22,12.28 -12.05,14.11 -0.09,2.88 12.26,6.08 12.83,8.9 2.01,10.03 7.32,19.51 9.51,27.84l1.43 5.37c3.99,14.47 -11.76,15.06 -15.58,14.93l-57.68 -4.79c-1.07,4.28 -31.54,8.93 -25.7,-11.74 2.54,-9.04 11.9,-19.58 25.17,-14.53 1.5,-6.91 -33.51,-12.26 -34.1,22.5 -0.1,6.54 -20.45,5.77 -20.44,-1.07 3.76,-25.02 10.54,-31.67 25.33,-25.58 1.19,-2.17 -5.34,-8.61 -4.47,-10.68 1.73,-4.11 10.75,-4.26 11.92,-8.9 -26.55,-23.04 6.4,-26.87 3.45,-34.11 -14.81,-36.15 -27.73,-59.5 -52.53,-84.01 -11.43,-11.25 -25.78,-24.57 -34.99,-40.02 -6.74,-11.33 -11.81,-25.64 -16.55,-56.92 -11.6,-36.04 -45.25,-143.29 -84.17,-155.75 4.73,5.51 10.64,14.92 16.59,25.98 2.84,5.28 5.7,10.97 8.43,16.78 11.84,25.17 21.33,52.87 17.99,63.01 -2.47,7.55 -6.68,18.15 -5.7,25.2 0.36,2.71 -6.18,11.37 -3.91,9.62 16.63,-12.72 35.55,11.12 35.36,24.04 3.72,54.95 7.85,40.15 60.69,95.97 11.68,12.3 17.26,26.53 25.05,40.2 8,14 10.67,34.52 8.43,53.04 -0.48,3.92 -1.17,7.68 -2.05,11.19 -0.86,3.41 -1.93,6.68 -3.2,9.7 -0.7,1.65 -1.39,3.1 -2.04,4.29l-2.15 3.95 -0.02 -0.01c-6.47,11.85 -11.14,20.39 -11.42,28.5 -0.57,15.48 8.98,22.12 36.4,23.09l88.75 3.18c22.39,0.79 29.59,-3.76 30.11,-18.01 0.18,-4.83 -1.1,-9.53 -2.85,-15.8 -0.81,-2.93 -1.12,-3.94 -1.42,-5.1 -1.94,-7.34 -7.81,-17.85 -7.46,-29.25 0.98,-31.85 -7.85,-58.09 -18.15,-84.47 -15.04,-38.53 -30.11,-71.49 -15.09,-152.77z"/>
   <path class="fil1" d="M2168.97 1156.94c-9.76,33.47 -26.24,80.72 -13.41,105.29 6.9,13.97 18.97,18.47 13.9,34.86l-0.01 -0.02c-5.13,10.6 -37.35,54.99 -23.23,63.79l-0.02 0.03c2.18,1.35 4.64,2.06 7.41,2.11 43.33,0.8 185.93,32.21 115.85,-53.25 -18.37,-29.37 9.63,-59.46 28.75,-80.16l-13.67 -14.8c-17.31,24.91 -44.57,61.65 -30.23,93.27 1.2,2.66 -9.04,3.39 -7.26,6.27 0.81,1.25 13.32,4.65 14.08,6.05 26.15,47.89 -42.31,32.99 -70.02,32.84 9.61,-9.09 8.66,-18.17 -0.12,-27.24 4.61,22.19 -17.44,31.07 -38.6,27.97 -8.11,-19.63 33.27,-33.6 39.39,-46.62 0,-0.02 -2.88,-21.29 -1.03,-21.83 36.65,-10.74 -3.17,-9.35 -8.28,-11.53 -40.98,-17.44 -3.6,-97.56 11.69,-121.03l-2.36 -1.51c-7.2,2.4 -15.08,6.41 -22.83,5.51z"/>
   <path class="fil1" d="M2235.39 1141.77c-36.6,8.38 -89.93,18.65 -133.59,0.74 -44.09,-18.09 -65.98,-33.3 -123.37,-74.4 -1.37,-0.98 -17.17,-15.76 -18.59,-16.78l-8.04 15.72c64.8,45.29 97.2,63.9 144.27,83.21 48.56,19.91 104.78,16.49 146.79,6.89l-7.47 -15.38z"/>
   <path class="fil0" d="M2207.55 1042.08c-10.44,106.37 -119.36,67.75 -200.4,28.32 44.43,39.14 170.99,82.29 214.49,7.94 0,0 -15.02,-37.18 -14.09,-36.26z"/>
   <path class="fil1" d="M2261.03 769.96c-65.4,-33.09 -128.61,-54.06 -201.59,-81.33 57.53,8.44 144.86,36.17 210.72,77.28 46.55,29.07 95.53,82.87 114.49,134.44 -31.6,-30.87 -56.13,-96.24 -123.62,-130.39z"/>
   <path class="fil1" d="M1825.56 831.42c-0.16,8.25 -21.25,83.33 -21.27,91.43 -0.16,78.54 6.57,151.37 27.25,225.14 1.89,6.8 9.16,32.85 14.01,58.2 6.86,35.8 7.22,63.39 -0.11,80.25 -17.77,13.92 -28.83,24.02 -30.22,36.2 -1.43,12.83 -2.75,18.87 3.99,22.14l0.84 -1.48 133.51 0c-1.12,2.56 -2.26,5.1 -3.41,7.63 8.91,-0.64 14.98,-2.44 16.15,-6.58 0.03,-0.12 4.93,-19.64 -6.06,-38.19 -9.99,-30.47 -10.84,-68.44 -6.52,-112.41 3.35,-34.21 3.85,-78.66 -1.43,-106.02 9.41,-6.13 22.89,-39.69 8.96,-101.92 -6.67,-29.79 0.22,-59.31 -1.07,-70.8 -9.6,22.48 -13.15,62.78 -7.83,99.4 2.77,19.07 2.9,32.13 -5,51.08 -14.97,21.87 -39.05,5.96 -36.97,-31.31 -13.72,51.79 20.81,56.06 31.37,57.01 5.24,27.09 1.85,111.31 -2.67,146.53 -0.8,9.55 -2.33,18.08 -3.04,26.58 -1.17,14.11 -15.04,19.23 -14.88,21.38 0.26,3.83 15.2,2.27 16.24,6.41 6.63,6.46 8.19,13.44 12.21,21.26 6.01,10.17 1.27,20.09 -2.98,24.48 -7.22,7.46 -52.21,3.11 -62.48,1.46 -42.5,-0.98 -26.96,-31.08 -14.33,-40.81 -10.35,2.78 -35.54,19.31 -19.03,38.37 -19.24,4.78 -24.28,1.46 -26.74,-5.04 6.82,-36.42 29.21,-26.22 35.28,-33.8 3.86,-4.86 5.57,-15.39 5.7,-29.13 0.12,-14.54 12.83,-17.26 9.2,-18.84 -10.13,-4.44 -10.85,-12.3 -11.28,-16.24 -2.34,-21.25 -6.44,-44.58 -11.16,-65.29 -2.12,-9.34 -4.35,-18.2 -6.54,-26.04 -2.25,-8.04 -4.45,-14.98 -6.49,-20.36l-0.05 -0.15 -0.03 -0.04c-12.95,-34.48 -22.16,-151.37 -17.42,-199.21l4.3 -91.29zm13.12 290.5l0 0 0 0z"/>
   <path class="fil1" d="M1776.32 841.16c-40.4,58.79 -78.48,125.46 -128.76,173.34 -24.88,23.71 -62.48,58.67 -67.53,81.08l-0.02 0.08 -0.05 0.05c-2.39,10.76 -2.04,26.8 -1.67,43.08 0.43,19.26 0.88,37.84 -0.32,43.63l-2.44 0.23 -0.05 0.09c-1.77,2.43 -3.3,4.96 -4.64,7.51 -1.31,2.5 -2.44,5.03 -3.38,7.51 -15.35,40.04 11.46,35.05 35.22,36.2 13.35,0.67 29.8,1.69 43.04,1.69 26.11,0 48.23,1.39 50,-9.08l0 -0.13 1.14 -2.79c4.29,-21.09 -8.48,-30.57 -15.46,-42.03 -2.8,-13.11 1.63,-37.59 6.38,-43l0.04 -0.05 0.04 -0.01 -0.02 0c0.73,-0.83 -0.15,-5.53 1.75,-7.32 19.2,-18.14 42.96,-41.04 63.97,-58.58 9.52,-7.93 24.3,-20.16 33.17,-21.85 8.74,-1.69 18.56,-2.55 30.77,2.17l7.84 -8.64c-16.78,-6.47 -30.96,-8.23 -44.47,-5.62 -13.4,2.58 -25.42,9.33 -38.1,19.92 -18.06,15.05 -36.7,38.65 -52.46,52.72 -2.96,2.63 -11.93,7.35 -14.39,9.69 -2.4,2.25 -5.45,0.26 -6.73,1.72l-0.05 0.05 -0.01 0.03 0 0c-5.24,6.01 2.99,20.93 2.01,33.21 -1.18,14.59 2.25,15.07 -6.61,32.2 11.51,5.59 22.77,11.64 19.48,27.85 -4.18,20.63 -55.34,10.33 -67.19,10.33 -18.03,6.68 -2.94,-13.06 -11.85,-18.87 -5.87,25.31 -21.32,13.79 -25.98,13.42 -16.1,-7.91 -0.98,-32.04 23.3,-35.82 -15.32,-12.71 -8.88,-24.44 0.58,-29.04 -15.22,-2.3 -15.21,-52.69 -1.18,-70.34 24.63,-30.98 36.67,-45.8 58.05,-66.17 7.06,-6.72 28.18,-34.89 36.48,-36.62 13.85,-2.88 14.76,26.82 18.07,9.5 2.69,-14.03 -3.43,-21.83 1.88,-35.65 13.55,-35.31 44.35,-75.26 62.79,-102.23l-2.64 -13.46z"/>
   <path class="fil0" d="M1733.72 799.59c0,0 37.3,13.84 41.24,46.03 3.95,32.19 36.79,85.76 36.79,85.76 10.04,-43.6 -28.78,-57.47 -26.6,-86.85 1.02,-13.78 -9.34,-29.65 -16.42,-36.09l-35.01 -8.85z"/>
   <path class="fil0" d="M1821.68 729.78c3.38,20.79 19.43,41.86 12.35,60.99 -19.31,52.11 -3.89,59.54 -8.24,88.51 -6,39.87 -7.24,58.02 26.74,31.45 18.4,-14.38 25.62,-41.64 68.92,-48.45 81.75,-12.87 88.14,-45.33 87.95,-45.5l-14.36 -12.24c-0.17,7.05 -3.54,-4.51 -5.45,0.64 -7.26,19.4 -25.26,26.79 -41.01,34.96 -35.53,18.49 -65.59,18.94 -109.57,62.3 -6.53,-26.34 -3.41,-57.08 4.79,-99.98 4.76,-25.03 -12.83,-42.77 -22.12,-72.68z"/>
   <path class="fil0" d="M1768.52 1273.26c-122.73,-94.17 -247.74,-43.67 -343.78,74.03 -3.9,4.78 -1.78,7.89 -5.61,12.91 99.39,-116.87 234.1,-179.95 350.34,-73.94 32.78,29.88 58.65,22.51 88.18,31.58 -41.66,-32.69 -58.89,-21.39 -89.13,-44.58z"/>
   <path class="fil0" d="M1858.51 1306.91c-28.66,-9.36 -52.03,43.59 -91.93,15.3 10.49,25.22 9.74,43.83 -0.03,67.63 -0.41,0.99 -13.98,-102.82 -102.52,-126.81 -88.96,-24.09 -171.02,19.64 -240.08,101.42 -3.36,3.96 -1.52,6.39 -4.82,10.54 73.47,-83.56 160.06,-128.59 251.82,-93.35 60.15,23.11 80.33,72.72 89.93,127.97 2.44,14.09 31.75,-32.38 16.81,-71.6 51.35,10.01 76.27,-29.59 80.82,-31.1z"/>
   <path class="fil0" d="M1425.35 1391.17c27.96,-37.48 93.14,-85.64 143.13,-94.64 43.59,-7.83 82.96,10.68 88.25,66.07 14.63,-7.95 22.5,4.66 38.47,-11.92 3.14,13.71 10.54,22.92 20.37,33.49 1.37,1.17 2.82,2.43 4.34,3.79l14.04 13.54c14.6,-25.43 15.86,-52.69 -13.08,-88.66 15.42,30.87 19.91,55.21 8.11,64.37 -14.66,-3.1 -25,-20.33 -32.42,-41.14 -9.22,15.93 -21.82,9.95 -33.75,14.61 -8.24,-53.95 -51.4,-69.39 -95.16,-61.49 -46.95,8.46 -122.29,58.92 -140.94,97.99 0,0 0.66,4.66 -1.36,3.99z"/>
   <path class="fil1" d="M1449.98 1390.12c1.12,0.66 52.91,-16.51 95.33,-16.57 32.85,-0.04 30.05,27.28 64.94,34.29 11.2,2.26 25.51,2.93 35.97,-2.27 16.88,-8.35 20.79,-27.67 -0.48,-34.68 -14.28,-4.69 -23.75,4.96 -23.99,20.04 -13.97,-1.84 -11.27,-38.73 23.68,-32.74 18.89,5.17 24.98,21.88 20.34,36.21 -8.15,7.63 -16.62,14.95 -25.39,21.9 -9.53,2 -20.64,1.08 -29.87,-0.81 -31.29,-6.46 -33.03,-28.94 -65.59,-31.47 -29.06,-2.26 -62.21,4.28 -80.27,8.55 -6.27,1.48 6.79,6.7 -7.29,-0.38l-7.38 -2.07z"/>
   <path class="fil0" d="M1440.13 1383.53c30.98,-24.44 64.52,-48.44 107.75,-49.53 21.48,-0.55 52.61,2.12 65.77,40.22 1.37,3.95 3.57,9.09 6.93,14.01 2.57,3.73 6.71,6.79 9.44,6 -11.75,6.31 -15.98,-1.46 -18.62,-8.02 -13.74,-33.86 -32.12,-44.92 -63.94,-44.5 -42.99,0.54 -77.86,22.3 -106.88,48.78l-0.45 -6.96z"/>
   <path class="fil0" d="M1570.84 1389.23c15.79,16.08 15.92,37.74 8.15,49.74 -13.53,20.88 -48.64,19.31 -49.89,-4.69 -3.52,-20.74 29.69,-33 33.92,-6.44 2.12,-11.94 -5.83,-21.4 -16.08,-23.63 -23.61,-5.13 -36.89,17.87 -28.53,37.89 11.41,27.33 46.33,25.02 61.14,11.24 16.5,-15.35 18.11,-44.12 -8.71,-64.11z"/>
   <path class="fil0" d="M1421.1 1433.74c-3.36,0.65 -7.14,-2.62 -7.25,-3.95 -3.48,-35.24 14.42,-126.74 48.93,-141.62 -18.66,-12.1 -29.72,-2.48 -39.83,9.04 -12.22,13.93 -18.72,71.01 -21.15,72.93 0,-4.13 9.37,-49.33 6.58,-82.22 -1.12,-13.21 -10.68,-28.37 -21.02,-36.33l0 -7.93c18.36,11.5 29.57,24.61 29.57,43.38 18.14,-12.46 32.07,-18.5 60.89,-2.09 -36.43,19.85 -68.59,113.84 -56.72,148.79z"/>
   <path class="fil0" d="M2349.68 1531.73c-153.84,102.51 -310.53,47.54 -430.89,-80.61 -4.91,-5.21 -2.23,-8.59 -7.03,-14.05 124.57,127.24 291.4,193.93 437.09,78.52 41.08,-32.54 70.97,-16.09 95.4,9.75 -39.11,-11.51 -56.7,-18.87 -94.57,6.39z"/>
   <path class="fil0" d="M2442.8 1524.59c-8.21,-33.31 -19.33,-68.55 -81.93,-49.21 13.14,-25.2 11.1,-27.55 15.75,-54.41 0.09,-0.58 -17.53,25.06 -53.31,55.2 -26.12,22 -61.58,48.51 -108.35,58.67 -93.87,20.39 -197.85,-15.64 -281.93,-88.26 -7.97,-6.89 -15.55,-13.97 -22.96,-21.14 0.73,-1.16 1.48,-2.33 2.22,-3.5 7.76,7.43 15.76,14.75 24.4,21.76 86.77,70.45 187.78,109.56 292.56,77.47 31.8,-9.75 61.83,-30.51 85.41,-52.94 32.29,-30.76 55.53,-63.26 82.4,-62.1 -12.34,29.22 -5.73,30.98 -16.63,54.2 64.37,-10.02 68.75,46.87 62.37,64.26z"/>
   <path class="fil0" d="M2369.5 1422.37c-6.93,-10.77 -29.53,9.49 -41.57,13.54 12.07,-25.21 -7.32,-30.82 -22.63,-34.39 -1.31,-0.29 -13.41,72.52 -115.33,96.6 -88.45,20.91 -186.68,-21.06 -264.96,-97.64 0.69,-1.24 1.37,-2.47 2.06,-3.71 81.43,74.66 177.49,118.82 276.7,85.76 69.3,-23.08 90.24,-69.23 99.53,-95.98 14.16,1.39 41.73,15.7 31.73,38.92 22.84,-19.21 48.42,-20.55 56.4,-17.76l-21.93 14.66z"/>
   <path class="fil0" d="M1939.92 1372.78c28.77,13.06 72.94,22.04 104.14,16.36 41.38,-7.54 68,-38.23 60.29,-69.11 10.71,0.14 38.19,4.88 34.22,42.31 -2.32,-14.99 -11.46,-32.77 -25.27,-32.52 7.17,26.92 -21.99,57.52 -71.47,65.59 -31.06,5.06 -73.78,-3.05 -102.48,-17.66 -0.75,-0.31 -1.25,-0.64 -1.6,-0.98 0.67,-1.34 1.36,-2.67 2.04,-4.03 0.05,0.01 0.1,0.03 0.13,0.04z"/>
   <path class="fil0" d="M1961.7 1428.35c15.04,9.17 37.64,21.9 55.42,27.89 44.83,15.06 103.51,4.54 127.41,0.05 9.51,-1.78 21.55,7.69 25.99,16.52 9.25,-1.7 23.81,-27.11 -0.73,-50.81 -7.41,1.95 -10.86,2.06 -11.37,3.42 5.29,1.98 9.57,3.7 13.08,7.5 8.3,8.99 7.94,21.34 -1.8,24.06 -15.94,-18.07 -36.52,-9.71 -56.72,-4.05 -26.23,7.38 -64.72,8.03 -95.29,-0.83 -19.03,-5.52 -39.4,-18.19 -56.53,-26.89 -3.07,1.96 -0.45,2.53 0.54,3.14z"/>
   <path class="fil0" d="M2169.29 1423.83c23.36,-5.73 30.77,-35.49 43.48,-43.09 -28.99,-28.04 -88.74,37.93 -144.69,40.17 -39.73,1.61 -87.65,-9.45 -134.63,-35.83 -0.91,1.69 -1.82,3.38 -2.73,5.06 75.94,44.4 167.22,50.93 238.16,3.43 8.61,-5.75 17.28,-10.72 26.96,-10.01 -14.85,16.11 -10.48,24.92 -38.45,41.6l11.9 -1.33z"/>
   <path class="fil0" d="M2116.29 1382.2c16.04,-11.18 19.92,-17.31 56.08,0.96l10.31 -6.94c-33.9,-16.66 -44.41,-19.58 -66.39,5.98z"/>
   <path class="fil0" d="M2288.4 1397.37c42.73,-26.59 172.1,23 261.38,-10.98 -38,68.39 -88.32,81.24 -174.82,49.86 -1.16,-0.4 3.39,-13.73 2.22,-14.17 -1.83,-0.67 -10.23,11.09 -12.13,10.45 -4.83,-1.6 5.51,-13.28 0.12,-15.6 -2.18,-0.93 -19.91,7.74 -22.17,6.71 -3.32,-1.49 -6.71,-3.06 -10.14,-4.68 -0.76,-1.12 6.39,-6.76 -23.68,-26.51 -2.85,-1.87 -4.21,13.26 -7.41,11.66 -4.37,-2.16 -8.83,-4.42 -13.37,-6.74zm44.53 7.94c29.59,-13.46 129.36,15.43 191.2,-1.76 -27.3,42.26 -80.28,33.57 -191.2,1.76z"/>
   <path class="fil0" d="M2134.48 1354.79c30.91,-22.78 124.51,19.7 189.11,-9.4 -28.52,71.49 -73.27,63.16 -189.11,9.4zm31.11 7.13c21.41,-11.53 94.68,12.9 139.44,-1.83 -19.75,36.2 -59.18,29.07 -139.44,1.83z"/>
   <path class="fil0" d="M1884.39 1462.99c-4.63,89.32 -23.48,151.11 -83.37,242.34 -10.21,15.57 -8.63,24.45 -11.13,50.78 -29.1,2.29 -60.04,-11.04 -56.45,-40.43 -19.67,10 -47.53,26.39 -70.5,12.13 1.09,-29.22 16.94,-46.6 38.02,-64.58 -6.17,-1.2 -11.22,-8.14 -16.21,-22.43 8.58,-2.48 29.51,-4.52 50.54,-14.17 31.69,-14.54 67.72,-41.38 85.52,-90.46 2.8,-2.78 5.61,-5.57 8.38,-8.41 -4.27,52.98 -51.01,93.61 -86.69,109.33 -18.94,8.34 -41.46,7.77 -46.44,10.03 3.84,9.51 11.79,12.75 20.97,12.42 -19.71,18.3 -39.7,35.51 -39.98,62.05 24.1,4.72 49.97,-10.74 72.76,-30.37 -21.36,49.55 11.12,51.21 28.85,56.19 -0.48,-18.9 4.54,-40.97 12.71,-52.92 58.15,-85.15 78.55,-151.11 83.48,-218.94 3.25,-4.14 6.4,-8.34 9.54,-12.56z"/>
   <path class="fil0" d="M1727.31 1685.81c62.96,-33 116.63,-85.67 130.76,-189.69 -3.72,4.38 -7.5,8.72 -11.35,12.98 -6.61,87.13 -61.38,135.89 -119.41,176.71z"/>
   <path class="fil0" d="M1961.46 1541.24c-4.11,20.56 5.94,37.89 17.28,43.65 19.75,10.04 44.88,-8.43 34.57,-28.16 -7.12,-18.28 -37.35,-11.79 -28.01,11.47 -7.16,-8.49 -5.74,-19.93 0.78,-26.72 14.99,-15.66 35.56,-3.81 38.77,16.25 4.39,27.38 -22.42,42.64 -39.79,38.89 -19.35,-4.17 -34.02,-26.31 -23.6,-55.38z"/>
   <path class="fil0" d="M1907.48 1429.5c14.51,15.35 37.85,43.71 50.11,78.24 5.41,15.25 6.4,31.74 5.34,49.19 -1.17,19.17 -5.47,35.88 -9.09,54.43 -2.57,13.1 -2.47,27.66 11.36,35.08 -15.48,-2.81 -18.8,-12.91 -19.01,-23.42 -0.35,-19.35 2.34,-39.44 3.23,-58.79 0.81,-17.53 0.95,-34.1 -1.61,-46.47 -8.04,-38.99 -23.07,-62.39 -41.59,-86.29 0.43,-0.65 0.85,-1.32 1.26,-1.97z"/>
   <path class="fil0" d="M1891.67 1452.91c5.31,9.9 10.84,22.91 11.96,35.46 1.58,17.76 -7.02,55.55 -16.56,69.25 -4.02,5.77 -0.52,-10.52 -0.6,-11.12 0.94,-2.77 1.78,-5.48 2.58,-8.16 10.23,-34.23 9.93,-61.69 1.58,-83.95l1.04 -1.48z"/>
   <path class="fil0" d="M1873.52 1558.39c11.72,9.6 19.13,13.71 31.28,11.04 -7.85,3.78 -15.91,11.22 -19.66,27.58 7.56,1.77 27.85,9.58 36.7,2.06 -1.21,16.52 4.83,33.84 14.21,44.86 9.38,11.02 21.41,17.53 30.71,15.97 -1.39,-0.6 -2.13,-5.83 -3.71,-5.95 -18.6,-1.34 -24.26,-8.98 -28.61,-23.56 -4.06,-13.56 -0.63,-33.8 4.53,-57.85 -15.32,22.98 -31.07,20.4 -40.09,15.46 5.29,-17.88 14.4,-16.42 23.04,-35.15 -11.96,1.49 -23.5,13.97 -35.89,4.44 4.31,-7.58 9.45,-24.05 6.41,-31.63 -6.31,21.71 -13.04,29.09 -18.92,32.73z"/>
   <path class="fil0" d="M1913.63 1476.08c9.43,21.42 18.07,52.32 7.22,78.69 -2.37,5.76 -13.46,19.18 -13.54,18.56 0.93,-2.75 2.74,-13.95 4.59,-16.63 12.33,-17.92 9.65,-54.15 0.04,-81.21l1.69 0.59z"/>
   <path class="fil0" d="M1953.93 1484.4c14.19,12.76 34.43,29.42 35.29,52.43 0.2,5.05 -6.88,21.96 -7.14,21.52 -0.25,-2.34 -2.69,-11.2 -2.23,-13.8 3.06,-17.26 -11.16,-43.16 -27.38,-60.03l1.46 -0.12z"/>
   <path class="fil0" d="M1932.68 1605.25c-30.44,-30.84 -53.74,30.43 -90.1,15 23.31,54.1 70.37,28.61 90.1,-15zm-11.85 4.44c-13.91,-10.56 -46.49,27.22 -68.11,19.03 31.04,26.18 58.81,2.97 68.11,-19.03z"/>
   <path class="fil0" d="M1962.61 1334.98c-0.86,2.5 26.24,0.83 23.7,25.81 -2.55,24.96 17.77,32.44 17.77,32.44l-39.78 -9.16 -25.42 -9.54c3.4,-6.71 6.67,-13.5 9.81,-20.36 7.11,-10.22 14.34,-20.48 13.92,-19.19z"/>
   <path class="fil0" d="M1415.67 1406.98c0.63,0.64 2.21,5.23 2.68,4.25 20.31,-42.67 60.51,-12.59 46.46,13.48 -7.64,14.15 -31.29,14.02 -33.25,-1.07 -2.27,-13.45 18.86,-19.58 21.59,-2.38 1.38,-7.74 -3.78,-13.85 -10.4,-15.31 -15.31,-3.31 -23.92,11.6 -18.5,24.58 7.39,17.69 33.45,17.46 43.3,6.05 19.98,-23.11 6.04,-51.76 -23.01,-52.83 -24.09,-0.91 -27.43,24.3 -28.87,23.23z"/>
   <path class="fil0" d="M1486.86 1471.64c-10.46,-4.88 -20.4,4.87 -6.04,7.67 22.71,4.42 38.22,-18.12 27.79,-35.4 -7.02,-11.64 -27.62,-12.76 -31.25,3.65 -2.29,13.45 20.52,17.27 23.26,0.08 1.39,7.72 -3.1,14.84 -13.41,16.62 -15.46,2.64 -25.24,-12.26 -19.83,-25.23 7.38,-17.68 33.47,-17.46 43.31,-6.06 19.95,23.11 7.18,53.16 -23.94,52.56 -48.77,-0.96 -11.8,-32.91 0.11,-13.89z"/>
   <path class="fil0" d="M1386.69 1428.69c46.8,0 84.75,24.52 84.75,54.74 0,2.11 -0.19,4.17 -0.53,6.21 -3.65,0.78 -7.32,1.5 -10.99,2.18 0.36,-1.81 0.55,-3.66 0.55,-5.52 0,-25.54 -35.26,-49.72 -73.39,-49.72 -38.13,0 -73.8,23.8 -73.8,49.33 0,2.03 0.24,4.05 0.65,6.01 -3.84,-0.69 -7.66,-1.46 -11.46,-2.27 -0.36,-2.02 -0.55,-4.11 -0.55,-6.22 0,-30.22 37.96,-54.74 84.77,-54.74z"/>
   <path class="fil1" d="M1312.33 326.89c-1.3,-19.38 -23.65,-52.38 -48.02,-54.99 -9.38,-7.49 -49.28,-0.36 -61.34,10.69 -20.27,15.66 -32.38,53.31 -42.75,84.99 -11.36,34.75 -26.26,77.03 -52.77,112.47 -30.19,23.26 -50.82,-16.95 -63.26,34.44 -2.81,6.84 -1.02,19.36 -5.12,21.75 -4.13,2.38 -14.17,-5.34 -25,-4.36 -28.51,-9.46 -33.95,10.54 -38.6,18.05 -3.13,5.07 0.92,14.94 -4.64,18.15 -12.26,7.06 -33.48,5.04 -45.93,4.48 -11.9,-0.58 -40.38,2.2 -53.52,26.63 -6.99,13.02 -8.18,28.69 -3.91,41.73 3.78,11.49 30.5,30.74 44.32,34.49 10.08,4.23 -7.46,5.68 -11.99,3.99 -5.72,-2.14 -13.53,-5.79 -20.08,-8.65 -20.26,-8.83 -43.21,2.51 -65.9,0.8 -61.94,3.14 -147.14,8.44 -224.01,36.55 -76.04,27.79 -155.17,78.84 -203.63,176.34 -6.1,12.29 -19.56,44.55 -22.11,80.95 14.9,-24.16 33.26,-40.47 56.73,-55.73 -23.15,20.52 -48.39,59.92 -61.36,90.76 -10.65,25.25 -15.54,66.6 -0.46,96.23 2.29,40.05 -14.1,58.35 -21.13,97.68 0,0.03 7.57,17.15 5.33,40.2 -2.69,27.82 -18.27,63.2 -16.5,73.07 -34.82,-50.92 -38.77,-50.55 -18.92,-109.25 2.88,-8.5 31.18,-37.75 27.27,-106.26 -1.07,-18.54 -2.12,-37.1 -2.24,-56.17l0 -0.05 0 -4.95 0 -0.05c0.12,-29.09 3.76,-53.58 10.63,-77.33 6.83,-23.67 16.76,-46.38 29.51,-72.04 51.73,-104.1 129.77,-159.02 211.09,-188.74 80.46,-29.43 163.36,-33.84 226.91,-37.1 26.01,-1.31 31.92,-33.55 41.04,-50.52 20.47,-38.05 47.18,-48.36 68.51,-47.36 17.26,0.8 32.91,0.65 42.55,-14.91 5.67,-10.23 10.71,-20.4 28.94,-23.42 14.32,-2.39 29.34,6.95 35.15,-8.52 4.26,-11.38 9.28,-24.74 27.13,-32.96 8.39,-3.83 16,-5.71 23.14,-7.47 8.66,-2.11 16.44,-4.02 21.18,-9.42 26.14,-29.78 37.86,-65.63 48.51,-98.13 11.58,-35.45 22,-67.28 48.14,-87.47 9.65,-7.46 21.12,-12.53 33.18,-15.03 13.97,-2.86 28.77,-2.25 42.6,2.2 13.97,4.49 26.94,12.86 36.99,25.44 7.97,9.93 14.05,22.49 17.31,37.78l1.75 12.79c1.15,8.31 -0.43,9.66 -6.93,4.84 -10.93,-8.09 -18.21,-2.54 -27.12,-10.09 -8.33,6.73 -8.1,23.79 -19.56,18.01 -3.73,-1.88 5.47,-7.82 -0.12,-18.51 -11.05,-21.14 -35.55,-18.11 -40.95,-2.22 -8.32,24.41 -10.9,81.15 -17.44,121.09 -4,24.36 -7.62,46.43 -11.46,61.13l0 0.05 -0.02 0.06c-15.58,59.29 -58.51,67.79 -90.25,96.47 -18.03,16.27 -10.42,37.35 -14.64,57.67 -3.22,15.54 -27.9,38.98 -65.91,43.23 -2.89,-1.13 31.06,-19.47 44.02,-34.74 9.47,-11.15 10.75,-25.12 10.53,-29.84l0 -0.05c-0.82,-17.34 0.88,-28.62 16.13,-42.38 20.97,-18.95 63.7,-43.05 76.98,-64.79 28.32,-46.31 24.62,-116.55 34.14,-169.39 5.29,-29.36 12.54,-52.28 26.68,-58.45 31,-13.52 51.96,24.71 71.2,16.14z"/>
   <path class="fil1" d="M359.17 1094.26c13.68,31.1 24.21,86.16 17.7,111.52 -6.41,24.92 -16.2,48.32 -26.91,73.7l0.03 0 -0.05 0.11 -0.05 0.05c-4.78,11.36 -6.57,24.23 -6.98,36.74 -0.18,4.92 -1.24,12.28 12.04,14.11 0.1,2.88 -12.26,6.08 -12.84,8.9 -2.02,10.03 -7.32,19.51 -9.49,27.84l-1.44 5.37c-4,14.47 11.74,15.06 15.58,14.93l57.67 -4.79c1.07,4.28 31.53,8.93 25.7,-11.74 -2.55,-9.04 -11.88,-19.58 -25.17,-14.53 -1.49,-6.91 33.51,-12.26 34.11,22.5 0.11,6.54 20.45,5.77 20.44,-1.07 -3.75,-25.02 -10.54,-31.67 -25.34,-25.58 -1.18,-2.17 5.36,-8.61 4.48,-10.68 -1.74,-4.11 -10.76,-4.26 -11.93,-8.9 26.56,-23.04 -6.4,-26.87 -3.44,-34.11 14.79,-36.15 27.71,-59.5 52.53,-84.01 11.41,-11.25 25.76,-24.57 34.98,-40.02 6.75,-11.33 11.82,-25.64 16.56,-56.92 11.6,-36.04 45.25,-143.29 84.17,-155.75 -4.73,5.51 -10.64,14.92 -16.59,25.98 -2.85,5.28 -5.7,10.97 -8.43,16.78 -11.83,25.17 -21.33,52.87 -17.99,63.01 2.46,7.55 6.68,18.15 5.7,25.2 -0.37,2.71 6.17,11.37 3.91,9.62 -16.63,-12.72 -35.55,11.12 -35.36,24.04 -3.73,54.95 -7.86,40.15 -60.71,95.97 -11.66,12.3 -17.25,26.53 -25.03,40.2 -7.99,14 -10.66,34.52 -8.42,53.04 0.47,3.92 1.16,7.68 2.03,11.19 0.86,3.41 1.93,6.68 3.22,9.7 0.69,1.65 1.38,3.1 2.02,4.29l2.15 3.95 0.02 -0.01c6.47,11.85 11.13,20.39 11.43,28.5 0.58,15.48 -8.98,22.12 -36.41,23.09l-88.74 3.18c-22.4,0.79 -29.59,-3.76 -30.12,-18.01 -0.18,-4.83 1.12,-9.53 2.86,-15.8 0.8,-2.93 1.12,-3.94 1.42,-5.1 1.94,-7.34 7.81,-17.85 7.46,-29.25 -0.98,-31.85 7.85,-58.09 18.15,-84.47 15.03,-38.53 30.1,-71.49 15.08,-152.77z"/>
   <path class="fil1" d="M605.74 1156.94c13.97,33.23 32.26,80.39 13.43,105.29 -6.9,13.97 -18.99,18.47 -13.92,34.86l0.02 -0.02c5.14,10.6 37.36,54.99 23.23,63.79l0.01 0.03c-2.17,1.35 -4.64,2.06 -7.42,2.11 -43.31,0.8 -185.9,32.21 -115.83,-53.25 18.35,-29.37 -9.64,-59.46 -28.76,-80.16l13.69 -14.8c17.3,24.91 44.54,61.65 30.23,93.27 -1.21,2.66 9.02,3.39 7.23,6.27 -0.79,1.25 -13.3,4.65 -14.06,6.05 -26.16,47.89 42.3,32.99 70.03,32.84 -9.61,-9.09 -8.66,-18.17 0.1,-27.24 -4.61,22.19 17.46,31.07 38.59,27.97 8.14,-19.63 -33.26,-33.6 -39.37,-46.62 0,-0.02 2.86,-21.29 1.02,-21.83 -36.65,-10.74 3.18,-9.35 8.29,-11.53 40.97,-17.44 3.59,-97.56 -11.69,-121.03l2.35 -1.51c7.22,2.4 15.08,6.41 22.83,5.51z"/>
   <path class="fil1" d="M535.06 1149.15c36.61,8.38 94.19,11.27 137.85,-6.64 44.09,-18.09 65.99,-33.3 123.38,-74.4 1.37,-0.98 17.17,-15.76 18.57,-16.78l8.04 15.72c-64.78,45.29 -97.2,63.9 -144.25,83.21 -48.55,19.91 -104.78,16.49 -146.79,6.89l3.2 -8z"/>
   <path class="fil0" d="M567.16 1042.08c8.66,104.92 110.12,60.44 200.39,28.32 -44.4,39.14 -170.98,82.29 -214.48,7.94 0,0 15.02,-37.18 14.09,-36.26z"/>
   <path class="fil1" d="M513.69 769.96c65.4,-33.09 128.61,-54.06 201.58,-81.33 -57.52,8.44 -144.85,36.17 -210.72,77.28 -46.54,29.07 -95.52,82.87 -114.48,134.44 31.6,-30.87 56.14,-96.24 123.62,-130.39z"/>
   <path class="fil1" d="M949.15 831.42c0.16,8.25 21.26,83.33 21.27,91.43 0.17,78.54 -6.56,151.37 -27.24,225.14 -1.89,6.8 -9.16,32.85 -14.02,58.2 -6.85,35.8 -7.22,63.39 0.12,80.25 17.77,13.92 28.83,24.02 30.2,36.2 1.52,13.47 2.9,19.44 -5.05,22.61 -0.37,-0.66 -0.75,-1.3 -1.14,-1.95l-133.49 0c1.1,2.52 2.24,5.01 3.37,7.51 -8.14,-0.73 -13.65,-2.54 -14.75,-6.46 -0.05,-0.12 -4.94,-19.64 6.05,-38.19 9.99,-30.47 10.86,-68.44 6.52,-112.41 -3.36,-34.21 -3.85,-78.66 1.44,-106.02 -9.41,-6.13 -22.9,-39.69 -8.97,-101.92 6.68,-29.79 -0.22,-59.31 1.08,-70.8 9.6,22.48 13.16,62.78 7.82,99.4 -2.77,19.07 -2.89,32.13 5.01,51.08 14.96,21.87 39.05,5.96 36.96,-31.31 13.73,51.79 -20.81,56.06 -31.34,57.01 -5.27,27.09 -1.86,111.31 2.66,146.53 0.79,9.55 2.31,18.08 3.03,26.58 1.17,14.11 15.03,19.23 14.88,21.38 -0.26,3.83 -15.22,2.27 -16.25,6.41 -6.62,6.46 -8.18,13.44 -12.19,21.26 -6.03,10.17 -1.29,20.09 2.95,24.48 7.22,7.46 52.23,3.11 62.5,1.46 42.49,-0.98 26.96,-31.08 14.33,-40.81 10.34,2.78 35.53,19.31 19.03,38.37 19.23,4.78 24.28,1.46 26.73,-5.04 -6.82,-36.42 -29.2,-26.22 -35.27,-33.8 -3.86,-4.86 -5.56,-15.39 -5.7,-29.13 -0.13,-14.54 -12.83,-17.26 -9.21,-18.84 10.13,-4.44 10.87,-12.3 11.3,-16.24 2.34,-21.25 6.44,-44.58 11.14,-65.29 2.13,-9.34 4.37,-18.2 6.56,-26.04 2.24,-8.04 4.44,-14.98 6.49,-20.36l0.05 -0.15 0.01 -0.04c12.97,-34.48 22.17,-151.37 17.44,-199.21l-4.32 -91.29zm-13.12 290.5l0.01 0 -0.01 0z"/>
   <path class="fil1" d="M998.4 841.16c40.39,58.79 78.48,125.46 128.75,173.34 24.9,23.71 62.48,58.67 67.54,81.08l0.01 0.08 0.05 0.05c2.41,10.76 2.05,26.8 1.68,43.08 -0.44,19.26 -0.87,37.84 0.32,43.63l2.43 0.23 0.05 0.09c1.76,2.43 3.31,4.96 4.64,7.51 1.32,2.5 2.44,5.03 3.4,7.51 15.35,40.04 -11.47,35.05 -35.24,36.2 -13.34,0.67 -29.81,1.69 -43.04,1.69 -26.13,0 -48.22,1.39 -49.98,-9.08l-0.03 -0.13 -1.13 -2.79c-4.3,-21.09 8.48,-30.57 15.47,-42.03 2.8,-13.11 -1.64,-37.59 -6.39,-43l-0.05 -0.05 -0.02 -0.01 0 0c-0.72,-0.83 0.16,-5.53 -1.74,-7.32 -19.21,-18.14 -42.96,-41.04 -63.98,-58.58 -9.51,-7.93 -24.29,-20.16 -33.16,-21.85 -8.74,-1.69 -18.55,-2.55 -30.77,2.17l-7.83 -8.64c16.78,-6.47 30.97,-8.23 44.47,-5.62 13.39,2.58 25.42,9.33 38.1,19.92 18.04,15.05 36.69,38.65 52.46,52.72 2.95,2.63 11.92,7.35 14.37,9.69 2.42,2.25 5.46,0.26 6.73,1.72l0.07 0.05 0.01 0.03 0 0c5.22,6.01 -3.01,20.93 -2.01,33.21 1.18,14.59 -2.25,15.07 6.59,32.2 -11.5,5.59 -22.75,11.64 -19.45,27.85 4.15,20.63 55.33,10.33 67.18,10.33 18.02,6.68 2.94,-13.06 11.85,-18.87 5.87,25.31 21.32,13.79 25.97,13.42 16.09,-7.91 0.98,-32.04 -23.3,-35.82 15.31,-12.71 8.89,-24.44 -0.57,-29.04 15.22,-2.3 15.2,-52.69 1.17,-70.34 -24.61,-30.98 -36.67,-45.8 -58.05,-66.17 -7.04,-6.72 -28.16,-34.89 -36.48,-36.62 -13.85,-2.88 -14.75,26.82 -18.06,9.5 -2.68,-14.03 3.42,-21.83 -1.89,-35.65 -13.56,-35.31 -44.34,-75.26 -62.78,-102.23l2.64 -13.46z"/>
   <path class="fil0" d="M1040.99 799.59c0,0 -37.31,13.84 -41.23,46.03 -3.95,32.19 -36.8,85.76 -36.8,85.76 -10.04,-43.6 28.79,-57.47 26.6,-86.85 -1,-13.78 9.33,-29.65 16.41,-36.09l35.02 -8.85z"/>
   <path class="fil0" d="M953.04 729.78c-3.37,20.79 -19.45,41.86 -12.35,60.99 19.29,52.11 3.88,59.54 8.23,88.51 6.01,39.87 7.26,58.02 -26.74,31.45 -18.39,-14.38 -25.6,-41.64 -68.91,-48.45 -81.75,-12.87 -88.14,-45.33 -87.94,-45.5l14.35 -12.24c0.15,7.05 3.53,-4.51 5.46,0.64 7.25,19.4 25.25,26.79 41,34.96 35.53,18.49 65.59,18.94 109.54,62.3 6.55,-26.34 3.42,-57.08 -4.77,-99.98 -4.75,-25.03 12.83,-42.77 22.13,-72.68z"/>
   <path class="fil0" d="M1006.21 1273.26c122.71,-94.17 247.73,-43.67 343.76,74.03 3.91,4.78 1.79,7.89 5.61,12.91 -99.39,-116.87 -234.1,-179.95 -350.34,-73.94 -32.78,29.88 -58.64,22.51 -88.17,31.58 41.67,-32.69 58.89,-21.39 89.14,-44.58z"/>
   <path class="fil0" d="M916.21 1306.91c28.65,-9.36 52.02,43.59 91.93,15.3 -10.5,25.22 -9.74,43.83 0.03,67.63 0.41,0.99 13.98,-102.82 102.51,-126.81 88.97,-24.09 171.04,19.64 240.08,101.42 3.36,3.96 1.53,6.39 4.82,10.54 -73.46,-83.56 -160.06,-128.59 -251.81,-93.35 -60.16,23.11 -80.32,72.72 -89.92,127.97 -2.46,14.09 -31.75,-32.38 -16.82,-71.6 -51.35,10.01 -76.26,-29.59 -80.82,-31.1z"/>
   <path class="fil0" d="M1349.37 1391.17c-27.97,-37.48 -93.14,-85.64 -143.13,-94.64 -43.6,-7.83 -82.95,10.68 -88.26,66.07 -14.62,-7.95 -22.5,4.66 -38.48,-11.92 -2.69,11.91 -8.63,20.41 -16.59,29.39 -2.81,2.12 -5.93,4.73 -9.46,7.89l-13.16 12.69c-14.15,-25.19 -15.06,-52.24 13.56,-87.81 -15.42,30.87 -19.93,55.21 -8.1,64.37 14.63,-3.1 24.98,-20.33 32.4,-41.14 9.24,15.93 21.83,9.95 33.75,14.61 8.24,-53.95 51.4,-69.39 95.18,-61.49 46.92,8.46 122.27,58.92 140.94,97.99 0,0 -0.69,4.66 1.35,3.99z"/>
   <path class="fil1" d="M1324.74 1390.12c-1.12,0.66 -52.91,-16.51 -95.33,-16.57 -32.86,-0.04 -30.05,27.28 -64.94,34.29 -11.22,2.26 -25.51,2.93 -35.97,-2.27 -16.87,-8.35 -20.78,-27.67 0.49,-34.68 14.28,-4.69 23.75,4.96 23.97,20.04 13.99,-1.84 11.28,-38.73 -23.66,-32.74 -19.74,5.39 -25.52,23.41 -19.66,38.12 7.35,6.78 14.93,13.3 22.78,19.54 9.91,2.59 21.94,1.67 31.79,-0.36 31.29,-6.46 33.02,-28.94 65.59,-31.47 29.06,-2.26 62.21,4.28 80.27,8.55 6.26,1.48 -6.79,6.7 7.3,-0.38l7.37 -2.07z"/>
   <path class="fil0" d="M1334.59 1383.53c-31,-24.44 -64.52,-48.44 -107.77,-49.53 -21.45,-0.55 -52.6,2.12 -65.75,40.22 -1.38,3.95 -3.58,9.09 -6.95,14.01 -2.55,3.73 -6.69,6.79 -9.42,6 11.75,6.31 15.98,-1.46 18.63,-8.02 13.72,-33.86 32.11,-44.92 63.94,-44.5 42.97,0.54 77.86,22.3 106.86,48.78l0.46 -6.96z"/>
   <path class="fil0" d="M1203.86 1389.23c-15.77,16.08 -15.9,37.74 -8.14,49.74 13.52,20.88 48.65,19.31 49.89,-4.69 3.54,-20.74 -29.69,-33 -33.91,-6.44 -2.12,-11.94 5.82,-21.4 16.07,-23.63 23.63,-5.13 36.9,17.87 28.53,37.89 -11.41,27.33 -46.33,25.02 -61.13,11.24 -16.51,-15.35 -18.13,-44.12 8.69,-64.11z"/>
   <path class="fil0" d="M1353.61 1433.74c3.36,0.65 7.14,-2.62 7.27,-3.95 3.47,-35.24 -14.43,-126.74 -48.96,-141.62 18.68,-12.1 29.74,-2.48 39.85,9.04 12.23,13.93 18.71,71.01 21.15,72.93 0,-4.13 -9.38,-49.33 -6.58,-82.22 1.1,-13.21 10.69,-28.37 21.02,-36.33l0 -7.93c-18.37,11.5 -29.58,24.61 -29.58,43.38 -18.14,-12.46 -32.06,-18.5 -60.88,-2.09 36.44,19.85 68.58,113.84 56.71,148.79z"/>
   <path class="fil0" d="M425.05 1531.73c153.82,102.51 310.51,47.54 430.87,-80.61 4.91,-5.21 2.24,-8.59 7.04,-14.05 -124.58,127.24 -291.41,193.93 -437.09,78.52 -41.1,-32.54 -70.97,-16.09 -95.4,9.75 39.11,-11.51 56.69,-18.87 94.58,6.39z"/>
   <path class="fil0" d="M331.91 1524.59c8.22,-33.31 19.34,-68.55 81.95,-49.21 -13.15,-25.2 -11.11,-27.55 -15.77,-54.41 -0.1,-0.58 17.54,25.06 53.32,55.2 26.11,22 61.58,48.51 108.34,58.67 93.87,20.39 197.85,-15.64 281.93,-88.26 7.68,-6.63 14.99,-13.43 22.13,-20.33 -0.74,-1.15 -1.5,-2.32 -2.21,-3.49 -7.51,7.14 -15.26,14.19 -23.58,20.94 -86.77,70.45 -187.78,109.56 -292.56,77.47 -31.8,-9.75 -61.81,-30.51 -85.39,-52.94 -32.3,-30.76 -55.55,-63.26 -82.41,-62.1 12.35,29.22 5.73,30.98 16.62,54.2 -64.35,-10.02 -68.74,46.87 -62.37,64.26z"/>
   <path class="fil0" d="M405.21 1422.37c6.94,-10.77 29.53,9.49 41.58,13.54 -12.08,-25.21 7.32,-30.82 22.63,-34.39 1.31,-0.29 13.4,72.52 115.33,96.6 88.11,20.83 185.95,-20.74 264.09,-96.8 -0.71,-1.23 -1.41,-2.48 -2.1,-3.72 -81.22,74.15 -176.95,117.87 -275.79,84.93 -69.29,-23.08 -90.25,-69.23 -99.53,-95.98 -14.16,1.39 -41.75,15.7 -31.74,38.92 -22.82,-19.21 -48.42,-20.55 -56.38,-17.76l21.91 14.66z"/>
   <path class="fil0" d="M833.81 1373.22c-28.78,12.8 -72.31,21.55 -103.15,15.92 -41.39,-7.54 -68.02,-38.23 -60.3,-69.11 -10.7,0.14 -38.19,4.88 -34.22,42.31 2.32,-14.99 11.47,-32.77 25.28,-32.52 -7.16,26.92 22,57.52 71.46,65.59 31.06,5.06 73.78,-3.05 102.5,-17.66 0.22,-0.09 0.42,-0.19 0.59,-0.28 -0.71,-1.41 -1.44,-2.82 -2.16,-4.25z"/>
   <path class="fil0" d="M813 1428.35c-15,9.17 -37.62,21.9 -55.4,27.89 -44.84,15.06 -103.5,4.54 -127.41,0.05 -9.51,-1.78 -21.55,7.69 -25.99,16.52 -9.25,-1.7 -23.83,-27.11 0.73,-50.81 7.41,1.95 10.85,2.06 11.38,3.42 -5.31,1.98 -9.59,3.7 -13.08,7.5 -8.3,8.99 -7.95,21.34 1.78,24.06 15.94,-18.07 36.52,-9.71 56.72,-4.05 26.25,7.38 64.73,8.03 95.29,-0.83 19.05,-5.52 39.4,-18.19 56.55,-26.89 3.06,1.96 0.44,2.53 -0.57,3.14z"/>
   <path class="fil0" d="M605.43 1423.83c-23.36,-5.73 -30.77,-35.49 -43.48,-43.09 28.99,-28.04 88.74,37.93 144.68,40.17 39.44,1.59 86.93,-9.3 133.6,-35.26 0.9,1.71 1.81,3.41 2.74,5.09 -75.74,43.87 -166.52,50.11 -237.14,2.83 -8.6,-5.75 -17.27,-10.72 -26.96,-10.01 14.86,16.11 10.47,24.92 38.46,41.6l-11.9 -1.33z"/>
   <path class="fil0" d="M658.44 1382.2c-16.05,-11.18 -19.94,-17.31 -56.09,0.96l-10.31 -6.94c33.89,-16.66 44.41,-19.58 66.4,5.98z"/>
   <path class="fil0" d="M640.24 1354.79c-30.91,-22.78 -124.5,19.7 -189.11,-9.4 28.52,71.49 73.26,63.16 189.11,9.4zm-31.11 7.13c-21.41,-11.53 -94.69,12.9 -139.43,-1.83 19.75,36.2 59.17,29.07 139.43,1.83z"/>
   <path class="fil0" d="M890.44 1464.96c4.81,88.26 23.82,149.81 83.25,240.37 10.22,15.57 8.63,24.45 11.12,50.78 29.11,2.29 60.06,-11.04 56.46,-40.43 19.67,10 47.53,26.39 70.51,12.13 -1.1,-29.22 -16.93,-46.6 -38.02,-64.58 6.17,-1.2 11.2,-8.14 16.19,-22.43 -8.56,-2.48 -29.48,-4.52 -50.53,-14.17 -31.23,-14.33 -66.68,-40.63 -84.72,-88.38 -3.05,-2.96 -6.06,-5.96 -9.05,-8.97 5.04,52.23 51.23,92.24 86.55,107.81 18.96,8.34 41.48,7.77 46.46,10.03 -3.84,9.51 -11.78,12.75 -20.97,12.42 19.71,18.3 39.71,35.51 39.97,62.05 -24.1,4.72 -49.96,-10.74 -72.77,-30.37 21.39,49.55 -11.09,51.21 -28.83,56.19 0.47,-18.9 -4.54,-40.97 -12.71,-52.92 -57.61,-84.36 -78.16,-149.89 -83.36,-217.04 -3.22,-4.11 -6.42,-8.29 -9.55,-12.49z"/>
   <path class="fil0" d="M1047.4 1685.81c-62.56,-32.81 -115.99,-85.02 -130.5,-187.8 3.68,4.29 7.43,8.55 11.22,12.74 7.18,86.08 61.64,134.49 119.28,175.06z"/>
   <path class="fil0" d="M813.27 1541.24c4.1,20.56 -5.95,37.89 -17.3,43.65 -19.75,10.04 -44.87,-8.43 -34.57,-28.16 7.12,-18.28 37.35,-11.79 28.03,11.47 7.14,-8.49 5.72,-19.93 -0.79,-26.72 -15,-15.66 -35.57,-3.81 -38.77,16.25 -4.39,27.38 22.41,42.64 39.79,38.89 19.34,-4.17 34.02,-26.31 23.61,-55.38z"/>
   <path class="fil0" d="M866.42 1430.35c-14.55,15.54 -37.25,43.5 -49.29,77.39 -5.41,15.25 -6.4,31.74 -5.35,49.19 1.17,19.17 5.48,35.88 9.1,54.43 2.58,13.1 2.48,27.66 -11.36,35.08 15.47,-2.81 18.79,-12.91 18.99,-23.42 0.37,-19.35 -2.32,-39.44 -3.22,-58.79 -0.79,-17.53 -0.94,-34.1 1.63,-46.47 7.93,-38.46 22.65,-61.77 40.84,-85.34 -0.45,-0.69 -0.9,-1.36 -1.34,-2.07z"/>
   <path class="fil0" d="M882.47 1454c-5.12,9.75 -10.31,22.26 -11.39,34.37 -1.57,17.76 7.02,55.55 16.56,69.25 4.02,5.77 0.54,-10.52 0.61,-11.12 -0.93,-2.77 -1.78,-5.48 -2.59,-8.16 -10.02,-33.58 -9.92,-60.65 -2.02,-82.69l-1.17 -1.65z"/>
   <path class="fil0" d="M901.2 1558.39c-11.71,9.6 -19.12,13.71 -31.27,11.04 7.84,3.78 15.9,11.22 19.64,27.58 -7.54,1.77 -27.85,9.58 -36.68,2.06 1.2,16.52 -4.84,33.84 -14.22,44.86 -9.4,11.02 -21.41,17.53 -30.71,15.97 1.4,-0.6 2.12,-5.83 3.71,-5.95 18.59,-1.34 24.25,-8.98 28.61,-23.56 4.06,-13.56 0.62,-33.8 -4.52,-57.85 15.31,22.98 31.06,20.4 40.08,15.46 -5.29,-17.88 -14.41,-16.42 -23.05,-35.15 11.97,1.49 23.5,13.97 35.89,4.44 -4.29,-7.58 -9.45,-24.05 -6.41,-31.63 6.31,21.71 13.04,29.09 18.93,32.73z"/>
   <path class="fil0" d="M861.08 1476.08c-9.42,21.42 -18.06,52.32 -7.22,78.69 2.37,5.76 13.46,19.18 13.54,18.56 -0.93,-2.75 -2.73,-13.95 -4.58,-16.63 -12.32,-17.92 -9.64,-54.15 -0.04,-81.21l-1.7 0.59z"/>
   <path class="fil0" d="M820.8 1484.4c-14.2,12.76 -34.43,29.42 -35.32,52.43 -0.19,5.05 6.89,21.96 7.17,21.52 0.24,-2.34 2.68,-11.2 2.21,-13.8 -3.05,-17.26 11.16,-43.16 27.39,-60.03l-1.45 -0.12z"/>
   <path class="fil0" d="M842.04 1605.25c30.44,-30.84 53.75,30.43 90.09,15 -23.31,54.1 -70.36,28.61 -90.09,-15zm11.83 4.44c13.93,-10.56 46.52,27.22 68.12,19.03 -31.02,26.18 -58.81,2.97 -68.12,-19.03z"/>
   <path class="fil0" d="M812.12 1334.98c0.83,2.5 -26.25,0.83 -23.71,25.81 2.54,24.96 -17.77,32.44 -17.77,32.44l39.77 -9.16 24.28 -9.1c-4.36,-8.65 -8.5,-17.4 -12.48,-26.26 -5.66,-8.09 -10.45,-14.79 -10.09,-13.73z"/>
   <path class="fil0" d="M1359.05 1406.98c-0.65,0.64 -2.22,5.23 -2.68,4.25 -20.31,-42.67 -60.52,-12.59 -46.46,13.48 7.63,14.15 31.28,14.02 33.24,-1.07 2.29,-13.45 -18.84,-19.58 -21.58,-2.38 -1.37,-7.74 3.77,-13.85 10.41,-15.31 15.3,-3.31 23.9,11.6 18.49,24.58 -7.39,17.69 -33.46,17.46 -43.31,6.05 -19.96,-23.11 -6.02,-51.76 23.01,-52.83 24.1,-0.91 27.44,24.3 28.88,23.23z"/>
   <path class="fil0" d="M1287.85 1471.64c10.47,-4.88 20.4,4.87 6.05,7.67 -22.7,4.42 -38.21,-18.12 -27.78,-35.4 7,-11.64 27.62,-12.76 31.24,3.65 2.29,13.45 -20.54,17.27 -23.27,0.08 -1.37,7.72 3.11,14.84 13.42,16.62 15.44,2.64 25.25,-12.26 19.83,-25.23 -7.38,-17.68 -33.47,-17.46 -43.31,-6.06 -19.94,23.11 -7.17,53.16 23.94,52.56 48.77,-0.96 11.81,-32.91 -0.12,-13.89z"/>
   <path class="fil1" d="M1386.68 1510.57l-0.05 0 0 -0.02c-56.17,0 -109.73,-11.16 -158.57,-31.35 -8.14,-3.36 -15.97,-6.89 -23.46,-10.55l0 -0.02c-39.51,-19.31 -75.49,-44.73 -106.65,-75 -9.18,-8.9 -14.7,-14.02 -19.27,-14.39l-0.01 0c-4.57,-0.36 -10.5,3.75 -21.07,13.2l-22.58 21.76 -0.08 0.08 -1.22 1.13c-1.31,1.19 -2.58,2.36 -3.52,3.28 -6.29,6.18 -8.53,12.08 9.39,29.72l0.02 0 0.03 0.03 0 0.02c12.45,12.26 25.58,23.9 39.33,34.8 13.74,10.92 28.07,21.12 42.95,30.55 76.51,48.47 167.34,76.58 264.76,76.58l0 -0.02 0.06 0 0 0.02c67.63,0 132.11,-13.57 190.83,-38.08 9.65,-4.04 19.06,-8.31 28.21,-12.84 47.5,-23.45 90.67,-54.32 127.98,-91.04 17.94,-17.66 15.7,-23.56 9.4,-29.74l-0.03 0c-1.33,-1.32 -2.39,-2.27 -3.48,-3.28l-1.22 -1.13 -0.09 -0.08 -22.58 -21.76c-10.57,-9.45 -16.49,-13.56 -21.07,-13.2l-0.02 0c-4.55,0.37 -10.07,5.48 -19.23,14.36l0.03 0.02 -0.04 0.03 -0.05 0.02c-10.47,10.14 -21.41,19.73 -32.85,28.7 -11.36,8.93 -23.31,17.32 -35.79,25.14 -63.74,39.94 -139.2,63.06 -220.06,63.06zm-0.05 -12.11l0 -0.01 0.05 0c78.48,0 151.68,-22.39 213.46,-61.11 11.93,-7.5 23.54,-15.65 34.74,-24.45 11.11,-8.73 21.75,-18.02 31.83,-27.81l-0.01 0 0.04 -0.05 0.03 -0.01c11.21,-10.87 18.14,-17.15 26.91,-17.85l0 0c8.77,-0.72 17.05,4.4 30.37,16.31l0.16 0.17 22.66 21.82 0 0 1.22 1.13c1.43,1.32 2.84,2.62 3.77,3.53l-0.02 0.01c11.57,11.35 16.42,21.43 -9.35,46.82 -38.23,37.64 -82.48,69.26 -131.2,93.31 -9.58,4.72 -19.21,9.11 -28.91,13.16 -60.16,25.14 -126.28,39.02 -195.64,39.05l0 0.01 -0.06 0 0 -0.01c-99.9,0 -193.01,-28.81 -271.4,-78.48 -15.25,-9.68 -29.96,-20.13 -44.02,-31.3 -14.06,-11.17 -27.54,-23.1 -40.33,-35.69l-0.01 0 -0.04 -0.03 0 -0.02c-25.8,-25.39 -20.93,-35.47 -9.35,-46.83 1.32,-1.31 2.53,-2.41 3.74,-3.53l1.22 -1.13 0 0 22.66 -21.82 0.16 -0.17c13.33,-11.91 21.61,-17.03 30.37,-16.31l0 0c8.76,0.7 15.7,6.98 26.89,17.85 30.25,29.37 65.15,54.03 103.5,72.78l0.03 0c7.65,3.74 15.25,7.16 22.74,10.28 47.35,19.57 99.31,30.38 153.79,30.38z"/>
   <path class="fil1" d="M1386.68 1719.66l-0.05 0 0 -0.03c-64.16,-0.01 -126.01,-9.63 -184.2,-27.51 -28.38,-8.7 -55.94,-19.42 -82.54,-31.95 -136.43,-64.31 -245.65,-176.42 -305.74,-314.5l-3.68 -8.43 9.33 0 133.49 0 3.65 0 1.75 3.15 0 0c11.86,20.78 25.16,40.59 39.76,59.27 14.64,18.71 30.63,36.35 47.83,52.76 88.32,84.33 208.28,136.2 340.4,136.2l0 -0.03 0.05 0 0 0.03c61.14,0 119.69,-11.14 173.76,-31.45 17.67,-6.66 34.81,-14.24 51.25,-22.68 85.15,-43.68 155.82,-111.42 202.94,-194.14l1.76 -3.11 3.61 0 133.51 0 9.33 0 -3.67 8.43 -0.02 0.06c-13.43,30.82 -29.28,60.33 -47.29,88.26 -18,27.9 -38.25,54.33 -60.49,79.04 -114.16,126.79 -280.07,206.59 -464.74,206.6l0 0.03zm-0.05 -12.12l0 -0.01 0.05 0 0 0.01c181,0 343.61,-78.24 455.53,-202.53 21.72,-24.11 41.56,-50.04 59.3,-77.51 16.05,-24.88 30.33,-51 42.63,-78.12l-120.49 0c-48.27,83.33 -119.98,151.58 -206.23,195.81 -17.07,8.77 -34.63,16.57 -52.54,23.3 -55.36,20.82 -115.42,32.2 -178.15,32.22l0 0.02 -0.05 0 0 -0.02c-135.48,-0.02 -258.47,-53.17 -348.99,-139.62 -17.6,-16.8 -33.97,-34.86 -48.98,-54.03 -14.31,-18.31 -27.37,-37.59 -39.02,-57.68l-120.46 0c59.64,131.52 165.02,238.18 295.97,299.9 25.95,12.22 52.97,22.71 80.89,31.29 57.08,17.53 117.72,26.97 180.54,26.97z"/>
   <path class="fil0" d="M1961.25 1334.98c-0.86,2.5 26.23,0.83 23.7,25.81 -2.54,24.96 17.77,32.44 17.77,32.44l-39.77 -9.16 -28.8 -10.81c0,0 27.94,-40.77 27.1,-38.28z"/>
   <path class="fil1" d="M881.66 1393.6l39.22 -24.08 18.17 28.58 -6.64 4.08 -13.21 -20.8 -8.71 5.35 12.31 19.35 -6.61 4.05 -12.3 -19.35 -10.68 6.55 13.7 21.54 -6.61 4.05 -18.64 -29.32zm35.41 27.36l6.07 6.7c-2.17,2.2 -3.31,4.38 -3.49,6.54 -0.16,2.15 0.57,4.36 2.24,6.61 1.76,2.39 3.61,3.82 5.54,4.29 1.93,0.49 3.58,0.24 4.97,-0.76 0.88,-0.61 1.44,-1.41 1.68,-2.36 0.25,-0.96 0.13,-2.24 -0.35,-3.83 -0.33,-1.09 -1.27,-3.47 -2.77,-7.12 -1.94,-4.69 -2.75,-8.37 -2.48,-11.02 0.38,-3.72 2.07,-6.65 5.02,-8.76 1.91,-1.36 4.08,-2.09 6.53,-2.22 2.43,-0.12 4.83,0.51 7.18,1.88 2.34,1.38 4.56,3.48 6.65,6.31 3.42,4.62 4.94,8.82 4.63,12.62 -0.36,3.81 -2.19,6.99 -5.55,9.57l-5.81 -7.18c1.68,-1.7 2.56,-3.37 2.62,-5.02 0.08,-1.65 -0.66,-3.51 -2.21,-5.6 -1.58,-2.15 -3.28,-3.53 -5.08,-4.11 -1.17,-0.38 -2.23,-0.22 -3.2,0.48 -0.88,0.64 -1.38,1.54 -1.46,2.74 -0.11,1.5 0.73,4.38 2.56,8.6 1.78,4.24 2.87,7.55 3.22,9.94 0.34,2.39 0.09,4.65 -0.81,6.78 -0.88,2.13 -2.5,4.03 -4.87,5.72 -2.13,1.53 -4.57,2.38 -7.3,2.55 -2.75,0.15 -5.38,-0.5 -7.85,-1.99 -2.51,-1.49 -4.93,-3.83 -7.3,-7.02 -3.43,-4.66 -4.98,-9.01 -4.63,-13.06 0.34,-4.05 2.43,-7.84 6.25,-11.28zm23.12 53.76l29.43 -24.28 -8.82 -10.32 6.01 -4.94 23.61 27.67 -6 4.94 -8.79 -10.31 -29.42 24.27 -6.02 -7.03zm54 -7.9l11.86 12.08c2.68,2.7 4.5,4.98 5.48,6.82 1.31,2.45 1.9,5.07 1.76,7.83 -0.11,2.76 -0.88,5.51 -2.31,8.24 -1.42,2.72 -3.7,5.56 -6.82,8.52 -2.73,2.6 -5.42,4.52 -8.06,5.74 -3.22,1.47 -6.33,2.16 -9.31,2.05 -2.27,-0.05 -4.67,-0.77 -7.22,-2.1 -1.89,-1.01 -4.04,-2.73 -6.46,-5.19l-12.18 -12.41 33.26 -31.58zm0.85 11.94l-22.01 20.92 4.83 4.92c1.81,1.85 3.22,3.08 4.24,3.71 1.33,0.79 2.66,1.24 4,1.35 1.34,0.08 2.98,-0.37 4.92,-1.33 1.91,-0.98 4.17,-2.68 6.75,-5.12 2.57,-2.44 4.32,-4.54 5.26,-6.29 0.93,-1.76 1.4,-3.4 1.38,-4.93 -0.02,-1.53 -0.5,-3.05 -1.44,-4.54 -0.7,-1.12 -2.37,-3.02 -5.01,-5.72l-2.92 -2.97zm1.13 53.68l5.93 -6.48 6.58 5.82 -5.93 6.48 -6.58 -5.82zm57.54 -11.25l14.57 11.2c2.89,2.2 4.96,3.97 6.19,5.29 1.22,1.34 2.1,2.79 2.61,4.42 0.52,1.61 0.66,3.29 0.42,5.13 -0.24,1.81 -0.98,3.5 -2.21,5.03 -1.34,1.69 -3.01,2.88 -5.05,3.57 -2.04,0.7 -4.11,0.8 -6.24,0.29 1.7,2.33 2.56,4.73 2.53,7.16 -0.02,2.47 -0.86,4.71 -2.5,6.78 -1.3,1.62 -2.93,2.93 -4.93,3.88 -1.99,0.94 -4.03,1.37 -6.09,1.25 -2.07,-0.1 -4.17,-0.79 -6.3,-2.08 -1.31,-0.82 -4.33,-3 -9.05,-6.58l-12.42 -9.51 28.47 -35.83zm2.63 11.61l-6.59 8.29 4.83 3.7c2.87,2.2 4.68,3.53 5.45,3.99 1.37,0.82 2.7,1.15 3.97,0.99 1.28,-0.16 2.38,-0.82 3.31,-1.97 0.89,-1.11 1.3,-2.24 1.22,-3.41 -0.08,-1.17 -0.67,-2.29 -1.77,-3.39 -0.66,-0.64 -2.73,-2.29 -6.19,-4.94l-4.23 -3.26zm-11.32 14.25l-7.61 9.58 6.8 5.22c2.66,2.04 4.39,3.27 5.22,3.66 1.25,0.65 2.52,0.85 3.82,0.61 1.28,-0.21 2.44,-0.96 3.44,-2.23 0.87,-1.07 1.32,-2.19 1.39,-3.35 0.05,-1.16 -0.28,-2.29 -1,-3.41 -0.74,-1.09 -2.78,-2.96 -6.12,-5.51l-5.94 -4.57zm30.18 44.69l10.6 -16.06 0.39 -31.13 9.17 5.86 -0.82 20.91 18.9 -9.37 9.02 5.76 -28.87 13.02 -10.58 16 -7.81 -4.99zm70.33 19.65l3.41 -6.9 18.09 8.68 -8.08 16.28c-2.59,0.82 -5.86,1.07 -9.84,0.75 -3.96,-0.34 -7.66,-1.32 -11.08,-2.95 -4.34,-2.08 -7.68,-4.79 -10.04,-8.14 -2.32,-3.35 -3.48,-7.07 -3.46,-11.18 0.04,-4.12 1.02,-8.14 2.96,-12.05 2.11,-4.26 4.89,-7.62 8.35,-10.06 3.46,-2.42 7.36,-3.69 11.75,-3.77 3.32,-0.09 6.98,0.83 10.95,2.73 5.17,2.48 8.68,5.47 10.51,8.99 1.85,3.51 2.25,7.35 1.22,11.5l-9.08 -2.45c0.4,-2.29 0.09,-4.42 -0.97,-6.35 -1.03,-1.93 -2.75,-3.48 -5.17,-4.63 -3.67,-1.76 -7.16,-2.02 -10.45,-0.78 -3.31,1.26 -6.06,4.12 -8.29,8.63 -2.4,4.84 -3.12,9 -2.13,12.49 1,3.47 3.26,6.05 6.81,7.76 1.77,0.84 3.7,1.35 5.8,1.51 2.1,0.18 4.04,0.07 5.77,-0.28l2.58 -5.18 -9.61 -4.6zm27.46 5.98c1.69,-4.34 3.76,-7.71 6.23,-10.15 1.82,-1.77 3.92,-3.22 6.29,-4.3 2.36,-1.07 4.73,-1.65 7.07,-1.7 3.14,-0.12 6.45,0.5 9.97,1.84 6.36,2.39 10.68,6.24 13,11.57 2.3,5.31 2.1,11.42 -0.59,18.33 -2.7,6.86 -6.67,11.5 -11.98,13.94 -5.3,2.44 -11.12,2.45 -17.46,0.06 -6.43,-2.41 -10.77,-6.28 -13.06,-11.55 -2.29,-5.27 -2.11,-11.29 0.53,-18.04zm9.1 3.1c-1.88,4.8 -2.17,8.88 -0.9,12.2 1.31,3.33 3.69,5.65 7.16,6.96 3.47,1.32 6.81,1.17 10,-0.47 3.18,-1.61 5.75,-4.87 7.66,-9.8 1.91,-4.85 2.23,-8.89 1.01,-12.11 -1.25,-3.22 -3.66,-5.5 -7.24,-6.85 -3.61,-1.35 -6.96,-1.24 -10.13,0.36 -3.12,1.59 -5.65,4.81 -7.56,9.71zm45.48 38.76l-2.29 -48.23 9.7 2.9 1.17 35.54 20.85 -28.92 9.47 2.85 -29.35 38.71 -9.55 -2.85zm32.61 9.38l8.02 -44.76 33.78 5.85 -1.37 7.57 -24.56 -4.25 -1.78 9.93 22.85 3.96 -1.35 7.54 -22.85 -3.97 -2.2 12.18 25.45 4.41 -1.35 7.54 -34.64 -6zm45.11 7.31l4.83 -45.21 19.55 2.02c4.93,0.51 8.44,1.29 10.59,2.32 2.14,1.05 3.77,2.68 4.89,4.89 1.12,2.23 1.53,4.66 1.24,7.32 -0.37,3.4 -1.69,6.1 -3.94,8.09 -2.25,2.01 -5.45,3.08 -9.55,3.25 1.89,1.35 3.41,2.79 4.57,4.3 1.15,1.52 2.65,4.15 4.5,7.9l4.68 9.4 -11.11 -1.15 -5.66 -10.54c-2.01,-3.76 -3.41,-6.14 -4.19,-7.15 -0.78,-1 -1.64,-1.72 -2.58,-2.17 -0.95,-0.44 -2.49,-0.77 -4.63,-1l-1.88 -0.18 -2 18.86 -9.31 -0.95zm12.09 -25.14l6.85 0.72c4.47,0.45 7.27,0.57 8.42,0.3 1.14,-0.25 2.08,-0.8 2.8,-1.64 0.73,-0.83 1.16,-1.93 1.31,-3.29 0.17,-1.52 -0.12,-2.79 -0.85,-3.81 -0.72,-1.02 -1.83,-1.74 -3.3,-2.14 -0.74,-0.17 -3,-0.46 -6.78,-0.85l-7.23 -0.75 -1.22 11.46zm37.25 29.89l1.61 -45.43 9.08 0.32 17.85 30.99 1.07 -30.35 8.68 0.31 -1.62 45.42 -9.38 -0.33 -17.56 -30.25 -1.05 29.63 -8.68 -0.31zm49.03 0.81l-3.23 -45.36 13.94 -0.95 10.58 30.35 6.05 -31.5 13.98 -0.96 3.22 45.35 -8.65 0.59 -2.52 -35.69 -6.63 36.32 -8.96 0.62 -11.68 -35.08 2.54 35.7 -8.64 0.61zm56.47 -4.32l-8.03 -44.75 33.76 -5.85 1.35 7.56 -24.55 4.27 1.78 9.92 22.86 -3.97 1.35 7.55 -22.86 3.95 2.18 12.2 25.45 -4.41 1.35 7.53 -34.64 6zm45.03 -6.75l-11.96 -43.92 8.78 -2.31 26.27 24.52 -7.99 -29.33 8.39 -2.21 11.96 43.91 -9.05 2.39 -25.82 -23.9 7.82 28.63 -8.4 2.22zm57.62 -15.68l-12.51 -35.71 -12.96 4.39 -2.56 -7.27 34.76 -11.77 2.55 7.29 -12.95 4.37 12.5 35.7 -8.83 3zm35.38 -36.38c-1.98,-4.2 -3.01,-8.01 -3.09,-11.44 -0.04,-2.53 0.37,-5 1.22,-7.44 0.87,-2.4 2.09,-4.48 3.66,-6.17 2.1,-2.31 4.84,-4.22 8.27,-5.78 6.17,-2.83 12,-3.22 17.49,-1.14 5.49,2.05 9.84,6.44 13.02,13.14 3.16,6.67 3.78,12.7 1.89,18.16 -1.9,5.43 -5.94,9.57 -12.08,12.37 -6.24,2.87 -12.07,3.26 -17.53,1.22 -5.45,-2.05 -9.73,-6.36 -12.85,-12.92zm8.58 -4.27c2.23,4.68 5.01,7.71 8.33,9.11 3.35,1.39 6.69,1.33 10.08,-0.22 3.36,-1.55 5.57,-4.01 6.6,-7.4 1.02,-3.38 0.4,-7.44 -1.86,-12.22 -2.24,-4.73 -4.97,-7.76 -8.18,-9.12 -3.2,-1.36 -6.55,-1.24 -10.05,0.36 -3.48,1.59 -5.72,4.07 -6.75,7.4 -1.01,3.31 -0.41,7.35 1.83,12.09zm50.32 1.86l-23.11 -39.36 27.46 -15.59 3.92 6.67 -19.38 10.99 5.48 9.3 16.71 -9.47 3.93 6.65 -16.72 9.5 9.83 16.72 -8.12 4.59zm51.45 -30.87l-26.53 -37.22 7.66 -5.26 11.78 16.53 3.67 -27.17 10.28 -7.07 -3.93 24.31 31.24 12.38 -9.9 6.81 -22.86 -10.31 -1.77 10.49 8.01 11.25 -7.65 5.26zm39.87 -28.18l-29.73 -34.81 26.25 -21.67 5.04 5.9 -19.11 15.75 6.58 7.72 17.8 -14.67 5 5.87 -17.78 14.66 8.09 9.49 19.78 -16.33 5.01 5.88 -26.93 22.21zm35.02 -28.94l-33.27 -31.58 13.66 -13.9c3.43,-3.5 6.22,-5.75 8.37,-6.77 2.16,-1.02 4.47,-1.27 6.92,-0.78 2.48,0.51 4.68,1.68 6.66,3.56 2.5,2.37 3.85,5.06 4.06,8.04 0.21,2.97 -0.89,6.1 -3.29,9.37 2.26,-0.63 4.35,-0.92 6.27,-0.88 1.93,0.03 4.95,0.49 9.08,1.37l10.43 2.17 -7.76 7.9 -11.94 -2.12c-4.25,-0.75 -7.02,-1.13 -8.3,-1.15 -1.28,-0.02 -2.39,0.21 -3.35,0.66 -0.93,0.48 -2.13,1.46 -3.63,2.98l-1.31 1.34 13.89 13.18 -6.49 6.61zm-12.71 -24.84l4.8 -4.88c3.12,-3.15 4.91,-5.27 5.43,-6.31 0.49,-1.05 0.63,-2.12 0.4,-3.2 -0.24,-1.07 -0.84,-2.07 -1.83,-3.04 -1.12,-1.06 -2.32,-1.61 -3.58,-1.69 -1.27,-0.06 -2.53,0.37 -3.75,1.25 -0.6,0.48 -2.21,2.04 -4.85,4.72l-5.05 5.15 8.43 8zm73.64 -41.06l-6.53 7.65 -10.64 -3.58 -11.89 13.91 5.6 9.51 -6.36 7.46 -23.84 -42.78 6.34 -7.44 47.32 15.27zm-25.06 1.4l-17.24 -6.05 9.13 15.55 8.11 -9.5zm29.96 -7.85l-37.11 -26.5 5.48 -7.43 30.81 22.01 13.65 -18.47 6.3 4.52 -19.13 25.87zm46.29 -67.78l-5.39 8.49 -11.05 -2.12 -9.79 15.42 6.89 8.66 -5.25 8.25 -29.67 -39.1 5.22 -8.24 49.04 8.64zm-24.62 4.82l-17.95 -3.62 11.26 14.14 6.69 -10.52z"/>
   <path class="fil1" d="M1142.62 1444.47l31.18 18.73c6.78,4.07 8.31,11.87 4.61,23.4l-1.18 3.1c-4.88,8.14 -12.24,11.67 -22.05,10.62l4.21 20.04 -0.56 0.94 -14.23 -8.55 -6.74 -35.41 0.26 -0.42 17.36 10.43c4,2.42 8.04,1.26 12.1,-3.45 2.48,-4.12 1.81,-7.86 -2.01,-11.23l-20.17 -12.13 -22.68 37.79 -1.49 0.38 -8.22 -4.96 -0.36 -1.47 28.49 -47.43 1.48 -0.38zm79.91 104.95l-32.1 -12.33c-3.2,-1.22 -5.4,-3.26 -6.61,-6.09 -1.22,-2.82 -1.22,-5.77 -0.05,-8.85l16.66 -43.35 10.78 4.14 -16.63 43.36 32.09 12.31 16.65 -43.35 10.71 4.11 -16.66 43.36c-1.14,3.02 -3.09,5.19 -5.78,6.55 -2.72,1.36 -5.74,1.41 -9.06,0.14zm97.48 -22.76l-22.6 -4.39 -8.86 45.59 -11.25 -2.19 8.86 -45.6 -22.51 -4.36 2.2 -11.35 56.37 10.94 -2.21 11.36zm16.63 -8.27l36.33 1.89c7.88,0.43 12.9,6.6 15.05,18.52l0.42 3.29c-0.49,9.47 -5.32,16.03 -14.49,19.71l13.13 15.73 -0.05 1.09 -16.59 -0.87 -22.57 -28.09 0.03 -0.49 20.24 1.05c4.66,0.26 7.68,-2.66 9.05,-8.73 0.26,-4.8 -2.08,-7.8 -7.05,-8.98l-23.48 -1.22 -2.31 44 -1.15 1.04 -9.57 -0.51 -1.02 -1.13 2.88 -55.27 1.15 -1.03zm118.41 55.7l-34.36 3c-6.1,0.54 -10,-1.68 -11.68,-6.7 -0.37,-1.16 -0.62,-2.43 -0.75,-3.81l-3.03 -34.75c-0.26,-3 0.58,-5.78 2.56,-8.3 1.96,-2.53 4.58,-3.92 7.85,-4.21l34.35 -3.01c3.22,-0.26 6.04,0.62 8.43,2.69 2.39,2.08 3.74,4.68 4,7.83l3.04 34.75c0.68,7.68 -2.8,11.85 -10.41,12.51zm-1 -11.51l-3.05 -34.75 -34.36 3.01 3.05 34.74 34.36 -3zm90.14 -10.34l-6.94 1.98 -47.63 -25.61 10.4 36.29 -11.02 3.16 -15.99 -55.76 6.84 -1.95 47.73 25.57 -10.4 -36.28 11.02 -3.17 15.99 55.77zm33.19 -13.41l-10.7 4.1 -20.78 -54.13 10.7 -4.12 20.78 54.15zm80.52 -41.88l-13.74 7.61 -26.67 -9.61 -5.99 27.72 -13.84 7.67 10.09 -38.7 -38.2 -12.04 13.82 -7.66 26.7 9.6 5.98 -27.7 13.74 -7.64 -9.94 38.74 38.05 12.01z"/>
   <path class="fil1" d="M1387.31 620.07c71.8,0 136.8,29.1 183.86,76.13 47.1,47.07 76.23,112.1 76.23,183.86 0,71.87 -29.11,136.91 -76.16,183.95 -47.04,47.05 -112.09,76.16 -183.93,76.16 -71.79,-0.06 -136.83,-29.16 -183.86,-76.23 -47.04,-47.05 -76.14,-112.07 -76.14,-183.88 0,-71.79 29.11,-136.81 76.15,-183.85 47.03,-47.03 112.06,-76.14 183.85,-76.14zm164.68 95.43c-42.12,-42.09 -100.34,-68.16 -164.68,-68.16 -64.26,0 -122.45,26.07 -164.55,68.17 -42.11,42.11 -68.16,100.3 -68.16,164.55 0,64.35 26.04,122.57 68.14,164.69 42.11,42.12 100.31,68.2 164.57,68.2 64.32,-0.06 122.52,-26.12 164.64,-68.23 42.11,-42.12 68.17,-100.34 68.17,-164.66 0,-64.3 -26.04,-122.49 -68.13,-164.56z"/>
   <path class="fil0" d="M1236.91 688.64l108.13 106.31c7.96,1.27 11.84,-1.17 15.3,-7.32l-3.74 -150.35 -7.56 1.33 1.08 146.2 -106.43 -102.53 -6.78 6.36zm178.12 -50.96l-0.11 151.16c4.73,6.53 9.19,7.55 15.99,5.65l105.02 -110.5 -5.95 -4.52 -104.31 105.8 -2.74 -147.76 -7.9 0.17z"/>
   <path class="fil0" d="M1146.52 849.66l153.42 -0.97c6.52,-4.74 7.54,-9.19 5.66,-16l-107.46 -102.8 -5.9 5.41 104.13 102.61 -151.42 3.28 1.57 8.47z"/>
   <path class="fil0" d="M1197.32 1027.92l108.74 -109.34c1.25,-7.96 -1.17,-11.85 -7.32,-15.32l-151.29 3.3 -0.35 8 148.8 -1.08 -105.66 109.58 7.08 4.86z"/>
   <path class="fil0" d="M1359.18 1120.75l0.62 -157.08c-4.75,-6.53 -9.21,-7.54 -16.02,-5.65l-107.49 112.15 5.41 5.91 107.32 -108.84 1.71 155.08 8.45 -1.57z"/>
   <path class="fil0" d="M1541.62 1068.89l-111.93 -111.34c-7.97,-1.27 -11.85,1.19 -15.34,7.33l2.77 157.02 8 0.37 -0.54 -154.59 112.18 108.31 4.86 -7.1z"/>
   <path class="fil0" d="M1628.7 903.37l-153.93 0.44c-6.53,4.73 -7.53,9.21 -5.66,16.02l113.19 105.4 5.91 -5.41 -109.88 -105.23 151.94 -2.75 -1.57 -8.47z"/>
   <path class="fil0" d="M1574.23 727.73l-105.58 106.19c-1.26,7.98 1.18,11.85 7.33,15.32l151.27 -3.28 0.35 -8 -148.81 1.07 102.53 -106.44 -7.09 -4.86z"/>
   <path class="fil0" d="M1355.17 1125.06l0 -228.06 0 228.06zm63.62 -231.7l0 231.7 0 -231.7zm-32.75 -51.07c19.9,0 36.04,16.15 36.04,36.06 0,5.35 -1.2,10.44 -3.29,15.01 -5.68,12.43 -18.2,21.05 -32.75,21.05 -13.1,0 -24.57,-6.97 -30.87,-17.41 -3.3,-5.45 -5.19,-11.84 -5.19,-18.65 0,-19.91 16.14,-36.06 36.06,-36.06z"/>
   <path class="fil1" d="M1341.53 1125.06l0 -224.72c-1.38,-2.78 -2.5,-5.68 -3.33,-8.67 -1.21,-4.35 -1.85,-8.83 -1.85,-13.32 0,-13.68 5.57,-26.11 14.54,-35.11 9.06,-9.02 21.46,-14.59 35.15,-14.59 13.68,0 26.11,5.59 35.13,14.61 8.97,8.99 14.54,21.41 14.54,35.09 0,3.59 -0.4,7.14 -1.14,10.54 -0.58,2.46 -1.28,4.8 -2.14,7.05l0 229.12 -27.27 0 0 -200.85c-5.9,2.46 -12.37,3.83 -19.12,3.83 -6.04,0 -11.85,-1.08 -17.24,-3.08l0 200.1 -27.27 0zm60.34 -262.62c-4.02,-4.01 -9.63,-6.52 -15.83,-6.52 -6.2,0 -11.82,2.52 -15.88,6.55 -4.02,4.05 -6.54,9.68 -6.54,15.88 0,2.2 0.28,4.26 0.79,6.08 0.54,1.99 1.36,3.87 2.37,5.53 2.04,3.3 4.87,6.05 8.21,7.93 3.23,1.82 7.01,2.88 11.05,2.88 4.46,0 8.63,-1.31 12.07,-3.51 3.63,-2.33 6.56,-5.66 8.33,-9.55 0.65,-1.44 1.18,-2.98 1.52,-4.55 0.29,-1.52 0.48,-3.15 0.48,-4.81 0,-6.21 -2.53,-11.85 -6.57,-15.91z"/>
  </g>
  <path class="fil2" d="M3043.95 1532.13l159.74 0 271.26 -750.49 -181.2 0 -161.89 466.37c-5.36,15.02 -7.5,23.6 -7.5,25.74 -1.08,-2.14 -3.22,-12.87 -8.58,-25.74l-160.83 -466.37 -183.33 0 272.33 750.49z"/>
  <polygon class="fil2" points="3538.42,1532.13 3707.81,1532.13 3707.81,781.64 3538.42,781.64 "/>
  <path class="fil3" d="M3913.9 1545c117.93,0 263.74,-62.19 263.74,-279.83l0 -483.53 -16.43 0 0 -2.6 -299.76 0 0 139.18 145.72 0 0 335.16c0,102.93 -45.03,127.58 -93.27,127.58 -24.23,0 -44.94,-8.38 -63.37,-23.52l-82.22 143.02c44.12,28.86 94.37,44.54 145.59,44.54z"/>
  <polygon class="fil2" points="5000.51,1532.13 5167.76,1532.13 5167.76,1240.52 5456.18,781.64 5264.27,781.64 5084.14,1060.4 4902.95,781.64 4712.11,781.64 5000.51,1240.52 "/>
  <polygon class="fil2" points="6662.96,1532.13 7210.82,1532.13 7210.82,1370.24 6832.35,1370.24 6832.35,1225.5 7210.82,1225.5 7210.82,1064.68 6832.35,1064.68 6832.35,942.46 7210.82,942.46 7210.82,781.64 6662.96,781.64 "/>
  <path class="fil2" d="M7966.77 781.64l0 750.49 280.89 0c275.54,0 370.96,-204.77 370.96,-375.24 0,-187.63 -103.99,-375.25 -366.67,-375.25l-285.18 0zm296.97 588.6l-127.58 0 0 -427.78 139.38 0c115.79,0 167.25,111.51 167.25,214.43 0,98.63 -49.32,213.35 -179.05,213.35z"/>
  <polygon class="fil2" points="9166.59,1532.13 9337.06,1532.13 9337.06,781.64 9166.59,781.64 9166.59,1065.76 8873.89,1065.76 8873.89,781.64 8704.5,781.64 8704.5,1532.13 8873.89,1532.13 8873.89,1227.65 9166.59,1227.65 "/>
  <polygon class="fil2" points="9453.66,1532.13 9623.05,1532.13 9623.05,781.64 9453.66,781.64 "/>
  <path class="fil2" d="M4463.85 781.65l159.75 0 271.25 750.5 -181.19 0 -161.9 -466.38c-5.36,-15.02 -7.5,-23.59 -7.5,-25.73 -1.07,2.14 -3.21,12.86 -8.58,25.73l-160.82 466.38 -183.34 0 272.33 -750.5z"/>
  <path class="fil2" d="M5536.31 781.65l159.74 0 271.26 750.5 -181.2 0 -161.9 -466.38c-5.35,-15.02 -7.49,-23.59 -7.49,-25.73 -1.08,2.14 -3.22,12.86 -8.59,25.73l-160.82 466.38 -183.33 0 272.33 -750.5z"/>
  <polygon class="fil2" points="7321.51,1532.13 7869.38,1532.13 7869.38,1370.24 7490.9,1370.24 7490.9,1225.5 7869.38,1225.5 7869.38,1064.68 7490.9,1064.68 7490.9,942.46 7869.38,942.46 7869.38,781.64 7321.51,781.64 "/>
  <path class="fil4" d="M6327.02 1532.13l-135.58 0 365.91 -1039.83c13.91,-39.56 43.85,-62.68 102,-62.68l99.15 0 -379.7 1052.75c-17.02,47.23 -26.54,49.76 -51.78,49.76z"/>
  <path class="fil5" d="M6069.73 1532.13l256.79 0 -238.07 -680.25c-18.04,-50.68 -63.14,-70.24 -113.2,-70.24l-177.85 0 272.33 750.49z"/>
  <path class="fil6" d="M3010.99 617.34l-83.56 -104.52 78.25 -92.42 -51.67 0 -69.69 87.99 0 -87.99 -41.92 0 0 196.94 41.92 0 0 -60.53 15.36 -18.3 59.64 78.83 51.67 0zm158.56 0l0 -36.91 -97.44 0 0 -44.58 95.37 0 0 -36.91 -95.37 0 0 -41.63 97.44 0 0 -36.91 -139.36 0 0 196.94 139.36 0zm192.22 0l-44.29 -75c21.26,-5.02 43.11,-23.62 43.11,-58.46 0,-36.61 -25.1,-63.48 -66.14,-63.48l-92.12 0 0 196.94 41.92 0 0 -69.98 30.71 0 38.68 69.98 48.13 0zm-73.52 -106.88l-44 0 0 -53.15 44 0c16.83,0 29.52,10.04 29.52,26.57 0,16.54 -12.69,26.58 -29.52,26.58zm287.58 106.88l-75.88 -196.94 -52.56 0 -76.18 196.94 47.84 0 12.4 -33.36 84.44 0 12.11 33.36 47.83 0zm-71.45 -70.27l-61.42 0 30.71 -84.74 30.71 84.74zm214.95 70.27l0 -36.91 -83.27 0 0 -160.03 -41.92 0 0 196.94 125.19 0zm212.88 0l-75.88 -196.94 -52.56 0 -76.18 196.94 47.84 0 12.4 -33.36 84.44 0 12.11 33.36 47.83 0zm-71.45 -70.27l-61.42 0 30.71 -84.74 30.71 84.74zm235.32 73.81c53.15,0 78.84,-27.16 78.84,-63.18 0,-73.52 -113.09,-52.56 -113.09,-83.86 0,-11.81 10.04,-19.78 28.05,-19.78 20.08,0 41.34,6.79 57.28,21.56l23.33 -30.71c-19.49,-18.01 -45.47,-27.46 -76.77,-27.46 -46.35,0 -74.7,27.16 -74.7,59.94 0,74.11 113.38,50.19 113.38,85.03 0,11.22 -11.22,21.85 -34.25,21.85 -27.16,0 -48.72,-12.1 -62.59,-26.57l-22.74 31.89c18.31,18.6 45.47,31.29 83.26,31.29zm191.04 -3.54l0 -160.03 57.28 0 0 -36.91 -157.08 0 0 36.91 57.58 0 0 160.03 42.22 0zm248.9 0l-75.88 -196.94 -52.56 0 -76.18 196.94 47.84 0 12.4 -33.36 84.44 0 12.11 33.36 47.83 0zm-71.45 -70.27l-61.42 0 30.71 -84.74 30.71 84.74zm158.55 70.27l0 -160.03 57.28 0 0 -36.91 -157.08 0 0 36.91 57.58 0 0 160.03 42.22 0zm223.51 0l0 -36.91 -97.44 0 0 -44.58 95.37 0 0 -36.91 -95.37 0 0 -41.63 97.44 0 0 -36.91 -139.36 0 0 196.94 139.36 0zm267.81 0l-44.29 -75c21.26,-5.02 43.11,-23.62 43.11,-58.46 0,-36.61 -25.1,-63.48 -66.14,-63.48l-92.12 0 0 196.94 41.92 0 0 -69.98 30.71 0 38.68 69.98 48.13 0zm-73.52 -106.88l-44 0 0 -53.15 44 0c16.83,0 29.52,10.04 29.52,26.57 0,16.54 -12.69,26.58 -29.52,26.58zm192.8 110.42c59.94,0 88.87,-33.36 88.87,-82.37l0 -118.11 -42.81 0 0 116.92c0,27.46 -15.65,46.36 -46.06,46.36 -30.41,0 -46.36,-18.9 -46.36,-46.36l0 -116.92 -42.51 0 0 118.4c0,48.42 28.93,82.08 88.87,82.08zm215.25 -3.54l0 -160.03 57.28 0 0 -36.91 -157.08 0 0 36.91 57.58 0 0 160.03 42.22 0zm243.59 0l-44.29 -75c21.26,-5.02 43.11,-23.62 43.11,-58.46 0,-36.61 -25.1,-63.48 -66.14,-63.48l-92.12 0 0 196.94 41.92 0 0 -69.98 30.71 0 38.68 69.98 48.13 0zm-73.52 -106.88l-44 0 0 -53.15 44 0c16.83,0 29.52,10.04 29.52,26.57 0,16.54 -12.69,26.58 -29.52,26.58zm197.23 110.42c59.64,0 103.05,-42.51 103.05,-101.86 0,-59.35 -43.41,-101.87 -103.05,-101.87 -59.35,0 -102.75,42.52 -102.75,101.87 0,59.35 43.4,101.86 102.75,101.86zm0 -37.2c-36.32,0 -59.64,-28.05 -59.64,-64.66 0,-36.91 23.32,-64.66 59.64,-64.66 36.32,0 59.94,27.75 59.94,64.66 0,36.61 -23.62,64.66 -59.94,64.66zm308.84 33.66l0 -196.94 -41.93 0 0 123.72 -91.23 -123.72 -43.11 0 0 196.94 41.92 0 0 -128.44 93.9 128.44 40.45 0zm80.89 0l0 -196.94 -41.92 0 0 196.94 41.92 0zm217.61 0l-71.45 -101.27 67.02 -95.67 -50.49 0 -44.58 67.32 -45.18 -67.32 -49.9 0 67.03 95.96 -71.46 100.98 49.9 0 49.61 -72.04 49.31 72.04 50.19 0z"/>
 </g>
</svg>
