<?xml version="1.0" encoding="UTF-8"?>
<!DOCTYPE svg PUBLIC "-//W3C//DTD SVG 1.1//EN" "http://www.w3.org/Graphics/SVG/1.1/DTD/svg11.dtd">
<!-- Creator: CorelDRAW 2020 (64-Bit) -->
<svg xmlns="http://www.w3.org/2000/svg" xml:space="preserve" width="140mm" height="30mm" version="1.1" style="shape-rendering:geometricPrecision; text-rendering:geometricPrecision; image-rendering:optimizeQuality; fill-rule:evenodd; clip-rule:evenodd"
viewBox="0 0 14000 3000"
 xmlns:xlink="http://www.w3.org/1999/xlink"
 xmlns:xodm="http://www.corel.com/coreldraw/odm/2003">
 <defs>
  <style type="text/css">
   <![CDATA[
    .fil0 {fill:#FEFEFE}
    .fil1 {fill:#FEFEFE;fill-rule:nonzero}
    .fil2 {fill:#009B94;fill-rule:nonzero}
   ]]>
  </style>
 </defs>
 <g id="Layer_x0020_1">
  <metadata id="CorelCorpID_0Corel-Layer"/>
  <g id="_2879452484480">
   <path class="fil0" d="M448.71 2110.09c-66.72,-41.52 -268.68,35.9 -408.06,-17.14 59.35,106.79 137.89,126.84 272.94,77.86 1.8,-0.64 -5.29,-21.46 -3.46,-22.15 2.84,-1.04 15.97,17.32 18.93,16.33 7.53,-2.48 -8.6,-20.74 -0.19,-24.34 3.41,-1.47 31.09,12.06 34.63,10.45 5.16,-2.3 10.45,-4.77 15.83,-7.29 1.17,-1.77 -9.99,-10.57 36.94,-41.39 4.49,-2.94 6.59,20.71 11.58,18.2 6.84,-3.37 13.79,-6.91 20.86,-10.53zm-69.52 12.4c-46.19,-21 -201.94,24.1 -298.5,-2.76 42.64,66 125.35,52.43 298.5,2.76z"/>
   <path class="fil0" d="M2664.7 949.08c206.88,10.11 246.99,240.45 160.88,273.35 -8.54,-17.53 -8.35,-33.04 -5.96,-48.48 3.48,-22.21 -21.02,-35.17 -45.64,-12.78 6.56,-34.83 19.15,-59.76 8.01,-87.22 -8.64,-21.36 -39.54,-42.84 -59.13,-81.04 64,61.63 91.22,77.29 72.48,143.98 28.37,-17.4 36.6,10.69 41.05,31.73 35.56,-59.2 -13.87,-179.96 -171.69,-219.54z"/>
   <path class="fil0" d="M2718.29 996.46c-14.19,-6.71 -38.62,12.12 -42.66,22.87 -4.05,10.77 11.15,49.95 -6.44,54.42 -17.6,4.47 -57.36,-1.67 -67.03,10.23 -9.7,11.93 9.48,67.54 9.48,67.54 0,0 -9.68,-47.25 7.55,-62.09 17.22,-14.82 73.85,15.73 75.1,-5.03 -4.05,-17.44 -10.97,-40.57 -5.72,-58.11 3.83,-12.78 16.63,-21.02 29.72,-29.83z"/>
   <path class="fil0" d="M2575.61 1101.93c0,0 0.12,21.31 -16.09,44.16 -25.65,36.2 -92.17,42.01 -128.19,23.71 -62.27,-31.63 -52.57,-56.27 -82.71,-80.09 -16.02,-12.66 -37.95,-21.56 -54.98,-27.12 -28.41,-9.28 -27.3,-19.87 -1.93,-41.81 18.02,-15.57 61.2,-35.18 124.28,-4.29 -75.72,-4.77 -117.64,3.95 -125.51,28.61 8.6,-3.89 59.94,3.72 80.61,33.46 36.06,52 45.62,74.51 105.38,78.62 61.99,4.27 99.14,-55.25 99.14,-55.25z"/>
   <path class="fil1" d="M2330.5 932.67c-74.93,-34.61 -161.85,-89.07 -175.24,-172.96 -4.39,-27.58 1.67,-16.47 16.33,0.58 20.82,24.22 47.13,41.98 61.61,51.66l-36.56 -41.01c-15.63,-22.3 -29.1,-40.06 -42.85,-75.36 -11.53,-19.08 -14.79,15.65 -14.63,21.25 1.47,53.75 19.49,100.2 51.58,140.45 35.29,44.31 87.62,81.07 153.84,111.67l-14.08 -36.28z"/>
   <path class="fil0" d="M2423.8 886.39c0,0 6.81,-5.32 17.58,-7.57 10.79,-2.26 19.49,10.16 28.83,29.43 9.32,19.27 -14.96,-21.24 -28.03,-22.16 -13.06,-0.93 -18.38,0.3 -18.38,0.3z"/>
   <path class="fil0" d="M2454.58 894.6c0.23,0.83 -2.39,13.83 -13.83,12.16 -7.49,-1.08 -13.85,-12.06 -7.87,-17.53l5.42 -4.96 9.36 0.83c0,0 6.7,8.68 6.92,9.5z"/>
   <path class="fil0" d="M1079.42 949.08c-206.89,10.11 -246.99,240.45 -160.9,273.35 8.57,-17.53 8.35,-33.04 5.96,-48.48 -3.45,-22.21 21.02,-35.17 45.62,-12.78 -6.54,-34.83 -19.13,-59.76 -7.99,-87.22 8.67,-21.36 39.54,-42.84 59.13,-81.04 -63.99,61.63 -91.21,77.29 -72.48,143.98 -28.37,-17.4 -36.6,10.69 -41.07,31.73 -35.54,-59.2 13.89,-179.96 171.73,-219.54z"/>
   <path class="fil0" d="M1025.81 996.46c14.19,-6.71 38.63,12.12 42.68,22.87 4.03,10.77 -11.17,49.95 6.42,54.42 17.62,4.47 57.36,-1.67 67.05,10.23 9.7,11.93 -9.49,67.54 -9.49,67.54 0,0 9.67,-47.25 -7.53,-62.09 -17.25,-14.82 -73.87,15.73 -75.13,-5.03 4.06,-17.44 11.01,-40.57 5.73,-58.11 -3.84,-12.78 -16.63,-21.02 -29.73,-29.83z"/>
   <path class="fil0" d="M1168.47 1101.93c0,0 -0.12,21.31 16.11,44.16 25.65,36.2 92.19,42.01 128.17,23.71 62.29,-31.63 52.58,-56.27 82.76,-80.09 16.01,-12.66 37.92,-21.56 54.95,-27.12 28.41,-9.28 27.32,-19.87 1.95,-41.81 -18.04,-15.57 -61.24,-35.18 -124.32,-4.29 75.74,-4.77 117.64,3.95 125.53,28.61 -8.6,-3.89 -59.94,3.72 -80.61,33.46 -36.06,52 -45.63,74.51 -105.38,78.62 -61.99,4.27 -99.16,-55.25 -99.16,-55.25z"/>
   <path class="fil1" d="M1413.61 932.67c74.94,-34.61 161.84,-89.07 175.24,-172.96 4.39,-27.58 -1.67,-16.47 -16.34,0.58 -20.82,24.22 -47.1,41.98 -61.61,51.66l36.56 -41.01c15.66,-22.3 29.11,-40.06 42.86,-75.36 11.52,-19.08 14.78,15.65 14.62,21.25 -1.49,53.75 -19.49,100.2 -51.56,140.45 -35.29,44.31 -87.64,81.07 -153.84,111.67l14.07 -36.28z"/>
   <path class="fil0" d="M1320.3 886.39c0,0 -6.81,-5.32 -17.6,-7.57 -10.75,-2.26 -19.47,10.16 -28.81,29.43 -9.32,19.27 14.96,-21.24 28.03,-22.16 13.06,-0.93 18.38,0.3 18.38,0.3z"/>
   <path class="fil0" d="M1289.53 894.6c-0.24,0.83 2.38,13.83 13.83,12.16 7.49,-1.08 13.84,-12.06 7.86,-17.53l-5.42 -4.96 -9.36 0.83c0,0 -6.67,8.68 -6.91,9.5z"/>
   <path class="fil0" d="M1665.92 509.47l7.76 0 72.25 86.8c-40.58,6.06 -71.91,40.73 -71.91,82.24l0 0c0,36.74 24.56,68.11 58.34,79.02 0.53,0.19 7.88,0.33 8.42,0.51l-59.21 69.68 -15.65 0 0 -318.25zm75.28 0l259.56 0 -71.37 85.87 -34.87 0 0 -0.56 -1.13 0 -44.8 0 -1.14 0 0 0.56 -34.89 0 -71.36 -85.87zm327.07 0l7.77 0 0 318.25 -15.66 0 -59.2 -69.68c0.55,-0.18 7.88,-0.32 8.42,-0.51 33.78,-10.91 58.33,-42.28 58.33,-79.02l0 0c0,-41.51 -31.33,-76.18 -71.9,-82.24l72.24 -86.8zm-75.4 318.25l-98.35 0 0 -20.29 0 -19.63 0 -144.82 78.34 0c23.21,0 42.22,14.61 42.22,35.53l0 0c0,20.92 -19.01,38.03 -42.22,38.03l-74.22 0 20.12 23.76 74.11 87.42zm-145.42 0l-98.36 0 74.1 -87.42 20.15 -23.76 -74.25 0c-23.22,0 -42.22,-17.11 -42.22,-38.03l0 0c0,-20.92 19,-35.53 42.22,-35.53l78.36 0 0 144.82 0 19.63 0 20.29z"/>
   <path class="fil1" d="M1990.55 417.58c2.04,-30.62 37.37,-82.74 75.85,-86.87 14.81,-11.82 77.81,-0.56 96.88,16.89 32.01,24.73 51.15,84.2 67.52,134.23 17.94,54.9 41.48,121.67 83.34,177.64 47.71,36.74 80.27,-26.76 99.92,54.4 4.43,10.81 1.59,30.58 8.11,34.36 6.5,3.75 22.35,-8.45 39.46,-6.9 45.04,-14.94 53.62,16.65 60.98,28.51 4.96,8.01 -1.46,23.61 7.33,28.67 19.35,11.15 52.87,7.97 72.56,7.08 18.77,-0.92 63.75,3.47 84.5,42.06 11.06,20.56 12.93,45.32 6.2,65.9 -5.98,18.16 -48.2,48.56 -70.02,54.48 -15.9,6.68 11.78,8.98 18.93,6.3 9.02,-3.38 21.38,-9.14 31.71,-13.65 32.03,-13.95 68.25,3.95 104.1,1.25 97.83,4.97 232.4,13.33 353.81,57.74 120.09,43.89 245.08,124.52 321.61,278.52 9.66,19.41 30.9,70.35 34.93,127.85 -23.54,-38.17 -52.51,-63.92 -89.6,-88.02 36.55,32.41 76.43,94.64 96.91,143.35 16.81,39.88 24.54,105.19 0.74,151.98 -3.64,63.26 22.23,92.17 33.36,154.28 0,0.06 -11.96,27.1 -8.42,63.5 4.27,43.95 28.86,99.82 26.06,115.41 55,-80.42 61.22,-79.85 29.88,-172.56 -4.55,-13.43 -49.27,-59.62 -43.05,-167.82 1.67,-29.29 3.36,-58.6 3.52,-88.72l0 -0.08 0 -7.82 0 -0.08c-0.2,-45.94 -5.94,-84.62 -16.77,-122.14 -10.81,-37.39 -26.49,-73.25 -46.65,-113.78 -81.68,-164.41 -204.95,-251.16 -333.38,-298.11 -127.08,-46.47 -258.01,-53.45 -358.39,-58.59 -41.08,-2.07 -50.42,-52.99 -64.83,-79.79 -32.34,-60.11 -74.5,-76.38 -108.2,-74.81 -27.26,1.27 -51.98,1.03 -67.19,-23.54 -8.97,-16.16 -16.93,-32.23 -45.72,-37 -22.61,-3.77 -46.34,10.99 -55.51,-13.45 -6.76,-17.98 -14.67,-39.08 -42.86,-52.05 -13.23,-6.06 -25.25,-9.02 -36.52,-11.81 -13.71,-3.33 -25.97,-6.35 -33.46,-14.88 -41.3,-47.03 -59.82,-103.65 -76.61,-154.99 -18.32,-55.99 -34.79,-106.26 -76.06,-138.15 -15.24,-11.78 -33.34,-19.79 -52.41,-23.74 -22.03,-4.51 -45.44,-3.56 -67.26,3.48 -22.09,7.09 -42.55,20.3 -58.45,40.17 -12.56,15.7 -22.19,35.53 -27.32,59.69l-2.76 20.18c-1.81,13.14 0.66,15.26 10.93,7.65 17.26,-12.77 28.75,-4.01 42.85,-15.93 13.12,10.63 12.78,37.57 30.9,28.45 5.88,-2.98 -8.66,-12.36 0.16,-29.25 17.46,-33.38 56.15,-28.59 64.69,-3.49 13.13,38.54 17.19,128.17 27.54,191.25 6.34,38.47 12.04,73.33 18.1,96.54l0 0.08 0.04 0.1c24.6,93.64 92.41,107.07 142.54,152.37 28.47,25.69 16.45,58.99 23.12,91.08 5.09,24.56 44.05,61.57 104.11,68.29 4.57,-1.79 -49.05,-30.76 -69.54,-54.88 -14.94,-17.6 -16.96,-39.68 -16.63,-47.13l0 -0.08c1.29,-27.38 -1.39,-45.2 -25.45,-66.94 -33.14,-29.92 -100.65,-67.99 -121.61,-102.32 -44.73,-73.15 -38.89,-184.08 -53.91,-267.55 -8.36,-46.37 -19.83,-82.57 -42.16,-92.31 -48.95,-21.35 -82.05,39.03 -112.45,25.5z"/>
   <path class="fil1" d="M3496 1629.57c-21.58,49.14 -38.22,136.1 -27.95,176.16 10.11,39.36 25.57,76.31 42.5,116.39l-0.02 0 0.08 0.18 0.07 0.07c7.54,17.95 10.36,38.27 11.03,58.04 0.26,7.77 1.93,19.39 -19.03,22.27 -0.14,4.55 19.37,9.62 20.26,14.07 3.18,15.84 11.57,30.82 15.02,43.97l2.27 8.48c6.3,22.85 -18.58,23.79 -24.62,23.59l-91.09 -7.57c-1.69,6.75 -49.81,14.1 -40.6,-18.54 4.02,-14.29 18.8,-30.94 39.76,-22.95 2.37,-10.93 -52.93,-19.37 -53.86,35.53 -0.16,10.33 -32.31,9.12 -32.29,-1.69 5.94,-39.52 16.65,-50.01 40.02,-40.39 1.86,-3.44 -8.45,-13.61 -7.08,-16.87 2.74,-6.5 16.99,-6.74 18.84,-14.07 -41.94,-36.38 10.11,-42.44 5.44,-53.86 -23.38,-57.11 -43.79,-93.98 -82.97,-132.71 -18.04,-17.76 -40.71,-38.8 -55.25,-63.2 -10.65,-17.9 -18.66,-40.49 -26.15,-89.9 -18.32,-56.93 -71.47,-226.32 -132.94,-245.99 7.47,8.7 16.81,23.56 26.21,41.02 4.49,8.35 9,17.33 13.31,26.51 18.69,39.76 33.7,83.51 28.41,99.52 -3.89,11.92 -10.55,28.67 -9,39.8 0.58,4.29 -9.76,17.96 -6.18,15.2 26.27,-20.09 56.15,17.56 55.85,37.97 5.88,86.78 12.4,63.42 95.87,151.57 18.43,19.43 27.26,41.9 39.56,63.5 12.63,22.12 16.84,54.52 13.31,83.77 -0.76,6.2 -1.85,12.14 -3.24,17.68 -1.35,5.38 -3.04,10.55 -5.05,15.32 -1.11,2.6 -2.2,4.89 -3.22,6.77l-3.39 6.24 -0.04 -0.02c-10.22,18.72 -17.59,32.21 -18.04,45.02 -0.9,24.44 14.18,34.93 57.49,36.46l140.18 5.03c35.36,1.25 46.73,-5.94 47.56,-28.45 0.28,-7.63 -1.75,-15.04 -4.51,-24.96 -1.27,-4.63 -1.77,-6.22 -2.24,-8.04 -3.06,-11.61 -12.34,-28.2 -11.79,-46.2 1.55,-50.3 -12.39,-91.75 -28.67,-133.41 -23.74,-60.86 -47.54,-112.92 -23.82,-241.31z"/>
   <path class="fil1" d="M3106.56 1728.58c-15.42,52.87 -41.45,127.49 -21.18,166.3 10.89,22.07 29.96,29.16 21.95,55.05l-0.02 -0.02c-8.1,16.73 -58.98,86.85 -36.69,100.76l-0.02 0.04c3.44,2.12 7.33,3.25 11.7,3.33 68.43,1.26 293.66,50.87 182.97,-84.1 -29.01,-46.39 15.22,-93.92 45.42,-126.62l-21.6 -23.37c-27.34,39.34 -70.39,97.38 -47.74,147.31 1.89,4.21 -14.29,5.36 -11.47,9.91 1.28,1.97 21.04,7.33 22.24,9.56 41.3,75.64 -66.82,52.09 -110.59,51.86 15.18,-14.35 13.67,-28.69 -0.2,-43.02 7.29,35.05 -27.54,49.08 -60.96,44.17 -12.81,-31 52.56,-53.07 62.21,-73.63 0,-0.02 -4.55,-33.62 -1.63,-34.48 57.9,-16.96 -5,-14.76 -13.07,-18.22 -64.73,-27.53 -5.68,-154.08 18.46,-191.15l-3.72 -2.38c-11.38,3.79 -23.82,10.13 -36.06,8.7z"/>
   <path class="fil1" d="M3211.47 1704.62c-57.82,13.23 -142.04,29.46 -211.01,1.17 -69.64,-28.57 -104.21,-52.59 -194.85,-117.5 -2.16,-1.55 -27.12,-24.9 -29.36,-26.51l-12.7 24.82c102.34,71.54 153.52,100.93 227.87,131.43 76.69,31.45 165.49,26.05 231.85,10.89l-11.8 -24.3z"/>
   <path class="fil0" d="M3167.5 1547.16c-16.49,168.01 -188.54,107.01 -316.53,44.74 70.18,61.81 270.07,129.96 338.78,12.54 0,0 -23.72,-58.73 -22.25,-57.28z"/>
   <path class="fil1" d="M3251.96 1117.36c-103.3,-52.25 -203.14,-85.37 -318.4,-128.45 90.86,13.34 228.79,57.13 332.82,122.06 73.52,45.91 150.88,130.89 180.83,212.35 -49.91,-48.76 -88.66,-152.01 -195.25,-205.96z"/>
   <path class="fil1" d="M2564.17 1214.44c-0.26,13.03 -33.58,131.61 -33.6,144.41 -0.26,124.05 10.37,239.07 43.04,355.6 2.98,10.73 14.46,51.88 22.13,91.91 10.83,56.55 11.41,100.12 -0.18,126.76 -28.07,21.98 -45.54,37.93 -47.72,57.17 -2.27,20.26 -4.35,29.8 6.3,34.96l1.33 -2.32 210.86 0c-1.77,4.03 -3.57,8.05 -5.38,12.04 14.06,-1.01 23.66,-3.85 25.51,-10.39 0.04,-0.18 7.79,-31.02 -9.58,-60.32 -15.77,-48.12 -17.12,-108.09 -10.29,-177.55 5.29,-54.02 6.08,-124.23 -2.26,-167.45 14.86,-9.67 36.16,-62.68 14.14,-160.97 -10.53,-47.05 0.36,-93.68 -1.69,-111.82 -15.16,35.5 -20.76,99.16 -12.36,157 4.38,30.12 4.57,50.74 -7.9,80.66 -23.65,34.56 -61.67,9.42 -58.4,-49.45 -21.65,81.8 32.89,88.56 49.56,90.05 8.28,42.79 2.92,175.81 -4.22,231.44 -1.27,15.08 -3.67,28.55 -4.8,41.99 -1.85,22.27 -23.75,30.35 -23.51,33.75 0.42,6.06 24.02,3.6 25.65,10.13 10.47,10.2 12.94,21.22 19.29,33.58 9.5,16.06 2.01,31.73 -4.71,38.67 -11.4,11.78 -82.45,4.9 -98.68,2.3 -67.12,-1.55 -42.58,-49.09 -22.63,-64.45 -16.35,4.39 -56.13,30.5 -30.06,60.6 -30.38,7.55 -38.35,2.3 -42.22,-7.97 10.76,-57.52 46.13,-41.41 55.71,-53.39 6.1,-7.67 8.8,-24.3 9,-45.99 0.2,-22.97 20.26,-27.26 14.54,-29.77 -16.01,-7.01 -17.15,-19.43 -17.82,-25.65 -3.7,-33.55 -10.17,-70.41 -17.62,-103.11 -3.36,-14.77 -6.88,-28.75 -10.34,-41.13 -3.55,-12.7 -7.03,-23.66 -10.25,-32.17l-0.08 -0.24 -0.04 -0.06c-20.46,-54.46 -35.01,-239.07 -27.51,-314.63l6.79 -144.19zm20.72 458.82l0 0 0 0z"/>
   <path class="fil1" d="M2486.38 1229.82c-63.79,92.86 -123.93,198.17 -203.35,273.79 -39.3,37.45 -98.69,92.66 -106.67,128.05l-0.02 0.14 -0.08 0.08c-3.78,16.99 -3.22,42.32 -2.64,68.03 0.67,30.42 1.39,59.76 -0.5,68.92l-3.86 0.36 -0.08 0.14c-2.8,3.83 -5.22,7.83 -7.33,11.86 -2.06,3.95 -3.85,7.95 -5.34,11.86 -24.24,63.24 18.1,55.35 55.63,57.18 21.08,1.06 47.07,2.66 67.97,2.66 41.25,0 76.18,2.21 78.98,-14.34l0 -0.2 1.81 -4.41c6.77,-33.3 -13.4,-48.28 -24.42,-66.38 -4.43,-20.7 2.56,-59.37 10.07,-67.91l0.06 -0.08 0.06 -0.02 -0.02 0c1.15,-1.31 -0.24,-8.74 2.76,-11.56 30.32,-28.65 67.85,-64.81 101.03,-92.53 15.04,-12.52 38.39,-31.83 52.4,-34.51 13.8,-2.67 29.3,-4.02 48.59,3.43l12.38 -13.65c-26.5,-10.21 -48.89,-12.99 -70.23,-8.88 -21.16,4.08 -40.16,14.75 -60.18,31.48 -28.52,23.76 -57.96,61.03 -82.86,83.26 -4.67,4.16 -18.83,11.61 -22.73,15.3 -3.79,3.56 -8.6,0.42 -10.63,2.72l-0.07 0.08 -0.02 0.04 0 0c-8.27,9.5 4.72,33.07 3.17,52.46 -1.86,23.04 3.56,23.8 -10.43,50.86 18.18,8.82 35.97,18.38 30.76,43.99 -6.6,32.58 -87.4,16.31 -106.12,16.31 -28.47,10.55 -4.65,-20.62 -18.71,-29.8 -9.28,39.97 -33.68,21.77 -41.03,21.2 -25.43,-12.5 -1.55,-50.61 36.79,-56.59 -24.2,-20.06 -14.02,-38.6 0.92,-45.85 -24.04,-3.64 -24.02,-83.23 -1.87,-111.11 38.9,-48.93 57.92,-72.34 91.69,-104.51 11.15,-10.61 44.51,-55.11 57.62,-57.83 21.88,-4.55 23.31,42.36 28.53,15 4.26,-22.16 -5.4,-34.47 2.98,-56.31 21.4,-55.77 70.04,-118.87 99.17,-161.47l-4.18 -21.26z"/>
   <path class="fil0" d="M2419.11 1164.17c0,0 58.91,21.86 65.13,72.7 6.24,50.85 58.11,135.45 58.11,135.45 15.86,-68.87 -45.45,-90.76 -42.02,-137.18 1.61,-21.75 -14.74,-46.83 -25.93,-57l-55.29 -13.97z"/>
   <path class="fil0" d="M2558.03 1053.9c5.35,32.85 30.7,66.13 19.51,96.35 -30.5,82.29 -6.14,94.03 -13.01,139.79 -9.48,62.96 -11.45,91.63 42.24,49.67 29.05,-22.71 40.45,-65.76 108.84,-76.53 129.12,-20.33 139.22,-71.59 138.92,-71.87l-22.69 -19.33c-0.26,11.15 -5.58,-7.11 -8.6,1.02 -11.47,30.63 -39.9,42.32 -64.78,55.21 -56.1,29.21 -103.59,29.92 -173.05,98.41 -10.31,-41.61 -5.38,-90.16 7.57,-157.92 7.51,-39.53 -20.27,-67.55 -34.95,-114.8z"/>
   <path class="fil0" d="M2474.07 1912.3c-193.84,-148.73 -391.29,-68.98 -542.97,116.93 -6.16,7.55 -2.82,12.46 -8.86,20.38 156.98,-184.58 369.73,-284.22 553.34,-116.78 51.77,47.2 92.62,35.56 139.27,49.89 -65.8,-51.64 -93.02,-33.8 -140.78,-70.42z"/>
   <path class="fil0" d="M2616.21 1965.45c-45.26,-14.78 -82.18,68.84 -145.2,24.16 16.57,39.84 15.37,69.22 -0.04,106.81 -0.66,1.57 -22.1,-162.38 -161.93,-200.27 -140.51,-38.05 -270.11,31.01 -379.19,160.18 -5.31,6.26 -2.41,10.09 -7.61,16.65 116.03,-131.99 252.81,-203.1 397.73,-147.45 95.01,36.5 126.88,114.86 142.04,202.13 3.85,22.25 50.14,-51.15 26.54,-113.1 81.1,15.82 120.46,-46.73 127.66,-49.11z"/>
   <path class="fil0" d="M1932.05 2098.53c44.17,-59.19 147.11,-135.27 226.07,-149.47 68.84,-12.38 131.03,16.87 139.4,104.35 23.1,-12.56 35.52,7.35 60.75,-18.84 4.95,21.66 16.65,36.2 32.17,52.91 2.17,1.85 4.45,3.84 6.85,5.98l22.18 21.38c23.07,-40.15 25.05,-83.21 -20.67,-140.03 24.36,48.76 31.46,87.2 12.82,101.66 -23.15,-4.88 -39.48,-32.1 -51.2,-64.96 -14.56,25.15 -34.47,15.71 -53.31,23.06 -13.01,-85.19 -81.18,-109.59 -150.3,-97.11 -74.15,13.37 -193.15,93.06 -222.61,154.77 0,0 1.05,7.35 -2.15,6.3z"/>
   <path class="fil1" d="M1970.96 2096.88c1.76,1.03 83.56,-26.09 150.56,-26.19 51.9,-0.06 47.47,43.1 102.58,54.16 17.68,3.58 40.29,4.63 56.8,-3.57 26.67,-13.19 32.85,-43.71 -0.75,-54.78 -22.55,-7.41 -37.51,7.83 -37.89,31.65 -22.07,-2.9 -17.8,-61.17 37.39,-51.72 29.85,8.17 39.46,34.58 32.13,57.21 -12.87,12.04 -26.25,23.6 -40.09,34.59 -15.06,3.16 -32.61,1.7 -47.19,-1.3 -49.41,-10.19 -52.16,-45.69 -103.6,-49.69 -45.89,-3.57 -98.25,6.76 -126.78,13.49 -9.89,2.35 10.73,10.59 -11.5,-0.59l-11.66 -3.26z"/>
   <path class="fil0" d="M1955.4 2086.47c48.94,-38.61 101.91,-76.51 170.19,-78.24 33.92,-0.86 83.09,3.35 103.88,63.54 2.16,6.23 5.64,14.34 10.94,22.11 4.06,5.9 10.59,10.73 14.9,9.48 -18.55,9.97 -25.23,-2.31 -29.4,-12.66 -21.7,-53.49 -50.73,-70.95 -100.99,-70.29 -67.89,0.85 -122.97,35.22 -168.81,77.05l-0.71 -10.99z"/>
   <path class="fil0" d="M2161.85 2095.47c24.94,25.39 25.14,59.6 12.88,78.56 -21.38,32.98 -76.83,30.5 -78.8,-7.41 -5.56,-32.76 46.89,-52.12 53.56,-10.17 3.36,-18.86 -9.19,-33.8 -25.39,-37.32 -37.29,-8.1 -58.27,28.22 -45.06,59.85 18.02,43.15 73.18,39.51 96.56,17.74 26.07,-24.24 28.61,-69.68 -13.75,-101.25z"/>
   <path class="fil0" d="M1925.34 2165.76c-5.31,1.04 -11.27,-4.13 -11.45,-6.23 -5.5,-55.66 22.77,-200.18 77.29,-223.68 -29.48,-19.12 -46.95,-3.92 -62.92,14.28 -19.29,22 -29.57,112.16 -33.4,115.18 0,-6.52 14.8,-77.91 10.39,-129.86 -1.77,-20.86 -16.87,-44.8 -33.2,-57.38l0 -12.52c29.01,18.16 46.71,38.86 46.71,68.51 28.65,-19.67 50.65,-29.21 96.17,-3.3 -57.54,31.35 -108.33,179.81 -89.59,235z"/>
   <path class="fil0" d="M3391.97 2320.54c-242.97,161.91 -490.45,75.08 -680.55,-127.32 -7.75,-8.22 -3.52,-13.57 -11.11,-22.19 196.76,200.97 460.25,306.29 690.35,124.02 64.89,-51.4 112.1,-25.41 150.68,15.4 -61.77,-18.18 -89.55,-29.81 -149.37,10.09z"/>
   <path class="fil0" d="M3539.06 2309.25c-12.98,-52.61 -30.54,-108.26 -129.41,-77.72 20.75,-39.8 17.53,-43.51 24.88,-85.93 0.14,-0.92 -27.7,39.58 -84.2,87.18 -41.25,34.75 -97.26,76.61 -171.13,92.67 -148.26,32.2 -312.49,-24.7 -445.29,-139.4 -12.6,-10.89 -24.56,-22.07 -36.26,-33.4 1.15,-1.83 2.32,-3.67 3.49,-5.52 12.26,11.74 24.9,23.3 38.55,34.37 137.05,111.26 296.58,173.03 462.08,122.35 50.23,-15.4 97.65,-48.18 134.89,-83.61 51,-48.58 87.72,-99.92 130.16,-98.09 -19.5,46.16 -9.06,48.94 -26.27,85.62 101.67,-15.84 108.58,74.03 98.51,101.48z"/>
   <path class="fil0" d="M3423.28 2147.8c-10.94,-17 -46.65,15 -65.66,21.4 19.07,-39.82 -11.57,-48.68 -35.75,-54.32 -2.06,-0.46 -21.18,114.54 -182.15,152.57 -139.69,33.02 -294.85,-33.26 -418.49,-154.22 1.09,-1.95 2.17,-3.89 3.26,-5.86 128.61,117.92 280.34,187.68 437.03,135.46 109.45,-36.45 142.53,-109.35 157.2,-151.59 22.37,2.18 65.92,24.79 50.12,61.47 36.07,-30.34 76.48,-32.46 89.07,-28.05l-34.63 23.14z"/>
   <path class="fil0" d="M2744.79 2069.48c45.44,20.62 115.2,34.81 164.48,25.85 65.36,-11.92 107.4,-60.38 95.23,-109.16 16.9,0.22 60.32,7.71 54.04,66.82 -3.66,-23.66 -18.1,-51.76 -39.92,-51.36 11.33,42.52 -34.73,90.86 -112.87,103.59 -49.06,7.99 -116.53,-4.8 -161.87,-27.89 -1.17,-0.48 -1.97,-1.01 -2.52,-1.55 1.05,-2.11 2.14,-4.21 3.22,-6.36 0.08,0.02 0.15,0.04 0.21,0.06z"/>
   <path class="fil0" d="M2779.19 2157.26c23.76,14.48 59.44,34.59 87.54,44.05 70.79,23.78 163.48,7.17 201.23,0.08 15.02,-2.82 34.03,12.14 41.04,26.09 14.61,-2.69 37.61,-42.82 -1.15,-80.25 -11.7,3.08 -17.15,3.26 -17.96,5.4 8.36,3.12 15.12,5.84 20.66,11.84 13.12,14.21 12.54,33.7 -2.84,38.01 -25.17,-28.55 -57.68,-15.34 -89.58,-6.4 -41.43,11.65 -102.23,12.68 -150.51,-1.31 -30.06,-8.72 -62.23,-28.73 -89.29,-42.48 -4.85,3.1 -0.71,4 0.86,4.97z"/>
   <path class="fil0" d="M3107.06 2150.11c36.89,-9.04 48.59,-56.05 68.68,-68.05 -45.79,-44.29 -140.17,59.9 -228.53,63.44 -62.76,2.54 -138.44,-14.92 -212.65,-56.59 -1.43,2.67 -2.86,5.35 -4.31,7.99 119.95,70.14 264.11,80.45 376.17,5.42 13.59,-9.08 27.28,-16.92 42.58,-15.81 -23.47,25.45 -16.55,39.36 -60.74,65.7l18.8 -2.1z"/>
   <path class="fil0" d="M3023.35 2084.36c25.33,-17.66 31.47,-27.34 88.57,1.51l16.3 -10.94c-53.55,-26.33 -70.16,-30.94 -104.87,9.43z"/>
   <path class="fil0" d="M3295.19 2108.32c67.49,-42 271.82,36.32 412.83,-17.34 -60.02,108.02 -139.5,128.31 -276.11,78.76 -1.83,-0.64 5.34,-21.7 3.49,-22.39 -2.88,-1.06 -16.15,17.52 -19.15,16.51 -7.63,-2.53 8.7,-20.98 0.2,-24.64 -3.46,-1.47 -31.45,12.22 -35.03,10.59 -5.24,-2.34 -10.59,-4.83 -16.01,-7.39 -1.2,-1.77 10.09,-10.67 -37.4,-41.86 -4.51,-2.96 -6.65,20.94 -11.7,18.41 -6.91,-3.41 -13.95,-6.99 -21.12,-10.65zm70.34 12.54c46.73,-21.26 204.3,24.38 301.98,-2.78 -43.12,66.76 -126.8,53.03 -301.98,2.78z"/>
   <path class="fil0" d="M3052.08 2041.07c48.82,-35.98 196.66,31.11 298.68,-14.84 -45.04,112.91 -115.71,99.76 -298.68,14.84zm49.14 11.26c33.81,-18.21 149.55,20.37 220.24,-2.9 -31.2,57.19 -93.48,45.92 -220.24,2.9z"/>
   <path class="fil0" d="M2657.08 2211.96c-7.32,141.08 -37.08,238.68 -131.67,382.76 -16.14,24.6 -13.63,38.63 -17.59,80.21 -45.95,3.62 -94.83,-17.44 -89.15,-63.85 -31.07,15.79 -75.08,41.68 -111.36,19.15 1.73,-46.15 26.76,-73.59 60.06,-102.01 -9.75,-1.88 -17.72,-12.85 -25.61,-35.42 13.55,-3.91 46.61,-7.13 79.83,-22.37 50.05,-22.97 106.96,-65.37 135.07,-142.88 4.43,-4.39 8.86,-8.8 13.23,-13.29 -6.73,83.69 -80.56,147.86 -136.91,172.68 -29.92,13.17 -65.49,12.28 -73.36,15.85 6.06,15.02 18.62,20.13 33.12,19.61 -31.13,28.91 -62.7,56.09 -63.14,98.01 38.07,7.46 78.92,-16.96 114.92,-47.98 -33.73,78.26 17.57,80.89 45.56,88.75 -0.75,-29.84 7.17,-64.71 20.09,-83.58 91.83,-134.49 124.06,-238.66 131.84,-345.79 5.13,-6.54 10.12,-13.18 15.07,-19.85z"/>
   <path class="fil0" d="M2408.98 2563.89c99.44,-52.12 184.22,-135.31 206.53,-299.6 -5.88,6.92 -11.84,13.77 -17.92,20.51 -10.45,137.61 -96.96,214.62 -188.61,279.09z"/>
   <path class="fil0" d="M2778.81 2335.56c-6.5,32.47 9.38,59.84 27.3,68.94 31.19,15.86 70.87,-13.31 54.6,-44.48 -11.25,-28.87 -58.99,-18.62 -44.25,18.12 -11.31,-13.41 -9.06,-31.47 1.23,-42.2 23.69,-24.74 56.17,-6.02 61.24,25.67 6.93,43.23 -35.41,67.33 -62.85,61.41 -30.56,-6.58 -53.72,-41.54 -37.27,-87.46z"/>
   <path class="fil0" d="M2693.55 2159.07c22.91,24.24 59.79,69.04 79.14,123.58 8.54,24.08 10.11,50.13 8.44,77.69 -1.84,30.28 -8.64,56.66 -14.36,85.97 -4.05,20.68 -3.9,43.69 17.94,55.41 -24.44,-4.45 -29.68,-20.4 -30.02,-36.99 -0.56,-30.56 3.69,-62.29 5.11,-92.87 1.27,-27.68 1.49,-53.84 -2.55,-73.39 -12.69,-61.58 -36.44,-98.53 -65.68,-136.28 0.67,-1.04 1.33,-2.09 1.98,-3.12z"/>
   <path class="fil0" d="M2668.58 2196.04c8.38,15.64 17.13,36.18 18.89,56.01 2.49,28.06 -11.08,87.74 -26.16,109.38 -6.34,9.12 -0.82,-16.61 -0.94,-17.56 1.47,-4.38 2.8,-8.67 4.08,-12.9 16.15,-54.06 15.67,-97.43 2.48,-132.58l1.65 -2.35z"/>
   <path class="fil0" d="M2639.91 2362.64c18.52,15.16 30.22,21.66 49.41,17.45 -12.4,5.96 -25.13,17.72 -31.05,43.55 11.94,2.8 43.99,15.14 57.95,3.26 -1.9,26.08 7.63,53.44 22.45,70.85 14.83,17.4 33.82,27.69 48.5,25.23 -2.18,-0.95 -3.35,-9.22 -5.86,-9.4 -29.36,-2.12 -38.3,-14.18 -45.18,-37.21 -6.42,-21.42 -0.99,-53.39 7.15,-91.38 -24.2,36.3 -49.07,32.23 -63.32,24.42 8.37,-28.23 22.75,-25.93 36.4,-55.51 -18.89,2.34 -37.11,22.05 -56.68,7.01 6.79,-11.98 14.92,-37.99 10.11,-49.97 -9.95,34.3 -20.58,45.96 -29.88,51.7z"/>
   <path class="fil0" d="M2703.27 2232.64c14.88,33.84 28.53,82.63 11.4,124.28 -3.75,9.1 -21.26,30.3 -21.39,29.32 1.47,-4.35 4.33,-22.03 7.25,-26.26 19.47,-28.31 15.24,-85.54 0.06,-128.27l2.68 0.93z"/>
   <path class="fil0" d="M2766.91 2245.77c22.41,20.17 54.38,46.48 55.75,82.82 0.32,7.98 -10.87,34.69 -11.29,33.99 -0.39,-3.69 -4.25,-17.68 -3.51,-21.79 4.83,-27.26 -17.63,-68.17 -43.26,-94.82l2.31 -0.2z"/>
   <path class="fil0" d="M2733.35 2436.65c-48.08,-48.7 -84.88,48.06 -142.3,23.7 36.82,85.44 111.15,45.19 142.3,-23.7zm-18.72 7.01c-21.97,-16.67 -73.43,43 -107.56,30.07 49.01,41.34 92.88,4.68 107.56,-30.07z"/>
   <path class="fil0" d="M2780.62 2009.78c-1.35,3.95 41.44,1.31 37.43,40.77 -4.01,39.42 28.07,51.24 28.07,51.24l-62.82 -14.47 -40.15 -15.08c5.36,-10.59 10.53,-21.32 15.49,-32.14 11.23,-16.16 22.65,-32.35 21.98,-30.32z"/>
   <path class="fil0" d="M1916.78 2123.5c0.99,1.02 3.47,8.27 4.23,6.72 32.06,-67.39 95.56,-19.89 73.37,21.28 -12.06,22.35 -49.41,22.15 -52.51,-1.69 -3.6,-21.24 29.78,-30.92 34.09,-3.76 2.19,-12.21 -5.96,-21.87 -16.43,-24.18 -24.18,-5.22 -37.77,18.32 -29.2,38.83 11.66,27.93 52.83,27.57 68.38,9.55 31.55,-36.49 9.54,-81.75 -36.34,-83.44 -38.04,-1.43 -43.33,38.38 -45.59,36.69z"/>
   <path class="fil0" d="M2029.21 2225.63c-16.53,-7.71 -32.23,7.69 -9.54,12.12 35.87,6.97 60.36,-28.63 43.89,-55.91 -11.08,-18.4 -43.63,-20.17 -49.35,5.76 -3.62,21.24 32.41,27.28 36.74,0.12 2.18,12.2 -4.91,23.44 -21.18,26.24 -24.42,4.18 -39.88,-19.35 -31.34,-39.83 11.67,-27.94 52.87,-27.58 68.41,-9.58 31.51,36.5 11.35,83.97 -37.81,83.01 -77.03,-1.51 -18.63,-51.97 0.18,-21.93z"/>
   <path class="fil0" d="M1871 2157.8c73.91,0 133.85,38.72 133.85,86.44 0,3.34 -0.3,6.6 -0.83,9.82 -5.76,1.23 -11.57,2.36 -17.37,3.44 0.58,-2.86 0.88,-5.78 0.88,-8.73 0,-40.33 -55.69,-78.52 -115.92,-78.52 -60.22,0 -116.56,37.6 -116.56,77.91 0,3.22 0.37,6.4 1.03,9.5 -6.06,-1.1 -12.1,-2.31 -18.1,-3.58 -0.58,-3.2 -0.88,-6.5 -0.88,-9.84 0,-47.72 59.97,-86.44 133.9,-86.44z"/>
   <path class="fil1" d="M1753.56 417.58c-2.07,-30.62 -37.36,-82.74 -75.86,-86.87 -14.8,-11.82 -77.83,-0.56 -96.88,16.89 -32.01,24.73 -51.14,84.2 -67.51,134.23 -17.95,54.9 -41.49,121.67 -83.35,177.64 -47.69,36.74 -80.27,-26.76 -99.92,54.4 -4.43,10.81 -1.61,30.58 -8.09,34.36 -6.51,3.75 -22.37,-8.45 -39.48,-6.9 -45.04,-14.94 -53.62,16.65 -60.97,28.51 -4.95,8.01 1.45,23.61 -7.33,28.67 -19.36,11.15 -52.87,7.97 -72.54,7.08 -18.8,-0.92 -63.78,3.47 -84.52,42.06 -11.05,20.56 -12.94,45.32 -6.18,65.9 5.96,18.16 48.16,48.56 69.99,54.48 15.92,6.68 -11.78,8.98 -18.93,6.3 -9.04,-3.38 -21.38,-9.14 -31.71,-13.65 -32.01,-13.95 -68.25,3.95 -104.09,1.25 -97.84,4.97 -232.4,13.33 -353.82,57.74 -120.09,43.89 -245.08,124.52 -321.61,278.52 -9.64,19.41 -30.9,70.35 -34.93,127.85 23.54,-38.17 52.53,-63.92 89.61,-88.02 -36.56,32.41 -76.44,94.64 -96.92,143.35 -16.81,39.88 -24.54,105.19 -0.72,151.98 3.62,63.26 -22.27,92.17 -33.38,154.28 0,0.06 11.96,27.1 8.43,63.5 -4.25,43.95 -28.87,99.82 -26.07,115.41 -55,-80.42 -61.23,-79.85 -29.88,-172.56 4.55,-13.43 49.25,-59.62 43.07,-167.82 -1.69,-29.29 -3.36,-58.6 -3.53,-88.72l0 -0.08 0 -7.82 0 -0.08c0.17,-45.94 5.94,-84.62 16.78,-122.14 10.79,-37.39 26.47,-73.25 46.62,-113.78 81.7,-164.41 204.96,-251.16 333.39,-298.11 127.08,-46.47 258.01,-53.45 358.39,-58.59 41.09,-2.07 50.42,-52.99 64.83,-79.79 32.32,-60.11 74.51,-76.38 108.2,-74.81 27.26,1.27 51.98,1.03 67.2,-23.54 8.96,-16.16 16.93,-32.23 45.71,-37 22.62,-3.77 46.34,10.99 55.52,-13.45 6.73,-17.98 14.66,-39.08 42.85,-52.05 13.26,-6.06 25.28,-9.02 36.54,-11.81 13.69,-3.33 25.97,-6.35 33.46,-14.88 41.29,-47.03 59.8,-103.65 76.61,-154.99 18.3,-55.99 34.75,-106.26 76.04,-138.15 15.24,-11.78 33.36,-19.79 52.41,-23.74 22.06,-4.51 45.44,-3.56 67.28,3.48 22.07,7.09 42.56,20.3 58.43,40.17 12.58,15.7 22.19,35.53 27.34,59.69l2.76 20.18c1.81,13.14 -0.67,15.26 -10.95,7.65 -17.26,-12.77 -28.77,-4.01 -42.83,-15.93 -13.16,10.63 -12.8,37.57 -30.9,28.45 -5.88,-2.98 8.64,-12.36 -0.18,-29.25 -17.46,-33.38 -56.14,-28.59 -64.69,-3.49 -13.13,38.54 -17.2,128.17 -27.54,191.25 -6.31,38.47 -12.04,73.33 -18.1,96.54l0 0.08 -0.04 0.1c-24.59,93.64 -92.4,107.07 -142.53,152.37 -28.47,25.69 -16.45,58.99 -23.13,91.08 -5.09,24.56 -44.07,61.57 -104.09,68.29 -4.57,-1.79 49.05,-30.76 69.52,-54.88 14.96,-17.6 16.99,-39.68 16.63,-47.13l0 -0.08c-1.29,-27.38 1.39,-45.2 25.47,-66.94 33.12,-29.92 100.61,-67.99 121.6,-102.32 44.72,-73.15 38.88,-184.08 53.92,-267.55 8.34,-46.37 19.81,-82.57 42.14,-92.31 48.96,-21.35 82.06,39.03 112.46,25.5z"/>
   <path class="fil1" d="M248.1 1629.57c21.6,49.14 38.23,136.1 27.96,176.16 -10.14,39.36 -25.6,76.31 -42.5,116.39l0.04 0 -0.08 0.18 -0.08 0.07c-7.55,17.95 -10.37,38.27 -11.03,58.04 -0.28,7.77 -1.95,19.39 19.01,22.27 0.16,4.55 -19.35,9.62 -20.26,14.07 -3.2,15.84 -11.56,30.82 -15,43.97l-2.27 8.48c-6.32,22.85 18.54,23.79 24.6,23.59l91.1 -7.57c1.69,6.75 49.79,14.1 40.59,-18.54 -4.03,-14.29 -18.78,-30.94 -39.76,-22.95 -2.36,-10.93 52.93,-19.37 53.87,35.53 0.17,10.33 32.3,9.12 32.28,-1.69 -5.92,-39.52 -16.65,-50.01 -40.01,-40.39 -1.87,-3.44 8.46,-13.61 7.07,-16.87 -2.74,-6.5 -16.99,-6.74 -18.84,-14.07 41.95,-36.38 -10.11,-42.44 -5.44,-53.86 23.37,-57.11 43.77,-93.98 82.97,-132.71 18.02,-17.76 40.69,-38.8 55.26,-63.2 10.64,-17.9 18.65,-40.49 26.14,-89.9 18.32,-56.93 71.47,-226.32 132.94,-245.99 -7.47,8.7 -16.81,23.56 -26.2,41.02 -4.49,8.35 -9,17.33 -13.32,26.51 -18.67,39.76 -33.67,83.51 -28.41,99.52 3.9,11.92 10.55,28.67 9,39.8 -0.57,4.29 9.76,17.96 6.18,15.2 -26.26,-20.09 -56.15,17.56 -55.85,37.97 -5.88,86.78 -12.42,63.42 -95.88,151.57 -18.42,19.43 -27.24,41.9 -39.54,63.5 -12.62,22.12 -16.83,54.52 -13.29,83.77 0.73,6.2 1.82,12.14 3.19,17.68 1.38,5.38 3.06,10.55 5.09,15.32 1.09,2.6 2.19,4.89 3.2,6.77l3.4 6.24 0.02 -0.02c10.23,18.72 17.58,32.21 18.06,45.02 0.91,24.44 -14.19,34.93 -57.5,36.46l-140.17 5.03c-35.37,1.25 -46.74,-5.94 -47.57,-28.45 -0.28,-7.63 1.77,-15.04 4.51,-24.96 1.27,-4.63 1.77,-6.22 2.25,-8.04 3.06,-11.61 12.33,-28.2 11.78,-46.2 -1.55,-50.3 12.4,-91.75 28.67,-133.41 23.74,-60.86 47.54,-112.92 23.82,-241.31z"/>
   <path class="fil1" d="M637.54 1728.58c22.06,52.49 50.95,126.98 21.2,166.3 -10.89,22.07 -29.98,29.16 -21.97,55.05l0.02 -0.02c8.12,16.73 59.01,86.85 36.69,100.76l0.02 0.04c-3.43,2.12 -7.33,3.25 -11.72,3.33 -68.41,1.26 -293.61,50.87 -182.95,-84.1 28.99,-46.39 -15.22,-93.92 -45.42,-126.62l21.62 -23.37c27.32,39.34 70.35,97.38 47.74,147.31 -1.9,4.21 14.25,5.36 11.43,9.91 -1.25,1.97 -21,7.33 -22.21,9.56 -41.31,75.64 66.81,52.09 110.6,51.86 -15.18,-14.35 -13.67,-28.69 0.16,-43.02 -7.27,35.05 27.58,49.08 60.96,44.17 12.85,-31 -52.53,-53.07 -62.19,-73.63 0,-0.02 4.53,-33.62 1.61,-34.48 -57.88,-16.96 5.03,-14.76 13.09,-18.22 64.72,-27.53 5.69,-154.08 -18.45,-191.15l3.71 -2.38c11.41,3.79 23.82,10.13 36.06,8.7z"/>
   <path class="fil1" d="M525.9 1716.28c57.82,13.23 148.78,17.8 217.72,-10.49 69.64,-28.57 104.23,-52.59 194.87,-117.5 2.17,-1.55 27.12,-24.9 29.35,-26.51l12.69 24.82c-102.32,71.54 -153.52,100.93 -227.83,131.43 -76.69,31.45 -165.5,26.05 -231.85,10.89l5.05 -12.64z"/>
   <path class="fil0" d="M576.61 1547.16c13.67,165.72 173.92,95.47 316.5,44.74 -70.13,61.81 -270.05,129.96 -338.76,12.54 0,0 23.73,-58.73 22.26,-57.28z"/>
   <path class="fil1" d="M492.14 1117.36c103.3,-52.25 203.14,-85.37 318.4,-128.45 -90.86,13.34 -228.79,57.13 -332.82,122.06 -73.51,45.91 -150.88,130.89 -180.82,212.35 49.91,-48.76 88.67,-152.01 195.24,-205.96z"/>
   <path class="fil1" d="M1179.93 1214.44c0.26,13.03 33.58,131.61 33.6,144.41 0.26,124.05 -10.37,239.07 -43.04,355.6 -2.98,10.73 -14.46,51.88 -22.13,91.91 -10.83,56.55 -11.4,100.12 0.18,126.76 28.07,21.98 45.54,37.93 47.7,57.17 2.41,21.27 4.59,30.71 -7.96,35.72 -0.6,-1.05 -1.19,-2.07 -1.81,-3.08l-210.85 0c1.75,3.97 3.54,7.91 5.33,11.86 -12.86,-1.15 -21.56,-4.01 -23.29,-10.21 -0.08,-0.18 -7.8,-31.02 9.56,-60.32 15.78,-48.12 17.15,-108.09 10.29,-177.55 -5.3,-54.02 -6.08,-124.23 2.27,-167.45 -14.86,-9.67 -36.16,-62.68 -14.17,-160.97 10.55,-47.05 -0.34,-93.68 1.71,-111.82 15.16,35.5 20.78,99.16 12.36,157 -4.37,30.12 -4.57,50.74 7.91,80.66 23.62,34.56 61.67,9.42 58.37,-49.45 21.7,81.8 -32.86,88.56 -49.49,90.05 -8.33,42.79 -2.94,175.81 4.19,231.44 1.25,15.08 3.65,28.55 4.79,41.99 1.85,22.27 23.74,30.35 23.5,33.75 -0.42,6.06 -24.04,3.6 -25.67,10.13 -10.45,10.2 -12.91,21.22 -19.25,33.58 -9.52,16.06 -2.03,31.73 4.67,38.67 11.4,11.78 82.49,4.9 98.7,2.3 67.12,-1.55 42.58,-49.09 22.64,-64.45 16.33,4.39 56.12,30.5 30.06,60.6 30.38,7.55 38.34,2.3 42.22,-7.97 -10.77,-57.52 -46.12,-41.41 -55.71,-53.39 -6.1,-7.67 -8.79,-24.3 -9.01,-45.99 -0.19,-22.97 -20.26,-27.26 -14.54,-29.77 16,-7.01 17.17,-19.43 17.84,-25.65 3.7,-33.55 10.18,-70.41 17.61,-103.11 3.35,-14.77 6.89,-28.75 10.35,-41.13 3.53,-12.7 7.01,-23.66 10.25,-32.17l0.08 -0.24 0.02 -0.06c20.48,-54.46 35.01,-239.07 27.54,-314.63l-6.82 -144.19zm-20.72 458.82l0.02 0 -0.02 0z"/>
   <path class="fil1" d="M1257.72 1229.82c63.8,92.86 123.96,198.17 203.35,273.79 39.32,37.45 98.69,92.66 106.68,128.05l0.02 0.14 0.07 0.08c3.8,16.99 3.24,42.32 2.65,68.03 -0.7,30.42 -1.37,59.76 0.51,68.92l3.84 0.36 0.08 0.14c2.78,3.83 5.22,7.83 7.33,11.86 2.09,3.95 3.85,7.95 5.36,11.86 24.24,63.24 -18.12,55.35 -55.65,57.18 -21.08,1.06 -47.09,2.66 -67.99,2.66 -41.26,0 -76.15,2.21 -78.94,-14.34l-0.03 -0.2 -1.79 -4.41c-6.8,-33.3 13.39,-48.28 24.44,-66.38 4.41,-20.7 -2.61,-59.37 -10.1,-67.91l-0.08 -0.08 -0.04 -0.02 0 0c-1.13,-1.31 0.26,-8.74 -2.74,-11.56 -30.34,-28.65 -67.85,-64.81 -101.05,-92.53 -15.02,-12.52 -38.37,-31.83 -52.37,-34.51 -13.81,-2.67 -29.31,-4.02 -48.6,3.43l-12.38 -13.65c26.5,-10.21 48.92,-12.99 70.24,-8.88 21.16,4.08 40.15,14.75 60.18,31.48 28.49,23.76 57.95,61.03 82.85,83.26 4.67,4.16 18.83,11.61 22.71,15.3 3.81,3.56 8.62,0.42 10.63,2.72l0.1 0.08 0.02 0.04 0 0c8.24,9.5 -4.75,33.07 -3.18,52.46 1.87,23.04 -3.56,23.8 10.41,50.86 -18.16,8.82 -35.92,18.38 -30.72,43.99 6.56,32.58 87.38,16.31 106.1,16.31 28.47,10.55 4.65,-20.62 18.72,-29.8 9.27,39.97 33.67,21.77 41.02,21.2 25.42,-12.5 1.55,-50.61 -36.79,-56.59 24.18,-20.06 14.03,-38.6 -0.92,-45.85 24.05,-3.64 24.03,-83.23 1.85,-111.11 -38.86,-48.93 -57.91,-72.34 -91.67,-104.51 -11.13,-10.61 -44.49,-55.11 -57.62,-57.83 -21.87,-4.55 -23.31,42.36 -28.53,15 -4.23,-22.16 5.4,-34.47 -2.98,-56.31 -21.42,-55.77 -70.04,-118.87 -99.16,-161.47l4.17 -21.26z"/>
   <path class="fil0" d="M1324.99 1164.17c0,0 -58.93,21.86 -65.13,72.7 -6.24,50.85 -58.11,135.45 -58.11,135.45 -15.86,-68.87 45.46,-90.76 42,-137.18 -1.57,-21.75 14.74,-46.83 25.93,-57l55.31 -13.97z"/>
   <path class="fil0" d="M1186.07 1053.9c-5.32,32.85 -30.71,66.13 -19.51,96.35 30.48,82.29 6.14,94.03 13.01,139.79 9.48,62.96 11.47,91.63 -42.24,49.67 -29.04,-22.71 -40.43,-65.76 -108.84,-76.53 -129.12,-20.33 -139.21,-71.59 -138.9,-71.87l22.67 -19.33c0.24,11.15 5.59,-7.11 8.63,1.02 11.44,30.63 39.87,42.32 64.75,55.21 56.13,29.21 103.59,29.92 173.01,98.41 10.35,-41.61 5.41,-90.16 -7.53,-157.92 -7.51,-39.53 20.27,-67.55 34.95,-114.8z"/>
   <path class="fil0" d="M1270.06 1912.3c193.81,-148.73 391.27,-68.98 542.94,116.93 6.18,7.55 2.82,12.46 8.86,20.38 -156.98,-184.58 -369.75,-284.22 -553.33,-116.78 -51.78,47.2 -92.63,35.56 -139.26,49.89 65.8,-51.64 93,-33.8 140.79,-70.42z"/>
   <path class="fil0" d="M1127.9 1965.45c45.26,-14.78 82.17,68.84 145.2,24.16 -16.57,39.84 -15.38,69.22 0.06,106.81 0.63,1.57 22.07,-162.38 161.9,-200.27 140.51,-38.05 270.14,31.01 379.19,160.18 5.31,6.26 2.41,10.09 7.61,16.65 -116.03,-131.99 -252.8,-203.1 -397.72,-147.45 -95.02,36.5 -126.86,114.86 -142.02,202.13 -3.88,22.25 -50.15,-51.15 -26.57,-113.1 -81.1,15.82 -120.44,-46.73 -127.65,-49.11z"/>
   <path class="fil0" d="M1812.05 2098.53c-44.17,-59.19 -147.11,-135.27 -226.07,-149.47 -68.86,-12.38 -131.01,16.87 -139.39,104.35 -23.09,-12.56 -35.55,7.35 -60.78,-18.84 -4.25,18.82 -13.63,32.25 -26.21,46.44 -4.43,3.33 -9.35,7.47 -14.94,12.45l-20.78 20.05c-22.35,-39.8 -23.78,-82.51 21.42,-138.7 -24.36,48.76 -31.47,87.2 -12.8,101.66 23.11,-4.88 39.46,-32.1 51.18,-64.96 14.59,25.15 34.48,15.71 53.31,23.06 13.01,-85.19 81.18,-109.59 150.33,-97.11 74.11,13.37 193.12,93.06 222.6,154.77 0,0 -1.09,7.35 2.13,6.3z"/>
   <path class="fil1" d="M1773.15 2096.88c-1.77,1.03 -83.57,-26.09 -150.57,-26.19 -51.89,-0.06 -47.46,43.1 -102.56,54.16 -17.72,3.58 -40.29,4.63 -56.82,-3.57 -26.65,-13.19 -32.83,-43.71 0.77,-54.78 22.55,-7.41 37.51,7.83 37.87,31.65 22.1,-2.9 17.8,-61.17 -37.37,-51.72 -31.17,8.53 -40.31,36.98 -31.06,60.23 11.61,10.7 23.59,21 35.99,30.85 15.65,4.09 34.65,2.64 50.2,-0.58 49.42,-10.19 52.16,-45.69 103.6,-49.69 45.89,-3.57 98.25,6.76 126.78,13.49 9.89,2.35 -10.73,10.59 11.52,-0.59l11.65 -3.26z"/>
   <path class="fil0" d="M1788.7 2086.47c-48.95,-38.61 -101.9,-76.51 -170.21,-78.24 -33.88,-0.86 -83.07,3.35 -103.85,63.54 -2.17,6.23 -5.65,14.34 -10.97,22.11 -4.03,5.9 -10.57,10.73 -14.88,9.48 18.56,9.97 25.23,-2.31 29.42,-12.66 21.68,-53.49 50.73,-70.95 100.99,-70.29 67.88,0.85 122.97,35.22 168.79,77.05l0.71 -10.99z"/>
   <path class="fil0" d="M1582.23 2095.47c-24.92,25.39 -25.11,59.6 -12.86,78.56 21.36,32.98 76.84,30.5 78.8,-7.41 5.59,-32.76 -46.89,-52.12 -53.56,-10.17 -3.34,-18.86 9.2,-33.8 25.39,-37.32 37.31,-8.1 58.27,28.22 45.06,59.85 -18.02,43.15 -73.17,39.51 -96.56,17.74 -26.07,-24.24 -28.63,-69.68 13.73,-101.25z"/>
   <path class="fil0" d="M1818.74 2165.76c5.31,1.04 11.29,-4.13 11.49,-6.23 5.48,-55.66 -22.79,-200.18 -77.33,-223.68 29.5,-19.12 46.97,-3.92 62.94,14.28 19.32,22 29.55,112.16 33.4,115.18 0,-6.52 -14.8,-77.91 -10.39,-129.86 1.75,-20.86 16.89,-44.8 33.2,-57.38l0 -12.52c-29.01,18.16 -46.71,38.86 -46.71,68.51 -28.65,-19.67 -50.64,-29.21 -96.16,-3.3 57.56,31.35 108.32,179.81 89.56,235z"/>
   <path class="fil0" d="M352.15 2320.54c242.95,161.91 490.44,75.08 680.54,-127.32 7.75,-8.22 3.53,-13.57 11.1,-22.19 -196.75,200.97 -460.25,306.29 -690.35,124.02 -64.91,-51.4 -112.1,-25.41 -150.68,15.4 61.77,-18.18 89.55,-29.81 149.39,10.09z"/>
   <path class="fil0" d="M205.05 2309.25c12.97,-52.61 30.53,-108.26 129.42,-77.72 -20.76,-39.8 -17.55,-43.51 -24.9,-85.93 -0.16,-0.92 27.7,39.58 84.21,87.18 41.24,34.75 97.27,76.61 171.12,92.67 148.26,32.2 312.49,-24.7 445.3,-139.4 12.12,-10.47 23.66,-21.22 34.94,-32.11 -1.17,-1.83 -2.36,-3.67 -3.49,-5.52 -11.86,11.28 -24.1,22.41 -37.24,33.08 -137.05,111.26 -296.59,173.03 -462.08,122.35 -50.22,-15.4 -97.63,-48.18 -134.86,-83.61 -51.03,-48.58 -87.74,-99.92 -130.16,-98.09 19.49,46.16 9.04,48.94 26.24,85.62 -101.64,-15.84 -108.58,74.03 -98.5,101.48z"/>
   <path class="fil0" d="M320.82 2147.8c10.95,-17 46.63,15 65.66,21.4 -19.07,-39.82 11.57,-48.68 35.75,-54.32 2.06,-0.46 21.16,114.54 182.15,152.57 139.16,32.9 293.7,-32.76 417.12,-152.89 -1.13,-1.94 -2.22,-3.91 -3.32,-5.88 -128.29,117.13 -279.49,186.17 -435.59,134.15 -109.44,-36.45 -142.54,-109.35 -157.2,-151.59 -22.38,2.18 -65.95,24.79 -50.13,61.47 -36.04,-30.34 -76.48,-32.46 -89.05,-28.05l34.61 23.14z"/>
   <path class="fil0" d="M997.76 2070.18c-45.46,20.22 -114.21,34.03 -162.92,25.15 -65.37,-11.92 -107.43,-60.38 -95.23,-109.16 -16.91,0.22 -60.32,7.71 -54.07,66.82 3.68,-23.66 18.12,-51.76 39.94,-51.36 -11.3,42.52 34.75,90.86 112.87,103.59 49.06,7.99 116.53,-4.8 161.89,-27.89 0.34,-0.14 0.66,-0.3 0.94,-0.44 -1.14,-2.22 -2.29,-4.45 -3.42,-6.71z"/>
   <path class="fil0" d="M964.9 2157.26c-23.71,14.48 -59.43,34.59 -87.51,44.05 -70.83,23.78 -163.47,7.17 -201.24,0.08 -15.02,-2.82 -34.04,12.14 -41.05,26.09 -14.6,-2.69 -37.63,-42.82 1.15,-80.25 11.7,3.08 17.15,3.26 17.98,5.4 -8.38,3.12 -15.14,5.84 -20.66,11.84 -13.11,14.21 -12.56,33.7 2.82,38.01 25.17,-28.55 57.68,-15.34 89.59,-6.4 41.44,11.65 102.22,12.68 150.5,-1.31 30.08,-8.72 62.23,-28.73 89.31,-42.48 4.83,3.1 0.7,4 -0.89,4.97z"/>
   <path class="fil0" d="M637.05 2150.11c-36.9,-9.04 -48.6,-56.05 -68.67,-68.05 45.78,-44.29 140.15,59.9 228.51,63.44 62.29,2.52 137.29,-14.68 211,-55.69 1.43,2.7 2.86,5.38 4.33,8.04 -119.63,69.28 -263,79.14 -374.54,4.47 -13.59,-9.08 -27.28,-16.92 -42.58,-15.81 23.47,25.45 16.53,39.36 60.74,65.7l-18.79 -2.1z"/>
   <path class="fil0" d="M720.77 2084.36c-25.35,-17.66 -31.49,-27.34 -88.59,1.51l-16.27 -10.94c53.52,-26.33 70.13,-30.94 104.86,9.43z"/>
   <path class="fil0" d="M692.02 2041.07c-48.81,-35.98 -196.64,31.11 -298.68,-14.84 45.04,112.91 115.71,99.76 298.68,14.84zm-49.13 11.26c-33.82,-18.21 -149.55,20.37 -220.23,-2.9 31.2,57.19 93.47,45.92 220.23,2.9z"/>
   <path class="fil0" d="M1087.21 2215.08c7.59,139.39 37.61,236.61 131.49,379.64 16.13,24.6 13.63,38.63 17.56,80.21 45.98,3.62 94.85,-17.44 89.17,-63.85 31.07,15.79 75.06,41.68 111.36,19.15 -1.73,-46.15 -26.74,-73.59 -60.04,-102.01 9.74,-1.88 17.68,-12.85 25.57,-35.42 -13.53,-3.91 -46.57,-7.13 -79.81,-22.37 -49.33,-22.63 -105.32,-64.18 -133.82,-139.6 -4.8,-4.67 -9.57,-9.42 -14.28,-14.16 7.95,82.49 80.9,145.69 136.69,170.27 29.95,13.17 65.51,12.28 73.38,15.85 -6.06,15.02 -18.6,20.13 -33.12,19.61 31.13,28.91 62.72,56.09 63.14,98.01 -38.07,7.46 -78.92,-16.96 -114.94,-47.98 33.78,78.26 -17.52,80.89 -45.54,88.75 0.74,-29.84 -7.17,-64.71 -20.07,-83.58 -90.99,-133.24 -123.46,-236.74 -131.66,-342.79 -5.09,-6.5 -10.14,-13.1 -15.08,-19.73z"/>
   <path class="fil0" d="M1335.11 2563.89c-98.81,-51.82 -183.19,-134.27 -206.12,-296.62 5.82,6.78 11.74,13.51 17.72,20.13 11.35,135.96 97.36,212.41 188.4,276.49z"/>
   <path class="fil0" d="M965.31 2335.56c6.48,32.47 -9.39,59.84 -27.32,68.94 -31.19,15.86 -70.87,-13.31 -54.59,-44.48 11.24,-28.87 58.98,-18.62 44.26,18.12 11.29,-13.41 9.04,-31.47 -1.25,-42.2 -23.68,-24.74 -56.17,-6.02 -61.23,25.67 -6.94,43.23 35.4,67.33 62.84,61.41 30.56,-6.58 53.74,-41.54 37.29,-87.46z"/>
   <path class="fil0" d="M1049.26 2160.42c-22.97,24.54 -58.83,68.7 -77.85,122.23 -8.54,24.08 -10.11,50.13 -8.44,77.69 1.85,30.28 8.64,56.66 14.36,85.97 4.08,20.68 3.92,43.69 -17.94,55.41 24.44,-4.45 29.69,-20.4 30,-36.99 0.58,-30.56 -3.67,-62.29 -5.08,-92.87 -1.25,-27.68 -1.49,-53.84 2.56,-73.39 12.54,-60.74 35.78,-97.56 64.51,-134.79 -0.71,-1.09 -1.43,-2.15 -2.12,-3.26z"/>
   <path class="fil0" d="M1074.61 2197.77c-8.09,15.4 -16.27,35.15 -17.98,54.28 -2.48,28.06 11.09,87.74 26.15,109.38 6.35,9.12 0.85,-16.61 0.97,-17.56 -1.47,-4.38 -2.82,-8.67 -4.09,-12.9 -15.84,-53.03 -15.68,-95.79 -3.2,-130.6l-1.85 -2.6z"/>
   <path class="fil0" d="M1104.19 2362.64c-18.49,15.16 -30.2,21.66 -49.39,17.45 12.4,5.96 25.11,17.72 31.04,43.55 -11.93,2.8 -43.99,15.14 -57.94,3.26 1.89,26.08 -7.65,53.44 -22.47,70.85 -14.84,17.4 -33.82,27.69 -48.5,25.23 2.2,-0.95 3.36,-9.22 5.86,-9.4 29.37,-2.12 38.31,-14.18 45.18,-37.21 6.42,-21.42 0.99,-53.39 -7.13,-91.38 24.18,36.3 49.05,32.23 63.3,24.42 -8.35,-28.23 -22.75,-25.93 -36.4,-55.51 18.89,2.34 37.11,22.05 56.68,7.01 -6.77,-11.98 -14.92,-37.99 -10.13,-49.97 9.98,34.3 20.61,45.96 29.9,51.7z"/>
   <path class="fil0" d="M1040.83 2232.64c-14.88,33.84 -28.53,82.63 -11.4,124.28 3.73,9.1 21.26,30.3 21.38,29.32 -1.47,-4.35 -4.31,-22.03 -7.24,-26.26 -19.45,-28.31 -15.21,-85.54 -0.05,-128.27l-2.69 0.93z"/>
   <path class="fil0" d="M977.21 2245.77c-22.43,20.17 -54.38,46.48 -55.79,82.82 -0.29,7.98 10.89,34.69 11.33,33.99 0.38,-3.69 4.23,-17.68 3.5,-21.79 -4.83,-27.26 17.62,-68.17 43.25,-94.82l-2.29 -0.2z"/>
   <path class="fil0" d="M1010.75 2436.65c48.08,-48.7 84.9,48.06 142.3,23.7 -36.82,85.44 -111.12,45.19 -142.3,-23.7zm18.7 7.01c21.99,-16.67 73.47,43 107.59,30.07 -49,41.34 -92.89,4.68 -107.59,-30.07z"/>
   <path class="fil0" d="M963.5 2009.78c1.32,3.95 -41.46,1.31 -37.45,40.77 4.02,39.42 -28.07,51.24 -28.07,51.24l62.82 -14.47 38.35 -14.38c-6.9,-13.65 -13.43,-27.48 -19.71,-41.47 -8.94,-12.77 -16.51,-23.36 -15.94,-21.69z"/>
   <path class="fil0" d="M1827.35 2123.5c-1.04,1.02 -3.52,8.27 -4.23,6.72 -32.09,-67.39 -95.59,-19.89 -73.4,21.28 12.06,22.35 49.41,22.15 52.51,-1.69 3.62,-21.24 -29.76,-30.92 -34.09,-3.76 -2.17,-12.21 5.96,-21.87 16.45,-24.18 24.16,-5.22 37.75,18.32 29.21,38.83 -11.69,27.93 -52.85,27.57 -68.41,9.55 -31.53,-36.49 -9.52,-81.75 36.34,-83.44 38.07,-1.43 43.33,38.38 45.62,36.69z"/>
   <path class="fil0" d="M1714.89 2225.63c16.53,-7.71 32.21,7.69 9.56,12.12 -35.86,6.97 -60.36,-28.63 -43.89,-55.91 11.07,-18.4 43.63,-20.17 49.35,5.76 3.62,21.24 -32.44,27.28 -36.75,0.12 -2.17,12.2 4.9,23.44 21.2,26.24 24.37,4.18 39.87,-19.35 31.31,-39.83 -11.67,-27.94 -52.87,-27.58 -68.41,-9.58 -31.49,36.5 -11.32,83.97 37.81,83.01 77.03,-1.51 18.66,-51.97 -0.18,-21.93z"/>
   <path class="fil1" d="M1870.98 2287.12l-0.08 0 0 -0.04c-88.71,0 -173.31,-17.62 -250.44,-49.51 -12.86,-5.31 -25.24,-10.89 -37.06,-16.67l0 -0.02c-62.41,-30.5 -119.23,-70.65 -168.44,-118.46 -14.51,-14.06 -23.23,-22.15 -30.44,-22.73l-0.02 0c-7.21,-0.57 -16.59,5.92 -33.28,20.85l-35.67 34.37 -0.11 0.12 -1.93 1.79c-2.07,1.88 -4.07,3.73 -5.56,5.18 -9.94,9.76 -13.48,19.08 14.82,46.93l0.04 0 0.04 0.06 0 0.02c19.67,19.37 40.41,37.75 62.13,54.98 21.69,17.24 44.32,33.36 67.83,48.24 120.84,76.55 264.31,120.96 418.17,120.96l0 -0.04 0.1 0 0 0.04c106.81,0 208.66,-21.44 301.4,-60.15 15.24,-6.37 30.1,-13.13 44.55,-20.28 75.02,-37.04 143.21,-85.79 202.14,-143.79 28.33,-27.89 24.8,-37.21 14.84,-46.97l-0.04 0c-2.1,-2.08 -3.77,-3.59 -5.5,-5.18l-1.93 -1.79 -0.14 -0.12 -35.66 -34.37c-16.69,-14.93 -26.05,-21.42 -33.28,-20.85l-0.02 0c-7.19,0.58 -15.92,8.65 -30.38,22.67l0.04 0.04 -0.06 0.04 -0.08 0.04c-16.53,16.02 -33.82,31.16 -51.88,45.32 -17.94,14.11 -36.81,27.36 -56.52,39.72 -100.68,63.08 -219.87,99.6 -347.58,99.6zm-0.08 -19.13l0 -0.02 0.08 0c123.96,0 239.57,-35.37 337.15,-96.52 18.83,-11.85 37.17,-24.72 54.87,-38.61 17.55,-13.79 34.36,-28.47 50.27,-43.93l-0.02 0 0.06 -0.08 0.06 -0.02c17.7,-17.16 28.65,-27.08 42.5,-28.19l0 0c13.85,-1.13 26.92,6.95 47.96,25.77l0.26 0.26 35.78 34.47 0 0 1.93 1.79c2.27,2.08 4.49,4.13 5.96,5.56l-0.04 0.02c18.28,17.92 25.95,33.86 -14.76,73.95 -60.38,59.45 -130.28,109.4 -207.23,147.39 -15.12,7.45 -30.34,14.38 -45.66,20.78 -95.01,39.7 -199.44,61.63 -308.99,61.67l0 0.02 -0.1 0 0 -0.02c-157.78,0 -304.84,-45.5 -428.66,-123.96 -24.08,-15.28 -47.31,-31.79 -69.52,-49.43 -22.22,-17.65 -43.5,-36.48 -63.7,-56.37l-0.02 0 -0.06 -0.04 0 -0.04c-40.75,-40.09 -33.06,-56.03 -14.76,-73.97 2.08,-2.07 3.99,-3.79 5.9,-5.56l1.92 -1.79 0 0 35.79 -34.47 0.26 -0.26c21.06,-18.82 34.13,-26.9 47.96,-25.77l0 0c13.85,1.11 24.79,11.03 42.48,28.19 47.78,46.4 102.9,85.34 163.47,114.96l0.04 0c12.08,5.9 24.08,11.31 35.93,16.23 74.78,30.92 156.84,47.99 242.89,47.99z"/>
   <path class="fil1" d="M1870.98 2617.35l-0.08 0 0 -0.03c-101.33,-0.02 -199.02,-15.22 -290.94,-43.46 -44.82,-13.75 -88.35,-30.67 -130.35,-50.46 -215.5,-101.57 -387.99,-278.64 -482.91,-496.74l-5.8 -13.31 14.72 0 210.85 0 5.76 0 2.76 4.97 0 0c18.74,32.82 39.74,64.12 62.81,93.62 23.12,29.54 48.38,57.42 75.54,83.33 139.49,133.2 328.96,215.11 537.64,215.11l0 -0.03 0.08 0 0 0.03c96.56,0 189.05,-17.58 274.44,-49.67 27.92,-10.51 54.98,-22.49 80.95,-35.82 134.49,-68.98 246.11,-175.97 320.53,-306.63l2.79 -4.91 5.7 0 210.86 0 14.74 0 -5.8 13.31 -0.04 0.1c-21.2,48.68 -46.23,95.29 -74.68,139.4 -28.43,44.07 -60.42,85.81 -95.55,124.84 -180.31,200.25 -442.35,326.3 -734.02,326.32l0 0.03zm-0.08 -19.13l0 -0.02 0.08 0 0 0.02c285.89,0 542.71,-123.58 719.48,-319.88 34.31,-38.09 65.64,-79.04 93.66,-122.43 25.35,-39.3 47.9,-80.55 67.33,-123.38l-190.3 0c-76.24,131.6 -189.51,239.41 -325.72,309.27 -26.97,13.85 -54.7,26.17 -82.99,36.8 -87.45,32.88 -182.3,50.86 -281.38,50.88l0 0.04 -0.08 0 0 -0.04c-213.99,-0.02 -408.24,-83.97 -551.21,-220.52 -27.8,-26.53 -53.65,-55.06 -77.35,-85.34 -22.61,-28.91 -43.24,-59.36 -61.63,-91.09l-190.26 0c94.19,207.72 260.63,376.19 467.46,473.66 40.99,19.31 83.67,35.88 127.76,49.43 90.16,27.68 185.93,42.6 285.15,42.6z"/>
   <path class="fil0" d="M2778.47 2009.78c-1.35,3.95 41.43,1.31 37.43,40.77 -4.01,39.42 28.08,51.24 28.08,51.24l-62.83 -14.47 -45.48 -17.08c0,0 44.13,-64.4 42.8,-60.46z"/>
   <path class="fil1" d="M1073.34 2102.36l61.95 -38.02 28.69 45.14 -10.49 6.43 -20.86 -32.84 -13.75 8.45 19.43 30.55 -10.43 6.4 -19.43 -30.56 -16.87 10.35 21.63 34.02 -10.43 6.4 -29.44 -46.32zm55.93 43.22l9.57 10.59c-3.41,3.47 -5.22,6.91 -5.5,10.33 -0.26,3.4 0.89,6.87 3.54,10.43 2.78,3.78 5.7,6.04 8.74,6.78 3.06,0.77 5.66,0.37 7.85,-1.2 1.39,-0.97 2.28,-2.22 2.66,-3.73 0.4,-1.51 0.2,-3.54 -0.56,-6.04 -0.51,-1.73 -2,-5.49 -4.37,-11.25 -3.06,-7.41 -4.35,-13.23 -3.91,-17.4 0.59,-5.88 3.26,-10.51 7.93,-13.85 3.02,-2.15 6.43,-3.3 10.31,-3.5 3.83,-0.2 7.63,0.8 11.34,2.96 3.7,2.19 7.2,5.51 10.49,9.98 5.41,7.29 7.81,13.92 7.31,19.92 -0.55,6.02 -3.45,11.05 -8.76,15.12l-9.18 -11.34c2.67,-2.68 4.06,-5.32 4.16,-7.93 0.12,-2.6 -1.06,-5.54 -3.5,-8.84 -2.5,-3.4 -5.19,-5.58 -8.03,-6.5 -1.85,-0.59 -3.51,-0.33 -5.04,0.76 -1.4,1.01 -2.19,2.44 -2.31,4.33 -0.18,2.36 1.15,6.91 4.03,13.59 2.83,6.7 4.53,11.92 5.09,15.7 0.54,3.77 0.14,7.35 -1.27,10.71 -1.39,3.35 -3.95,6.35 -7.69,9.04 -3.38,2.4 -7.23,3.75 -11.54,4.01 -4.33,0.24 -8.49,-0.78 -12.4,-3.14 -3.96,-2.34 -7.79,-6.04 -11.53,-11.09 -5.42,-7.35 -7.86,-14.22 -7.31,-20.62 0.54,-6.4 3.84,-12.38 9.88,-17.82zm36.52 84.92l46.47 -38.35 -13.93 -16.31 9.5 -7.79 37.29 43.69 -9.48 7.81 -13.88 -16.29 -46.48 38.34 -9.49 -11.1zm85.27 -12.48l18.74 19.07c4.23,4.27 7.11,7.87 8.66,10.77 2.07,3.87 3,8.01 2.78,12.38 -0.18,4.35 -1.39,8.7 -3.65,13.01 -2.25,4.29 -5.85,8.78 -10.77,13.45 -4.31,4.12 -8.57,7.14 -12.74,9.06 -5.08,2.33 -9.99,3.42 -14.7,3.24 -3.58,-0.08 -7.37,-1.21 -11.41,-3.32 -2.98,-1.59 -6.37,-4.31 -10.19,-8.18l-19.25 -19.61 52.53 -49.87zm1.35 18.85l-34.77 33.04 7.63 7.77c2.86,2.92 5.09,4.87 6.7,5.86 2.1,1.26 4.21,1.97 6.32,2.13 2.12,0.14 4.7,-0.58 7.76,-2.09 3.02,-1.55 6.6,-4.23 10.67,-8.08 4.06,-3.86 6.82,-7.17 8.31,-9.94 1.47,-2.78 2.2,-5.38 2.18,-7.79 -0.04,-2.42 -0.79,-4.82 -2.28,-7.17 -1.09,-1.77 -3.74,-4.77 -7.91,-9.04l-4.61 -4.69zm1.79 84.78l9.36 -10.23 10.39 9.2 -9.36 10.23 -10.39 -9.2zm90.88 -17.76l23.01 17.68c4.57,3.48 7.83,6.28 9.77,8.37 1.93,2.1 3.32,4.41 4.13,6.97 0.82,2.54 1.04,5.21 0.66,8.11 -0.38,2.86 -1.55,5.52 -3.5,7.94 -2.1,2.67 -4.74,4.55 -7.96,5.65 -3.22,1.09 -6.5,1.25 -9.86,0.45 2.68,3.68 4.04,7.48 4,11.31 -0.04,3.89 -1.36,7.43 -3.96,10.71 -2.05,2.56 -4.63,4.63 -7.79,6.12 -3.14,1.49 -6.35,2.16 -9.61,1.99 -3.26,-0.16 -6.58,-1.26 -9.96,-3.3 -2.06,-1.29 -6.83,-4.73 -14.28,-10.39l-19.61 -15.02 44.96 -56.59zm4.15 18.34l-10.41 13.09 7.63 5.84c4.53,3.48 7.39,5.59 8.6,6.3 2.17,1.29 4.27,1.83 6.28,1.57 2.03,-0.26 3.76,-1.29 5.23,-3.12 1.41,-1.75 2.04,-3.54 1.92,-5.38 -0.11,-1.85 -1.05,-3.62 -2.8,-5.35 -1.03,-1.01 -4.31,-3.61 -9.77,-7.81l-6.68 -5.14zm-17.88 22.51l-12.02 15.12 10.75 8.24c4.19,3.22 6.93,5.17 8.24,5.79 1.97,1.03 3.98,1.35 6.02,0.97 2.03,-0.34 3.86,-1.53 5.45,-3.54 1.37,-1.69 2.08,-3.45 2.18,-5.28 0.08,-1.83 -0.43,-3.62 -1.57,-5.39 -1.17,-1.72 -4.39,-4.67 -9.67,-8.7l-9.38 -7.21zm47.66 70.57l16.75 -25.35 0.62 -49.17 14.48 9.25 -1.29 33.03 29.84 -14.81 14.25 9.1 -45.6 20.57 -16.71 25.27 -12.34 -7.89zm111.09 31.04l5.38 -10.89 28.57 13.71 -12.75 25.71c-4.09,1.29 -9.26,1.69 -15.54,1.19 -6.26,-0.54 -12.1,-2.09 -17.5,-4.67 -6.86,-3.28 -12.14,-7.57 -15.86,-12.85 -3.67,-5.29 -5.5,-11.17 -5.46,-17.67 0.06,-6.49 1.61,-12.85 4.67,-19.03 3.34,-6.72 7.73,-12.02 13.19,-15.88 5.46,-3.83 11.62,-5.84 18.56,-5.96 5.24,-0.14 11.02,1.31 17.28,4.31 8.17,3.92 13.71,8.65 16.61,14.21 2.92,5.54 3.56,11.6 1.93,18.16l-14.34 -3.87c0.63,-3.62 0.13,-6.98 -1.53,-10.04 -1.63,-3.04 -4.36,-5.48 -8.17,-7.31 -5.8,-2.78 -11.31,-3.18 -16.51,-1.23 -5.23,1.99 -9.58,6.52 -13.09,13.63 -3.8,7.65 -4.93,14.22 -3.36,19.73 1.57,5.48 5.14,9.56 10.75,12.26 2.8,1.33 5.84,2.12 9.16,2.38 3.31,0.28 6.37,0.12 9.12,-0.44l4.07 -8.18 -15.18 -7.27zm43.37 9.45c2.66,-6.85 5.94,-12.18 9.84,-16.03 2.88,-2.8 6.2,-5.09 9.93,-6.79 3.74,-1.69 7.47,-2.61 11.17,-2.69 4.96,-0.2 10.19,0.8 15.75,2.9 10.04,3.78 16.87,9.86 20.53,18.28 3.63,8.39 3.32,18.04 -0.94,28.95 -4.25,10.83 -10.53,18.16 -18.91,22.02 -8.37,3.85 -17.56,3.87 -27.58,0.09 -10.15,-3.81 -17.01,-9.91 -20.62,-18.23 -3.62,-8.33 -3.34,-17.85 0.83,-28.5zm14.37 4.89c-2.96,7.59 -3.42,14.03 -1.41,19.27 2.06,5.27 5.82,8.93 11.3,10.99 5.49,2.09 10.75,1.85 15.8,-0.73 5.02,-2.55 9.08,-7.69 12.1,-15.48 3.02,-7.67 3.51,-14.05 1.59,-19.13 -1.97,-5.09 -5.79,-8.69 -11.43,-10.81 -5.7,-2.15 -11,-1.97 -16.01,0.55 -4.93,2.53 -8.92,7.61 -11.94,15.34zm71.84 61.22l-3.61 -76.18 15.31 4.59 1.85 56.13 32.92 -45.68 14.97 4.51 -46.36 61.14 -15.08 -4.51zm51.5 14.82l12.68 -70.69 53.34 9.24 -2.16 11.96 -38.79 -6.72 -2.82 15.68 36.1 6.26 -2.14 11.9 -36.08 -6.26 -3.48 19.23 40.19 6.97 -2.12 11.91 -54.72 -9.48zm71.25 11.54l7.63 -71.41 30.87 3.2c7.79,0.8 13.34,2.03 16.73,3.66 3.38,1.67 5.96,4.23 7.73,7.73 1.77,3.51 2.41,7.35 1.95,11.56 -0.58,5.37 -2.66,9.64 -6.22,12.78 -3.56,3.18 -8.6,4.86 -15.08,5.12 2.98,2.15 5.38,4.41 7.21,6.8 1.83,2.4 4.2,6.55 7.12,12.48l7.39 14.84 -17.55 -1.81 -8.94 -16.65c-3.18,-5.94 -5.38,-9.7 -6.61,-11.29 -1.24,-1.59 -2.61,-2.72 -4.08,-3.43 -1.51,-0.7 -3.93,-1.21 -7.31,-1.57l-2.98 -0.3 -3.16 29.8 -14.7 -1.51zm19.09 -39.7l10.83 1.14c7.05,0.71 11.49,0.89 13.29,0.47 1.81,-0.39 3.28,-1.27 4.43,-2.6 1.16,-1.31 1.83,-3.04 2.07,-5.18 0.26,-2.41 -0.2,-4.42 -1.35,-6.02 -1.13,-1.61 -2.88,-2.75 -5.21,-3.38 -1.17,-0.28 -4.75,-0.74 -10.71,-1.35l-11.42 -1.18 -1.93 18.1zm58.83 47.21l2.55 -71.76 14.34 0.51 28.2 48.94 1.68 -47.92 13.71 0.47 -2.56 71.75 -14.8 -0.52 -27.74 -47.78 -1.67 46.79 -13.71 -0.48zm77.45 1.27l-5.11 -71.64 22.02 -1.49 16.71 47.92 9.56 -49.75 22.09 -1.51 5.09 71.63 -13.67 0.93 -3.98 -56.37 -10.47 57.36 -14.17 0.98 -18.43 -55.4 4.01 56.39 -13.65 0.95zm89.19 -6.81l-12.68 -70.69 53.31 -9.24 2.15 11.94 -38.79 6.75 2.83 15.66 36.1 -6.26 2.12 11.92 -36.1 6.24 3.44 19.27 40.19 -6.97 2.15 11.9 -54.72 9.48zm71.13 -10.67l-18.9 -69.36 13.87 -3.66 41.49 38.73 -12.62 -46.32 13.25 -3.49 18.9 69.36 -14.31 3.77 -40.77 -37.75 12.34 45.22 -13.25 3.5zm91 -24.76l-19.75 -56.4 -20.49 6.93 -4.03 -11.48 54.9 -18.6 4.03 11.52 -20.46 6.9 19.74 56.39 -13.94 4.74zm55.89 -57.46c-3.14,-6.63 -4.77,-12.65 -4.89,-18.08 -0.06,-3.99 0.58,-7.88 1.93,-11.74 1.37,-3.79 3.3,-7.07 5.78,-9.75 3.32,-3.64 7.65,-6.66 13.05,-9.12 9.76,-4.47 18.96,-5.09 27.64,-1.81 8.66,3.24 15.54,10.17 20.56,20.76 4.99,10.53 5.96,20.05 2.98,28.67 -3,8.58 -9.37,15.12 -19.07,19.55 -9.86,4.53 -19.07,5.15 -27.7,1.93 -8.6,-3.24 -15.36,-10.05 -20.28,-20.41zm13.55 -6.75c3.51,7.39 7.91,12.18 13.15,14.38 5.29,2.21 10.57,2.11 15.92,-0.33 5.3,-2.45 8.8,-6.34 10.43,-11.69 1.61,-5.34 0.63,-11.76 -2.94,-19.31 -3.54,-7.47 -7.85,-12.26 -12.92,-14.4 -5.07,-2.15 -10.35,-1.95 -15.87,0.57 -5.51,2.51 -9.04,6.42 -10.67,11.69 -1.59,5.22 -0.64,11.6 2.9,19.09zm79.47 2.94l-36.5 -62.17 43.38 -24.62 6.18 10.53 -30.6 17.37 8.64 14.68 26.41 -14.96 6.19 10.51 -26.4 15 15.52 26.41 -12.82 7.25zm81.26 -48.76l-41.9 -58.79 12.1 -8.3 18.6 26.1 5.8 -42.91 16.23 -11.17 -6.2 38.41 49.34 19.55 -15.64 10.75 -36.1 -16.28 -2.8 16.57 12.65 17.77 -12.08 8.3zm62.97 -44.5l-46.95 -54.98 41.46 -34.23 7.95 9.32 -30.18 24.87 10.39 12.2 28.12 -23.17 7.9 9.26 -28.09 23.17 12.77 14.98 31.26 -25.79 7.91 9.28 -42.54 35.09zm55.31 -45.72l-52.55 -49.87 21.58 -21.96c5.42,-5.52 9.83,-9.08 13.23,-10.68 3.4,-1.61 7.05,-2.01 10.93,-1.24 3.91,0.8 7.39,2.65 10.51,5.63 3.95,3.73 6.08,7.98 6.41,12.69 0.34,4.69 -1.41,9.64 -5.2,14.8 3.57,-0.99 6.87,-1.45 9.91,-1.39 3.04,0.04 7.81,0.78 14.35,2.17l16.47 3.42 -12.26 12.47 -18.86 -3.33c-6.71,-1.2 -11.08,-1.79 -13.11,-1.83 -2.03,-0.02 -3.77,0.34 -5.28,1.05 -1.47,0.76 -3.38,2.31 -5.75,4.71l-2.06 2.11 21.93 20.82 -10.25 10.43zm-20.07 -39.22l7.57 -7.71c4.93,-4.99 7.77,-8.33 8.59,-9.97 0.77,-1.65 0.99,-3.34 0.63,-5.05 -0.37,-1.69 -1.33,-3.28 -2.9,-4.81 -1.77,-1.67 -3.65,-2.54 -5.64,-2.66 -2.01,-0.1 -3.99,0.57 -5.92,1.97 -0.96,0.75 -3.5,3.21 -7.67,7.45l-7.97 8.14 13.31 12.64zm116.31 -64.85l-10.31 12.08 -16.81 -5.66 -18.77 21.97 8.84 15.02 -10.05 11.78 -37.66 -67.57 10.02 -11.74 74.74 24.12zm-39.57 2.2l-27.24 -9.55 14.42 24.55 12.82 -15zm47.3 -12.39l-58.61 -41.87 8.66 -11.72 48.66 34.75 21.56 -29.17 9.95 7.14 -30.22 40.87zm73.12 -107.06l-8.51 13.42 -17.46 -3.36 -15.46 24.36 10.89 13.67 -8.3 13.03 -46.85 -61.75 8.24 -13.02 77.45 13.65zm-38.88 7.61l-28.36 -5.72 17.79 22.33 10.57 -16.61z"/>
   <path class="fil1" d="M1485.51 2182.71l49.23 29.59c10.71,6.43 13.14,18.75 7.3,36.95l-1.87 4.91c-7.71,12.85 -19.33,18.42 -34.83,16.77l6.65 31.65 -0.89 1.49 -22.47 -13.51 -10.65 -55.93 0.42 -0.66 27.42 16.47c6.31,3.82 12.69,1.99 19.11,-5.44 3.91,-6.52 2.86,-12.42 -3.18,-17.74l-31.85 -19.16 -35.82 59.69 -2.37 0.59 -12.97 -7.82 -0.58 -2.33 45.01 -74.92 2.34 -0.6zm126.2 165.76l-50.7 -19.47c-5.05,-1.92 -8.52,-5.14 -10.43,-9.61 -1.93,-4.45 -1.93,-9.12 -0.08,-13.99l26.31 -68.47 17.02 6.54 -26.26 68.49 50.68 19.45 26.31 -68.47 16.91 6.48 -26.31 68.48c-1.81,4.77 -4.89,8.21 -9.14,10.36 -4.29,2.14 -9.06,2.22 -14.31,0.21zm153.97 -35.94l-35.69 -6.93 -14.01 72 -17.76 -3.46 13.99 -72.02 -35.55 -6.89 3.48 -17.92 89.03 17.28 -3.49 17.94zm26.26 -13.07l57.38 3c12.46,0.67 20.39,10.41 23.78,29.25l0.66 5.18c-0.77,14.96 -8.4,25.33 -22.89,31.14l20.74 24.85 -0.08 1.71 -26.2 -1.37 -35.65 -44.37 0.04 -0.77 31.97 1.67c7.37,0.39 12.14,-4.22 14.31,-13.79 0.39,-7.59 -3.3,-12.32 -11.15,-14.19l-37.07 -1.93 -3.66 69.5 -1.81 1.63 -15.12 -0.79 -1.61 -1.79 4.55 -87.3 1.81 -1.63zm187.02 87.98l-54.26 4.75c-9.63,0.85 -15.79,-2.67 -18.46,-10.59 -0.57,-1.83 -0.97,-3.84 -1.17,-6.02l-4.79 -54.88c-0.41,-4.75 0.92,-9.14 4.04,-13.11 3.1,-4 7.23,-6.2 12.4,-6.66l54.26 -4.75c5.08,-0.42 9.53,0.97 13.31,4.25 3.77,3.28 5.9,7.39 6.32,12.36l4.8 54.9c1.08,12.12 -4.43,18.71 -16.45,19.75zm-1.57 -18.18l-4.82 -54.88 -54.26 4.75 4.8 54.88 54.28 -4.75zm142.36 -16.33l-10.95 3.13 -75.24 -40.45 16.43 57.32 -17.4 4.99 -25.25 -88.08 10.8 -3.08 75.39 40.4 -16.44 -57.31 17.41 -5 25.25 88.08zm52.43 -21.18l-16.9 6.47 -32.83 -85.49 16.91 -6.5 32.82 85.52zm127.18 -66.15l-21.71 12.02 -42.12 -15.18 -9.46 43.79 -21.86 12.1 15.94 -61.11 -60.34 -19.02 21.83 -12.1 42.16 15.16 9.46 -43.75 21.7 -12.06 -15.7 61.18 60.1 18.97z"/>
   <path class="fil1" d="M1871.97 880.63c113.41,0 216.07,45.96 290.4,120.24 74.39,74.35 120.4,177.05 120.4,290.4 0,113.51 -45.97,216.23 -120.28,290.54 -74.31,74.31 -177.05,120.28 -290.52,120.28 -113.39,-0.1 -216.11,-46.05 -290.4,-120.4 -74.28,-74.31 -120.24,-177.01 -120.24,-290.42 0,-113.39 45.98,-216.09 120.26,-290.38 74.29,-74.28 176.99,-120.26 290.38,-120.26zm260.1 150.72c-66.52,-66.48 -158.47,-107.64 -260.1,-107.64 -101.49,0 -193.4,41.16 -259.9,107.66 -66.5,66.5 -107.65,158.41 -107.65,259.9 0,101.63 41.13,193.58 107.63,260.12 66.5,66.52 158.43,107.71 259.92,107.71 101.59,-0.1 193.52,-41.25 260.04,-107.77 66.52,-66.52 107.67,-158.47 107.67,-260.06 0,-101.57 -41.13,-193.48 -107.61,-259.92z"/>
   <path class="fil0" d="M1634.42 988.93l170.79 167.91c12.58,2.01 18.7,-1.85 24.16,-11.56l-5.9 -237.47 -11.94 2.11 1.71 230.91 -168.11 -161.95 -10.71 10.05zm281.34 -80.48l-0.18 238.74c7.47,10.31 14.53,11.92 25.26,8.92l165.88 -174.53 -9.4 -7.13 -164.75 167.09 -4.33 -233.37 -12.48 0.28z"/>
   <path class="fil0" d="M1491.67 1243.25l242.32 -1.53c10.29,-7.49 11.9,-14.52 8.94,-25.27l-169.74 -162.37 -9.32 8.55 164.47 162.06 -239.15 5.19 2.48 13.37z"/>
   <path class="fil0" d="M1571.9 1524.81l171.74 -172.7c1.99,-12.58 -1.85,-18.72 -11.56,-24.2l-238.94 5.21 -0.56 12.63 235.03 -1.71 -166.9 173.08 11.19 7.69z"/>
   <path class="fil0" d="M1827.55 1671.42l0.97 -248.1c-7.49,-10.31 -14.54,-11.9 -25.29,-8.92l-169.78 177.12 8.54 9.34 169.5 -171.9 2.7 244.94 13.36 -2.48z"/>
   <path class="fil0" d="M2115.7 1589.52l-176.79 -175.86c-12.58,-2 -18.72,1.87 -24.22,11.57l4.37 248.01 12.64 0.58 -0.86 -244.16 177.19 171.06 7.67 -11.2z"/>
   <path class="fil0" d="M2253.23 1328.09l-243.11 0.69c-10.31,7.47 -11.9,14.55 -8.94,25.3l178.77 166.47 9.34 -8.54 -173.55 -166.2 239.97 -4.35 -2.48 -13.37z"/>
   <path class="fil0" d="M2167.2 1050.66l-166.76 167.73c-1.99,12.6 1.87,18.72 11.58,24.2l238.92 -5.18 0.56 -12.64 -235.04 1.69 161.94 -168.11 -11.2 -7.69z"/>
   <path class="fil0" d="M1821.21 1678.23l0 -360.21 0 360.21zm100.49 -365.96l0 365.96 0 -365.96zm-51.73 -80.66c31.43,0 56.92,25.51 56.92,56.96 0,8.44 -1.89,16.49 -5.19,23.7 -8.98,19.63 -28.75,33.24 -51.73,33.24 -20.69,0 -38.81,-11 -48.76,-27.49 -5.21,-8.61 -8.19,-18.7 -8.19,-29.45 0,-31.45 25.49,-56.96 56.95,-56.96z"/>
   <path class="fil1" d="M1799.67 1678.23l0 -354.93c-2.19,-4.39 -3.95,-8.98 -5.26,-13.69 -1.91,-6.87 -2.93,-13.95 -2.93,-21.04 0,-21.62 8.81,-41.25 22.97,-55.45 14.31,-14.25 33.9,-23.05 55.52,-23.05 21.61,0 41.24,8.82 55.49,23.07 14.16,14.2 22.97,33.81 22.97,55.43 0,5.66 -0.64,11.27 -1.81,16.65 -0.92,3.87 -2.03,7.57 -3.38,11.13l0 361.88 -43.07 0 0 -317.24c-9.32,3.9 -19.54,6.06 -30.2,6.06 -9.54,0 -18.72,-1.71 -27.22,-4.87l0 316.05 -43.08 0zm95.31 -414.79c-6.36,-6.34 -15.22,-10.3 -25.01,-10.3 -9.8,0 -18.66,3.98 -25.08,10.34 -6.36,6.39 -10.33,15.3 -10.33,25.09 0,3.48 0.44,6.72 1.25,9.6 0.86,3.14 2.15,6.12 3.74,8.74 3.22,5.2 7.69,9.56 12.97,12.52 5.11,2.88 11.07,4.55 17.45,4.55 7.05,0 13.62,-2.07 19.07,-5.55 5.72,-3.67 10.35,-8.94 13.15,-15.08 1.03,-2.28 1.87,-4.71 2.41,-7.19 0.45,-2.4 0.75,-4.97 0.75,-7.59 0,-9.81 -3.99,-18.72 -10.37,-25.13z"/>
   <path class="fil1" d="M6296.11 1001l-112.84 -141.14 105.67 -124.81 -69.78 0 -94.11 118.82 0 -118.82 -56.61 0 0 265.95 56.61 0 0 -81.74 20.74 -24.71 80.54 106.45 69.78 0zm214.12 0l0 -49.84 -131.58 0 0 -60.2 128.78 0 0 -49.85 -128.78 0 0 -56.22 131.58 0 0 -49.84 -188.19 0 0 265.95 188.19 0zm259.58 0l-59.81 -101.28c28.71,-6.78 58.21,-31.9 58.21,-78.94 0,-49.44 -33.89,-85.73 -89.31,-85.73l-124.4 0 0 265.95 56.61 0 0 -94.5 41.47 0 52.23 94.5 65 0zm-99.29 -144.33l-59.41 0 0 -71.78 59.41 0c22.73,0 39.87,13.56 39.87,35.89 0,22.33 -17.14,35.89 -39.87,35.89zm388.36 144.33l-102.47 -265.95 -70.98 0 -102.88 265.95 64.61 0 16.74 -45.05 114.03 0 16.36 45.05 64.59 0zm-96.49 -94.89l-82.94 0 41.47 -114.44 41.47 114.44zm290.27 94.89l0 -49.84 -112.45 0 0 -216.11 -56.61 0 0 265.95 169.06 0zm287.48 0l-102.47 -265.95 -70.98 0 -102.87 265.95 64.6 0 16.74 -45.05 114.03 0 16.36 45.05 64.59 0zm-96.49 -94.89l-82.94 0 41.47 -114.44 41.47 114.44zm317.78 99.67c71.77,0 106.47,-36.68 106.47,-85.32 0,-99.28 -152.72,-70.98 -152.72,-113.24 0,-15.95 13.56,-26.71 37.88,-26.71 27.11,0 55.82,9.17 77.35,29.11l31.5 -41.47c-26.32,-24.32 -61.4,-37.08 -103.67,-37.08 -62.59,0 -100.87,36.67 -100.87,80.94 0,100.08 153.11,67.78 153.11,114.83 0,15.15 -15.16,29.5 -46.26,29.5 -36.67,0 -65.79,-16.34 -84.52,-35.88l-30.71 43.07c24.73,25.12 61.41,42.25 112.44,42.25zm257.98 -4.78l0 -216.11 77.35 0 0 -49.84 -212.12 0 0 49.84 77.76 0 0 216.11 57.01 0zm336.12 0l-102.47 -265.95 -70.98 0 -102.87 265.95 64.6 0 16.75 -45.05 114.03 0 16.35 45.05 64.59 0zm-96.49 -94.89l-82.94 0 41.47 -114.44 41.47 114.44zm214.11 94.89l0 -216.11 77.35 0 0 -49.84 -212.12 0 0 49.84 77.76 0 0 216.11 57.01 0zm301.83 0l0 -49.84 -131.58 0 0 -60.2 128.79 0 0 -49.85 -128.79 0 0 -56.22 131.58 0 0 -49.84 -188.19 0 0 265.95 188.19 0zm361.66 0l-59.81 -101.28c28.71,-6.78 58.21,-31.9 58.21,-78.94 0,-49.44 -33.89,-85.73 -89.31,-85.73l-124.4 0 0 265.95 56.61 0 0 -94.5 41.47 0 52.23 94.5 65 0zm-99.29 -144.33l-59.41 0 0 -71.78 59.41 0c22.73,0 39.87,13.56 39.87,35.89 0,22.33 -17.14,35.89 -39.87,35.89zm260.36 149.11c80.95,0 120.02,-45.05 120.02,-111.23l0 -159.5 -57.82 0 0 157.89c0,37.08 -21.13,62.61 -62.2,62.61 -41.06,0 -62.6,-25.53 -62.6,-62.61l0 -157.89 -57.41 0 0 159.89c0,65.39 39.07,110.84 120.01,110.84zm290.68 -4.78l0 -216.11 77.35 0 0 -49.84 -212.12 0 0 49.84 77.76 0 0 216.11 57.01 0zm328.95 0l-59.81 -101.28c28.71,-6.78 58.21,-31.9 58.21,-78.94 0,-49.44 -33.89,-85.73 -89.31,-85.73l-124.4 0 0 265.95 56.61 0 0 -94.5 41.47 0 52.23 94.5 65 0zm-99.28 -144.33l-59.42 0 0 -71.78 59.42 0c22.72,0 39.86,13.56 39.86,35.89 0,22.33 -17.14,35.89 -39.86,35.89zm266.34 149.11c80.54,0 139.16,-57.4 139.16,-137.55 0,-80.15 -58.62,-137.57 -139.16,-137.57 -80.15,0 -138.76,57.42 -138.76,137.57 0,80.15 58.61,137.55 138.76,137.55zm0 -50.23c-49.05,0 -80.54,-37.88 -80.54,-87.32 0,-49.85 31.49,-87.32 80.54,-87.32 49.04,0 80.94,37.47 80.94,87.32 0,49.44 -31.9,87.32 -80.94,87.32zm417.06 45.45l0 -265.95 -56.62 0 0 167.07 -123.2 -167.07 -58.22 0 0 265.95 56.61 0 0 -173.45 126.81 173.45 54.62 0zm109.23 0l0 -265.95 -56.6 0 0 265.95 56.6 0zm293.87 0l-96.49 -136.76 90.51 -129.19 -68.19 0 -60.2 90.91 -61.01 -90.91 -67.39 0 90.52 129.59 -96.5 136.36 67.39 0 66.99 -97.28 66.59 97.28 67.78 0z"/>
   <polygon class="fil2" points="5533.89,2418.23 4816.86,2418.23 4816.86,2191.19 5273.34,2191.19 5273.34,2190.96 5322.7,2190.96 5322.7,1308.19 5564.4,1386.88 5564.4,2418.23 "/>
   <path class="fil2" d="M5966.62 2418.23l-211.22 0 0 -1117.13c0,-37.6 -2.78,-69.94 -8.32,-96.93 -5.07,-24.68 -12.43,-45.04 -22.03,-61.03 -5.8,-6.92 -12.02,-13.08 -18.61,-18.49 -7.45,-5.98 -15.51,-11.36 -24.09,-15.98 -7.89,-4.24 -17.04,-7.49 -27.31,-9.65 -11.14,-2.34 -23.71,-3.51 -37.79,-3.51 -19.26,0 -36.21,3.77 -50.81,11.29 -14.7,7.58 -27.69,19.22 -38.84,34.87 -12.16,17.03 -21.29,35.33 -27.33,54.84 -1.33,4.29 -2.5,8.64 -3.54,13.11l-225.47 -73.4c3.32,-9.36 6.92,-18.59 10.81,-27.72 9.91,-23.3 21.38,-45.04 34.31,-65.07 13.06,-20.26 27.74,-38.98 43.91,-56.03 16.21,-17.1 34.11,-32.43 53.58,-45.92 19.46,-13.48 40.31,-25.05 62.45,-34.58 22.48,-9.71 46.16,-16.99 70.94,-21.81 24.82,-4.79 50.52,-7.21 77.22,-7.21 111.45,0 201.53,36.11 270.23,108.31 34.27,36.04 60.02,78.93 77.15,128.55 16.87,48.56 25.26,103.49 25.26,164.69l0 1138.8 -30.5 0z"/>
   <path class="fil2" d="M6451.22 1604.53c-22.4,0.49 -40.59,8.35 -53.63,20.18 -14.29,12.97 -22.62,30.74 -23.68,48.74 -1.74,29.36 15.1,48.91 37.88,58.37 11.88,4.94 25.21,7.56 38.56,7.78 13.51,0.22 27.16,-1.95 39.57,-6.5 24.82,-9.1 44.04,-28.94 43.53,-59.32l-0.15 -0.8c-0.35,-16.81 -8.51,-33.7 -22.12,-46.55 -14.39,-13.58 -34.87,-22.38 -59.08,-21.99l-0.88 0.09zm1016.28 551.9c0,-7.7 -1.31,-14.46 -3.92,-20.22 -2.67,-5.88 -6.83,-11.31 -12.4,-16.19 -5.3,-4.61 -14.03,-8.56 -26.1,-11.71 -15.05,-3.92 -34.11,-6.27 -57.04,-6.98 -39.26,-1.33 -67.5,3.98 -84.6,15.86 -13.16,9.15 -19.79,24.66 -19.79,46.47 0,8.95 1.87,16.36 5.59,22.12 3.96,6.15 10.62,11.58 19.89,16.22 25.14,12.71 51.05,19 77.65,19 24.97,0 50.08,-6.29 75.25,-18.86 8.61,-4.31 14.99,-9.98 19.04,-16.9 4.32,-7.16 6.43,-16.79 6.43,-28.81zm-744.67 -45.31l-32.95 0.13 -41.28 0.92c-59.68,1.8 -119.26,3.72 -178.93,6 -15.61,0.73 -30.83,2.41 -45.59,5.02 -14,2.47 -27.15,5.83 -39.31,9.98 -6.38,2.23 -10.67,4.8 -12.74,7.69 -1.92,2.87 -2.75,7.4 -2.41,13.56l0 0.3c0.56,11.43 2.56,20.92 5.9,28.39 2.61,5.87 6.28,10.59 10.85,14.01 6.07,4.55 13.23,8.04 21.41,10.41 8.8,2.56 19.3,3.84 31.4,3.84 37.51,0 83.53,-10.08 137.99,-30.23 28.28,-10.46 56.12,-22.48 83.48,-36.07 20.91,-10.36 41.63,-21.69 62.18,-33.95zm53.97 -403.41c0.33,20.23 -2.16,39.45 -7.19,57.54 -5.23,18.78 -13.28,36.44 -23.82,52.99 -9.73,15.29 -20.53,29.33 -32.32,42.02 -11.83,12.77 -24.99,24.53 -39.33,35.16 -10.37,7.71 -21.32,14.84 -32.79,21.39l463.72 -7.97c48.09,-0.81 129.53,-8.8 202.74,-25.96 49.6,-11.62 94.04,-27.03 117.86,-46.29 11.43,-9.39 21.53,-19.79 30.28,-31.05 8.7,-11.2 16.14,-23.47 22.22,-36.66 6.14,-13.28 10.76,-26.55 13.82,-39.67 2.94,-12.59 4.41,-25.2 4.41,-37.79 0,-12.78 -1.33,-25.3 -3.96,-37.48 -2.71,-12.81 -6.74,-25.09 -12,-36.92 -5.29,-11.95 -11.97,-23.82 -19.91,-35.56 -7.4,-11.15 -16.15,-21.88 -26.09,-32.18 -18.89,-19.56 -42.51,-35.25 -70.82,-46.98 -14.24,-5.89 -29.16,-10.32 -44.68,-13.21 -15.65,-2.9 -32.67,-4.39 -50.95,-4.39 -31.04,0 -58.76,3.03 -83.15,9.08 -23.48,5.83 -44.23,14.53 -62.15,26.01 -15.48,9.93 -27.08,22.88 -34.73,38.74 -8.14,16.93 -12.24,37.96 -12.24,63.02l0 152.88 -246.71 80.25 0 -225.9c0,-12.47 -1.38,-24.01 -4.11,-34.52 -2.74,-10.52 -6.95,-20.63 -12.54,-30.3 -5.83,-10.07 -12.73,-19.39 -20.58,-27.9 -7.99,-8.64 -16.85,-16.37 -26.53,-23.15 -10.2,-7.15 -21.38,-13.51 -33.43,-19.01 -12.28,-5.62 -25.54,-10.39 -39.6,-14.25 -14.57,-3.98 -29.4,-6.97 -44.54,-8.94 -14.65,-1.92 -30.38,-2.89 -47.07,-2.89 -29.51,0 -54.98,1.02 -76.37,3.03l-3.48 0.34c117.84,7.02 252.79,45.12 256.04,236.52zm-510.09 223.98l9.68 -4.45c-21.96,-12.54 -42.34,-27.7 -61.15,-45.52 -26.41,-25.02 -46.96,-54.32 -61.6,-87.78 -14.25,-32.62 -22.8,-69.04 -25.53,-109.15 -3.49,-41.38 -2.49,-79.96 2.94,-115.64 5.55,-36.48 15.79,-70.13 30.7,-100.81 14.77,-30.46 32.41,-57.18 52.85,-80.09 20.46,-22.97 43.89,-42.22 70.21,-57.8 42.65,-26.96 91.23,-47.19 145.66,-60.58 53.71,-13.2 112.86,-19.82 177.37,-19.82 96.53,0 185.03,17.99 265.45,53.89 16.31,7.06 46.97,26.94 63.8,36.78 7.83,4.55 15.02,9.43 21.77,14.62l1.28 -1.44c5.52,-6.29 11.74,-11.67 18.61,-16.25l0.14 -0.14c5.18,-3.44 10.84,-6.4 16.93,-8.82 18.21,-11.35 38.39,-21.74 60.48,-31.08 22.62,-9.56 46.76,-17.8 72.3,-24.59 25.96,-6.9 52.68,-12.09 80.13,-15.45 27.69,-3.4 56.32,-5.12 85.76,-5.12 53.89,0 103.82,8.41 149.77,25.18 21.72,7.91 42.85,17 63.45,27.29 20.44,10.07 39.67,21.21 57.66,33.19l1 0.87c22.47,16.17 43.46,35.24 62.92,57.1 19.2,21.59 37.29,46.25 54.15,73.94 17.1,28.05 30.4,56 39.88,83.77 9.65,28.29 15.41,56.57 17.22,84.76l0 1.42c0.85,36.3 -1.33,71.75 -6.6,106.25 -5.28,34.71 -13.77,69.35 -25.37,103.75 -12.14,35.99 -28.78,67.87 -49.86,95.5 -9.39,12.33 -19.63,23.82 -30.73,34.43 7.05,5 13.62,10.26 19.68,15.78 20.27,18.45 34.88,39.76 43.75,63.83 7.7,20.79 13.04,41.56 16.02,62.23 2.97,20.56 3.54,41.24 1.67,61.91 -1.71,21.24 -6.17,41.7 -13.16,61.22 -6.76,19.34 -16.29,37.49 -28.36,54.39 -11.48,16.12 -24.4,30.84 -38.6,44.12 -14.23,13.32 -29.78,25.2 -46.54,35.61 -16.19,10.06 -33.26,19.02 -51.1,26.84 -17.58,7.68 -35.89,14.2 -54.86,19.47 -18.97,5.29 -37.48,9.25 -55.47,11.85 -18.64,2.7 -36.76,4.05 -54.23,4.05l-1.14 -0.16c-25.99,-0.86 -50.43,-3.23 -73.23,-7.06 -23.53,-3.94 -45.67,-9.47 -66.27,-16.48 -20.18,-6.88 -39.31,-14.92 -57.26,-24.14 -18.31,-9.36 -34.78,-19.63 -49.39,-30.68 -14.89,-11.26 -28.38,-23.64 -40.4,-37.1 -12.19,-13.64 -22.54,-27.96 -30.92,-42.87 -8.67,-15.41 -15.26,-31.56 -19.68,-48.34 -3.93,-14.87 -6.14,-29.95 -6.61,-45.22 -17.83,11.38 -52.82,35.92 -69.92,44.22 -42.46,25.8 -83.33,49.91 -122.48,72.22 -42.06,23.97 -82.15,46.09 -120.16,66.26 -41.73,22.05 -82.75,38.7 -123.08,49.84 -41.2,11.39 -81.41,17.1 -120.56,17.1 -59.01,0.66 -109.68,-4.98 -151.85,-17.1 -45.27,-12.99 -81.64,-33.47 -109.09,-61.38 -68.55,-69.71 -90.02,-185.33 -65.91,-278.39 16.88,-64.87 67.93,-121.21 127.88,-150.23z"/>
   <path class="fil2" d="M8492.22 2231.45l-6.9 -8.16c-22.12,-26.79 -43.3,-58.73 -63.45,-95.69l-0.1 -0.24c-58.25,-109.01 -67.29,-231.99 -75.42,-343.04 -6.61,-90.08 -12.65,-171.8 -44.17,-223.63l-9.38 -11.03c-10.58,-12.44 -22.96,-21.78 -37.09,-27.92 -14.43,-6.27 -31.27,-9.42 -50.48,-9.42 -24.99,0 -46.11,5.17 -63.28,15.46 -17.07,10.24 -31.17,26.1 -42.19,47.47 -25.47,49.45 -37.64,119.77 -38.04,191.38 -0.42,75.96 12.31,152.36 36.35,206.46l0.59 1.19c6.57,16.8 14.46,33.07 23.59,48.72 9.23,15.83 19.47,30.65 30.68,44.38 11.48,14.09 23.98,27.58 37.42,40.49 13.39,12.79 27.41,24.73 42.01,35.73 40.4,28.38 90.22,50.6 149.39,66.51 30.21,8.13 59.02,14.23 86.28,18.26l24.19 3.08zm453.48 -624.12l-9.67 -15.23c-18.19,-28.71 -39.55,-50.05 -63.97,-63.96 -24.18,-13.76 -52.13,-20.65 -83.77,-20.65 -67.68,0 -121.01,29.85 -159.91,89.52 -6.76,11.65 -12.97,24.78 -18.52,39.31 -5.74,15.01 -10.67,31.3 -14.77,48.77 -13.83,59.21 -15.89,118.57 -7.47,176.43 8.08,55.45 25.82,109.75 52.07,161.57l5.45 8.35c11.26,17.28 23.18,34.31 35.66,51.02 12.37,16.57 24.58,31.8 36.53,45.62 11.45,13.25 23.55,24.87 36.18,34.82 8.16,6.39 16.53,12.07 25.06,16.98 9.79,-5.57 19.33,-11.73 28.57,-18.47 13.09,-9.57 26.15,-20.84 39.08,-33.78 25.72,-25.71 49.19,-55.96 70.29,-90.65 40.52,-66.21 65.01,-149.12 68.34,-232.06 2.79,-69.4 -9.28,-138.61 -39.15,-197.59zm521.56 643.18c-65.23,63.56 -140.24,111.6 -225.22,143.71 -84.57,31.95 -178.72,48.1 -282.7,48.1 -16.25,0 -33.62,-0.66 -52.03,-1.94 -17.32,-1.19 -35.86,-3.11 -55.48,-5.65 -20.34,-2.65 -38.62,-6.38 -54.78,-11.19 -12.05,-3.63 -23.14,-7.8 -33.2,-12.56l-22.48 7.11c-9.52,2.91 -19.94,5.83 -31,8.7l-27.93 6.83c-9.06,2.09 -18.07,4 -26.97,5.69 -9.05,1.73 -18.51,3.18 -28.28,4.29 -9.15,1.04 -18.89,1.78 -29.12,2.21l-30.65 0.92 -34.52 0.41c-201.72,0 -368.13,-55.44 -499.13,-166.28 -115.32,-98.87 -189.68,-258.67 -210.61,-422.38 -20.32,-159.26 9.68,-323.28 101.52,-440.07 35.38,-44.98 76.65,-78.9 123.67,-101.64 46.99,-22.72 99.32,-34.12 156.88,-34.12 38.29,0 72.89,3.61 103.78,10.77 31.98,7.42 59.87,18.72 83.6,33.76 23.62,14.98 45.21,34.89 64.73,59.6 9.65,12.23 18.75,25.59 27.29,40.12 4.84,-5.86 9.81,-11.62 14.91,-17.26 16.59,-18.35 34.16,-35.11 52.61,-50.2l2.26 -1.68c36.98,-24.94 77.02,-43.76 120.01,-56.33 42.73,-12.5 87.94,-18.78 135.55,-18.78 118.54,0 219.48,49.44 302.72,148.3 71.57,85.1 108.96,190.11 119.13,298.97 11.17,119.65 -10.76,244.19 -56.54,351.69l-0.95 2.15c-10.98,21.11 -23.38,41.47 -37.1,60.98 -13.37,19 -28.31,37.44 -44.75,55.18 -9.59,10.34 -19.63,20.31 -30.13,29.89 37.08,-8.29 71.99,-20.39 104.72,-36.34 44.06,-21.48 84.13,-49.84 120.12,-85.07 32.08,-32.18 59.55,-72.79 80.77,-117.98 21.7,-46.26 37.02,-97.42 44.25,-149.32 4.07,-29.23 5.59,-117.83 4.31,-227.66 -1.18,-100.95 -4.84,-219.92 -11.16,-327.8l239.88 -100.39 1.35 97.42c4.89,106.03 8.07,223.46 9.56,324.28 1.69,114.53 1.24,207.14 -1.26,237.64 -6.33,76.84 -25.98,152.28 -58.15,222.01 -31.37,67.97 -74.78,130.61 -129.48,183.91z"/>
   <path class="fil1" d="M11277.39 1233.65c0,-15.49 -1.61,-28.18 -4.78,-37.99 -2.54,-7.89 -6.03,-13.85 -10.39,-17.8 -5.59,-5.06 -11.59,-8.9 -17.88,-11.45 -5.64,-2.3 -11.8,-3.45 -18.37,-3.45 -8.59,0 -16.53,1.34 -23.73,4.01 -7.62,2.89 -14.87,7.19 -21.77,12.95 -6.07,4.95 -10.53,10.76 -13.46,17.33 -2.99,6.73 -4.49,14.87 -4.49,24.35 0,21.96 5.41,39.81 16.2,53.44 4.48,5.66 9.88,9.93 16.1,12.75 6.61,2.99 14.62,4.49 23.92,4.49 9.72,0 18.18,-1.47 25.3,-4.36 6.56,-2.66 12.35,-6.72 17.25,-12.12 5.55,-6.1 9.65,-12.55 12.22,-19.26 2.58,-6.71 3.88,-14.36 3.88,-22.89zm459.37 1184.58l-213.62 0 0 -1220.72c0,-15.44 -4.22,-30.42 -12.64,-44.9 -4.83,-8.14 -10.1,-15.44 -15.81,-21.75 -5.97,-6.61 -12.87,-12.82 -20.6,-18.54 -6.09,-4.57 -12.83,-8.93 -20.18,-13.06l6.31 11.43c19.96,38.57 29.97,82.79 29.97,132.6 0,34.24 -5.95,66.58 -17.81,96.92 -11.79,30.19 -29.43,58.16 -52.82,83.79 -23.98,26.3 -52.43,46.07 -85.27,59.25 -32.28,12.95 -68.39,19.44 -108.32,19.44 -91.05,0 -160.56,-27.17 -208.4,-81.44 -23.48,-26.65 -41.17,-57.61 -52.95,-92.72 -11.52,-34.41 -17.31,-72.5 -17.31,-114.16 0,-52.38 9.77,-100.32 29.22,-143.7 19.53,-43.49 48.69,-81.99 87.39,-115.42 38.78,-33.5 86.96,-58.11 144.43,-73.78 55.86,-15.23 120.59,-21.99 194.09,-20.33l2.51 0.12c113.52,12.03 202.22,52.16 266.04,120.35 32.48,34.72 56.74,76.44 72.74,125.05 15.67,47.82 23.54,102.19 23.54,163.12l0 1148.45 -30.51 0z"/>
   <path class="fil1" d="M13151.04 2180.05l0 -416.34c0,-34.43 -4.48,-66.26 -13.39,-95.38 -8.86,-28.99 -22.22,-56 -39.99,-81.02 -14.8,-20.86 -38.89,-36.89 -72.2,-48 -36.91,-12.29 -84.84,-18.48 -143.8,-18.48 -85.73,0 -148.94,19.82 -189.56,59.44 -40.35,39.32 -60.53,100.49 -60.53,183.44l0 416.34 519.47 0zm219.72 244.28l-1431.69 0 0 -1130.92 256.33 0 0 886.64 182.23 0 0 -339.24c0,-86.84 6.68,-163.92 23.16,-231.52 17,-69.72 44.43,-128.9 85.57,-177.58 41.8,-49.45 96.99,-87.7 165.41,-113.26 64.99,-24.3 141.67,-37.08 229.89,-37.08 105.23,0 193.68,15.41 265.67,44.62 76.51,31.04 134.48,77.74 174.37,138.22 15.94,24.19 30.14,50.32 41.93,78.62 11.8,28.29 21.48,59.23 28.42,93.11 6.83,33.32 10.67,67.53 12.76,102.71 2.13,35.88 2.56,71.08 2.56,106.96l0 578.72 -36.61 0z"/>
   <path class="fil2" d="M4613.46 1265.65c164.29,0 302.09,65.91 400.34,172.93 99.7,108.59 156.72,258.63 156.72,422.98 0,127.79 -34.39,246.94 -96.43,344.54 -63.26,99.54 -155.16,176.52 -268.93,217.97l-82.94 -228.8c60.93,-22.19 110.86,-64.52 145.96,-119.78 37.5,-58.99 58.29,-132.92 58.29,-213.93 0,-102.94 -33.43,-194.42 -91.87,-258.07 -53.28,-58.04 -129.31,-93.78 -221.14,-93.78 -91.84,0 -167.86,35.74 -221.15,93.78 -58.43,63.65 -91.86,155.13 -91.86,258.07 0,103.28 26.75,188.13 77.68,243.92 45.56,49.91 114.91,78.93 206.32,78.93l0 244.06c-164.31,0 -294.71,-58.46 -386.49,-159.04 -92.82,-101.69 -141.57,-243.47 -141.57,-407.87 0,-164.35 57.02,-314.39 156.72,-422.98 98.25,-107.02 236.05,-172.93 400.35,-172.93z"/>
   <polygon class="fil1" points="11251,2418.23 10533.96,2418.23 10533.96,2191.19 10990.44,2191.19 10990.44,2190.96 11039.8,2190.96 11039.8,1602.28 11281.5,1675.59 11281.5,2418.23 "/>
   <path class="fil1" d="M10330.56 1265.65c164.29,0 302.09,65.91 400.34,172.93 99.71,108.59 156.72,258.63 156.72,422.98 0,127.79 -34.39,246.94 -96.43,344.54 -63.26,99.54 -155.16,176.52 -268.92,217.97l-82.95 -228.8c60.93,-22.19 110.86,-64.52 145.97,-119.78 37.49,-58.99 58.28,-132.92 58.28,-213.93 0,-102.94 -33.43,-194.42 -91.87,-258.07 -53.28,-58.04 -129.31,-93.78 -221.14,-93.78 -91.83,0 -167.86,35.74 -221.14,93.78 -58.44,63.65 -91.87,155.13 -91.87,258.07 0,103.28 26.75,188.13 77.68,243.92 45.56,49.91 114.91,78.93 206.33,78.93l0 244.06c-164.32,0 -294.72,-58.46 -386.5,-159.04 -92.82,-101.69 -141.57,-243.47 -141.57,-407.87 0,-164.35 57.02,-314.39 156.72,-422.98 98.25,-107.02 236.05,-172.93 400.35,-172.93z"/>
   <path class="fil1" d="M13809.2 2418.23l-211.21 0 0 -1117.13c0,-37.6 -2.79,-69.94 -8.32,-96.93 -5.07,-24.68 -12.43,-45.04 -22.03,-61.03 -5.8,-6.92 -12.02,-13.08 -18.61,-18.49 -7.45,-5.98 -15.51,-11.36 -24.09,-15.98 -7.89,-4.24 -17.04,-7.49 -27.31,-9.65 -11.14,-2.34 -23.71,-3.51 -37.79,-3.51 -19.26,0 -36.21,3.77 -50.81,11.29 -14.7,7.58 -27.69,19.22 -38.84,34.87 -12.16,17.03 -21.29,35.33 -27.33,54.84 -1.33,4.29 -2.5,8.64 -3.54,13.11l-225.47 -73.4c3.32,-9.36 6.92,-18.59 10.81,-27.72 9.91,-23.3 21.38,-45.04 34.31,-65.07 13.06,-20.26 27.74,-38.98 43.91,-56.03 16.21,-17.1 34.11,-32.43 53.58,-45.92 19.46,-13.48 40.31,-25.05 62.45,-34.58 22.48,-9.71 46.16,-16.99 70.94,-21.81 24.82,-4.79 50.52,-7.21 77.22,-7.21 111.45,0 201.53,36.11 270.22,108.31 34.28,36.04 60.03,78.93 77.15,128.55 16.88,48.56 25.27,103.49 25.27,164.69l0 1138.8 -30.51 0z"/>
  </g>
 </g>
</svg>
