<?xml version="1.0" encoding="UTF-8"?>
<!DOCTYPE svg PUBLIC "-//W3C//DTD SVG 1.1//EN" "http://www.w3.org/Graphics/SVG/1.1/DTD/svg11.dtd">
<!-- Creator: CorelDRAW 2020 (64-Bit) -->
<svg xmlns="http://www.w3.org/2000/svg" xml:space="preserve" width="150mm" height="35mm" version="1.1" style="shape-rendering:geometricPrecision; text-rendering:geometricPrecision; image-rendering:optimizeQuality; fill-rule:evenodd; clip-rule:evenodd"
viewBox="0 0 15000 3500"
 xmlns:xlink="http://www.w3.org/1999/xlink"
 xmlns:xodm="http://www.corel.com/coreldraw/odm/2003">
 <defs>
  <style type="text/css">
   <![CDATA[
    .fil0 {fill:#FEFEFE}
    .fil1 {fill:#FEFEFE;fill-rule:nonzero}
    .fil2 {fill:#009B94;fill-rule:nonzero}
   ]]>
  </style>
 </defs>
 <g id="Layer_x0020_1">
  <metadata id="CorelCorpID_0Corel-Layer"/>
  <g id="_2878818320928">
   <g>
    <path class="fil0" d="M934.67 2381.4c-67.46,-41.99 -271.66,36.3 -412.58,-17.34 60,107.98 139.41,128.25 275.96,78.73 1.82,-0.64 -5.35,-21.7 -3.5,-22.4 2.87,-1.04 16.15,17.52 19.15,16.51 7.61,-2.51 -8.7,-20.97 -0.2,-24.61 3.45,-1.48 31.43,12.2 35.01,10.57 5.22,-2.33 10.57,-4.82 16.01,-7.37 1.19,-1.79 -10.1,-10.69 37.35,-41.85 4.54,-2.97 6.66,20.94 11.71,18.4 6.91,-3.41 13.94,-6.99 21.09,-10.64zm-70.29 12.53c-46.71,-21.23 -204.18,24.37 -301.81,-2.79 43.11,66.74 126.74,53.01 301.81,2.79z"/>
    <path class="fil0" d="M3175.22 1207.52c209.16,10.22 249.72,243.11 162.66,276.38 -8.64,-17.72 -8.44,-33.41 -6.03,-49.02 3.51,-22.46 -21.26,-35.56 -46.14,-12.92 6.62,-35.21 19.36,-60.42 8.09,-88.19 -8.74,-21.59 -39.98,-43.31 -59.78,-81.94 64.7,62.32 92.22,78.15 73.28,145.59 28.69,-17.6 37,10.8 41.5,32.08 35.96,-59.87 -14.02,-181.97 -173.58,-221.98z"/>
    <path class="fil0" d="M3229.4 1255.43c-14.35,-6.79 -39.06,12.25 -43.13,23.12 -4.1,10.89 11.27,50.5 -6.51,55.02 -17.8,4.52 -58,-1.68 -67.78,10.35 -9.8,12.05 9.58,68.28 9.58,68.28 0,0 -9.78,-47.77 7.63,-62.78 17.42,-14.98 74.67,15.91 75.94,-5.08 -4.1,-17.64 -11.09,-41.02 -5.79,-58.76 3.88,-12.92 16.82,-21.25 30.06,-30.15z"/>
    <path class="fil0" d="M3085.14 1362.06c0,0 0.12,21.55 -16.27,44.66 -25.94,36.6 -93.19,42.46 -129.61,23.96 -62.96,-31.98 -53.16,-56.89 -83.63,-80.98 -16.19,-12.79 -38.37,-21.79 -55.59,-27.42 -28.72,-9.38 -27.6,-20.08 -1.95,-42.26 18.22,-15.75 61.88,-35.58 125.66,-4.34 -76.56,-4.82 -118.95,4 -126.9,28.93 8.7,-3.94 60.61,3.75 81.5,33.82 36.46,52.58 46.12,75.34 106.55,79.5 62.67,4.31 100.24,-55.87 100.24,-55.87z"/>
    <path class="fil1" d="M2837.31 1190.92c-75.76,-34.99 -163.65,-90.05 -177.19,-174.87 -4.44,-27.88 1.69,-16.65 16.52,0.58 21.05,24.49 47.65,42.45 62.29,52.24l-36.96 -41.47c-15.81,-22.54 -29.43,-40.5 -43.33,-76.19 -11.65,-19.29 -14.95,15.83 -14.79,21.49 1.49,54.34 19.71,101.31 52.15,142.01 35.68,44.8 88.59,81.96 155.55,112.9l-14.24 -36.69z"/>
    <path class="fil0" d="M2931.64 1144.14c0,0 6.89,-5.39 17.78,-7.66 10.91,-2.29 19.71,10.27 29.15,29.76 9.42,19.48 -15.13,-21.48 -28.35,-22.4 -13.19,-0.95 -18.58,0.3 -18.58,0.3z"/>
    <path class="fil0" d="M2962.76 1152.43c0.24,0.85 -2.41,13.99 -13.98,12.3 -7.58,-1.09 -14,-12.2 -7.96,-17.72l5.49 -5.02 9.46 0.84c0,0 6.77,8.78 6.99,9.6z"/>
    <path class="fil0" d="M1572.36 1207.52c-209.18,10.22 -249.72,243.11 -162.67,276.38 8.65,-17.72 8.43,-33.41 6.02,-49.02 -3.49,-22.46 21.26,-35.56 46.13,-12.92 -6.61,-35.21 -19.35,-60.42 -8.08,-88.19 8.76,-21.59 39.98,-43.31 59.78,-81.94 -64.7,62.32 -92.22,78.15 -73.28,145.59 -28.69,-17.6 -37,10.8 -41.52,32.08 -35.94,-59.87 14.04,-181.97 173.62,-221.98z"/>
    <path class="fil0" d="M1518.16 1255.43c14.35,-6.79 39.06,12.25 43.16,23.12 4.07,10.89 -11.29,50.5 6.48,55.02 17.82,4.52 58,-1.68 67.8,10.35 9.81,12.05 -9.6,68.28 -9.6,68.28 0,0 9.78,-47.77 -7.61,-62.78 -17.44,-14.98 -74.69,15.91 -75.96,-5.08 4.1,-17.64 11.13,-41.02 5.79,-58.76 -3.88,-12.92 -16.82,-21.25 -30.06,-30.15z"/>
    <path class="fil0" d="M1662.4 1362.06c0,0 -0.12,21.55 16.29,44.66 25.94,36.6 93.21,42.46 129.6,23.96 62.97,-31.98 53.15,-56.89 83.66,-80.98 16.2,-12.79 38.35,-21.79 55.57,-27.42 28.73,-9.38 27.62,-20.08 1.97,-42.26 -18.24,-15.75 -61.91,-35.58 -125.7,-4.34 76.58,-4.82 118.95,4 126.92,28.93 -8.69,-3.94 -60.6,3.75 -81.5,33.82 -36.46,52.58 -46.14,75.34 -106.55,79.5 -62.67,4.31 -100.26,-55.87 -100.26,-55.87z"/>
    <path class="fil1" d="M1910.26 1190.92c75.77,-34.99 163.64,-90.05 177.18,-174.87 4.44,-27.88 -1.69,-16.65 -16.52,0.58 -21.05,24.49 -47.63,42.45 -62.29,52.24l36.96 -41.47c15.83,-22.54 29.43,-40.5 43.33,-76.19 11.66,-19.29 14.95,15.83 14.79,21.49 -1.51,54.34 -19.71,101.31 -52.13,142.01 -35.68,44.8 -88.61,81.96 -155.55,112.9l14.23 -36.69z"/>
    <path class="fil0" d="M1815.92 1144.14c0,0 -6.89,-5.39 -17.8,-7.66 -10.87,-2.29 -19.69,10.27 -29.13,29.76 -9.42,19.48 15.13,-21.48 28.35,-22.4 13.2,-0.95 18.58,0.3 18.58,0.3z"/>
    <path class="fil0" d="M1784.8 1152.43c-0.24,0.85 2.41,13.99 13.98,12.3 7.58,-1.09 14.01,-12.2 7.96,-17.72l-5.49 -5.02 -9.46 0.84c0,0 -6.75,8.78 -6.99,9.6z"/>
    <path class="fil0" d="M2165.36 763.04l7.86 0 73.04 87.76c-41.02,6.13 -72.7,41.18 -72.7,83.15l0 0c0,37.14 24.83,68.86 58.98,79.89 0.54,0.2 7.97,0.34 8.51,0.52l-59.86 70.46 -15.83 0 0 -321.78zm76.12 0l262.44 0 -72.16 86.82 -35.26 0 0 -0.56 -1.14 0 -45.3 0 -1.15 0 0 0.56 -35.27 0 -72.16 -86.82zm330.7 0l7.85 0 0 321.78 -15.83 0 -59.86 -70.46c0.56,-0.18 7.97,-0.32 8.51,-0.52 34.16,-11.03 58.98,-42.75 58.98,-79.89l0 0c0,-41.97 -31.68,-77.02 -72.7,-83.15l73.05 -87.76zm-76.24 321.78l-99.44 0 0 -20.51 0 -19.85 0 -146.43 79.21 0c23.46,0 42.69,14.77 42.69,35.92l0 0c0,21.15 -19.23,38.45 -42.69,38.45l-75.05 0 20.35 24.03 74.93 88.39zm-147.03 0l-99.46 0 74.93 -88.39 20.37 -24.03 -75.07 0c-23.48,0 -42.69,-17.3 -42.69,-38.45l0 0c0,-21.15 19.21,-35.92 42.69,-35.92l79.23 0 0 146.43 0 19.85 0 20.51z"/>
    <path class="fil1" d="M2493.59 670.13c2.07,-30.96 37.79,-83.65 76.7,-87.83 14.96,-11.95 78.67,-0.56 97.95,17.07 32.36,25.01 51.71,85.14 68.26,135.72 18.14,55.51 41.95,123.03 84.27,179.61 48.24,37.15 81.16,-27.05 101.03,55.01 4.48,10.93 1.61,30.91 8.2,34.73 6.56,3.8 22.6,-8.54 39.89,-6.97 45.54,-15.11 54.22,16.83 61.65,28.83 5.03,8.09 -1.46,23.86 7.42,28.99 19.56,11.27 53.45,8.05 73.36,7.15 18.98,-0.93 64.46,3.51 85.44,42.52 11.19,20.8 13.07,45.83 6.26,66.64 -6.04,18.36 -48.73,49.1 -70.79,55.08 -16.07,6.75 11.91,9.08 19.15,6.37 9.12,-3.42 21.61,-9.24 32.06,-13.8 32.38,-14.1 69,4 105.24,1.26 98.92,5.03 234.98,13.48 357.74,58.38 121.42,44.38 247.79,125.9 325.18,281.6 9.76,19.63 31.23,71.14 35.31,129.28 -23.8,-38.59 -53.09,-64.63 -90.6,-89 36.97,32.77 77.28,95.68 97.99,144.94 17,40.32 24.81,106.35 0.75,153.66 -3.68,63.96 22.48,93.19 33.73,155.99 0,0.06 -12.1,27.4 -8.52,64.2 4.32,44.44 29.19,100.93 26.36,116.7 55.6,-81.32 61.89,-80.74 30.21,-174.47 -4.6,-13.58 -49.82,-60.29 -43.53,-169.69 1.68,-29.61 3.39,-59.24 3.55,-89.7l0 -0.08 0 -7.91 0 -0.08c-0.2,-46.45 -6,-85.56 -16.95,-123.49 -10.93,-37.8 -26.78,-74.06 -47.17,-115.05 -82.58,-166.23 -207.21,-253.94 -337.07,-301.41 -128.48,-46.98 -260.87,-54.03 -362.36,-59.24 -41.54,-2.09 -50.98,-53.57 -65.55,-80.67 -32.7,-60.77 -75.33,-77.22 -109.4,-75.64 -27.56,1.29 -52.55,1.05 -67.94,-23.8 -9.06,-16.33 -17.11,-32.59 -46.22,-37.41 -22.86,-3.81 -46.85,11.11 -56.13,-13.6 -6.83,-18.18 -14.83,-39.51 -43.33,-52.63 -13.38,-6.13 -25.53,-9.12 -36.92,-11.93 -13.87,-3.38 -26.26,-6.43 -33.83,-15.05 -41.77,-47.55 -60.49,-104.8 -77.47,-156.71 -18.52,-56.61 -35.17,-107.43 -76.9,-139.68 -15.4,-11.91 -33.7,-20 -52.99,-24 -22.28,-4.56 -45.94,-3.6 -68,3.51 -22.34,7.17 -43.03,20.53 -59.1,40.62 -12.7,15.87 -22.44,35.92 -27.62,60.35l-2.79 20.41c-1.83,13.28 0.66,15.43 11.04,7.73 17.46,-12.91 29.07,-4.06 43.34,-16.11 13.25,10.75 12.91,37.99 31.23,28.77 5.95,-3.01 -8.76,-12.5 0.16,-29.57 17.66,-33.75 56.77,-28.91 65.41,-3.54 13.28,38.97 17.38,129.59 27.85,193.38 6.4,38.89 12.17,74.14 18.3,97.61l0 0.08 0.04 0.1c24.87,94.68 93.43,108.26 144.11,154.06 28.79,25.97 16.64,59.64 23.39,92.08 5.14,24.83 44.53,62.26 105.26,69.05 4.62,-1.81 -49.6,-31.1 -70.31,-55.49 -15.11,-17.8 -17.16,-40.11 -16.81,-47.65l0 -0.08c1.3,-27.68 -1.41,-45.7 -25.74,-67.68 -33.51,-30.25 -101.77,-68.74 -122.96,-103.45 -45.22,-73.97 -39.31,-186.12 -54.5,-270.52 -8.46,-46.88 -20.05,-83.48 -42.63,-93.33 -49.5,-21.59 -82.96,39.46 -113.7,25.78z"/>
    <path class="fil1" d="M4015.73 1895.55c-21.82,49.68 -38.65,137.61 -28.27,178.11 10.23,39.8 25.86,77.16 42.97,117.68l-0.02 0 0.08 0.18 0.08 0.08c7.62,18.14 10.47,38.69 11.15,58.68 0.26,7.85 1.95,19.61 -19.24,22.52 -0.14,4.6 19.58,9.72 20.49,14.22 3.21,16.01 11.69,31.16 15.18,44.46l2.29 8.58c6.37,23.1 -18.78,24.04 -24.89,23.84l-92.1 -7.65c-1.71,6.83 -50.36,14.26 -41.04,-18.75 4.05,-14.44 19,-31.27 40.19,-23.2 2.39,-11.05 -53.51,-19.58 -54.46,35.92 -0.16,10.45 -32.66,9.22 -32.64,-1.71 6.01,-39.95 16.83,-50.56 40.46,-40.84 1.89,-3.47 -8.54,-13.76 -7.15,-17.05 2.77,-6.57 17.17,-6.81 19.04,-14.23 -42.41,-36.78 10.23,-42.91 5.5,-54.46 -23.64,-57.73 -44.27,-95.02 -83.89,-134.17 -18.24,-17.96 -41.16,-39.23 -55.86,-63.9 -10.77,-18.1 -18.87,-40.94 -26.44,-90.9 -18.52,-57.56 -72.26,-228.83 -134.41,-248.72 7.55,8.8 16.99,23.83 26.5,41.48 4.54,8.44 9.1,17.52 13.45,26.8 18.91,40.2 34.08,84.43 28.73,100.63 -3.94,12.05 -10.67,28.98 -9.1,40.23 0.58,4.34 -9.86,18.16 -6.25,15.37 26.56,-20.31 56.77,17.76 56.47,38.39 5.95,87.75 12.54,64.12 96.93,153.26 18.64,19.64 27.56,42.36 40,64.2 12.77,22.36 17.03,55.12 13.46,84.69 -0.77,6.27 -1.87,12.28 -3.28,17.88 -1.36,5.45 -3.07,10.67 -5.1,15.49 -1.13,2.63 -2.23,4.94 -3.25,6.85l-3.44 6.31 -0.04 -0.02c-10.33,18.92 -17.78,32.56 -18.24,45.52 -0.9,24.71 14.34,35.32 58.14,36.86l141.72 5.09c35.76,1.26 47.25,-6.01 48.09,-28.77 0.28,-7.72 -1.76,-15.21 -4.56,-25.23 -1.28,-4.68 -1.78,-6.29 -2.27,-8.14 -3.09,-11.73 -12.47,-28.5 -11.91,-46.7 1.57,-50.87 -12.53,-92.77 -28.99,-134.9 -24,-61.53 -48.07,-114.16 -24.08,-243.98z"/>
    <path class="fil1" d="M3621.97 1995.66c-15.59,53.45 -41.91,128.9 -21.42,168.14 11.01,22.32 30.3,29.49 22.2,55.66l-0.02 -0.02c-8.19,16.92 -59.64,87.81 -37.1,101.87l-0.02 0.04c3.47,2.15 7.41,3.3 11.83,3.38 69.19,1.26 296.91,51.42 185,-85.04 -29.33,-46.9 15.39,-94.96 45.92,-128.02l-21.84 -23.63c-27.64,39.78 -71.17,98.46 -48.27,148.94 1.91,4.26 -14.44,5.42 -11.59,10.02 1.29,1.99 21.27,7.42 22.48,9.67 41.76,76.47 -67.56,52.67 -111.81,52.43 15.34,-14.51 13.82,-29.01 -0.21,-43.49 7.38,35.43 -27.84,49.62 -61.63,44.65 -12.95,-31.33 53.14,-53.65 62.9,-74.44 0,-0.02 -4.6,-33.99 -1.65,-34.86 58.54,-17.15 -5.06,-14.92 -13.22,-18.42 -65.44,-27.84 -5.74,-155.79 18.67,-193.27l-3.76 -2.41c-11.51,3.83 -24.09,10.24 -36.46,8.8z"/>
    <path class="fil1" d="M3728.04 1971.43c-58.46,13.38 -143.62,29.79 -213.34,1.18 -70.42,-28.88 -105.37,-53.17 -197.01,-118.8 -2.19,-1.57 -27.42,-25.17 -29.69,-26.8l-12.84 25.09c103.48,72.34 155.22,102.05 230.4,132.89 77.54,31.8 167.31,26.33 234.41,11.01l-11.93 -24.57z"/>
    <path class="fil0" d="M3683.58 1812.23c-16.67,169.87 -190.62,108.19 -320.03,45.24 70.95,62.49 273.06,131.4 342.53,12.67 0,0 -23.99,-59.38 -22.5,-57.91z"/>
    <path class="fil1" d="M3768.98 1377.67c-104.44,-52.84 -205.39,-86.32 -321.92,-129.88 91.86,13.48 231.32,57.76 336.5,123.41 74.33,46.42 152.56,132.34 182.83,214.71 -50.46,-49.3 -89.64,-153.7 -197.41,-208.24z"/>
    <path class="fil1" d="M3073.57 1475.82c-0.26,13.18 -33.95,133.07 -33.97,146.01 -0.26,125.43 10.49,241.72 43.51,359.54 3.01,10.85 14.63,52.45 22.38,92.93 10.95,57.17 11.53,101.23 -0.18,128.17 -28.39,22.22 -46.04,38.35 -48.25,57.79 -2.29,20.49 -4.4,30.14 6.36,35.36l1.35 -2.35 213.2 0c-1.79,4.08 -3.61,8.13 -5.44,12.17 14.22,-1.02 23.92,-3.89 25.79,-10.5 0.04,-0.18 7.88,-31.36 -9.68,-60.99 -15.95,-48.66 -17.32,-109.29 -10.41,-179.52 5.35,-54.62 6.15,-125.61 -2.29,-169.3 15.03,-9.79 36.56,-63.38 14.31,-162.76 -10.65,-47.57 0.36,-94.72 -1.71,-113.06 -15.33,35.9 -21,100.26 -12.5,158.74 4.42,30.46 4.62,51.31 -7.99,81.56 -23.91,34.93 -62.36,9.52 -59.04,-50 -21.9,82.71 33.24,89.54 50.1,91.04 8.37,43.27 2.95,177.77 -4.26,234.01 -1.29,15.25 -3.72,28.87 -4.86,42.45 -1.87,22.52 -24.01,30.7 -23.77,34.13 0.42,6.13 24.29,3.64 25.94,10.25 10.58,10.3 13.07,21.45 19.5,33.95 9.61,16.23 2.03,32.08 -4.76,39.09 -11.53,11.91 -83.37,4.96 -99.78,2.33 -67.86,-1.57 -43.05,-49.64 -22.88,-65.17 -16.53,4.44 -56.75,30.84 -30.39,61.27 -30.72,7.64 -38.77,2.33 -42.69,-8.05 10.89,-58.16 46.64,-41.87 56.33,-53.98 6.16,-7.75 8.9,-24.57 9.1,-46.51 0.2,-23.22 20.49,-27.56 14.7,-30.09 -16.19,-7.09 -17.33,-19.65 -18.02,-25.93 -3.73,-33.93 -10.28,-71.2 -17.82,-104.26 -3.39,-14.93 -6.95,-29.07 -10.44,-41.59 -3.6,-12.83 -7.11,-23.92 -10.37,-32.52l-0.08 -0.24 -0.04 -0.06c-20.69,-55.06 -35.39,-241.73 -27.82,-318.13l6.87 -145.78zm20.95 463.91l0 0 0 0z"/>
    <path class="fil1" d="M2994.92 1491.37c-64.5,93.89 -125.31,200.36 -205.61,276.82 -39.73,37.87 -99.78,93.69 -107.85,129.47l-0.02 0.14 -0.08 0.08c-3.82,17.18 -3.26,42.79 -2.67,68.79 0.68,30.75 1.4,60.42 -0.51,69.68l-3.89 0.37 -0.08 0.14c-2.84,3.87 -5.29,7.91 -7.42,11.99 -2.09,4 -3.89,8.04 -5.4,11.99 -24.51,63.95 18.3,55.97 56.25,57.82 21.31,1.06 47.59,2.69 68.72,2.69 41.71,0 77.02,2.23 79.85,-14.5l0 -0.2 1.83 -4.46c6.85,-33.67 -13.54,-48.82 -24.69,-67.12 -4.48,-20.93 2.59,-60.03 10.19,-68.66l0.06 -0.08 0.06 -0.02 -0.02 0c1.16,-1.33 -0.24,-8.84 2.79,-11.7 30.66,-28.96 68.6,-65.53 102.15,-93.55 15.21,-12.65 38.81,-32.18 52.98,-34.89 13.96,-2.69 29.63,-4.06 49.13,3.47l12.52 -13.8c-26.8,-10.32 -49.44,-13.14 -71.02,-8.98 -21.39,4.12 -40.6,14.91 -60.84,31.82 -28.83,24.03 -58.6,61.71 -83.77,84.19 -4.73,4.2 -19.05,11.74 -22.99,15.47 -3.83,3.6 -8.69,0.42 -10.74,2.75l-0.08 0.08 -0.02 0.05 0 0c-8.36,9.6 4.78,33.42 3.21,53.03 -1.89,23.3 3.6,24.07 -10.55,51.43 18.39,8.92 36.36,18.58 31.1,44.47 -6.67,32.95 -88.37,16.5 -107.29,16.5 -28.79,10.66 -4.7,-20.86 -18.93,-30.14 -9.38,40.42 -34.05,22.02 -41.48,21.44 -25.71,-12.64 -1.57,-51.17 37.21,-57.22 -24.47,-20.29 -14.19,-39.03 0.92,-46.36 -24.31,-3.68 -24.29,-84.15 -1.89,-112.34 39.33,-49.47 58.56,-73.14 92.71,-105.66 11.27,-10.73 45,-55.73 58.26,-58.48 22.12,-4.6 23.56,42.83 28.84,15.17 4.3,-22.4 -5.46,-34.86 3.02,-56.93 21.63,-56.39 70.81,-120.2 100.26,-163.27l-4.22 -21.49z"/>
    <path class="fil0" d="M2926.9 1425c0,0 59.56,22.09 65.85,73.5 6.31,51.41 58.76,136.95 58.76,136.95 16.03,-69.63 -45.96,-91.77 -42.49,-138.7 1.63,-21.99 -14.9,-47.35 -26.21,-57.63l-55.91 -14.12z"/>
    <path class="fil0" d="M3067.36 1313.5c5.41,33.21 31.04,66.86 19.73,97.41 -30.84,83.21 -6.21,95.08 -13.16,141.35 -9.58,63.66 -11.57,92.65 42.71,50.22 29.37,-22.96 40.9,-66.49 110.04,-77.38 130.56,-20.55 140.77,-72.38 140.46,-72.66l-22.94 -19.55c-0.26,11.27 -5.64,-7.19 -8.7,1.03 -11.59,30.97 -40.33,42.79 -65.48,55.82 -56.73,29.53 -104.75,30.26 -174.98,99.5 -10.42,-42.06 -5.44,-91.16 7.66,-159.66 7.59,-39.98 -20.49,-68.3 -35.34,-116.08z"/>
    <path class="fil0" d="M2982.47 2181.42c-195.99,-150.39 -395.63,-69.75 -548.99,118.22 -6.22,7.63 -2.85,12.59 -8.96,20.61 158.73,-186.63 373.83,-287.37 559.47,-118.08 52.35,47.73 93.66,35.96 140.83,50.44 -66.54,-52.21 -94.06,-34.17 -142.35,-71.19z"/>
    <path class="fil0" d="M3126.18 2235.15c-45.76,-14.94 -83.09,69.61 -146.81,24.43 16.76,40.28 15.55,69.99 -0.04,108 -0.66,1.58 -22.34,-164.19 -163.72,-202.5 -142.07,-38.47 -273.1,31.36 -383.39,161.96 -5.37,6.33 -2.43,10.2 -7.7,16.83 117.32,-133.45 255.61,-205.34 402.14,-149.08 96.06,36.91 128.29,116.14 143.61,204.37 3.9,22.5 50.71,-51.71 26.84,-114.35 82,15.99 121.8,-47.25 129.07,-49.66z"/>
    <path class="fil0" d="M2434.45 2369.71c44.66,-59.85 148.73,-136.77 228.57,-151.13 69.6,-12.52 132.48,17.05 140.94,105.5 23.36,-12.69 35.92,7.44 61.43,-19.04 5,21.9 16.83,36.6 32.52,53.5 2.19,1.86 4.5,3.87 6.93,6.04l22.42 21.62c23.33,-40.6 25.34,-84.13 -20.89,-141.59 24.63,49.3 31.8,88.17 12.96,102.8 -23.41,-4.94 -39.92,-32.47 -51.77,-65.69 -14.73,25.43 -34.85,15.89 -53.9,23.32 -13.16,-86.14 -82.08,-110.81 -151.97,-98.19 -74.97,13.52 -195.28,94.09 -225.07,156.49 0,0 1.06,7.43 -2.17,6.37z"/>
    <path class="fil1" d="M2473.78 2368.04c1.79,1.04 84.49,-26.38 152.23,-26.48 52.48,-0.06 48,43.57 103.72,54.76 17.88,3.62 40.74,4.68 57.44,-3.61 26.95,-13.34 33.2,-44.2 -0.77,-55.39 -22.8,-7.49 -37.93,7.92 -38.31,32 -22.32,-2.93 -18,-61.85 37.81,-52.29 30.17,8.26 39.9,34.96 32.48,57.84 -13.01,12.17 -26.53,23.86 -40.54,34.97 -15.22,3.2 -32.96,1.73 -47.71,-1.3 -49.96,-10.31 -52.73,-46.21 -104.74,-50.24 -46.4,-3.62 -99.34,6.83 -128.18,13.64 -10.01,2.37 10.84,10.7 -11.64,-0.61l-11.79 -3.29z"/>
    <path class="fil0" d="M2458.05 2357.51c49.48,-39.03 103.04,-77.36 172.08,-79.11 34.29,-0.86 84.01,3.4 105.03,64.25 2.19,6.3 5.7,14.5 11.06,22.36 4.1,5.96 10.71,10.84 15.07,9.58 -18.76,10.08 -25.51,-2.33 -29.73,-12.8 -21.94,-54.08 -51.29,-71.74 -102.11,-71.07 -68.64,0.86 -124.33,35.61 -170.67,77.9l-0.73 -11.11z"/>
    <path class="fil0" d="M2666.79 2366.61c25.22,25.68 25.42,60.27 13.02,79.43 -21.61,33.35 -77.68,30.84 -79.67,-7.49 -5.63,-33.13 47.41,-52.69 54.16,-10.29 3.39,-19.06 -9.3,-34.17 -25.67,-37.72 -37.71,-8.2 -58.92,28.52 -45.57,60.5 18.22,43.64 73.99,39.96 97.64,17.94 26.35,-24.5 28.92,-70.45 -13.91,-102.37z"/>
    <path class="fil0" d="M2427.66 2437.69c-5.37,1.04 -11.39,-4.18 -11.57,-6.31 -5.57,-56.27 23.02,-202.39 78.14,-226.16 -29.81,-19.33 -47.47,-3.96 -63.62,14.44 -19.5,22.24 -29.89,113.4 -33.77,116.46 0,-6.59 14.97,-78.77 10.51,-131.3 -1.79,-21.09 -17.06,-45.3 -33.57,-58.02l0 -12.65c29.33,18.36 47.23,39.29 47.23,69.26 28.97,-19.89 51.21,-29.53 97.23,-3.33 -58.18,31.7 -109.53,181.8 -90.58,237.61z"/>
    <path class="fil0" d="M3910.54 2594.18c-245.66,163.7 -495.89,75.91 -688.09,-128.73 -7.84,-8.32 -3.56,-13.72 -11.23,-22.44 198.93,203.2 465.35,309.69 698,125.39 65.61,-51.97 113.34,-25.69 152.35,15.57 -62.46,-18.38 -90.54,-30.13 -151.03,10.21z"/>
    <path class="fil0" d="M4059.26 2582.77c-13.12,-53.2 -30.88,-109.47 -130.84,-78.59 20.97,-40.24 17.72,-43.99 25.15,-86.88 0.14,-0.93 -28,40.01 -85.13,88.15 -41.71,35.13 -98.34,77.46 -173.03,93.69 -149.9,32.56 -315.95,-24.97 -450.22,-140.94 -12.74,-11.01 -24.83,-22.32 -36.67,-33.77 1.17,-1.85 2.35,-3.72 3.54,-5.59 12.39,11.88 25.17,23.57 38.97,34.76 138.57,112.49 299.87,174.95 467.2,123.7 50.79,-15.57 98.74,-48.71 136.39,-84.53 51.56,-49.12 88.69,-101.03 131.6,-99.18 -19.71,46.67 -9.16,49.48 -26.56,86.56 102.79,-16.01 109.78,74.85 99.6,102.62z"/>
    <path class="fil0" d="M3942.2 2419.53c-11.07,-17.2 -47.17,15.16 -66.39,21.63 19.28,-40.26 -11.69,-49.22 -36.14,-54.92 -2.09,-0.46 -21.41,115.81 -184.17,154.26 -141.25,33.39 -298.12,-33.63 -423.13,-155.93 1.1,-1.97 2.19,-3.94 3.29,-5.92 130.04,119.22 283.46,189.75 441.87,136.96 110.67,-36.86 144.12,-110.57 158.95,-153.28 22.62,2.21 66.65,25.07 50.68,62.16 36.46,-30.68 77.32,-32.83 90.06,-28.37l-35.02 23.41z"/>
    <path class="fil0" d="M3256.19 2340.34c45.95,20.85 116.48,35.19 166.3,26.13 66.09,-12.05 108.6,-61.05 96.28,-110.37 17.1,0.23 60.99,7.8 54.64,67.56 -3.69,-23.92 -18.3,-52.33 -40.35,-51.93 11.45,42.99 -35.12,91.87 -114.13,104.75 -49.6,8.07 -117.82,-4.87 -163.66,-28.21 -1.18,-0.48 -1.99,-1.02 -2.55,-1.57 1.06,-2.12 2.17,-4.25 3.25,-6.42 0.08,0.02 0.16,0.04 0.22,0.06z"/>
    <path class="fil0" d="M3290.97 2429.09c24.02,14.64 60.1,34.97 88.51,44.53 71.57,24.05 165.29,7.26 203.46,0.08 15.18,-2.85 34.41,12.28 41.5,26.38 14.77,-2.71 38.03,-43.29 -1.17,-81.14 -11.83,3.12 -17.33,3.3 -18.16,5.47 8.46,3.15 15.29,5.9 20.9,11.97 13.26,14.36 12.67,34.07 -2.88,38.43 -25.45,-28.87 -58.31,-15.51 -90.58,-6.47 -41.88,11.77 -103.35,12.82 -152.17,-1.32 -30.39,-8.82 -62.91,-29.05 -90.28,-42.95 -4.9,3.13 -0.72,4.03 0.87,5.02z"/>
    <path class="fil0" d="M3622.47 2421.86c37.31,-9.14 49.14,-56.67 69.45,-68.81 -46.31,-44.78 -141.73,60.57 -231.06,64.15 -63.46,2.57 -139.98,-15.09 -215.01,-57.22 -1.45,2.69 -2.89,5.41 -4.36,8.08 121.28,70.91 267.04,81.34 380.34,5.48 13.74,-9.18 27.58,-17.11 43.05,-15.99 -23.73,25.74 -16.74,39.8 -61.41,66.44l19 -2.13z"/>
    <path class="fil0" d="M3537.84 2355.38c25.61,-17.86 31.82,-27.64 89.55,1.53l16.48 -11.07c-54.14,-26.62 -70.94,-31.28 -106.03,9.54z"/>
    <path class="fil0" d="M3812.69 2379.61c68.24,-42.47 274.83,36.72 417.4,-17.54 -60.69,109.22 -141.04,129.73 -279.17,79.63 -1.85,-0.64 5.4,-21.93 3.54,-22.64 -2.92,-1.06 -16.34,17.72 -19.37,16.7 -7.71,-2.55 8.8,-21.22 0.2,-24.91 -3.49,-1.49 -31.8,12.35 -35.41,10.7 -5.31,-2.37 -10.71,-4.88 -16.2,-7.47 -1.2,-1.79 10.21,-10.79 -37.8,-42.32 -4.56,-3 -6.73,21.17 -11.84,18.62 -6.99,-3.46 -14.1,-7.07 -21.35,-10.77zm71.11 12.68c47.25,-21.5 206.58,24.64 305.33,-2.82 -43.59,67.5 -128.2,53.62 -305.33,2.82z"/>
    <path class="fil0" d="M3566.89 2311.61c49.35,-36.38 198.83,31.46 301.99,-15.01 -45.54,114.17 -117,100.87 -301.99,15.01zm49.68 11.39c34.19,-18.42 151.2,20.59 222.68,-2.93 -31.54,57.81 -94.52,46.42 -222.68,2.93z"/>
    <path class="fil0" d="M3167.5 2484.39c-7.39,142.65 -37.48,241.33 -133.12,387.01 -16.32,24.87 -13.78,39.05 -17.78,81.1 -46.47,3.65 -95.89,-17.64 -90.14,-64.57 -31.42,15.97 -75.92,42.15 -112.6,19.37 1.75,-46.67 27.06,-74.41 60.73,-103.14 -9.86,-1.91 -17.92,-12.99 -25.89,-35.81 13.7,-3.96 47.12,-7.22 80.71,-22.62 50.61,-23.23 108.14,-66.1 136.57,-144.46 4.48,-4.44 8.95,-8.9 13.37,-13.44 -6.81,84.61 -81.46,149.5 -138.43,174.59 -30.25,13.32 -66.21,12.41 -74.16,16.03 6.12,15.19 18.82,20.35 33.48,19.83 -31.47,29.23 -63.4,56.71 -63.84,99.09 38.49,7.54 79.79,-17.15 116.2,-48.51 -34.12,79.13 17.75,81.78 46.06,89.74 -0.77,-30.18 7.25,-65.43 20.31,-84.52 92.85,-135.98 125.43,-241.3 133.31,-349.62 5.18,-6.61 10.22,-13.32 15.22,-20.07z"/>
    <path class="fil0" d="M2916.66 2840.22c100.54,-52.69 186.26,-136.8 208.82,-302.91 -5.95,6.99 -11.97,13.92 -18.12,20.73 -10.57,139.13 -98.03,216.99 -190.7,282.18z"/>
    <path class="fil0" d="M3290.59 2609.36c-6.57,32.83 9.48,60.51 27.6,69.71 31.54,16.03 71.65,-13.46 55.2,-44.98 -11.37,-29.19 -59.64,-18.82 -44.74,18.32 -11.43,-13.56 -9.16,-31.82 1.25,-42.66 23.95,-25.02 56.79,-6.09 61.91,25.95 7.01,43.71 -35.79,68.08 -63.54,62.09 -30.89,-6.65 -54.32,-42 -37.68,-88.43z"/>
    <path class="fil0" d="M3204.39 2430.92c23.16,24.5 60.44,69.8 80.01,124.95 8.64,24.35 10.22,50.68 8.54,78.54 -1.87,30.62 -8.74,57.3 -14.53,86.93 -4.1,20.91 -3.93,44.17 18.14,56.03 -24.71,-4.5 -30.01,-20.64 -30.35,-37.41 -0.56,-30.9 3.74,-62.98 5.16,-93.89 1.29,-27.99 1.51,-54.44 -2.57,-74.21 -12.84,-62.26 -36.84,-99.62 -66.41,-137.79 0.68,-1.04 1.34,-2.11 2.01,-3.15z"/>
    <path class="fil0" d="M3179.13 2468.3c8.48,15.81 17.32,36.58 19.11,56.63 2.51,28.37 -11.21,88.71 -26.46,110.59 -6.41,9.22 -0.82,-16.8 -0.94,-17.76 1.48,-4.42 2.83,-8.76 4.12,-13.04 16.33,-54.66 15.85,-98.51 2.51,-134.05l1.66 -2.37z"/>
    <path class="fil0" d="M3150.15 2636.74c18.72,15.33 30.55,21.9 49.96,17.64 -12.54,6.03 -25.41,17.92 -31.4,44.04 12.07,2.83 44.48,15.3 58.6,3.29 -1.93,26.38 7.71,54.04 22.7,71.64 14.98,17.59 34.19,28 49.03,25.51 -2.21,-0.96 -3.39,-9.32 -5.92,-9.5 -29.69,-2.15 -38.73,-14.35 -45.68,-37.63 -6.49,-21.65 -1.01,-53.98 7.23,-92.39 -24.47,36.71 -49.62,32.59 -64.02,24.69 8.45,-28.54 23,-26.21 36.8,-56.12 -19.11,2.37 -37.53,22.29 -57.31,7.09 6.87,-12.12 15.08,-38.41 10.22,-50.53 -10.06,34.68 -20.81,46.47 -30.21,52.27z"/>
    <path class="fil0" d="M3214.21 2505.3c15.05,34.22 28.85,83.55 11.53,125.66 -3.8,9.2 -21.49,30.63 -21.63,29.65 1.48,-4.4 4.37,-22.28 7.33,-26.56 19.68,-28.62 15.41,-86.48 0.06,-129.69l2.71 0.94z"/>
    <path class="fil0" d="M3278.55 2518.58c22.66,20.39 54.99,46.99 56.37,83.73 0.32,8.08 -10.99,35.08 -11.41,34.37 -0.4,-3.73 -4.3,-17.87 -3.55,-22.03 4.88,-27.56 -17.82,-68.93 -43.74,-95.87l2.33 -0.2z"/>
    <path class="fil0" d="M3244.62 2711.57c-48.61,-49.23 -85.81,48.6 -143.87,23.97 37.22,86.38 112.37,45.68 143.87,-23.97zm-18.92 7.1c-22.22,-16.86 -74.25,43.47 -108.76,30.39 49.56,41.8 93.91,4.74 108.76,-30.39z"/>
    <path class="fil0" d="M3292.41 2279.97c-1.36,4 41.91,1.33 37.85,41.22 -4.06,39.86 28.39,51.81 28.39,51.81l-63.52 -14.62 -40.6 -15.25c5.42,-10.71 10.64,-21.56 15.67,-32.5 11.35,-16.34 22.9,-32.71 22.21,-30.66z"/>
    <path class="fil0" d="M2419 2394.96c1,1.02 3.52,8.35 4.28,6.79 32.42,-68.14 96.63,-20.11 74.19,21.51 -12.2,22.6 -49.96,22.4 -53.1,-1.71 -3.63,-21.47 30.12,-31.25 34.47,-3.79 2.21,-12.36 -6.02,-22.12 -16.61,-24.45 -24.45,-5.28 -38.19,18.52 -29.53,39.25 11.79,28.25 53.42,27.89 69.15,9.67 31.9,-36.91 9.64,-82.67 -36.75,-84.38 -38.47,-1.44 -43.81,38.81 -46.1,37.11z"/>
    <path class="fil0" d="M2532.68 2498.21c-16.71,-7.79 -32.58,7.78 -9.64,12.26 36.26,7.05 61.03,-28.95 44.38,-56.53 -11.21,-18.6 -44.12,-20.39 -49.9,5.82 -3.66,21.48 32.76,27.59 37.14,0.12 2.21,12.34 -4.96,23.71 -21.42,26.54 -24.68,4.22 -40.31,-19.57 -31.68,-40.28 11.8,-28.24 53.46,-27.88 69.17,-9.68 31.86,36.9 11.47,84.9 -38.23,83.93 -77.88,-1.53 -18.84,-52.55 0.18,-22.18z"/>
    <path class="fil0" d="M2372.72 2429.63c74.73,0 135.33,39.15 135.33,87.41 0,3.37 -0.3,6.67 -0.84,9.92 -5.83,1.25 -11.69,2.39 -17.56,3.48 0.58,-2.9 0.89,-5.85 0.89,-8.82 0,-40.78 -56.31,-79.39 -117.2,-79.39 -60.89,0 -117.86,38 -117.86,78.76 0,3.26 0.38,6.47 1.04,9.61 -6.12,-1.11 -12.23,-2.33 -18.3,-3.62 -0.58,-3.23 -0.88,-6.57 -0.88,-9.94 0,-48.26 60.63,-87.41 135.38,-87.41z"/>
    <path class="fil1" d="M2253.97 670.13c-2.09,-30.96 -37.76,-83.65 -76.7,-87.83 -14.96,-11.95 -78.68,-0.56 -97.95,17.07 -32.36,25.01 -51.71,85.14 -68.26,135.72 -18.14,55.51 -41.95,123.03 -84.27,179.61 -48.21,37.15 -81.16,-27.05 -101.03,55.01 -4.48,10.93 -1.62,30.91 -8.17,34.73 -6.59,3.8 -22.62,-8.54 -39.92,-6.97 -45.54,-15.11 -54.22,16.83 -61.65,28.83 -5,8.09 1.46,23.86 -7.41,28.99 -19.57,11.27 -53.46,8.05 -73.35,7.15 -19,-0.93 -64.48,3.51 -85.46,42.52 -11.16,20.8 -13.07,45.83 -6.24,66.64 6.02,18.36 48.69,49.1 70.77,55.08 16.09,6.75 -11.91,9.08 -19.15,6.37 -9.14,-3.42 -21.61,-9.24 -32.06,-13.8 -32.36,-14.1 -69,4 -105.24,1.26 -98.92,5.03 -234.98,13.48 -357.74,58.38 -121.42,44.38 -247.79,125.9 -325.17,281.6 -9.75,19.63 -31.24,71.14 -35.32,129.28 23.8,-38.59 53.11,-64.63 90.6,-89 -36.96,32.77 -77.28,95.68 -97.99,144.94 -17,40.32 -24.81,106.35 -0.73,153.66 3.66,63.96 -22.52,93.19 -33.75,155.99 0,0.06 12.1,27.4 8.52,64.2 -4.3,44.44 -29.19,100.93 -26.35,116.7 -55.61,-81.32 -61.92,-80.74 -30.22,-174.47 4.6,-13.58 49.8,-60.29 43.55,-169.69 -1.7,-29.61 -3.39,-59.24 -3.57,-89.7l0 -0.08 0 -7.91 0 -0.08c0.18,-46.45 6.01,-85.56 16.97,-123.49 10.91,-37.8 26.76,-74.06 47.13,-115.05 82.61,-166.23 207.24,-253.94 337.09,-301.41 128.49,-46.98 260.87,-54.03 362.36,-59.24 41.54,-2.09 50.98,-53.57 65.55,-80.67 32.68,-60.77 75.33,-77.22 109.4,-75.64 27.56,1.29 52.55,1.05 67.94,-23.8 9.06,-16.33 17.12,-32.59 46.22,-37.41 22.87,-3.81 46.85,11.11 56.13,-13.6 6.81,-18.18 14.83,-39.51 43.33,-52.63 13.4,-6.13 25.56,-9.12 36.95,-11.93 13.84,-3.38 26.25,-6.43 33.83,-15.05 41.74,-47.55 60.46,-104.8 77.46,-156.71 18.5,-56.61 35.13,-107.43 76.88,-139.68 15.4,-11.91 33.73,-20 52.99,-24 22.3,-4.56 45.94,-3.6 68.02,3.51 22.32,7.17 43.03,20.53 59.08,40.62 12.72,15.87 22.44,35.92 27.64,60.35l2.8 20.41c1.82,13.28 -0.69,15.43 -11.07,7.73 -17.46,-12.91 -29.09,-4.06 -43.31,-16.11 -13.3,10.75 -12.94,37.99 -31.24,28.77 -5.95,-3.01 8.74,-12.5 -0.18,-29.57 -17.66,-33.75 -56.77,-28.91 -65.41,-3.54 -13.28,38.97 -17.4,129.59 -27.84,193.38 -6.39,38.89 -12.18,74.14 -18.31,97.61l0 0.08 -0.04 0.1c-24.87,94.68 -93.43,108.26 -144.11,154.06 -28.79,25.97 -16.63,59.64 -23.38,92.08 -5.15,24.83 -44.56,62.26 -105.25,69.05 -4.62,-1.81 49.6,-31.1 70.29,-55.49 15.13,-17.8 17.18,-40.11 16.82,-47.65l0 -0.08c-1.31,-27.68 1.4,-45.7 25.75,-67.68 33.49,-30.25 101.73,-68.74 122.94,-103.45 45.22,-73.97 39.32,-186.12 54.52,-270.52 8.44,-46.88 20.03,-83.48 42.61,-93.33 49.5,-21.59 82.97,39.46 113.7,25.78z"/>
    <path class="fil1" d="M731.83 1895.55c21.84,49.68 38.66,137.61 28.27,178.11 -10.25,39.8 -25.87,77.16 -42.97,117.68l0.04 0 -0.08 0.18 -0.08 0.08c-7.63,18.14 -10.49,38.69 -11.15,58.68 -0.28,7.85 -1.97,19.61 19.22,22.52 0.17,4.6 -19.56,9.72 -20.49,14.22 -3.23,16.01 -11.69,31.16 -15.16,44.46l-2.29 8.58c-6.39,23.1 18.74,24.04 24.87,23.84l92.1 -7.65c1.71,6.83 50.35,14.26 41.04,-18.75 -4.07,-14.44 -18.98,-31.27 -40.19,-23.2 -2.39,-11.05 53.51,-19.58 54.46,35.92 0.18,10.45 32.66,9.22 32.64,-1.71 -5.98,-39.95 -16.83,-50.56 -40.46,-40.84 -1.89,-3.47 8.56,-13.76 7.15,-17.05 -2.77,-6.57 -17.17,-6.81 -19.04,-14.23 42.41,-36.78 -10.22,-42.91 -5.5,-54.46 23.62,-57.73 44.25,-95.02 83.89,-134.17 18.22,-17.96 41.14,-39.23 55.86,-63.9 10.77,-18.1 18.87,-40.94 26.44,-90.9 18.52,-57.56 72.26,-228.83 134.41,-248.72 -7.55,8.8 -16.99,23.83 -26.49,41.48 -4.54,8.44 -9.1,17.52 -13.46,26.8 -18.89,40.2 -34.05,84.43 -28.73,100.63 3.94,12.05 10.67,28.98 9.1,40.23 -0.58,4.34 9.86,18.16 6.25,15.37 -26.56,-20.31 -56.77,17.76 -56.47,38.39 -5.95,87.75 -12.56,64.12 -96.95,153.26 -18.62,19.64 -27.54,42.36 -39.98,64.2 -12.75,22.36 -17.01,55.12 -13.44,84.69 0.75,6.27 1.85,12.28 3.24,17.88 1.39,5.45 3.09,10.67 5.14,15.49 1.11,2.63 2.21,4.94 3.24,6.85l3.43 6.31 0.02 -0.02c10.35,18.92 17.78,32.56 18.26,45.52 0.93,24.71 -14.34,35.32 -58.13,36.86l-141.73 5.09c-35.76,1.26 -47.25,-6.01 -48.09,-28.77 -0.28,-7.72 1.79,-15.21 4.56,-25.23 1.28,-4.68 1.79,-6.29 2.27,-8.14 3.09,-11.73 12.47,-28.5 11.91,-46.7 -1.57,-50.87 12.54,-92.77 28.99,-134.9 24,-61.53 48.07,-114.16 24.08,-243.98z"/>
    <path class="fil1" d="M1125.59 1995.66c22.3,53.07 51.51,128.38 21.44,168.14 -11.01,22.32 -30.32,29.49 -22.22,55.66l0.02 -0.02c8.22,16.92 59.66,87.81 37.1,101.87l0.02 0.04c-3.47,2.15 -7.41,3.3 -11.85,3.38 -69.16,1.26 -296.87,51.42 -184.98,-85.04 29.31,-46.9 -15.38,-94.96 -45.92,-128.02l21.86 -23.63c27.62,39.78 71.13,98.46 48.27,148.94 -1.93,4.26 14.4,5.42 11.55,10.02 -1.26,1.99 -21.23,7.42 -22.46,9.67 -41.76,76.47 67.56,52.67 111.84,52.43 -15.35,-14.51 -13.82,-29.01 0.16,-43.49 -7.36,35.43 27.88,49.62 61.63,44.65 13,-31.33 -53.12,-53.65 -62.88,-74.44 0,-0.02 4.58,-33.99 1.63,-34.86 -58.52,-17.15 5.08,-14.92 13.24,-18.42 65.43,-27.84 5.74,-155.79 -18.67,-193.27l3.76 -2.41c11.53,3.83 24.09,10.24 36.46,8.8z"/>
    <path class="fil1" d="M1012.71 1983.22c58.46,13.38 150.43,18 220.14,-10.61 70.41,-28.88 105.38,-53.17 197.03,-118.8 2.18,-1.57 27.42,-25.17 29.67,-26.8l12.83 25.09c-103.45,72.34 -155.22,102.05 -230.35,132.89 -77.55,31.8 -167.34,26.33 -234.42,11.01l5.1 -12.78z"/>
    <path class="fil0" d="M1063.98 1812.23c13.82,167.56 175.86,96.52 320.01,45.24 -70.91,62.49 -273.04,131.4 -342.51,12.67 0,0 23.99,-59.38 22.5,-57.91z"/>
    <path class="fil1" d="M978.58 1377.67c104.44,-52.84 205.39,-86.32 321.92,-129.88 -91.86,13.48 -231.32,57.76 -336.5,123.41 -74.33,46.42 -152.55,132.34 -182.83,214.71 50.47,-49.3 89.66,-153.7 197.41,-208.24z"/>
    <path class="fil1" d="M1673.99 1475.82c0.26,13.18 33.95,133.07 33.97,146.01 0.26,125.43 -10.48,241.72 -43.51,359.54 -3.01,10.85 -14.62,52.45 -22.38,92.93 -10.95,57.17 -11.53,101.23 0.18,128.17 28.39,22.22 46.05,38.35 48.24,57.79 2.43,21.52 4.64,31.06 -8.06,36.12 -0.6,-1.06 -1.21,-2.09 -1.83,-3.11l-213.18 0c1.77,4.02 3.58,7.99 5.38,11.99 -12.99,-1.16 -21.79,-4.06 -23.54,-10.32 -0.08,-0.18 -7.89,-31.36 9.66,-60.99 15.95,-48.66 17.34,-109.29 10.41,-179.52 -5.36,-54.62 -6.15,-125.61 2.29,-169.3 -15.03,-9.79 -36.56,-63.38 -14.32,-162.76 10.66,-47.57 -0.35,-94.72 1.72,-113.06 15.33,35.9 21.02,100.26 12.5,158.74 -4.42,30.46 -4.62,51.31 7.99,81.56 23.89,34.93 62.36,9.52 59.02,-50 21.94,82.71 -33.22,89.54 -50.04,91.04 -8.41,43.27 -2.97,177.77 4.24,234.01 1.27,15.25 3.7,28.87 4.84,42.45 1.87,22.52 24.01,30.7 23.77,34.13 -0.42,6.13 -24.31,3.64 -25.96,10.25 -10.56,10.3 -13.05,21.45 -19.46,33.95 -9.62,16.23 -2.05,32.08 4.72,39.09 11.53,11.91 83.41,4.96 99.8,2.33 67.86,-1.57 43.05,-49.64 22.88,-65.17 16.51,4.44 56.75,30.84 30.39,61.27 30.72,7.64 38.78,2.33 42.69,-8.05 -10.88,-58.16 -46.62,-41.87 -56.33,-53.98 -6.16,-7.75 -8.87,-24.57 -9.1,-46.51 -0.2,-23.22 -20.49,-27.56 -14.7,-30.09 16.17,-7.09 17.36,-19.65 18.04,-25.93 3.74,-33.93 10.28,-71.2 17.8,-104.26 3.39,-14.93 6.97,-29.07 10.46,-41.59 3.58,-12.83 7.1,-23.92 10.37,-32.52l0.08 -0.24 0.02 -0.06c20.71,-55.06 35.4,-241.73 27.84,-318.13l-6.89 -145.78zm-20.95 463.91l0.02 0 -0.02 0z"/>
    <path class="fil1" d="M1752.64 1491.37c64.5,93.89 125.33,200.36 205.61,276.82 39.75,37.87 99.78,93.69 107.85,129.47l0.02 0.14 0.08 0.08c3.84,17.18 3.28,42.79 2.68,68.79 -0.71,30.75 -1.39,60.42 0.52,69.68l3.87 0.37 0.08 0.14c2.82,3.87 5.29,7.91 7.42,11.99 2.11,4 3.89,8.04 5.42,11.99 24.51,63.95 -18.32,55.97 -56.27,57.82 -21.31,1.06 -47.61,2.69 -68.74,2.69 -41.72,0 -77,2.23 -79.81,-14.5l-0.04 -0.2 -1.81 -4.46c-6.87,-33.67 13.54,-48.82 24.71,-67.12 4.46,-20.93 -2.63,-60.03 -10.21,-68.66l-0.08 -0.08 -0.04 -0.02 0 0c-1.14,-1.33 0.26,-8.84 -2.77,-11.7 -30.67,-28.96 -68.6,-65.53 -102.17,-93.55 -15.19,-12.65 -38.79,-32.18 -52.95,-34.89 -13.97,-2.69 -29.63,-4.06 -49.14,3.47l-12.52 -13.8c26.8,-10.32 49.46,-13.14 71.02,-8.98 21.39,4.12 40.6,14.91 60.85,31.82 28.8,24.03 58.59,61.71 83.77,84.19 4.72,4.2 19.04,11.74 22.96,15.47 3.85,3.6 8.72,0.42 10.74,2.75l0.1 0.08 0.02 0.05 0 0c8.34,9.6 -4.8,33.42 -3.21,53.03 1.89,23.3 -3.6,24.07 10.53,51.43 -18.36,8.92 -36.32,18.58 -31.06,44.47 6.63,32.95 88.35,16.5 107.27,16.5 28.79,10.66 4.7,-20.86 18.93,-30.14 9.38,40.42 34.05,22.02 41.48,21.44 25.69,-12.64 1.57,-51.17 -37.2,-57.22 24.44,-20.29 14.18,-39.03 -0.93,-46.36 24.31,-3.68 24.29,-84.15 1.87,-112.34 -39.29,-49.47 -58.56,-73.14 -92.69,-105.66 -11.25,-10.73 -44.98,-55.73 -58.26,-58.48 -22.11,-4.6 -23.56,42.83 -28.84,15.17 -4.28,-22.4 5.46,-34.86 -3.02,-56.93 -21.65,-56.39 -70.81,-120.2 -100.26,-163.27l4.22 -21.49z"/>
    <path class="fil0" d="M1820.66 1425c0,0 -59.58,22.09 -65.85,73.5 -6.31,51.41 -58.76,136.95 -58.76,136.95 -16.03,-69.63 45.96,-91.77 42.47,-138.7 -1.59,-21.99 14.9,-47.35 26.21,-57.63l55.93 -14.12z"/>
    <path class="fil0" d="M1680.2 1313.5c-5.38,33.21 -31.06,66.86 -19.73,97.41 30.82,83.21 6.21,95.08 13.16,141.35 9.58,63.66 11.59,92.65 -42.71,50.22 -29.37,-22.96 -40.88,-66.49 -110.04,-77.38 -130.56,-20.55 -140.76,-72.38 -140.44,-72.66l22.92 -19.55c0.24,11.27 5.64,-7.19 8.72,1.03 11.57,30.97 40.31,42.79 65.47,55.82 56.75,29.53 104.74,30.26 174.93,99.5 10.46,-42.06 5.46,-91.16 -7.62,-159.66 -7.59,-39.98 20.49,-68.3 35.34,-116.08z"/>
    <path class="fil0" d="M1765.11 2181.42c195.97,-150.39 395.61,-69.75 548.97,118.22 6.24,7.63 2.85,12.59 8.96,20.61 -158.72,-186.63 -373.85,-287.37 -559.47,-118.08 -52.35,47.73 -93.66,35.96 -140.8,50.44 66.53,-52.21 94.03,-34.17 142.34,-71.19z"/>
    <path class="fil0" d="M1621.38 2235.15c45.76,-14.94 83.09,69.61 146.81,24.43 -16.76,40.28 -15.55,69.99 0.06,108 0.64,1.58 22.32,-164.19 163.7,-202.5 142.07,-38.47 273.13,31.36 383.39,161.96 5.37,6.33 2.43,10.2 7.7,16.83 -117.32,-133.45 -255.61,-205.34 -402.14,-149.08 -96.06,36.91 -128.26,116.14 -143.59,204.37 -3.92,22.5 -50.71,-51.71 -26.86,-114.35 -82,15.99 -121.78,-47.25 -129.07,-49.66z"/>
    <path class="fil0" d="M2313.11 2369.71c-44.65,-59.85 -148.73,-136.77 -228.57,-151.13 -69.62,-12.52 -132.46,17.05 -140.94,105.5 -23.34,-12.69 -35.94,7.44 -61.45,-19.04 -4.3,19.02 -13.78,32.6 -26.5,46.95 -4.48,3.37 -9.46,7.55 -15.1,12.59l-21.02 20.27c-22.59,-40.23 -24.04,-83.43 21.66,-140.24 -24.63,49.3 -31.82,88.17 -12.94,102.8 23.37,-4.94 39.9,-32.47 51.75,-65.69 14.75,25.43 34.86,15.89 53.9,23.32 13.16,-86.14 82.08,-110.81 151.99,-98.19 74.93,13.52 195.26,94.09 225.07,156.49 0,0 -1.1,7.43 2.15,6.37z"/>
    <path class="fil1" d="M2273.78 2368.04c-1.79,1.04 -84.49,-26.38 -152.23,-26.48 -52.47,-0.06 -47.99,43.57 -103.7,54.76 -17.92,3.62 -40.74,4.68 -57.45,-3.61 -26.94,-13.34 -33.19,-44.2 0.78,-55.39 22.8,-7.49 37.93,7.92 38.29,32 22.34,-2.93 18,-61.85 -37.79,-52.29 -31.52,8.62 -40.76,37.39 -31.4,60.89 11.74,10.83 23.85,21.24 36.38,31.2 15.83,4.14 35.04,2.67 50.77,-0.58 49.96,-10.31 52.73,-46.21 104.74,-50.24 46.41,-3.62 99.34,6.83 128.19,13.64 10,2.37 -10.85,10.7 11.65,-0.61l11.77 -3.29z"/>
    <path class="fil0" d="M2289.51 2357.51c-49.5,-39.03 -103.04,-77.36 -172.1,-79.11 -34.25,-0.86 -83.99,3.4 -105,64.25 -2.19,6.3 -5.71,14.5 -11.09,22.36 -4.08,5.96 -10.69,10.84 -15.05,9.58 18.76,10.08 25.51,-2.33 29.75,-12.8 21.92,-54.08 51.29,-71.74 102.11,-71.07 68.63,0.86 124.33,35.61 170.66,77.9l0.72 -11.11z"/>
    <path class="fil0" d="M2080.75 2366.61c-25.19,25.68 -25.39,60.27 -13,79.43 21.6,33.35 77.68,30.84 79.67,-7.49 5.65,-33.13 -47.41,-52.69 -54.16,-10.29 -3.37,-19.06 9.3,-34.17 25.68,-37.72 37.72,-8.2 58.92,28.52 45.56,60.5 -18.22,43.64 -73.99,39.96 -97.63,17.94 -26.36,-24.5 -28.95,-70.45 13.88,-102.37z"/>
    <path class="fil0" d="M2319.88 2437.69c5.37,1.04 11.41,-4.18 11.61,-6.31 5.55,-56.27 -23.04,-202.39 -78.18,-226.16 29.83,-19.33 47.49,-3.96 63.64,14.44 19.53,22.24 29.87,113.4 33.77,116.46 0,-6.59 -14.97,-78.77 -10.51,-131.3 1.77,-21.09 17.08,-45.3 33.57,-58.02l0 -12.65c-29.33,18.36 -47.23,39.29 -47.23,69.26 -28.97,-19.89 -51.2,-29.53 -97.23,-3.33 58.2,31.7 109.53,181.8 90.56,237.61z"/>
    <path class="fil0" d="M837.04 2594.18c245.64,163.7 495.87,75.91 688.08,-128.73 7.83,-8.32 3.57,-13.72 11.23,-22.44 -198.94,203.2 -465.36,309.69 -698.01,125.39 -65.62,-51.97 -113.34,-25.69 -152.35,15.57 62.46,-18.38 90.54,-30.13 151.05,10.21z"/>
    <path class="fil0" d="M688.3 2582.77c13.12,-53.2 30.88,-109.47 130.86,-78.59 -20.99,-40.24 -17.74,-43.99 -25.17,-86.88 -0.16,-0.93 28,40.01 85.13,88.15 41.71,35.13 98.36,77.46 173.03,93.69 149.9,32.56 315.95,-24.97 450.23,-140.94 12.25,-10.59 23.92,-21.46 35.33,-32.47 -1.18,-1.84 -2.39,-3.71 -3.53,-5.58 -12,11.41 -24.37,22.66 -37.65,33.45 -138.57,112.49 -299.88,174.95 -467.2,123.7 -50.79,-15.57 -98.72,-48.71 -136.36,-84.53 -51.59,-49.12 -88.72,-101.03 -131.6,-99.18 19.7,46.67 9.14,49.48 26.53,86.56 -102.77,-16.01 -109.78,74.85 -99.6,102.62z"/>
    <path class="fil0" d="M805.36 2419.53c11.07,-17.2 47.15,15.16 66.39,21.63 -19.28,-40.26 11.69,-49.22 36.14,-54.92 2.09,-0.46 21.4,115.81 184.17,154.26 140.71,33.27 296.95,-33.13 421.75,-154.58 -1.15,-1.97 -2.25,-3.96 -3.36,-5.95 -129.71,118.42 -282.59,188.23 -440.42,135.64 -110.65,-36.86 -144.12,-110.57 -158.94,-153.28 -22.62,2.21 -66.68,25.07 -50.69,62.16 -36.44,-30.68 -77.32,-32.83 -90.04,-28.37l35 23.41z"/>
    <path class="fil0" d="M1489.8 2341.04c-45.96,20.45 -115.47,34.41 -164.73,25.43 -66.09,-12.05 -108.62,-61.05 -96.28,-110.37 -17.1,0.23 -60.99,7.8 -54.66,67.56 3.71,-23.92 18.32,-52.33 40.37,-51.93 -11.43,42.99 35.14,91.87 114.13,104.75 49.6,8.07 117.82,-4.87 163.68,-28.21 0.34,-0.14 0.66,-0.3 0.94,-0.44 -1.14,-2.25 -2.31,-4.5 -3.45,-6.79z"/>
    <path class="fil0" d="M1456.57 2429.09c-23.96,14.64 -60.08,34.97 -88.47,44.53 -71.61,24.05 -165.29,7.26 -203.48,0.08 -15.18,-2.85 -34.41,12.28 -41.5,26.38 -14.76,-2.71 -38.05,-43.29 1.17,-81.14 11.83,3.12 17.33,3.3 18.18,5.47 -8.48,3.15 -15.31,5.9 -20.9,11.97 -13.25,14.36 -12.69,34.07 2.86,38.43 25.45,-28.87 58.31,-15.51 90.58,-6.47 41.9,11.77 103.35,12.82 152.17,-1.32 30.41,-8.82 62.92,-29.05 90.3,-42.95 4.88,3.13 0.7,4.03 -0.91,5.02z"/>
    <path class="fil0" d="M1125.09 2421.86c-37.3,-9.14 -49.14,-56.67 -69.43,-68.81 46.29,-44.78 141.71,60.57 231.04,64.15 62.98,2.55 138.82,-14.85 213.34,-56.31 1.45,2.73 2.9,5.44 4.38,8.13 -120.95,70.05 -265.91,80.02 -378.69,4.52 -13.74,-9.18 -27.58,-17.11 -43.05,-15.99 23.73,25.74 16.72,39.8 61.41,66.44l-19 -2.13z"/>
    <path class="fil0" d="M1209.74 2355.38c-25.63,-17.86 -31.84,-27.64 -89.57,1.53l-16.45 -11.07c54.11,-26.62 70.91,-31.28 106.02,9.54z"/>
    <path class="fil0" d="M1180.68 2311.61c-49.36,-36.38 -198.82,31.46 -302,-15.01 45.54,114.17 117,100.87 302,15.01zm-49.68 11.39c-34.19,-18.42 -151.21,20.59 -222.67,-2.93 31.54,57.81 94.5,46.42 222.67,2.93z"/>
    <path class="fil0" d="M1580.24 2487.55c7.67,140.94 38.03,239.23 132.95,383.85 16.31,24.87 13.78,39.05 17.75,81.1 46.49,3.65 95.91,-17.64 90.16,-64.57 31.42,15.97 75.9,42.15 112.6,19.37 -1.75,-46.67 -27.04,-74.41 -60.71,-103.14 9.84,-1.91 17.88,-12.99 25.85,-35.81 -13.68,-3.96 -47.08,-7.22 -80.69,-22.62 -49.88,-22.89 -106.49,-64.89 -135.3,-141.15 -4.86,-4.72 -9.68,-9.52 -14.44,-14.32 8.03,83.41 81.8,147.31 138.21,172.16 30.27,13.32 66.23,12.41 74.19,16.03 -6.13,15.19 -18.81,20.35 -33.49,19.83 31.48,29.23 63.42,56.71 63.84,99.09 -38.49,7.54 -79.79,-17.15 -116.21,-48.51 34.15,79.13 -17.72,81.78 -46.05,89.74 0.75,-30.18 -7.25,-65.43 -20.29,-84.52 -92,-134.71 -124.83,-239.35 -133.12,-346.59 -5.15,-6.56 -10.25,-13.23 -15.25,-19.94z"/>
    <path class="fil0" d="M1830.88 2840.22c-99.9,-52.39 -185.21,-135.76 -208.39,-299.9 5.88,6.85 11.87,13.66 17.91,20.35 11.47,137.47 98.44,214.77 190.48,279.55z"/>
    <path class="fil0" d="M1456.99 2609.36c6.55,32.83 -9.5,60.51 -27.62,69.71 -31.54,16.03 -71.65,-13.46 -55.2,-44.98 11.37,-29.19 59.64,-18.82 44.76,18.32 11.41,-13.56 9.14,-31.82 -1.27,-42.66 -23.94,-25.02 -56.79,-6.09 -61.91,25.95 -7.01,43.71 35.8,68.08 63.54,62.09 30.89,-6.65 54.34,-42 37.7,-88.43z"/>
    <path class="fil0" d="M1541.87 2432.28c-23.22,24.81 -59.48,69.47 -78.71,123.59 -8.64,24.35 -10.22,50.68 -8.54,78.54 1.87,30.62 8.74,57.3 14.53,86.93 4.12,20.91 3.96,44.17 -18.14,56.03 24.71,-4.5 30.01,-20.64 30.33,-37.41 0.58,-30.9 -3.71,-62.98 -5.14,-93.89 -1.27,-27.99 -1.51,-54.44 2.59,-74.21 12.68,-61.41 36.18,-98.64 65.23,-136.28 -0.72,-1.11 -1.45,-2.17 -2.15,-3.3z"/>
    <path class="fil0" d="M1567.5 2470.05c-8.17,15.57 -16.45,35.54 -18.18,54.88 -2.51,28.37 11.21,88.71 26.44,110.59 6.43,9.22 0.86,-16.8 0.98,-17.76 -1.48,-4.42 -2.85,-8.76 -4.13,-13.04 -16.02,-53.61 -15.85,-96.84 -3.24,-132.04l-1.87 -2.63z"/>
    <path class="fil0" d="M1597.41 2636.74c-18.7,15.33 -30.53,21.9 -49.94,17.64 12.54,6.03 25.4,17.92 31.38,44.04 -12.05,2.83 -44.47,15.3 -58.58,3.29 1.91,26.38 -7.73,54.04 -22.72,71.64 -15,17.59 -34.19,28 -49.03,25.51 2.23,-0.96 3.39,-9.32 5.92,-9.5 29.69,-2.15 38.73,-14.35 45.69,-37.63 6.48,-21.65 1,-53.98 -7.22,-92.39 24.45,36.71 49.6,32.59 64.01,24.69 -8.44,-28.54 -23.01,-26.21 -36.81,-56.12 19.11,2.37 37.53,22.29 57.32,7.09 -6.85,-12.12 -15.09,-38.41 -10.25,-50.53 10.09,34.68 20.83,46.47 30.23,52.27z"/>
    <path class="fil0" d="M1533.35 2505.3c-15.04,34.22 -28.85,83.55 -11.53,125.66 3.78,9.2 21.5,30.63 21.62,29.65 -1.49,-4.4 -4.36,-22.28 -7.32,-26.56 -19.66,-28.62 -15.38,-86.48 -0.06,-129.69l-2.71 0.94z"/>
    <path class="fil0" d="M1469.03 2518.58c-22.68,20.39 -54.98,46.99 -56.41,83.73 -0.3,8.08 11.01,35.08 11.45,34.37 0.38,-3.73 4.28,-17.87 3.54,-22.03 -4.89,-27.56 17.81,-68.93 43.73,-95.87l-2.31 -0.2z"/>
    <path class="fil0" d="M1502.94 2711.57c48.61,-49.23 85.84,48.6 143.87,23.97 -37.22,86.38 -112.35,45.68 -143.87,-23.97zm18.9 7.1c22.24,-16.86 74.29,43.47 108.78,30.39 -49.54,41.8 -93.91,4.74 -108.78,-30.39z"/>
    <path class="fil0" d="M1455.17 2279.97c1.32,4 -41.93,1.33 -37.87,41.22 4.06,39.86 -28.39,51.81 -28.39,51.81l63.52 -14.62 38.78 -14.55c-6.97,-13.8 -13.58,-27.78 -19.93,-41.92 -9.04,-12.92 -16.7,-23.63 -16.11,-21.94z"/>
    <path class="fil0" d="M2328.58 2394.96c-1.04,1.02 -3.55,8.35 -4.28,6.79 -32.44,-68.14 -96.64,-20.11 -74.21,21.51 12.2,22.6 49.97,22.4 53.1,-1.71 3.66,-21.47 -30.09,-31.25 -34.47,-3.79 -2.19,-12.36 6.02,-22.12 16.63,-24.45 24.43,-5.28 38.17,18.52 29.53,39.25 -11.81,28.25 -53.44,27.89 -69.16,9.67 -31.89,-36.91 -9.63,-82.67 36.74,-84.38 38.49,-1.44 43.81,38.81 46.12,37.11z"/>
    <path class="fil0" d="M2214.88 2498.21c16.71,-7.79 32.56,7.78 9.66,12.26 -36.26,7.05 -61.03,-28.95 -44.37,-56.53 11.19,-18.6 44.11,-20.39 49.9,5.82 3.65,21.48 -32.81,27.59 -37.17,0.12 -2.19,12.34 4.96,23.71 21.44,26.54 24.65,4.22 40.32,-19.57 31.66,-40.28 -11.8,-28.24 -53.46,-27.88 -69.17,-9.68 -31.84,36.9 -11.45,84.9 38.23,83.93 77.88,-1.53 18.86,-52.55 -0.18,-22.18z"/>
    <path class="fil1" d="M2372.7 2560.39l-0.08 0 0 -0.04c-89.7,0 -175.24,-17.82 -253.22,-50.06 -13,-5.37 -25.51,-11.01 -37.47,-16.86l0 -0.02c-63.1,-30.83 -120.55,-71.43 -170.31,-119.77 -14.66,-14.22 -23.48,-22.4 -30.77,-22.98l-0.02 0c-7.3,-0.58 -16.78,5.99 -33.65,21.07l-36.06 34.76 -0.12 0.12 -1.95 1.81c-2.09,1.91 -4.12,3.77 -5.63,5.24 -10.04,9.86 -13.62,19.29 14.99,47.45l0.04 0 0.04 0.06 0 0.02c19.89,19.59 40.86,38.17 62.82,55.59 21.93,17.43 44.82,33.72 68.58,48.77 122.18,77.4 267.24,122.3 422.81,122.3l0 -0.04 0.1 0 0 0.04c107.99,0 210.97,-21.68 304.74,-60.81 15.41,-6.45 30.44,-13.28 45.04,-20.51 75.85,-37.44 144.8,-86.74 204.38,-145.38 28.65,-28.2 25.07,-37.63 15.01,-47.49l-0.04 0c-2.13,-2.11 -3.82,-3.64 -5.57,-5.24l-1.95 -1.81 -0.14 -0.12 -36.05 -34.76c-16.88,-15.08 -26.34,-21.65 -33.65,-21.07l-0.02 0c-7.28,0.58 -16.09,8.74 -30.72,22.92l0.04 0.04 -0.06 0.04 -0.08 0.04c-16.71,16.2 -34.19,31.5 -52.45,45.83 -18.14,14.26 -37.23,27.66 -57.15,40.15 -101.79,63.78 -222.3,100.71 -351.43,100.71zm-0.08 -19.35l0 -0.02 0.08 0c125.33,0 242.22,-35.76 340.88,-97.59 19.04,-11.97 37.59,-24.99 55.49,-39.03 17.73,-13.94 34.73,-28.79 50.82,-44.42l-0.02 0 0.06 -0.08 0.06 -0.02c17.9,-17.35 28.97,-27.38 42.97,-28.5l0 0c14,-1.15 27.22,7.03 48.49,26.05l0.26 0.26 36.18 34.86 0 0 1.95 1.8c2.29,2.11 4.54,4.18 6.03,5.63l-0.04 0.02c18.48,18.12 26.24,34.23 -14.93,74.77 -61.05,60.1 -131.72,110.61 -209.52,149.02 -15.29,7.53 -30.68,14.54 -46.16,21.01 -96.07,40.14 -201.65,62.32 -312.42,62.36l0 0.02 -0.1 0 0 -0.02c-159.53,0 -308.22,-46.01 -433.42,-125.34 -24.34,-15.45 -47.83,-32.14 -70.29,-49.98 -22.46,-17.84 -43.97,-36.88 -64.4,-56.99l-0.02 0 -0.06 -0.04 0 -0.04c-41.2,-40.54 -33.43,-56.65 -14.93,-74.79 2.11,-2.09 4.04,-3.84 5.97,-5.63l1.95 -1.8 0 0 36.18 -34.86 0.26 -0.26c21.29,-19.02 34.51,-27.2 48.49,-26.05l0 0c14,1.12 25.07,11.15 42.95,28.5 48.32,46.91 104.04,86.28 165.29,116.24l0.04 0c12.22,5.96 24.35,11.43 36.32,16.41 75.62,31.26 158.58,48.51 245.59,48.51z"/>
    <path class="fil1" d="M2372.7 2894.28l-0.08 0 0 -0.04c-102.46,-0.02 -201.23,-15.39 -294.16,-43.93 -45.32,-13.9 -89.34,-31.02 -131.8,-51.03 -217.89,-102.69 -392.3,-281.72 -488.26,-502.23l-5.86 -13.46 14.88 0 213.18 0 5.83 0 2.79 5.02 0 0c18.94,33.18 40.18,64.82 63.5,94.66 23.38,29.87 48.92,58.05 76.38,84.25 141.04,134.67 332.6,217.5 543.6,217.5l0 -0.04 0.08 0 0 0.04c97.63,0 191.14,-17.78 277.48,-50.22 28.23,-10.63 55.59,-22.74 81.84,-36.22 135.98,-69.75 248.84,-177.93 324.09,-310.03l2.81 -4.96 5.77 0 213.2 0 14.91 0 -5.87 13.46 -0.04 0.1c-21.43,49.21 -46.75,96.34 -75.51,140.94 -28.75,44.55 -61.09,86.76 -96.61,126.21 -182.3,202.48 -447.25,329.92 -742.15,329.94l0 0.04zm-0.08 -19.34l0 -0.02 0.08 0 0 0.02c289.05,0 548.72,-124.96 727.45,-323.43 34.69,-38.51 66.37,-79.91 94.69,-123.79 25.64,-39.73 48.44,-81.44 68.08,-124.75l-192.4 0c-77.08,133.07 -191.61,242.07 -329.34,312.7 -27.26,14 -55.3,26.46 -83.91,37.21 -88.41,33.24 -184.31,51.42 -284.49,51.44l0 0.04 -0.08 0 0 -0.04c-216.36,-0.02 -412.77,-84.89 -557.32,-222.96 -28.11,-26.82 -54.24,-55.67 -78.21,-86.28 -22.86,-29.23 -43.71,-60.03 -62.31,-92.11l-192.37 0c95.24,210.03 263.52,380.36 472.64,478.91 41.45,19.53 84.6,36.29 129.17,49.99 91.17,27.98 187.99,43.07 288.32,43.07z"/>
    <path class="fil0" d="M3290.25 2279.97c-1.37,4 41.88,1.33 37.84,41.22 -4.06,39.86 28.39,51.81 28.39,51.81l-63.52 -14.62 -45.99 -17.28c0,0 44.62,-65.11 43.28,-61.13z"/>
    <path class="fil1" d="M1566.22 2373.58l62.63 -38.45 29.01 45.64 -10.61 6.51 -21.09 -33.2 -13.9 8.53 19.65 30.9 -10.55 6.47 -19.65 -30.9 -17.05 10.47 21.87 34.39 -10.54 6.47 -29.77 -46.83zm56.55 43.7l9.68 10.7c-3.46,3.52 -5.28,6.99 -5.57,10.45 -0.26,3.43 0.91,6.95 3.58,10.55 2.81,3.81 5.77,6.1 8.84,6.85 3.09,0.78 5.72,0.38 7.93,-1.21 1.41,-0.98 2.31,-2.25 2.7,-3.78 0.4,-1.52 0.2,-3.57 -0.57,-6.1 -0.52,-1.75 -2.03,-5.55 -4.42,-11.37 -3.09,-7.5 -4.4,-13.38 -3.95,-17.6 0.6,-5.95 3.29,-10.63 8.01,-14 3.06,-2.17 6.51,-3.34 10.43,-3.54 3.88,-0.2 7.71,0.81 11.47,3 3.74,2.2 7.27,5.56 10.61,10.08 5.46,7.37 7.89,14.08 7.39,20.15 -0.56,6.09 -3.5,11.17 -8.86,15.29l-9.28 -11.47c2.69,-2.72 4.1,-5.39 4.2,-8.02 0.12,-2.63 -1.07,-5.6 -3.54,-8.94 -2.53,-3.43 -5.24,-5.64 -8.11,-6.57 -1.87,-0.6 -3.56,-0.34 -5.11,0.76 -1.4,1.03 -2.21,2.48 -2.33,4.38 -0.18,2.39 1.17,7 4.08,13.74 2.85,6.77 4.58,12.06 5.14,15.87 0.55,3.82 0.14,7.44 -1.28,10.83 -1.41,3.4 -4,6.43 -7.78,9.14 -3.41,2.43 -7.31,3.8 -11.67,4.06 -4.38,0.24 -8.58,-0.78 -12.53,-3.17 -4,-2.37 -7.88,-6.11 -11.66,-11.21 -5.48,-7.44 -7.95,-14.39 -7.39,-20.85 0.54,-6.47 3.88,-12.52 9.99,-18.02zm36.92 85.85l46.99 -38.77 -14.09 -16.49 9.61 -7.87 37.7 44.17 -9.58 7.9 -14.04 -16.48 -46.99 38.77 -9.6 -11.23zm86.22 -12.61l18.94 19.28c4.28,4.32 7.2,7.96 8.76,10.89 2.09,3.92 3.04,8.1 2.81,12.52 -0.18,4.4 -1.4,8.8 -3.69,13.16 -2.27,4.33 -5.91,8.87 -10.89,13.6 -4.36,4.15 -8.66,7.21 -12.88,9.16 -5.14,2.35 -10.1,3.45 -14.86,3.27 -3.62,-0.08 -7.46,-1.22 -11.53,-3.35 -3.02,-1.61 -6.45,-4.36 -10.31,-8.28l-19.46 -19.83 53.11 -50.42zm1.37 19.06l-35.16 33.41 7.71 7.86c2.9,2.95 5.15,4.92 6.77,5.92 2.13,1.27 4.26,1.99 6.39,2.15 2.15,0.14 4.76,-0.58 7.86,-2.11 3.05,-1.57 6.67,-4.28 10.79,-8.17 4.09,-3.9 6.89,-7.26 8.39,-10.05 1.49,-2.81 2.23,-5.44 2.21,-7.87 -0.04,-2.45 -0.8,-4.88 -2.31,-7.26 -1.1,-1.78 -3.77,-4.82 -7.99,-9.14l-4.66 -4.74zm1.8 85.72l9.47 -10.34 10.5 9.3 -9.46 10.34 -10.51 -9.3zm91.89 -17.96l23.26 17.88c4.62,3.52 7.92,6.35 9.89,8.46 1.94,2.13 3.35,4.46 4.17,7.05 0.83,2.57 1.05,5.26 0.67,8.2 -0.38,2.89 -1.57,5.58 -3.54,8.03 -2.13,2.69 -4.8,4.6 -8.05,5.71 -3.26,1.1 -6.57,1.26 -9.97,0.46 2.71,3.71 4.08,7.55 4.04,11.43 -0.04,3.94 -1.37,7.51 -4,10.83 -2.07,2.59 -4.68,4.68 -7.87,6.18 -3.18,1.51 -6.43,2.19 -9.73,2.01 -3.29,-0.16 -6.64,-1.26 -10.06,-3.33 -2.09,-1.31 -6.91,-4.78 -14.44,-10.51l-19.83 -15.19 45.46 -57.21zm4.2 18.54l-10.53 13.24 7.72 5.91c4.58,3.51 7.47,5.64 8.69,6.37 2.19,1.3 4.32,1.84 6.35,1.58 2.05,-0.26 3.8,-1.3 5.29,-3.15 1.42,-1.77 2.06,-3.58 1.94,-5.44 -0.12,-1.87 -1.06,-3.66 -2.83,-5.41 -1.04,-1.02 -4.36,-3.65 -9.88,-7.89l-6.75 -5.21zm-18.08 22.76l-12.16 15.29 10.87 8.34c4.24,3.25 7.01,5.22 8.34,5.84 1.99,1.05 4.02,1.37 6.09,0.99 2.05,-0.34 3.89,-1.55 5.5,-3.58 1.39,-1.7 2.11,-3.49 2.21,-5.34 0.08,-1.85 -0.44,-3.66 -1.59,-5.44 -1.18,-1.75 -4.44,-4.73 -9.78,-8.8l-9.48 -7.3zm48.19 71.36l16.94 -25.63 0.62 -49.72 14.64 9.36 -1.3 33.39 30.17 -14.97 14.4 9.2 -46.1 20.79 -16.89 25.55 -12.48 -7.97zm112.32 31.38l5.44 -11.01 28.89 13.86 -12.9 26c-4.14,1.3 -9.36,1.7 -15.71,1.2 -6.33,-0.54 -12.23,-2.11 -17.7,-4.72 -6.93,-3.31 -12.27,-7.65 -16.03,-13 -3.71,-5.34 -5.56,-11.29 -5.52,-17.86 0.06,-6.57 1.63,-12.99 4.72,-19.24 3.37,-6.79 7.81,-12.15 13.34,-16.05 5.52,-3.88 11.75,-5.91 18.76,-6.03 5.3,-0.14 11.15,1.33 17.48,4.36 8.25,3.96 13.86,8.74 16.79,14.36 2.96,5.61 3.6,11.74 1.95,18.36l-14.5 -3.91c0.64,-3.66 0.14,-7.05 -1.55,-10.15 -1.65,-3.07 -4.4,-5.54 -8.26,-7.39 -5.86,-2.81 -11.43,-3.21 -16.69,-1.25 -5.28,2.01 -9.68,6.59 -13.24,13.79 -3.84,7.73 -4.98,14.38 -3.39,19.94 1.58,5.55 5.2,9.67 10.86,12.4 2.84,1.34 5.91,2.15 9.27,2.41 3.35,0.28 6.44,0.12 9.22,-0.44l4.11 -8.28 -15.34 -7.35zm43.85 9.56c2.69,-6.93 6.01,-12.31 9.94,-16.21 2.92,-2.83 6.27,-5.14 10.05,-6.87 3.77,-1.71 7.55,-2.63 11.29,-2.71 5.02,-0.2 10.3,0.8 15.93,2.93 10.14,3.82 17.05,9.96 20.75,18.48 3.68,8.48 3.35,18.24 -0.94,29.27 -4.3,10.95 -10.65,18.36 -19.13,22.26 -8.46,3.9 -17.76,3.92 -27.88,0.1 -10.27,-3.86 -17.2,-10.03 -20.85,-18.44 -3.66,-8.42 -3.38,-18.04 0.84,-28.81zm14.52 4.94c-2.99,7.68 -3.45,14.18 -1.42,19.49 2.09,5.32 5.88,9.02 11.43,11.11 5.54,2.11 10.87,1.87 15.97,-0.75 5.08,-2.57 9.18,-7.77 12.23,-15.65 3.06,-7.75 3.56,-14.2 1.61,-19.34 -1.99,-5.14 -5.85,-8.78 -11.55,-10.93 -5.77,-2.17 -11.13,-1.99 -16.19,0.56 -4.98,2.55 -9.02,7.7 -12.08,15.51zm72.64 61.9l-3.65 -77.02 15.49 4.64 1.87 56.75 33.28 -46.19 15.13 4.56 -46.87 61.82 -15.25 -4.56zm52.07 14.98l12.82 -71.47 53.94 9.34 -2.19 12.09 -39.21 -6.79 -2.86 15.85 36.5 6.33 -2.16 12.03 -36.49 -6.33 -3.51 19.45 40.64 7.05 -2.15 12.03 -55.33 -9.58zm72.04 11.67l7.72 -72.2 31.21 3.24c7.88,0.8 13.48,2.05 16.92,3.69 3.41,1.69 6.03,4.28 7.81,7.82 1.79,3.55 2.43,7.43 1.97,11.69 -0.58,5.42 -2.69,9.74 -6.29,12.92 -3.59,3.21 -8.69,4.92 -15.24,5.18 3.01,2.17 5.44,4.46 7.29,6.87 1.85,2.43 4.24,6.63 7.19,12.62l7.47 15 -17.73 -1.83 -9.04 -16.83c-3.22,-6.01 -5.45,-9.8 -6.69,-11.41 -1.25,-1.61 -2.64,-2.75 -4.12,-3.48 -1.53,-0.7 -3.98,-1.22 -7.39,-1.58l-3.02 -0.3 -3.19 30.13 -14.87 -1.53zm19.31 -40.13l10.95 1.14c7.13,0.72 11.61,0.9 13.44,0.48 1.82,-0.4 3.31,-1.28 4.47,-2.63 1.17,-1.32 1.85,-3.07 2.09,-5.24 0.27,-2.43 -0.2,-4.46 -1.36,-6.09 -1.15,-1.63 -2.91,-2.77 -5.27,-3.41 -1.18,-0.29 -4.8,-0.75 -10.82,-1.37l-11.55 -1.19 -1.95 18.31zm59.48 47.73l2.57 -72.56 14.51 0.52 28.5 49.48 1.71 -48.46 13.86 0.49 -2.59 72.54 -14.97 -0.53 -28.04 -48.31 -1.69 47.31 -13.86 -0.48zm78.31 1.28l-5.17 -72.44 22.26 -1.5 16.9 48.45 9.66 -50.3 22.34 -1.53 5.14 72.42 -13.82 0.94 -4.02 -56.99 -10.59 58 -14.32 0.98 -18.64 -56 4.06 57.01 -13.8 0.96zm90.17 -6.89l-12.81 -71.47 53.89 -9.35 2.17 12.08 -39.21 6.83 2.85 15.83 36.51 -6.33 2.14 12.05 -36.5 6.31 3.48 19.49 40.64 -7.05 2.17 12.03 -55.33 9.58zm71.92 -10.79l-19.1 -70.13 14.02 -3.69 41.94 39.15 -12.75 -46.83 13.4 -3.53 19.1 70.13 -14.46 3.81 -41.22 -38.16 12.47 45.72 -13.4 3.53zm92.01 -25.03l-19.97 -57.03 -20.71 7.01 -4.08 -11.61 55.5 -18.8 4.08 11.65 -20.69 6.97 19.97 57.01 -14.1 4.8zm56.51 -58.09c-3.18,-6.71 -4.82,-12.8 -4.95,-18.28 -0.06,-4.04 0.59,-7.98 1.95,-11.88 1.39,-3.83 3.34,-7.15 5.85,-9.86 3.35,-3.68 7.73,-6.73 13.2,-9.22 9.86,-4.52 19.16,-5.14 27.94,-1.83 8.76,3.28 15.71,10.29 20.79,20.99 5.04,10.65 6.03,20.27 3.02,28.99 -3.04,8.68 -9.49,15.29 -19.29,19.77 -9.96,4.58 -19.28,5.2 -28,1.95 -8.7,-3.28 -15.53,-10.17 -20.51,-20.63zm13.7 -6.83c3.55,7.47 7.99,12.31 13.3,14.54 5.34,2.23 10.68,2.13 16.09,-0.34 5.36,-2.47 8.9,-6.41 10.54,-11.81 1.63,-5.41 0.65,-11.89 -2.97,-19.53 -3.58,-7.55 -7.94,-12.39 -13.06,-14.56 -5.12,-2.17 -10.46,-1.97 -16.05,0.58 -5.56,2.53 -9.14,6.49 -10.79,11.81 -1.6,5.29 -0.64,11.73 2.94,19.31zm80.35 2.97l-36.9 -62.86 43.85 -24.89 6.25 10.65 -30.94 17.56 8.74 14.84 26.7 -15.12 6.27 10.62 -26.7 15.17 15.69 26.7 -12.96 7.33zm82.16 -49.3l-42.36 -59.44 12.23 -8.4 18.8 26.4 5.87 -43.39 16.41 -11.29 -6.27 38.83 49.88 19.77 -15.8 10.86 -36.51 -16.45 -2.83 16.76 12.8 17.96 -12.22 8.39zm63.66 -45l-47.46 -55.58 41.92 -34.61 8.04 9.42 -30.52 25.15 10.51 12.33 28.42 -23.42 8 9.36 -28.41 23.42 12.92 15.15 31.6 -26.07 7.99 9.38 -43.01 35.47zm55.93 -46.22l-53.13 -50.42 21.81 -22.2c5.49,-5.59 9.95,-9.18 13.38,-10.81 3.44,-1.63 7.13,-2.03 11.05,-1.24 3.96,0.8 7.47,2.67 10.63,5.68 4,3.78 6.15,8.08 6.49,12.84 0.34,4.74 -1.43,9.74 -5.27,14.96 3.62,-1 6.95,-1.46 10.03,-1.4 3.07,0.04 7.89,0.78 14.5,2.19l16.66 3.45 -12.4 12.62 -19.06 -3.38c-6.79,-1.2 -11.21,-1.8 -13.26,-1.84 -2.05,-0.02 -3.82,0.34 -5.35,1.06 -1.48,0.76 -3.41,2.33 -5.8,4.76l-2.09 2.13 22.18 21.05 -10.37 10.55zm-20.29 -39.66l7.66 -7.79c4.98,-5.04 7.85,-8.42 8.67,-10.08 0.79,-1.67 1.01,-3.38 0.65,-5.11 -0.38,-1.7 -1.35,-3.31 -2.94,-4.86 -1.78,-1.69 -3.69,-2.57 -5.7,-2.69 -2.03,-0.1 -4.04,0.58 -5.99,1.99 -0.96,0.76 -3.53,3.25 -7.75,7.53l-8.06 8.24 13.46 12.77zm117.6 -65.56l-10.42 12.21 -17 -5.73 -18.98 22.22 8.94 15.19 -10.17 11.91 -38.07 -68.32 10.13 -11.87 75.57 24.39zm-40.02 2.23l-27.54 -9.67 14.59 24.83 12.95 -15.16zm47.84 -12.54l-59.27 -42.33 8.76 -11.85 49.2 35.14 21.8 -29.49 10.06 7.21 -30.55 41.32zm73.92 -108.24l-8.6 13.56 -17.65 -3.39 -15.63 24.63 11.01 13.82 -8.4 13.18 -47.37 -62.44 8.34 -13.16 78.3 13.8zm-39.31 7.7l-28.67 -5.79 17.98 22.58 10.69 -16.79z"/>
    <path class="fil1" d="M1982.96 2454.82l49.78 29.91c10.82,6.51 13.27,18.97 7.37,37.37l-1.89 4.96c-7.79,13 -19.55,18.62 -35.22,16.96l6.73 32 -0.9 1.5 -22.72 -13.66 -10.77 -56.55 0.42 -0.66 27.73 16.65c6.38,3.86 12.83,2.01 19.32,-5.5 3.96,-6.59 2.89,-12.56 -3.21,-17.94l-32.2 -19.37 -36.22 60.35 -2.39 0.6 -13.12 -7.91 -0.59 -2.35 45.51 -75.76 2.37 -0.6zm127.6 167.6l-51.27 -19.69c-5.1,-1.94 -8.62,-5.2 -10.54,-9.72 -1.95,-4.5 -1.95,-9.22 -0.08,-14.14l26.59 -69.23 17.22 6.61 -26.56 69.25 51.25 19.67 26.6 -69.23 17.09 6.55 -26.6 69.24c-1.82,4.83 -4.94,8.3 -9.24,10.47 -4.34,2.17 -9.16,2.25 -14.46,0.22zm155.67 -36.34l-36.08 -7.01 -14.17 72.8 -17.95 -3.49 14.14 -72.83 -35.94 -6.97 3.51 -18.12 90.02 17.48 -3.53 18.14zm26.55 -13.22l58.02 3.04c12.59,0.68 20.61,10.52 24.05,29.57l0.66 5.24c-0.79,15.13 -8.5,25.61 -23.14,31.48l20.97 25.13 -0.08 1.73 -26.5 -1.39 -36.04 -44.86 0.04 -0.78 32.33 1.69c7.45,0.4 12.27,-4.26 14.46,-13.94 0.4,-7.68 -3.34,-12.46 -11.27,-14.35l-37.49 -1.95 -3.69 70.27 -1.83 1.65 -15.29 -0.8 -1.63 -1.81 4.61 -88.27 1.82 -1.65zm189.1 88.96l-54.86 4.8c-9.75,0.86 -15.97,-2.7 -18.67,-10.71 -0.58,-1.85 -0.98,-3.88 -1.18,-6.09l-4.84 -55.48c-0.43,-4.8 0.92,-9.24 4.07,-13.26 3.14,-4.04 7.32,-6.27 12.54,-6.73l54.86 -4.8c5.14,-0.42 9.64,0.98 13.46,4.3 3.82,3.31 5.97,7.47 6.39,12.49l4.86 55.51c1.09,12.25 -4.48,18.92 -16.63,19.97zm-1.59 -18.39l-4.88 -55.48 -54.86 4.8 4.86 55.49 54.88 -4.81zm143.94 -16.51l-11.07 3.18 -76.08 -40.91 16.61 57.96 -17.59 5.04 -25.54 -89.05 10.93 -3.11 76.22 40.84 -16.61 -57.94 17.59 -5.06 25.54 89.05zm53.01 -21.41l-17.1 6.55 -33.18 -86.45 17.09 -6.56 33.19 86.46zm128.59 -66.88l-21.96 12.16 -42.59 -15.35 -9.56 44.27 -22.1 12.24 16.11 -61.8 -61.01 -19.22 22.08 -12.23 42.63 15.32 9.56 -44.23 21.94 -12.2 -15.87 61.86 60.77 19.18z"/>
    <path class="fil1" d="M2373.7 1138.31c114.67,0 218.46,46.47 293.62,121.58 75.21,75.17 121.73,179.01 121.73,293.61 0,114.77 -46.48,218.63 -121.61,293.76 -75.13,75.13 -179.01,121.62 -293.74,121.62 -114.65,-0.1 -218.5,-46.57 -293.62,-121.74 -75.11,-75.13 -121.57,-178.97 -121.57,-293.64 0,-114.64 46.48,-218.48 121.59,-293.59 75.12,-75.11 178.95,-121.6 293.6,-121.6zm262.98 152.39c-67.26,-67.21 -160.23,-108.84 -262.98,-108.84 -102.61,0 -195.54,41.63 -262.78,108.86 -67.24,67.24 -108.84,160.17 -108.84,262.78 0,102.76 41.58,195.73 108.82,263 67.24,67.26 160.19,108.91 262.8,108.91 102.71,-0.11 195.66,-41.71 262.92,-108.97 67.26,-67.25 108.86,-160.22 108.86,-262.94 0,-102.69 -41.58,-195.62 -108.8,-262.8z"/>
    <path class="fil0" d="M2133.52 1247.82l172.68 169.76c12.72,2.03 18.91,-1.86 24.43,-11.69l-5.97 -240.1 -12.07 2.13 1.73 233.47 -169.97 -163.74 -10.83 10.17zm284.46 -81.38l-0.19 241.38c7.56,10.43 14.69,12.05 25.54,9.02l167.72 -176.46 -9.5 -7.21 -166.58 168.95 -4.38 -235.97 -12.61 0.29z"/>
    <path class="fil0" d="M1989.18 1504.95l245 -1.55c10.41,-7.57 12.04,-14.68 9.04,-25.55l-171.61 -164.16 -9.42 8.63 166.29 163.87 -241.81 5.24 2.51 13.52z"/>
    <path class="fil0" d="M2070.3 1789.63l173.65 -174.61c2.01,-12.72 -1.87,-18.93 -11.69,-24.47l-241.59 5.26 -0.56 12.78 237.63 -1.73 -168.75 174.99 11.31 7.78z"/>
    <path class="fil0" d="M2328.78 1937.86l0.99 -250.85c-7.58,-10.42 -14.71,-12.03 -25.58,-9.02l-171.65 179.09 8.63 9.45 171.38 -173.81 2.73 247.65 13.5 -2.51z"/>
    <path class="fil0" d="M2620.13 1855.05l-178.75 -177.8c-12.72,-2.03 -18.92,1.89 -24.49,11.69l4.42 250.77 12.78 0.58 -0.87 -246.87 179.15 172.96 7.76 -11.33z"/>
    <path class="fil0" d="M2759.18 1590.73l-245.8 0.7c-10.43,7.55 -12.04,14.71 -9.04,25.57l180.75 168.33 9.45 -8.64 -175.48 -168.04 242.63 -4.4 -2.51 -13.52z"/>
    <path class="fil0" d="M2672.2 1310.23l-168.61 169.59c-2.01,12.74 1.89,18.92 11.72,24.47l241.56 -5.25 0.56 -12.77 -237.64 1.7 163.74 -169.97 -11.33 -7.77z"/>
    <path class="fil0" d="M2322.37 1944.75l0 -364.21 0 364.21zm101.61 -370.01l0 370.01 0 -370.01zm-52.31 -81.56c31.78,0 57.56,25.79 57.56,57.59 0,8.54 -1.91,16.68 -5.25,23.97 -9.08,19.85 -29.07,33.61 -52.31,33.61 -20.91,0 -39.23,-11.13 -49.3,-27.81 -5.26,-8.7 -8.27,-18.9 -8.27,-29.77 0,-31.8 25.77,-57.59 57.57,-57.59z"/>
    <path class="fil1" d="M2300.6 1944.75l0 -358.86c-2.21,-4.44 -4,-9.08 -5.33,-13.84 -1.92,-6.95 -2.95,-14.11 -2.95,-21.28 0,-21.85 8.9,-41.7 23.22,-56.07 14.47,-14.4 34.27,-23.3 56.13,-23.3 21.86,0 41.71,8.92 56.11,23.32 14.32,14.37 23.22,34.2 23.22,56.05 0,5.73 -0.64,11.39 -1.83,16.84 -0.92,3.91 -2.05,7.65 -3.41,11.25l0 365.89 -43.55 0 0 -320.75c-9.43,3.93 -19.75,6.12 -30.54,6.12 -9.64,0 -18.92,-1.73 -27.52,-4.92l0 319.55 -43.55 0zm96.36 -419.39c-6.43,-6.41 -15.38,-10.41 -25.29,-10.41 -9.9,0 -18.86,4.02 -25.35,10.45 -6.43,6.47 -10.45,15.47 -10.45,25.37 0,3.52 0.45,6.79 1.27,9.7 0.86,3.18 2.17,6.19 3.78,8.84 3.25,5.27 7.77,9.67 13.11,12.66 5.17,2.91 11.19,4.6 17.64,4.6 7.13,0 13.78,-2.09 19.29,-5.6 5.78,-3.72 10.46,-9.04 13.3,-15.25 1.04,-2.31 1.88,-4.76 2.43,-7.27 0.46,-2.43 0.76,-5.03 0.76,-7.68 0,-9.92 -4.04,-18.92 -10.49,-25.41z"/>
   </g>
   <path class="fil1" d="M6846.86 1260.02l-114.09 -142.71 106.84 -126.19 -70.55 0 -95.15 120.14 0 -120.14 -57.24 0 0 268.9 57.24 0 0 -82.65 20.97 -24.99 81.43 107.64 70.55 0zm216.5 0l0 -50.4 -133.05 0 0 -60.87 130.22 0 0 -50.39 -130.22 0 0 -56.84 133.05 0 0 -50.4 -190.28 0 0 268.9 190.28 0zm262.45 0l-60.47 -102.41c29.02,-6.85 58.86,-32.25 58.86,-79.82 0,-49.98 -34.27,-86.67 -90.31,-86.67l-125.78 0 0 268.9 57.24 0 0 -95.55 41.93 0 52.81 95.55 65.72 0zm-100.38 -145.94l-60.08 0 0 -72.56 60.08 0c22.98,0 40.3,13.7 40.3,36.27 0,22.59 -17.32,36.29 -40.3,36.29zm392.65 145.94l-103.6 -268.9 -71.77 0 -104.01 268.9 65.32 0 16.93 -45.55 115.29 0 16.54 45.55 65.3 0zm-97.55 -95.95l-83.87 0 41.93 -115.7 41.94 115.7zm293.48 95.95l0 -50.4 -113.69 0 0 -218.5 -57.24 0 0 268.9 170.93 0zm290.66 0l-103.6 -268.9 -71.76 0 -104.02 268.9 65.32 0 16.93 -45.55 115.29 0 16.54 45.55 65.3 0zm-97.55 -95.95l-83.86 0 41.93 -115.7 41.93 115.7zm321.3 100.78c72.57,0 107.65,-37.08 107.65,-86.26 0,-100.39 -154.41,-71.77 -154.41,-114.51 0,-16.12 13.7,-27 38.29,-27 27.42,0 56.45,9.27 78.21,29.44l31.86 -41.94c-26.61,-24.59 -62.09,-37.49 -104.82,-37.49 -63.29,0 -102,37.08 -102,81.84 0,101.19 154.81,68.53 154.81,116.1 0,15.32 -15.32,29.83 -46.76,29.83 -37.09,0 -66.53,-16.52 -85.46,-36.27l-31.05 43.54c25,25.39 62.08,42.72 113.68,42.72zm260.84 -4.83l0 -218.5 78.21 0 0 -50.4 -214.47 0 0 50.4 78.61 0 0 218.5 57.65 0zm339.84 0l-103.6 -268.9 -71.77 0 -104.01 268.9 65.32 0 16.93 -45.55 115.29 0 16.54 45.55 65.3 0zm-97.55 -95.95l-83.86 0 41.93 -115.7 41.93 115.7zm216.48 95.95l0 -218.5 78.21 0 0 -50.4 -214.48 0 0 50.4 78.62 0 0 218.5 57.65 0zm305.17 0l0 -50.4 -133.04 0 0 -60.87 130.22 0 0 -50.39 -130.22 0 0 -56.84 133.04 0 0 -50.4 -190.28 0 0 268.9 190.28 0zm365.67 0l-60.48 -102.41c29.03,-6.85 58.86,-32.25 58.86,-79.82 0,-49.98 -34.27,-86.67 -90.3,-86.67l-125.78 0 0 268.9 57.24 0 0 -95.55 41.93 0 52.81 95.55 65.72 0zm-100.39 -145.94l-60.07 0 0 -72.56 60.07 0c22.98,0 40.31,13.7 40.31,36.27 0,22.59 -17.33,36.29 -40.31,36.29zm263.25 150.77c81.84,0 121.34,-45.55 121.34,-112.47l0 -161.26 -58.45 0 0 159.64c0,37.49 -21.37,63.3 -62.89,63.3 -41.52,0 -63.3,-25.81 -63.3,-63.3l0 -159.64 -58.04 0 0 161.66c0,66.11 39.5,112.07 121.34,112.07zm293.9 -4.83l0 -218.5 78.2 0 0 -50.4 -214.47 0 0 50.4 78.62 0 0 218.5 57.65 0zm332.59 0l-60.47 -102.41c29.02,-6.85 58.86,-32.25 58.86,-79.82 0,-49.98 -34.27,-86.67 -90.31,-86.67l-125.78 0 0 268.9 57.24 0 0 -95.55 41.93 0 52.81 95.55 65.72 0zm-100.38 -145.94l-60.08 0 0 -72.56 60.08 0c22.97,0 40.3,13.7 40.3,36.27 0,22.59 -17.33,36.29 -40.3,36.29zm269.29 150.77c81.43,0 140.7,-58.04 140.7,-139.08 0,-81.03 -59.27,-139.09 -140.7,-139.09 -81.04,0 -140.29,58.06 -140.29,139.09 0,81.04 59.25,139.08 140.29,139.08zm0 -50.79c-49.59,0 -81.43,-38.3 -81.43,-88.29 0,-50.39 31.84,-88.28 81.43,-88.28 49.59,0 81.84,37.89 81.84,88.28 0,49.99 -32.25,88.29 -81.84,88.29zm421.68 45.96l0 -268.9 -57.25 0 0 168.92 -124.56 -168.92 -58.86 0 0 268.9 57.23 0 0 -175.37 128.21 175.37 55.23 0zm110.45 0l0 -268.9 -57.24 0 0 268.9 57.24 0zm297.12 0l-97.56 -138.28 91.51 -130.62 -68.94 0 -60.87 91.92 -61.69 -91.92 -68.13 0 91.52 131.02 -97.57 137.88 68.14 0 67.73 -98.37 67.33 98.37 68.53 0z"/>
   <polygon class="fil2" points="6076.2,2692.95 5351.22,2692.95 5351.22,2463.39 5812.76,2463.39 5812.76,2463.17 5862.66,2463.17 5862.66,1570.61 6107.05,1650.17 6107.05,2692.95 "/>
   <path class="fil2" d="M6513.72 2692.95l-213.56 0 0 -1129.51c0,-38.01 -2.81,-70.71 -8.41,-98.01 -5.12,-24.95 -12.57,-45.53 -22.28,-61.7 -5.85,-7 -12.15,-13.22 -18.81,-18.7 -7.54,-6.05 -15.69,-11.48 -24.36,-16.15 -7.97,-4.29 -17.22,-7.57 -27.61,-9.76 -11.26,-2.36 -23.97,-3.55 -38.21,-3.55 -19.48,0 -36.61,3.81 -51.37,11.42 -14.86,7.66 -28,19.43 -39.27,35.25 -12.3,17.22 -21.53,35.72 -27.63,55.45 -1.35,4.33 -2.54,8.74 -3.59,13.25l-227.96 -74.21c3.36,-9.46 6.99,-18.8 10.93,-28.03 10.02,-23.55 21.61,-45.53 34.69,-65.78 13.2,-20.49 28.05,-39.41 44.4,-56.65 16.38,-17.3 34.48,-32.79 54.17,-46.43 19.67,-13.64 40.76,-25.34 63.14,-34.97 22.73,-9.81 46.67,-17.17 71.73,-22.05 25.09,-4.84 51.07,-7.29 78.07,-7.29 112.68,0 203.77,36.51 273.22,109.51 34.66,36.44 60.69,79.81 78.01,129.97 17.06,49.11 25.54,104.64 25.54,166.52l0 1151.42 -30.84 0z"/>
   <path class="fil2" d="M7003.69 1870.23c-22.64,0.49 -41.04,8.45 -54.22,20.41 -14.45,13.11 -22.87,31.07 -23.94,49.28 -1.77,29.69 15.26,49.45 38.29,59.01 12.02,5 25.5,7.64 39,7.87 13.65,0.23 27.45,-1.98 40,-6.58 25.1,-9.19 44.52,-29.25 44.02,-59.97l-0.16 -0.81c-0.35,-16.99 -8.6,-34.08 -22.37,-47.07 -14.54,-13.72 -35.25,-22.63 -59.73,-22.22l-0.89 0.08zm1027.55 558.02c0,-7.79 -1.33,-14.62 -3.97,-20.45 -2.7,-5.94 -6.91,-11.43 -12.54,-16.36 -5.35,-4.67 -14.18,-8.66 -26.39,-11.84 -15.21,-3.97 -34.48,-6.35 -57.67,-7.06 -39.69,-1.35 -68.24,4.02 -85.54,16.03 -13.3,9.25 -20,24.94 -20,46.99 0,9.05 1.89,16.54 5.65,22.36 4,6.22 10.73,11.72 20.1,16.4 25.43,12.85 51.62,19.22 78.52,19.22 25.25,0 50.64,-6.37 76.08,-19.08 8.71,-4.35 15.16,-10.09 19.25,-17.08 4.37,-7.24 6.51,-16.98 6.51,-29.13zm-752.93 -45.82l-33.31 0.14 -41.74 0.93c-60.35,1.82 -120.59,3.76 -180.91,6.07 -15.79,0.73 -31.18,2.43 -46.09,5.07 -14.17,2.5 -27.46,5.89 -39.75,10.09 -6.45,2.25 -10.79,4.86 -12.89,7.78 -1.94,2.9 -2.78,7.48 -2.43,13.71l0 0.29c0.56,11.56 2.59,21.16 5.96,28.72 2.64,5.92 6.35,10.7 10.97,14.16 6.14,4.6 13.38,8.13 21.65,10.53 8.9,2.58 19.51,3.88 31.75,3.88 37.93,0 84.46,-10.2 139.52,-30.57 28.59,-10.58 56.74,-22.73 84.41,-36.47 21.14,-10.48 42.08,-21.93 62.86,-34.33zm54.57 -407.87c0.33,20.45 -2.18,39.88 -7.27,58.17 -5.28,18.99 -13.43,36.84 -24.08,53.58 -9.85,15.46 -20.76,29.65 -32.68,42.49 -11.96,12.9 -25.27,24.79 -39.77,35.55 -10.49,7.8 -21.56,15 -33.15,21.63l468.85 -8.06c48.63,-0.82 130.97,-8.9 204.99,-26.25 50.15,-11.75 95.09,-27.33 119.17,-46.81 11.55,-9.49 21.77,-20 30.61,-31.39 8.8,-11.33 16.32,-23.72 22.47,-37.07 6.21,-13.43 10.88,-26.84 13.98,-40.11 2.97,-12.73 4.45,-25.48 4.45,-38.21 0,-12.92 -1.34,-25.58 -4,-37.89 -2.75,-12.96 -6.82,-25.37 -12.14,-37.33 -5.35,-12.08 -12.1,-24.08 -20.12,-35.95 -7.49,-11.28 -16.33,-22.12 -26.39,-32.54 -19.09,-19.78 -42.98,-35.64 -71.6,-47.5 -14.39,-5.96 -29.48,-10.43 -45.17,-13.35 -15.82,-2.94 -33.03,-4.45 -51.51,-4.45 -31.39,0 -59.42,3.06 -84.08,9.18 -23.74,5.9 -44.72,14.69 -62.84,26.3 -15.65,10.04 -27.38,23.14 -35.11,39.17 -8.24,17.12 -12.38,38.38 -12.38,63.72l0 154.58 -249.44 81.13 0 -228.4c0,-12.61 -1.4,-24.27 -4.16,-34.9 -2.76,-10.63 -7.03,-20.86 -12.68,-30.64 -5.89,-10.17 -12.87,-19.6 -20.81,-28.2 -8.07,-8.75 -17.03,-16.56 -26.82,-23.42 -10.32,-7.22 -21.61,-13.65 -33.8,-19.21 -12.41,-5.69 -25.83,-10.51 -40.04,-14.41 -14.73,-4.02 -29.73,-7.05 -45.03,-9.04 -14.81,-1.94 -30.72,-2.92 -47.6,-2.92 -29.83,0 -55.58,1.03 -77.21,3.06l-3.52 0.35c119.15,7.1 255.59,45.62 258.88,239.14zm-515.75 226.46l9.8 -4.5c-22.21,-12.68 -42.81,-28.01 -61.84,-46.02 -26.7,-25.3 -47.47,-54.92 -62.28,-88.76 -14.41,-32.98 -23.05,-69.8 -25.81,-110.35 -3.53,-41.85 -2.52,-80.86 2.97,-116.93 5.62,-36.88 15.97,-70.91 31.04,-101.93 14.93,-30.79 32.77,-57.81 53.44,-80.97 20.68,-23.23 44.38,-42.69 70.99,-58.44 43.12,-27.26 92.24,-47.72 147.27,-61.26 54.31,-13.34 114.11,-20.04 179.33,-20.04 97.61,0 187.09,18.19 268.4,54.49 16.48,7.14 47.49,27.24 64.5,37.19 7.92,4.6 15.2,9.53 22.02,14.78l1.29 -1.45c5.58,-6.37 11.87,-11.81 18.81,-16.44l0.14 -0.14c5.25,-3.48 10.97,-6.47 17.12,-8.92 18.42,-11.47 38.82,-21.98 61.15,-31.42 22.87,-9.67 47.28,-17.99 73.11,-24.86 26.25,-6.98 53.26,-12.23 81.01,-15.62 28,-3.44 56.95,-5.17 86.72,-5.17 54.48,0 104.96,8.49 151.42,25.45 21.97,8 43.33,17.19 64.16,27.6 20.67,10.17 40.11,21.44 58.3,33.55l1.01 0.88c22.72,16.35 43.94,35.63 63.62,57.74 19.41,21.82 37.7,46.75 54.74,74.75 17.3,28.36 30.74,56.62 40.33,84.7 9.75,28.61 15.58,57.2 17.41,85.7l0 1.43c0.86,36.71 -1.34,72.55 -6.68,107.44 -5.33,35.09 -13.92,70.12 -25.65,104.9 -12.27,36.38 -29.09,68.61 -50.41,96.55 -9.5,12.47 -19.85,24.08 -31.07,34.82 7.13,5.05 13.78,10.37 19.9,15.94 20.49,18.66 35.27,40.2 44.24,64.54 7.78,21.02 13.18,42.02 16.19,62.92 3.01,20.79 3.58,41.7 1.69,62.6 -1.73,21.47 -6.24,42.16 -13.3,61.9 -6.84,19.55 -16.47,37.91 -28.68,54.99 -11.61,16.3 -24.67,31.18 -39.03,44.61 -14.39,13.46 -30.11,25.48 -47.05,36 -16.37,10.18 -33.63,19.24 -51.67,27.14 -17.77,7.76 -36.29,14.36 -55.47,19.69 -19.18,5.35 -37.89,9.36 -56.08,11.98 -18.85,2.73 -37.17,4.09 -54.83,4.09l-1.16 -0.16c-26.28,-0.87 -50.99,-3.27 -74.03,-7.13 -23.8,-3.99 -46.18,-9.58 -67.01,-16.67 -20.41,-6.96 -39.74,-15.09 -57.89,-24.41 -18.52,-9.46 -35.17,-19.84 -49.94,-31.02 -15.06,-11.38 -28.7,-23.9 -40.85,-37.5 -12.33,-13.8 -22.79,-28.28 -31.27,-43.35 -8.76,-15.58 -15.42,-31.91 -19.9,-48.87 -3.97,-15.04 -6.2,-30.29 -6.68,-45.73 -18.02,11.51 -53.4,36.32 -70.69,44.71 -42.93,26.09 -84.25,50.47 -123.84,73.02 -42.52,24.24 -83.05,46.6 -121.49,66.99 -42.19,22.3 -83.67,39.13 -124.45,50.4 -41.65,11.52 -82.3,17.29 -121.89,17.29 -59.66,0.66 -110.9,-5.04 -153.53,-17.29 -45.78,-13.14 -82.55,-33.84 -110.3,-62.06 -69.31,-70.49 -91.01,-187.38 -66.64,-281.47 17.07,-65.59 68.69,-122.56 129.29,-151.9z"/>
   <path class="fil2" d="M9067.31 2504.1l-6.97 -8.25c-22.37,-27.09 -43.79,-59.39 -64.16,-96.75l-0.11 -0.25c-58.89,-110.21 -68.03,-234.55 -76.25,-346.83 -6.68,-91.09 -12.78,-173.71 -44.66,-226.11l-9.48 -11.16c-10.7,-12.57 -23.22,-22.01 -37.51,-28.22 -14.58,-6.35 -31.61,-9.53 -51.04,-9.53 -25.26,0 -46.61,5.23 -63.98,15.63 -17.26,10.35 -31.51,26.39 -42.65,48 -25.75,49.99 -38.06,121.09 -38.47,193.5 -0.41,76.8 12.45,154.05 36.76,208.75l0.59 1.2c6.65,16.98 14.62,33.44 23.86,49.26 9.33,16 19.68,30.99 31.02,44.87 11.61,14.25 24.25,27.89 37.84,40.94 13.53,12.94 27.71,25 42.47,36.12 40.85,28.7 91.22,51.17 151.04,67.25 30.55,8.22 59.68,14.39 87.24,18.47l24.46 3.11zm458.5 -631.03l-9.77 -15.41c-18.4,-29.02 -39.99,-50.6 -64.68,-64.66 -24.45,-13.92 -52.71,-20.88 -84.71,-20.88 -68.42,0 -122.34,30.18 -161.67,90.51 -6.84,11.78 -13.12,25.06 -18.73,39.74 -5.8,15.18 -10.79,31.65 -14.93,49.31 -13.99,59.88 -16.07,119.89 -7.55,178.4 8.16,56.06 26.1,110.96 52.65,163.35l5.5 8.45c11.39,17.46 23.43,34.69 36.06,51.58 12.5,16.75 24.85,32.16 36.93,46.13 11.58,13.39 23.82,25.14 36.58,35.2 8.25,6.47 16.72,12.2 25.34,17.17 9.89,-5.63 19.55,-11.86 28.88,-18.68 13.24,-9.67 26.44,-21.07 39.52,-34.15 26,-26 49.73,-56.58 71.07,-91.66 40.96,-66.94 65.73,-150.76 69.1,-234.63 2.82,-70.17 -9.39,-140.15 -39.59,-199.77zm527.34 650.3c-65.95,64.26 -141.79,112.84 -227.72,145.31 -85.5,32.29 -180.7,48.63 -285.82,48.63 -16.44,0 -33.99,-0.67 -52.62,-1.96 -17.5,-1.21 -36.25,-3.15 -56.09,-5.72 -20.57,-2.68 -39.05,-6.45 -55.38,-11.31 -12.19,-3.68 -23.4,-7.89 -33.57,-12.7l-22.73 7.19c-9.62,2.94 -20.17,5.89 -31.34,8.79l-28.24 6.91c-9.16,2.12 -18.27,4.04 -27.28,5.75 -9.14,1.75 -18.71,3.22 -28.59,4.34 -9.25,1.05 -19.09,1.8 -29.44,2.24l-30.99 0.93 -34.9 0.41c-203.96,0 -372.21,-56.06 -504.66,-168.12 -116.6,-99.97 -191.79,-261.54 -212.95,-427.06 -20.54,-161.03 9.8,-326.87 102.65,-444.95 35.77,-45.48 77.49,-79.77 125.04,-102.76 47.51,-22.98 100.42,-34.5 158.61,-34.5 38.72,0 73.71,3.65 104.94,10.89 32.33,7.5 60.53,18.92 84.52,34.13 23.89,15.15 45.71,35.27 65.45,60.26 9.76,12.36 18.96,25.88 27.6,40.57 4.89,-5.93 9.91,-11.75 15.07,-17.45 16.77,-18.56 34.53,-35.5 53.19,-50.77l2.29 -1.69c37.39,-25.22 77.87,-44.24 121.34,-56.95 43.2,-12.65 88.91,-18.99 137.05,-18.99 119.85,0 221.92,49.99 306.08,149.94 72.35,86.05 110.16,192.22 120.44,302.28 11.3,120.98 -10.88,246.9 -57.16,355.59l-0.96 2.17c-11.11,21.35 -23.65,41.93 -37.51,61.66 -13.52,19.21 -28.63,37.85 -45.26,55.79 -9.68,10.46 -19.84,20.53 -30.46,30.22 37.49,-8.38 72.8,-20.62 105.88,-36.74 44.56,-21.72 85.07,-50.39 121.46,-86.01 32.44,-32.54 60.2,-73.6 81.66,-119.29 21.94,-46.78 37.44,-98.5 44.75,-150.98 4.1,-29.55 5.64,-119.13 4.35,-230.18 -1.19,-102.07 -4.9,-222.35 -11.28,-331.43l242.53 -101.5 1.36 98.49c4.95,107.21 8.17,225.94 9.67,327.88 1.72,115.79 1.26,209.43 -1.27,240.28 -6.4,77.69 -26.27,153.96 -58.79,224.46 -31.72,68.72 -75.61,132.06 -130.92,185.95z"/>
   <path class="fil1" d="M11883.34 1495.25c0,-15.67 -1.63,-28.5 -4.83,-38.42 -2.57,-7.97 -6.1,-14 -10.51,-17.99 -5.65,-5.12 -11.71,-9.01 -18.08,-11.58 -5.7,-2.32 -11.92,-3.49 -18.57,-3.49 -8.69,0 -16.71,1.36 -23.99,4.05 -7.71,2.92 -15.04,7.28 -22.01,13.1 -6.14,5 -10.65,10.88 -13.61,17.52 -3.02,6.8 -4.54,15.04 -4.54,24.62 0,22.21 5.47,40.25 16.38,54.03 4.53,5.72 9.98,10.04 16.28,12.89 6.68,3.02 14.78,4.55 24.18,4.55 9.83,0 18.38,-1.49 25.58,-4.41 6.63,-2.69 12.49,-6.8 17.44,-12.26 5.61,-6.17 9.76,-12.69 12.36,-19.48 2.61,-6.78 3.92,-14.51 3.92,-23.13zm464.46 1197.7l-215.99 0 0 -1234.25c0,-15.61 -4.26,-30.76 -12.78,-45.39 -4.88,-8.24 -10.21,-15.62 -15.98,-22 -6.03,-6.68 -13.01,-12.96 -20.83,-18.74 -6.15,-4.62 -12.97,-9.03 -20.4,-13.21l6.38 11.56c20.18,39 30.3,83.71 30.3,134.07 0,34.62 -6.01,67.32 -18.01,97.99 -11.92,30.53 -29.76,58.8 -53.4,84.72 -24.25,26.59 -53.02,46.58 -86.22,59.91 -32.63,13.09 -69.14,19.65 -109.52,19.65 -92.06,0 -162.34,-27.47 -210.7,-82.34 -23.75,-26.95 -41.64,-58.25 -53.55,-93.74 -11.64,-34.8 -17.5,-73.3 -17.5,-115.43 0,-52.96 9.88,-101.43 29.55,-145.29 19.74,-43.98 49.22,-82.9 88.36,-116.7 39.2,-33.87 87.92,-58.75 146.02,-74.6 56.48,-15.4 121.93,-22.24 196.25,-20.56l2.53 0.12c114.78,12.17 204.47,52.74 268.99,121.69 32.84,35.11 57.37,77.29 73.55,126.44 15.84,48.35 23.79,103.32 23.79,164.93l0 1161.17 -30.84 0z"/>
   <path class="fil1" d="M13777.75 2452.13l0 -420.95c0,-34.82 -4.53,-66.99 -13.54,-96.44 -8.95,-29.31 -22.47,-56.62 -40.42,-81.92 -14.97,-21.09 -39.33,-37.3 -73.01,-48.53 -37.31,-12.43 -85.78,-18.69 -145.39,-18.69 -86.68,0 -150.59,20.04 -191.67,60.1 -40.79,39.76 -61.2,101.61 -61.2,185.48l0 420.95 525.23 0zm222.16 246.99l-1447.56 0 0 -1143.46 259.18 0 0 896.47 184.25 0 0 -343c0,-87.8 6.75,-165.73 23.41,-234.09 17.19,-70.48 44.92,-130.32 86.52,-179.54 42.26,-50 98.06,-88.67 167.24,-114.52 65.71,-24.57 143.24,-37.49 232.44,-37.49 106.4,0 195.82,15.58 268.62,45.12 77.35,31.38 135.97,78.6 176.29,139.74 16.12,24.47 30.48,50.89 42.4,79.49 11.93,28.61 21.72,59.89 28.73,94.15 6.91,33.69 10.79,68.28 12.91,103.85 2.15,36.28 2.58,71.87 2.58,108.15l0 585.13 -37.01 0z"/>
   <path class="fil2" d="M5145.56 1527.6c166.12,0 305.45,66.64 404.79,174.84 100.8,109.79 158.45,261.5 158.45,427.67 0,129.2 -34.78,249.68 -97.5,348.36 -63.96,100.64 -156.88,178.47 -271.9,220.39l-83.87 -231.34c61.61,-22.43 112.09,-65.24 147.58,-121.11 37.91,-59.64 58.93,-134.4 58.93,-216.3 0,-104.08 -33.8,-196.58 -92.88,-260.92 -53.88,-58.69 -130.75,-94.83 -223.6,-94.83 -92.85,0 -169.72,36.14 -223.59,94.83 -59.08,64.34 -92.88,156.84 -92.88,260.92 0,104.43 27.05,190.21 78.54,246.62 46.06,50.47 116.18,79.81 208.61,79.81l0 246.76c-166.13,0 -297.98,-59.1 -390.78,-160.8 -93.84,-102.82 -143.14,-246.17 -143.14,-412.39 0,-166.17 57.65,-317.88 158.46,-427.67 99.34,-108.2 238.67,-174.84 404.78,-174.84z"/>
   <polygon class="fil1" points="11856.65,2692.95 11131.67,2692.95 11131.67,2463.39 11593.21,2463.39 11593.21,2463.17 11643.12,2463.17 11643.12,1867.96 11887.5,1942.08 11887.5,2692.95 "/>
   <path class="fil1" d="M10926.02 1527.6c166.11,0 305.44,66.64 404.78,174.84 100.81,109.79 158.46,261.5 158.46,427.67 0,129.2 -34.78,249.68 -97.51,348.36 -63.96,100.64 -156.88,178.47 -271.9,220.39l-83.86 -231.34c61.6,-22.43 112.08,-65.24 147.58,-121.11 37.91,-59.64 58.92,-134.4 58.92,-216.3 0,-104.08 -33.8,-196.58 -92.88,-260.92 -53.87,-58.69 -130.74,-94.83 -223.59,-94.83 -92.85,0 -169.72,36.14 -223.6,94.83 -59.08,64.34 -92.88,156.84 -92.88,260.92 0,104.43 27.05,190.21 78.55,246.62 46.05,50.47 116.17,79.81 208.6,79.81l0 246.76c-166.13,0 -297.98,-59.1 -390.77,-160.8 -93.85,-102.82 -143.14,-246.17 -143.14,-412.39 0,-166.17 57.65,-317.88 158.45,-427.67 99.34,-108.2 238.67,-174.84 404.79,-174.84z"/>
   <path class="fil1" d="M14443.21 2692.95l-213.56 0 0 -1129.51c0,-38.01 -2.81,-70.71 -8.41,-98.01 -5.12,-24.95 -12.57,-45.53 -22.27,-61.7 -5.86,-7 -12.16,-13.22 -18.82,-18.7 -7.53,-6.05 -15.68,-11.48 -24.36,-16.15 -7.97,-4.29 -17.22,-7.57 -27.61,-9.76 -11.26,-2.36 -23.97,-3.55 -38.2,-3.55 -19.48,0 -36.62,3.81 -51.38,11.42 -14.86,7.66 -27.99,19.43 -39.27,35.25 -12.29,17.22 -21.53,35.72 -27.63,55.45 -1.34,4.33 -2.53,8.74 -3.58,13.25l-227.97 -74.21c3.36,-9.46 7,-18.8 10.93,-28.03 10.02,-23.55 21.61,-45.53 34.69,-65.78 13.21,-20.49 28.05,-39.41 44.4,-56.65 16.39,-17.3 34.48,-32.79 54.17,-46.43 19.67,-13.64 40.76,-25.34 63.14,-34.97 22.74,-9.81 46.67,-17.17 71.73,-22.05 25.09,-4.84 51.08,-7.29 78.08,-7.29 112.68,0 203.76,36.51 273.21,109.51 34.66,36.44 60.7,79.81 78.01,129.97 17.07,49.11 25.55,104.64 25.55,166.52l0 1151.42 -30.85 0z"/>
  </g>
 </g>
</svg>
