<?xml version="1.0" encoding="UTF-8"?>
<!DOCTYPE svg PUBLIC "-//W3C//DTD SVG 1.1//EN" "http://www.w3.org/Graphics/SVG/1.1/DTD/svg11.dtd">
<!-- Creator: CorelDRAW 2020 (64-Bit) -->
<svg xmlns="http://www.w3.org/2000/svg" xml:space="preserve" width="150mm" height="35mm" version="1.1" style="shape-rendering:geometricPrecision; text-rendering:geometricPrecision; image-rendering:optimizeQuality; fill-rule:evenodd; clip-rule:evenodd"
viewBox="0 0 15000 3500"
 xmlns:xlink="http://www.w3.org/1999/xlink"
 xmlns:xodm="http://www.corel.com/coreldraw/odm/2003">
 <defs>
  <style type="text/css">
   <![CDATA[
    .fil0 {fill:#2B2A29}
    .fil2 {fill:#2B2A29;fill-rule:nonzero}
    .fil1 {fill:#2B2A29;fill-rule:nonzero}
    .fil3 {fill:#009B94;fill-rule:nonzero}
    .fil4 {fill:#005287;fill-rule:nonzero}
   ]]>
  </style>
 </defs>
 <g id="Layer_x0020_1">
  <metadata id="CorelCorpID_0Corel-Layer"/>
  <g id="_2878829643456">
   <g>
    <path class="fil0" d="M952.16 2375.31c-67.28,-41.87 -270.95,36.21 -411.51,-17.29 59.85,107.7 139.06,127.92 275.24,78.53 1.83,-0.65 -5.33,-21.64 -3.48,-22.34 2.86,-1.05 16.11,17.47 19.09,16.47 7.6,-2.51 -8.67,-20.92 -0.2,-24.55 3.45,-1.48 31.36,12.16 34.93,10.54 5.21,-2.32 10.54,-4.81 15.97,-7.35 1.18,-1.79 -10.08,-10.66 37.24,-41.74 4.53,-2.96 6.66,20.88 11.68,18.35 6.9,-3.4 13.91,-6.97 21.04,-10.62zm-70.1 12.51c-46.59,-21.18 -203.66,24.3 -301.03,-2.79 43,66.56 126.41,52.88 301.03,2.79z"/>
    <path class="fil0" d="M3186.89 1204.48c208.62,10.2 249.08,242.48 162.24,275.66 -8.62,-17.67 -8.42,-33.32 -6.01,-48.88 3.5,-22.41 -21.2,-35.47 -46.03,-12.89 6.62,-35.12 19.32,-60.27 8.08,-87.96 -8.72,-21.54 -39.87,-43.2 -59.63,-81.73 64.54,62.16 91.99,77.94 73.09,145.21 28.61,-17.55 36.91,10.78 41.4,32 35.86,-59.71 -13.99,-181.5 -173.14,-221.41z"/>
    <path class="fil0" d="M3240.93 1252.27c-14.3,-6.77 -38.95,12.22 -43.02,23.06 -4.08,10.86 11.24,50.37 -6.49,54.88 -17.75,4.51 -57.84,-1.68 -67.6,10.32 -9.78,12.02 9.56,68.1 9.56,68.1 0,0 -9.76,-47.64 7.61,-62.61 17.37,-14.95 74.47,15.87 75.74,-5.07 -4.09,-17.59 -11.06,-40.91 -5.77,-58.61 3.86,-12.88 16.77,-21.19 29.97,-30.07z"/>
    <path class="fil0" d="M3097.05 1358.62c0,0 0.12,21.5 -16.23,44.54 -25.87,36.51 -92.95,42.36 -129.28,23.91 -62.79,-31.9 -53.01,-56.75 -83.41,-80.77 -16.15,-12.76 -38.27,-21.74 -55.44,-27.35 -28.65,-9.36 -27.53,-20.04 -1.94,-42.16 18.17,-15.7 61.71,-35.48 125.33,-4.32 -76.36,-4.81 -118.64,3.98 -126.57,28.85 8.67,-3.93 60.45,3.75 81.28,33.74 36.37,52.44 46.01,75.14 106.28,79.28 62.51,4.31 99.98,-55.72 99.98,-55.72z"/>
    <path class="fil1" d="M2849.86 1187.93c-75.56,-34.9 -163.22,-89.82 -176.72,-174.42 -4.43,-27.81 1.68,-16.61 16.47,0.59 21,24.42 47.52,42.33 62.13,52.09l-36.87 -41.35c-15.77,-22.49 -29.35,-40.4 -43.22,-76 -11.62,-19.24 -14.9,15.79 -14.74,21.44 1.48,54.19 19.65,101.04 52.01,141.63 35.59,44.69 88.36,81.75 155.14,112.61l-14.2 -36.59z"/>
    <path class="fil0" d="M2943.95 1141.27c0,0 6.87,-5.37 17.73,-7.64 10.88,-2.28 19.66,10.24 29.08,29.68 9.39,19.43 -15.09,-21.42 -28.28,-22.34 -13.16,-0.95 -18.53,0.3 -18.53,0.3z"/>
    <path class="fil0" d="M2974.99 1149.54c0.24,0.84 -2.41,13.95 -13.95,12.26 -7.55,-1.08 -13.96,-12.16 -7.93,-17.67l5.47 -5.01 9.43 0.84c0,0 6.76,8.76 6.98,9.58z"/>
    <path class="fil0" d="M1588.2 1204.48c-208.64,10.2 -249.07,242.48 -162.25,275.66 8.63,-17.67 8.41,-33.32 6.01,-48.88 -3.49,-22.41 21.2,-35.47 46,-12.89 -6.59,-35.12 -19.29,-60.27 -8.05,-87.96 8.73,-21.54 39.87,-43.2 59.62,-81.73 -64.53,62.16 -91.98,77.94 -73.09,145.21 -28.61,-17.55 -36.91,10.78 -41.41,32 -35.85,-59.71 14,-181.5 173.17,-221.41z"/>
    <path class="fil0" d="M1534.14 1252.27c14.31,-6.77 38.95,12.22 43.04,23.06 4.07,10.86 -11.26,50.37 6.47,54.88 17.78,4.51 57.85,-1.68 67.63,10.32 9.77,12.02 -9.58,68.1 -9.58,68.1 0,0 9.76,-47.64 -7.6,-62.61 -17.39,-14.95 -74.49,15.87 -75.75,-5.07 4.08,-17.59 11.1,-40.91 5.77,-58.61 -3.87,-12.88 -16.77,-21.19 -29.98,-30.07z"/>
    <path class="fil0" d="M1678 1358.62c0,0 -0.12,21.5 16.25,44.54 25.87,36.51 92.97,42.36 129.26,23.91 62.81,-31.9 53.02,-56.75 83.45,-80.77 16.15,-12.76 38.25,-21.74 55.42,-27.35 28.65,-9.36 27.55,-20.04 1.97,-42.16 -18.2,-15.7 -61.76,-35.48 -125.37,-4.32 76.38,-4.81 118.63,3.98 126.59,28.85 -8.68,-3.93 -60.45,3.75 -81.29,33.74 -36.37,52.44 -46.02,75.14 -106.27,79.28 -62.52,4.31 -100.01,-55.72 -100.01,-55.72z"/>
    <path class="fil1" d="M1925.21 1187.93c75.58,-34.9 163.22,-89.82 176.73,-174.42 4.42,-27.81 -1.69,-16.61 -16.47,0.59 -21,24.42 -47.51,42.33 -62.14,52.09l36.87 -41.35c15.79,-22.49 29.35,-40.4 43.22,-76 11.62,-19.24 14.91,15.79 14.75,21.44 -1.51,54.19 -19.66,101.04 -52,141.63 -35.58,44.69 -88.38,81.75 -155.14,112.61l14.18 -36.59z"/>
    <path class="fil0" d="M1831.12 1141.27c0,0 -6.87,-5.37 -17.75,-7.64 -10.84,-2.28 -19.63,10.24 -29.05,29.68 -9.4,19.43 15.09,-21.42 28.27,-22.34 13.16,-0.95 18.53,0.3 18.53,0.3z"/>
    <path class="fil0" d="M1800.09 1149.54c-0.24,0.84 2.4,13.95 13.94,12.26 7.56,-1.08 13.97,-12.16 7.94,-17.67l-5.47 -5.01 -9.44 0.84c0,0 -6.73,8.76 -6.97,9.58z"/>
    <path class="fil0" d="M2179.66 761.15l7.83 0 72.86 87.54c-40.92,6.12 -72.52,41.08 -72.52,82.94l0 0c0,37.04 24.77,68.68 58.83,79.68 0.54,0.2 7.95,0.34 8.5,0.52l-59.71 70.27 -15.79 0 0 -320.95zm75.92 0l261.75 0 -71.97 86.6 -35.16 0 0 -0.56 -1.14 0 -45.19 0 -1.14 0 0 0.56 -35.18 0 -71.97 -86.6zm329.84 0l7.83 0 0 320.95 -15.79 0 -59.71 -70.27c0.57,-0.18 7.96,-0.32 8.5,-0.52 34.06,-11 58.83,-42.64 58.83,-79.68l0 0c0,-41.86 -31.6,-76.82 -72.52,-82.94l72.86 -87.54zm-76.04 320.95l-99.18 0 0 -20.46 0 -19.79 0 -146.05 79 0c23.4,0 42.58,14.73 42.58,35.83l0 0c0,21.09 -19.18,38.35 -42.58,38.35l-74.85 0 20.29 23.96 74.74 88.16zm-146.65 0l-99.2 0 74.74 -88.16 20.31 -23.96 -74.87 0c-23.42,0 -42.58,-17.26 -42.58,-38.35l0 0c0,-21.1 19.16,-35.83 42.58,-35.83l79.02 0 0 146.05 0 19.79 0 20.46z"/>
    <path class="fil1" d="M2507.03 668.49c2.07,-30.88 37.69,-83.44 76.5,-87.6 14.93,-11.93 78.47,-0.56 97.7,17.03 32.28,24.94 51.58,84.91 68.09,135.36 18.09,55.36 41.83,122.71 84.05,179.15 48.11,37.05 80.95,-26.99 100.76,54.86 4.47,10.9 1.61,30.84 8.18,34.64 6.55,3.79 22.54,-8.51 39.79,-6.95 45.42,-15.07 54.08,16.79 61.49,28.75 5.01,8.08 -1.46,23.81 7.4,28.92 19.51,11.24 53.31,8.03 73.17,7.13 18.93,-0.92 64.3,3.51 85.21,42.42 11.16,20.73 13.05,45.7 6.26,66.46 -6.04,18.31 -48.61,48.97 -70.61,54.94 -16.03,6.73 11.88,9.05 19.09,6.35 9.1,-3.41 21.56,-9.22 31.98,-13.77 32.3,-14.06 68.82,3.99 104.97,1.27 98.66,5 234.37,13.44 356.81,58.22 121.1,44.26 247.15,125.57 324.33,280.87 9.74,19.58 31.16,70.95 35.23,128.94 -23.75,-38.49 -52.96,-64.46 -90.37,-88.76 36.87,32.68 77.08,95.43 97.74,144.56 16.95,40.21 24.74,106.07 0.74,153.26 -3.67,63.8 22.42,92.95 33.64,155.58 0,0.06 -12.06,27.33 -8.49,64.04 4.3,44.32 29.11,100.66 26.28,116.39 55.46,-81.11 61.74,-80.53 30.14,-174.02 -4.59,-13.54 -49.69,-60.13 -43.42,-169.24 1.68,-29.54 3.39,-59.09 3.55,-89.47l0 -0.08 0 -7.89 0 -0.08c-0.2,-46.33 -5.99,-85.34 -16.91,-123.17 -10.9,-37.7 -26.71,-73.87 -47.05,-114.75 -82.37,-165.8 -206.68,-253.28 -336.19,-300.62 -128.16,-46.87 -260.2,-53.9 -361.42,-59.09 -41.44,-2.08 -50.85,-53.44 -65.38,-80.47 -32.62,-60.61 -75.14,-77.02 -109.12,-75.43 -27.49,1.28 -52.41,1.04 -67.76,-23.75 -9.04,-16.29 -17.07,-32.5 -46.11,-37.31 -22.8,-3.8 -46.72,11.08 -55.98,-13.56 -6.81,-18.13 -14.78,-39.41 -43.22,-52.5 -13.34,-6.11 -25.46,-9.09 -36.82,-11.9 -13.83,-3.36 -26.19,-6.41 -33.75,-15 -41.65,-47.43 -60.33,-104.54 -77.26,-156.31 -18.47,-56.46 -35.08,-107.15 -76.7,-139.31 -15.36,-11.88 -33.62,-19.96 -52.85,-23.95 -22.22,-4.54 -45.83,-3.58 -67.83,3.51 -22.28,7.15 -42.91,20.48 -58.94,40.51 -12.67,15.83 -22.38,35.83 -27.55,60.19l-2.79 20.36c-1.82,13.24 0.66,15.39 11.02,7.71 17.41,-12.88 28.99,-4.04 43.22,-16.06 13.22,10.71 12.88,37.88 31.16,28.69 5.93,-3.01 -8.74,-12.47 0.16,-29.5 17.61,-33.66 56.62,-28.83 65.24,-3.52 13.24,38.87 17.33,129.25 27.77,192.87 6.39,38.79 12.14,73.95 18.25,97.36l0 0.08 0.04 0.1c24.81,94.43 93.19,107.97 143.74,153.66 28.71,25.9 16.59,59.48 23.32,91.84 5.13,24.77 44.43,62.1 105,68.87 4.6,-1.8 -49.47,-31.02 -70.13,-55.34 -15.07,-17.75 -17.11,-40.02 -16.77,-47.53l0 -0.08c1.3,-27.61 -1.4,-45.58 -25.67,-67.5 -33.42,-30.18 -101.5,-68.57 -122.64,-103.19 -45.1,-73.77 -39.21,-185.64 -54.36,-269.81 -8.44,-46.77 -20,-83.27 -42.52,-93.09 -49.37,-21.54 -82.75,39.35 -113.41,25.71z"/>
    <path class="fil1" d="M4025.22 1890.73c-21.76,49.55 -38.55,137.25 -28.19,177.65 10.2,39.69 25.79,76.96 42.86,117.37l-0.02 0 0.08 0.18 0.08 0.08c7.59,18.09 10.44,38.59 11.12,58.53 0.26,7.83 1.94,19.55 -19.2,22.46 -0.14,4.59 19.54,9.69 20.44,14.18 3.2,15.97 11.66,31.08 15.15,44.34l2.28 8.56c6.35,23.04 -18.73,23.98 -24.82,23.78l-91.87 -7.63c-1.7,6.81 -50.23,14.22 -40.94,-18.7 4.05,-14.4 18.96,-31.19 40.1,-23.14 2.38,-11.02 -53.38,-19.53 -54.32,35.83 -0.16,10.42 -32.58,9.19 -32.56,-1.71 5.99,-39.85 16.79,-50.43 40.35,-40.73 1.89,-3.47 -8.51,-13.72 -7.13,-17.01 2.76,-6.55 17.13,-6.79 18.99,-14.19 -42.29,-36.68 10.2,-42.79 5.49,-54.32 -23.58,-57.58 -44.16,-94.77 -83.67,-133.82 -18.19,-17.91 -41.05,-39.13 -55.72,-63.73 -10.74,-18.06 -18.81,-40.84 -26.37,-90.67 -18.47,-57.4 -72.07,-228.24 -134.06,-248.07 7.53,8.77 16.95,23.76 26.43,41.37 4.52,8.42 9.07,17.48 13.42,26.73 18.85,40.1 33.98,84.22 28.65,100.37 -3.92,12.02 -10.64,28.91 -9.07,40.13 0.58,4.33 -9.84,18.11 -6.24,15.33 26.49,-20.26 56.63,17.71 56.33,38.29 5.93,87.52 12.5,63.95 96.67,152.85 18.6,19.6 27.49,42.26 39.9,64.04 12.74,22.3 16.99,54.98 13.42,84.47 -0.76,6.26 -1.86,12.25 -3.27,17.84 -1.36,5.43 -3.06,10.64 -5.09,15.45 -1.12,2.62 -2.22,4.92 -3.24,6.83l-3.43 6.29 -0.04 -0.02c-10.3,18.87 -17.73,32.48 -18.19,45.4 -0.9,24.65 14.31,35.23 57.99,36.77l141.35 5.07c35.67,1.26 47.13,-5.99 47.97,-28.69 0.28,-7.7 -1.76,-15.17 -4.55,-25.17 -1.28,-4.67 -1.78,-6.27 -2.26,-8.11 -3.09,-11.71 -12.45,-28.44 -11.88,-46.59 1.56,-50.73 -12.51,-92.53 -28.92,-134.54 -23.94,-61.38 -47.94,-113.87 -24.02,-243.35z"/>
    <path class="fil1" d="M3632.48 1990.57c-15.54,53.32 -41.79,128.58 -21.35,167.71 10.98,22.26 30.21,29.41 22.14,55.52l-0.02 -0.02c-8.18,16.87 -59.49,87.58 -37.01,101.61l-0.02 0.04c3.46,2.14 7.39,3.28 11.8,3.36 69.01,1.26 296.14,51.3 184.52,-84.81 -29.26,-46.79 15.34,-94.72 45.8,-127.7l-21.78 -23.56c-27.57,39.67 -70.99,98.2 -48.15,148.55 1.91,4.25 -14.4,5.41 -11.56,10 1.28,1.98 21.22,7.39 22.42,9.64 41.66,76.28 -67.38,52.53 -111.52,52.29 15.31,-14.46 13.78,-28.93 -0.2,-43.38 7.35,35.35 -27.77,49.49 -61.47,44.55 -12.93,-31.26 52.99,-53.52 62.73,-74.26 0,-0.02 -4.59,-33.9 -1.64,-34.76 58.38,-17.11 -5.05,-14.89 -13.19,-18.38 -65.28,-27.77 -5.73,-155.38 18.62,-192.77l-3.75 -2.4c-11.48,3.82 -24.02,10.22 -36.37,8.77z"/>
    <path class="fil1" d="M3738.28 1966.41c-58.31,13.34 -143.24,29.71 -212.79,1.18 -70.23,-28.81 -105.09,-53.03 -196.5,-118.49 -2.18,-1.57 -27.35,-25.11 -29.61,-26.73l-12.81 25.02c103.21,72.15 154.83,101.79 229.8,132.54 77.34,31.72 166.89,26.27 233.81,10.98l-11.9 -24.5z"/>
    <path class="fil0" d="M3693.94 1807.62c-16.63,169.43 -190.13,107.92 -319.21,45.12 70.77,62.34 272.36,131.06 341.65,12.65 0,0 -23.93,-59.23 -22.44,-57.77z"/>
    <path class="fil1" d="M3779.11 1374.19c-104.17,-52.69 -204.85,-86.1 -321.08,-129.53 91.62,13.44 230.72,57.6 335.63,123.08 74.13,46.3 152.15,132 182.35,214.15 -50.33,-49.17 -89.4,-153.3 -196.9,-207.7z"/>
    <path class="fil1" d="M3085.51 1472.09c-0.26,13.14 -33.86,132.72 -33.88,145.62 -0.26,125.11 10.46,241.1 43.4,358.62 3,10.82 14.58,52.31 22.32,92.69 10.92,57.02 11.5,100.96 -0.18,127.83 -28.32,22.16 -45.93,38.25 -48.13,57.64 -2.29,20.44 -4.39,30.06 6.35,35.27l1.34 -2.35 212.65 0c-1.78,4.07 -3.61,8.12 -5.43,12.15 14.19,-1.03 23.86,-3.89 25.73,-10.48 0.04,-0.18 7.85,-31.28 -9.66,-60.83 -15.91,-48.53 -17.27,-109 -10.38,-179.05 5.33,-54.48 6.13,-125.29 -2.28,-168.87 14.98,-9.75 36.46,-63.21 14.26,-162.33 -10.62,-47.45 0.36,-94.47 -1.7,-112.77 -15.29,35.81 -20.94,100 -12.46,158.33 4.4,30.38 4.6,51.17 -7.98,81.35 -23.84,34.84 -62.19,9.5 -58.89,-49.87 -21.84,82.49 33.16,89.3 49.98,90.8 8.35,43.16 2.94,177.31 -4.25,233.41 -1.28,15.21 -3.71,28.79 -4.85,42.34 -1.86,22.46 -23.95,30.61 -23.7,34.04 0.42,6.11 24.22,3.62 25.86,10.22 10.56,10.27 13.05,21.39 19.46,33.86 9.58,16.19 2.02,32 -4.75,38.99 -11.5,11.88 -83.15,4.95 -99.52,2.32 -67.69,-1.56 -42.94,-49.51 -22.82,-65 -16.49,4.43 -56.61,30.76 -30.32,61.12 -30.63,7.61 -38.67,2.32 -42.58,-8.04 10.86,-58 46.53,-41.75 56.19,-53.84 6.15,-7.73 8.87,-24.5 9.07,-46.38 0.2,-23.16 20.44,-27.49 14.67,-30.02 -16.15,-7.07 -17.29,-19.59 -17.97,-25.86 -3.73,-33.84 -10.26,-71.01 -17.78,-103.99 -3.38,-14.89 -6.93,-29 -10.41,-41.48 -3.59,-12.8 -7.1,-23.86 -10.34,-32.44l-0.08 -0.24 -0.04 -0.06c-20.64,-54.92 -35.31,-241.1 -27.75,-317.3l6.85 -145.4zm20.9 462.7l0 0 0 0z"/>
    <path class="fil1" d="M3007.07 1487.6c-64.34,93.65 -124.99,199.84 -205.08,276.1 -39.63,37.77 -99.52,93.45 -107.57,129.14l-0.02 0.14 -0.08 0.08c-3.81,17.13 -3.25,42.67 -2.67,68.6 0.68,30.68 1.4,60.27 -0.5,69.51l-3.89 0.36 -0.08 0.14c-2.82,3.87 -5.27,7.89 -7.39,11.96 -2.08,3.99 -3.89,8.02 -5.39,11.96 -24.45,63.78 18.25,55.82 56.1,57.67 21.26,1.06 47.47,2.68 68.55,2.68 41.59,0 76.82,2.23 79.64,-14.46l0 -0.2 1.82 -4.45c6.84,-33.58 -13.5,-48.69 -24.62,-66.94 -4.47,-20.88 2.58,-59.87 10.16,-68.49l0.06 -0.08 0.06 -0.02 -0.02 0c1.16,-1.32 -0.24,-8.82 2.78,-11.66 30.58,-28.89 68.43,-65.36 101.89,-93.31 15.17,-12.62 38.71,-32.1 52.84,-34.8 13.92,-2.69 29.55,-4.05 49,3.46l12.49 -13.76c-26.73,-10.3 -49.31,-13.11 -70.83,-8.96 -21.34,4.11 -40.5,14.87 -60.69,31.74 -28.75,23.96 -58.45,61.55 -83.55,83.97 -4.71,4.19 -19,11.7 -22.93,15.43 -3.82,3.59 -8.67,0.42 -10.72,2.74l-0.08 0.08 -0.02 0.05 0 0c-8.33,9.57 4.77,33.34 3.21,52.89 -1.88,23.24 3.59,24.01 -10.52,51.29 18.33,8.9 36.27,18.54 31.02,44.37 -6.65,32.86 -88.14,16.45 -107.02,16.45 -28.71,10.63 -4.69,-20.8 -18.87,-30.06 -9.36,40.31 -33.96,21.96 -41.38,21.38 -25.64,-12.6 -1.56,-51.03 37.11,-57.06 -24.4,-20.24 -14.15,-38.94 0.92,-46.25 -24.24,-3.67 -24.22,-83.93 -1.88,-112.04 39.23,-49.35 58.41,-72.96 92.47,-105.39 11.24,-10.7 44.88,-55.59 58.1,-58.33 22.06,-4.59 23.51,42.72 28.78,15.13 4.28,-22.34 -5.45,-34.77 3,-56.79 21.58,-56.24 70.63,-119.87 100,-162.83l-4.2 -21.44z"/>
    <path class="fil0" d="M2939.22 1421.4c0,0 59.41,22.04 65.68,73.31 6.29,51.27 58.61,136.59 58.61,136.59 15.99,-69.45 -45.85,-91.53 -42.38,-138.33 1.62,-21.94 -14.87,-47.23 -26.15,-57.49l-55.76 -14.08z"/>
    <path class="fil0" d="M3079.32 1310.19c5.39,33.13 30.95,66.69 19.67,97.16 -30.75,82.99 -6.19,94.83 -13.12,140.98 -9.56,63.49 -11.54,92.41 42.6,50.09 29.29,-22.9 40.79,-66.32 109.76,-77.18 130.21,-20.5 140.39,-72.19 140.09,-72.47l-22.88 -19.5c-0.26,11.24 -5.63,-7.17 -8.68,1.02 -11.56,30.9 -40.23,42.68 -65.32,55.68 -56.58,29.46 -104.47,30.18 -174.51,99.25 -10.4,-41.96 -5.43,-90.93 7.63,-159.25 7.57,-39.88 -20.44,-68.13 -35.24,-115.78z"/>
    <path class="fil0" d="M2994.64 2175.85c-195.47,-149.99 -394.6,-69.57 -547.55,117.92 -6.22,7.61 -2.85,12.56 -8.94,20.55 158.31,-186.14 372.86,-286.62 558.02,-117.77 52.21,47.61 93.41,35.86 140.45,50.31 -66.36,-52.07 -93.81,-34.08 -141.98,-71.01z"/>
    <path class="fil0" d="M3137.98 2229.45c-45.64,-14.91 -82.87,69.43 -146.42,24.36 16.71,40.18 15.51,69.81 -0.04,107.72 -0.66,1.58 -22.28,-163.76 -163.3,-201.97 -141.7,-38.37 -272.4,31.28 -382.4,161.54 -5.35,6.31 -2.42,10.17 -7.67,16.79 117.01,-133.11 254.94,-204.82 401.09,-148.69 95.81,36.8 127.95,115.83 143.24,203.83 3.89,22.44 50.57,-51.58 26.77,-114.05 81.79,15.95 121.48,-47.13 128.73,-49.53z"/>
    <path class="fil0" d="M2448.05 2363.65c44.54,-59.69 148.35,-136.41 227.97,-150.73 69.43,-12.48 132.14,17.01 140.58,105.23 23.3,-12.66 35.82,7.41 61.27,-18.99 4.99,21.84 16.79,36.5 32.44,53.35 2.18,1.87 4.49,3.87 6.91,6.03l22.36 21.56c23.26,-40.49 25.27,-83.91 -20.84,-141.21 24.57,49.17 31.72,87.94 12.93,102.52 -23.34,-4.93 -39.81,-32.38 -51.64,-65.52 -14.68,25.37 -34.76,15.85 -53.75,23.27 -13.13,-85.92 -81.87,-110.53 -151.58,-97.94 -74.78,13.48 -194.77,93.85 -224.49,156.08 0,0 1.06,7.42 -2.16,6.35z"/>
    <path class="fil1" d="M2487.28 2361.99c1.78,1.04 84.27,-26.31 151.84,-26.41 52.33,-0.06 47.86,43.46 103.44,54.62 17.84,3.61 40.64,4.67 57.29,-3.6 26.89,-13.31 33.12,-44.09 -0.76,-55.25 -22.74,-7.47 -37.83,7.9 -38.21,31.92 -22.26,-2.92 -17.96,-61.69 37.71,-52.15 30.09,8.23 39.79,34.86 32.39,57.68 -12.98,12.14 -26.46,23.81 -40.43,34.89 -15.19,3.18 -32.88,1.72 -47.59,-1.31 -49.83,-10.27 -52.59,-46.08 -104.47,-50.11 -46.28,-3.6 -99.08,6.82 -127.85,13.61 -9.98,2.36 10.82,10.68 -11.6,-0.6l-11.76 -3.29z"/>
    <path class="fil0" d="M2471.59 2351.49c49.35,-38.93 102.77,-77.16 171.63,-78.9 34.2,-0.86 83.8,3.38 104.75,64.07 2.19,6.3 5.69,14.47 11.04,22.3 4.09,5.96 10.68,10.82 15.03,9.56 -18.71,10.06 -25.45,-2.32 -29.65,-12.76 -21.88,-53.94 -51.16,-71.55 -101.85,-70.89 -68.46,0.86 -124,35.52 -170.23,77.7l-0.72 -11.08z"/>
    <path class="fil0" d="M2679.79 2360.57c25.15,25.6 25.35,60.11 12.98,79.22 -21.56,33.26 -77.48,30.76 -79.46,-7.47 -5.61,-33.04 47.28,-52.56 54.02,-10.26 3.38,-19.01 -9.28,-34.08 -25.61,-37.63 -37.61,-8.17 -58.77,28.45 -45.44,60.35 18.17,43.52 73.79,39.85 97.37,17.89 26.29,-24.44 28.86,-70.26 -13.86,-102.1z"/>
    <path class="fil0" d="M2441.27 2431.46c-5.34,1.04 -11.36,-4.17 -11.54,-6.29 -5.55,-56.13 22.97,-201.87 77.95,-225.58 -29.74,-19.27 -47.35,-3.94 -63.46,14.41 -19.46,22.18 -29.81,113.11 -33.68,116.15 0,-6.57 14.93,-78.56 10.48,-130.96 -1.79,-21.03 -17.01,-45.18 -33.48,-57.86l0 -12.62c29.25,18.31 47.1,39.19 47.1,69.08 28.9,-19.83 51.08,-29.45 96.98,-3.32 -58.03,31.61 -109.24,181.33 -90.35,236.99z"/>
    <path class="fil0" d="M3920.31 2587.54c-245.03,163.28 -494.6,75.72 -686.31,-128.39 -7.82,-8.3 -3.55,-13.69 -11.2,-22.38 198.42,202.67 464.14,308.88 696.19,125.06 65.44,-51.83 113.04,-25.62 151.95,15.53 -62.29,-18.33 -90.3,-30.05 -150.63,10.18z"/>
    <path class="fil0" d="M4068.64 2576.16c-13.09,-53.06 -30.8,-109.18 -130.5,-78.38 20.92,-40.14 17.67,-43.88 25.09,-86.66 0.14,-0.92 -27.93,39.91 -84.92,87.92 -41.59,35.04 -98.08,77.26 -172.57,93.45 -149.51,32.48 -315.14,-24.91 -449.06,-140.58 -12.7,-10.98 -24.77,-22.26 -36.57,-33.68 1.17,-1.84 2.35,-3.7 3.53,-5.57 12.36,11.84 25.11,23.51 38.87,34.67 138.21,112.2 299.09,174.49 465.99,123.38 50.65,-15.53 98.48,-48.59 136.03,-84.31 51.43,-48.99 88.46,-100.77 131.26,-98.92 -19.66,46.54 -9.14,49.35 -26.49,86.33 102.52,-15.97 109.5,74.66 99.34,102.35z"/>
    <path class="fil0" d="M3951.89 2413.34c-11.04,-17.15 -47.05,15.13 -66.22,21.58 19.23,-40.15 -11.67,-49.09 -36.05,-54.78 -2.08,-0.46 -21.36,115.51 -183.69,153.86 -140.88,33.3 -297.35,-33.54 -422.03,-155.52 1.1,-1.96 2.18,-3.93 3.28,-5.91 129.7,118.92 282.72,189.26 440.73,136.61 110.38,-36.77 143.74,-110.28 158.52,-152.88 22.56,2.2 66.48,25.01 50.56,61.99 36.36,-30.59 77.12,-32.74 89.82,-28.29l-34.92 23.34z"/>
    <path class="fil0" d="M3267.66 2334.36c45.82,20.8 116.17,35.1 165.86,26.07 65.92,-12.02 108.32,-60.89 96.04,-110.08 17.05,0.22 60.83,7.77 54.5,67.38 -3.69,-23.86 -18.26,-52.2 -40.26,-51.79 11.42,42.87 -35.02,91.62 -113.82,104.47 -49.47,8.05 -117.52,-4.85 -163.24,-28.14 -1.18,-0.48 -1.99,-1.02 -2.55,-1.56 1.07,-2.12 2.17,-4.25 3.25,-6.41 0.08,0.02 0.16,0.04 0.22,0.06z"/>
    <path class="fil0" d="M3302.34 2422.88c23.97,14.61 59.95,34.88 88.28,44.42 71.39,23.99 164.86,7.24 202.93,0.08 15.15,-2.84 34.33,12.24 41.4,26.31 14.73,-2.7 37.93,-43.18 -1.16,-80.93 -11.8,3.11 -17.29,3.29 -18.12,5.45 8.44,3.15 15.25,5.89 20.84,11.94 13.23,14.33 12.64,33.99 -2.86,38.33 -25.39,-28.79 -58.17,-15.46 -90.35,-6.45 -41.77,11.74 -103.09,12.79 -151.77,-1.32 -30.32,-8.8 -62.76,-28.97 -90.05,-42.84 -4.89,3.13 -0.72,4.03 0.86,5.01z"/>
    <path class="fil0" d="M3632.99 2415.67c37.2,-9.12 49,-56.52 69.26,-68.63 -46.18,-44.66 -141.36,60.41 -230.46,63.98 -63.29,2.56 -139.61,-15.05 -214.45,-57.06 -1.44,2.68 -2.88,5.39 -4.35,8.05 120.96,70.73 266.35,81.13 379.35,5.47 13.71,-9.16 27.51,-17.07 42.94,-15.95 -23.66,25.67 -16.69,39.69 -61.25,66.26l18.96 -2.12z"/>
    <path class="fil0" d="M3548.57 2349.37c25.55,-17.82 31.74,-27.57 89.32,1.52l16.43 -11.04c-53.99,-26.55 -70.74,-31.2 -105.75,9.52z"/>
    <path class="fil0" d="M3822.71 2373.53c68.06,-42.36 274.12,36.63 416.32,-17.49 -60.53,108.94 -140.68,129.4 -278.45,79.42 -1.84,-0.64 5.39,-21.88 3.53,-22.58 -2.91,-1.06 -16.29,17.68 -19.32,16.65 -7.69,-2.54 8.78,-21.16 0.2,-24.84 -3.48,-1.48 -31.71,12.32 -35.32,10.68 -5.29,-2.37 -10.68,-4.87 -16.15,-7.46 -1.2,-1.78 10.18,-10.76 -37.71,-42.21 -4.55,-2.99 -6.71,21.12 -11.8,18.57 -6.97,-3.45 -14.07,-7.05 -21.3,-10.74zm70.93 12.64c47.13,-21.43 206.04,24.59 304.53,-2.8 -43.47,67.32 -127.87,53.48 -304.53,2.8z"/>
    <path class="fil0" d="M3577.54 2305.71c49.23,-36.29 198.33,31.37 301.21,-14.97 -45.42,113.87 -116.69,100.6 -301.21,14.97zm49.55 11.36c34.11,-18.37 150.82,20.54 222.11,-2.93 -31.46,57.67 -94.27,46.31 -222.11,2.93z"/>
    <path class="fil0" d="M3179.2 2478.04c-7.37,142.28 -37.39,240.7 -132.78,386 -16.27,24.81 -13.75,38.96 -17.74,80.89 -46.34,3.65 -95.63,-17.59 -89.9,-64.4 -31.34,15.93 -75.72,42.04 -112.3,19.32 1.74,-46.54 26.99,-74.22 60.57,-102.87 -9.84,-1.9 -17.88,-12.96 -25.83,-35.72 13.66,-3.95 47.01,-7.2 80.51,-22.56 50.47,-23.17 107.85,-65.92 136.2,-144.09 4.47,-4.42 8.94,-8.87 13.35,-13.4 -6.79,84.39 -81.25,149.11 -138.07,174.14 -30.18,13.28 -66.04,12.38 -73.98,15.99 6.11,15.14 18.78,20.29 33.4,19.77 -31.39,29.15 -63.23,56.56 -63.67,98.84 38.39,7.52 79.58,-17.11 115.89,-48.39 -34.02,78.93 17.71,81.57 45.94,89.51 -0.76,-30.1 7.24,-65.26 20.26,-84.3 92.61,-135.62 125.11,-240.68 132.96,-348.71 5.17,-6.59 10.2,-13.29 15.19,-20.02z"/>
    <path class="fil0" d="M2929 2832.95c100.29,-52.56 185.78,-136.45 208.28,-302.13 -5.93,6.97 -11.94,13.88 -18.07,20.68 -10.54,138.77 -97.78,216.43 -190.21,281.45z"/>
    <path class="fil0" d="M3301.96 2602.69c-6.55,32.74 9.46,60.35 27.53,69.53 31.46,15.98 71.47,-13.43 55.06,-44.87 -11.34,-29.11 -59.49,-18.77 -44.62,18.28 -11.4,-13.53 -9.14,-31.74 1.24,-42.56 23.89,-24.95 56.65,-6.07 61.76,25.89 6.99,43.6 -35.71,67.9 -63.38,61.93 -30.82,-6.63 -54.18,-41.9 -37.59,-88.2z"/>
    <path class="fil0" d="M3215.99 2424.7c23.1,24.45 60.29,69.63 79.8,124.63 8.62,24.29 10.2,50.55 8.52,78.34 -1.87,30.54 -8.72,57.15 -14.49,86.7 -4.09,20.86 -3.93,44.06 18.09,55.88 -24.64,-4.48 -29.93,-20.57 -30.27,-37.3 -0.56,-30.82 3.72,-62.82 5.15,-93.65 1.28,-27.92 1.5,-54.3 -2.57,-74.02 -12.8,-62.09 -36.74,-99.36 -66.24,-137.43 0.68,-1.04 1.34,-2.1 2.01,-3.15z"/>
    <path class="fil0" d="M3190.8 2461.99c8.46,15.77 17.27,36.49 19.05,56.49 2.51,28.29 -11.18,88.48 -26.38,110.3 -6.4,9.19 -0.82,-16.75 -0.95,-17.72 1.49,-4.4 2.83,-8.73 4.11,-13 16.29,-54.52 15.81,-98.26 2.51,-133.7l1.66 -2.37z"/>
    <path class="fil0" d="M3161.89 2630c18.67,15.29 30.47,21.84 49.83,17.59 -12.5,6.01 -25.35,17.87 -31.32,43.92 12.04,2.83 44.36,15.27 58.45,3.29 -1.93,26.3 7.69,53.89 22.64,71.45 14.95,17.55 34.1,27.93 48.91,25.44 -2.21,-0.96 -3.39,-9.29 -5.91,-9.47 -29.62,-2.15 -38.63,-14.31 -45.57,-37.53 -6.47,-21.6 -1,-53.84 7.22,-92.15 -24.41,36.61 -49.49,32.5 -63.86,24.62 8.44,-28.47 22.94,-26.14 36.71,-55.98 -19.06,2.37 -37.43,22.24 -57.17,7.08 6.86,-12.09 15.05,-38.31 10.2,-50.4 -10.04,34.59 -20.76,46.35 -30.13,52.14z"/>
    <path class="fil0" d="M3225.78 2498.9c15.01,34.12 28.78,83.33 11.5,125.33 -3.78,9.17 -21.43,30.55 -21.57,29.57 1.48,-4.39 4.36,-22.22 7.31,-26.49 19.63,-28.55 15.37,-86.25 0.06,-129.35l2.7 0.94z"/>
    <path class="fil0" d="M3289.96 2512.14c22.6,20.34 54.84,46.87 56.22,83.52 0.32,8.05 -10.96,34.98 -11.38,34.28 -0.4,-3.73 -4.29,-17.83 -3.54,-21.98 4.86,-27.49 -17.78,-68.75 -43.62,-95.62l2.32 -0.2z"/>
    <path class="fil0" d="M3256.12 2704.63c-48.49,-49.11 -85.6,48.47 -143.5,23.91 37.13,86.15 112.08,45.56 143.5,-23.91zm-18.88 7.08c-22.16,-16.81 -74.05,43.36 -108.47,30.31 49.43,41.7 93.67,4.73 108.47,-30.31z"/>
    <path class="fil0" d="M3303.79 2274.15c-1.37,3.99 41.79,1.32 37.74,41.12 -4.04,39.75 28.32,51.67 28.32,51.67l-63.36 -14.59 -40.49 -15.2c5.41,-10.68 10.62,-21.5 15.63,-32.42 11.32,-16.29 22.84,-32.62 22.16,-30.58z"/>
    <path class="fil0" d="M2432.64 2388.84c1,1.02 3.51,8.33 4.27,6.77 32.34,-67.96 96.37,-20.05 73.99,21.46 -12.16,22.54 -49.83,22.34 -52.95,-1.7 -3.63,-21.42 30.03,-31.18 34.38,-3.79 2.2,-12.32 -6.01,-22.06 -16.57,-24.38 -24.39,-5.27 -38.09,18.47 -29.46,39.15 11.77,28.17 53.28,27.81 68.97,9.64 31.82,-36.81 9.62,-82.46 -36.65,-84.16 -38.37,-1.44 -43.7,38.71 -45.98,37.01z"/>
    <path class="fil0" d="M2546.03 2491.83c-16.67,-7.78 -32.5,7.75 -9.62,12.22 36.16,7.03 60.87,-28.87 44.26,-56.38 -11.18,-18.56 -44,-20.34 -49.77,5.81 -3.65,21.42 32.68,27.51 37.05,0.12 2.2,12.3 -4.95,23.64 -21.36,26.47 -24.63,4.2 -40.22,-19.52 -31.6,-40.18 11.76,-28.17 53.32,-27.81 68.98,-9.66 31.78,36.81 11.45,84.68 -38.12,83.72 -77.69,-1.53 -18.8,-52.42 0.18,-22.12z"/>
    <path class="fil0" d="M2386.48 2423.42c74.53,0 134.98,39.05 134.98,87.18 0,3.37 -0.3,6.65 -0.84,9.9 -5.81,1.24 -11.66,2.38 -17.51,3.47 0.58,-2.89 0.88,-5.84 0.88,-8.8 0,-40.67 -56.16,-79.18 -116.89,-79.18 -60.73,0 -117.56,37.9 -117.56,78.56 0,3.24 0.38,6.45 1.04,9.58 -6.11,-1.11 -12.2,-2.33 -18.25,-3.61 -0.58,-3.23 -0.88,-6.55 -0.88,-9.92 0,-48.13 60.47,-87.18 135.03,-87.18z"/>
    <path class="fil1" d="M2268.04 668.49c-2.08,-30.88 -37.67,-83.44 -76.5,-87.6 -14.93,-11.93 -78.48,-0.56 -97.7,17.03 -32.28,24.94 -51.57,84.91 -68.08,135.36 -18.09,55.36 -41.84,122.71 -84.05,179.15 -48.09,37.05 -80.95,-26.99 -100.77,54.86 -4.47,10.9 -1.62,30.84 -8.15,34.64 -6.58,3.79 -22.56,-8.51 -39.82,-6.95 -45.42,-15.07 -54.07,16.79 -61.49,28.75 -4.99,8.08 1.46,23.81 -7.39,28.92 -19.52,11.24 -53.32,8.03 -73.15,7.13 -18.96,-0.92 -64.32,3.51 -85.24,42.42 -11.14,20.73 -13.04,45.7 -6.23,66.46 6.01,18.31 48.57,48.97 70.59,54.94 16.05,6.73 -11.88,9.05 -19.1,6.35 -9.11,-3.41 -21.56,-9.22 -31.98,-13.77 -32.27,-14.06 -68.82,3.99 -104.97,1.27 -98.66,5 -234.36,13.44 -356.81,58.22 -121.1,44.26 -247.15,125.57 -324.33,280.87 -9.71,19.58 -31.15,70.95 -35.22,128.94 23.74,-38.49 52.98,-64.46 90.36,-88.76 -36.86,32.68 -77.08,95.43 -97.73,144.56 -16.96,40.21 -24.75,106.07 -0.73,153.26 3.65,63.8 -22.46,92.95 -33.66,155.58 0,0.06 12.06,27.33 8.5,64.04 -4.29,44.32 -29.11,100.66 -26.29,116.39 -55.46,-81.11 -61.75,-80.53 -30.13,-174.02 4.58,-13.54 49.67,-60.13 43.43,-169.24 -1.7,-29.54 -3.38,-59.09 -3.56,-89.47l0 -0.08 0 -7.89 0 -0.08c0.18,-46.33 5.99,-85.34 16.93,-123.17 10.88,-37.7 26.69,-73.87 47,-114.75 82.39,-165.8 206.7,-253.28 336.22,-300.62 128.15,-46.87 260.19,-53.9 361.41,-59.09 41.44,-2.08 50.86,-53.44 65.38,-80.47 32.6,-60.61 75.14,-77.02 109.12,-75.43 27.49,1.28 52.42,1.04 67.77,-23.75 9.03,-16.29 17.07,-32.5 46.1,-37.31 22.8,-3.8 46.73,11.08 55.98,-13.56 6.79,-18.13 14.79,-39.41 43.22,-52.5 13.37,-6.11 25.49,-9.09 36.85,-11.9 13.8,-3.36 26.19,-6.41 33.74,-15 41.64,-47.43 60.31,-104.54 77.26,-156.31 18.45,-56.46 35.04,-107.15 76.68,-139.31 15.37,-11.88 33.64,-19.96 52.86,-23.95 22.24,-4.54 45.82,-3.58 67.84,3.51 22.26,7.15 42.92,20.48 58.93,40.51 12.68,15.83 22.38,35.83 27.57,60.19l2.78 20.36c1.83,13.24 -0.68,15.39 -11.04,7.71 -17.41,-12.88 -29.01,-4.04 -43.2,-16.06 -13.26,10.71 -12.9,37.88 -31.15,28.69 -5.93,-3.01 8.71,-12.47 -0.18,-29.5 -17.62,-33.66 -56.63,-28.83 -65.24,-3.52 -13.25,38.87 -17.35,129.25 -27.77,192.87 -6.37,38.79 -12.15,73.95 -18.26,97.36l0 0.08 -0.04 0.1c-24.8,94.43 -93.19,107.97 -143.74,153.66 -28.71,25.9 -16.59,59.48 -23.32,91.84 -5.13,24.77 -44.44,62.1 -104.97,68.87 -4.61,-1.8 49.47,-31.02 70.11,-55.34 15.08,-17.75 17.13,-40.02 16.77,-47.53l0 -0.08c-1.31,-27.61 1.4,-45.58 25.68,-67.5 33.4,-30.18 101.47,-68.57 122.63,-103.19 45.1,-73.77 39.21,-185.64 54.38,-269.81 8.41,-46.77 19.97,-83.27 42.49,-93.09 49.37,-21.54 82.75,39.35 113.41,25.71z"/>
    <path class="fil1" d="M749.85 1890.73c21.78,49.55 38.55,137.25 28.2,177.65 -10.22,39.69 -25.81,76.96 -42.86,117.37l0.04 0 -0.08 0.18 -0.08 0.08c-7.62,18.09 -10.46,38.59 -11.12,58.53 -0.28,7.83 -1.97,19.55 19.17,22.46 0.16,4.59 -19.51,9.69 -20.44,14.18 -3.22,15.97 -11.66,31.08 -15.12,44.34l-2.29 8.56c-6.37,23.04 18.7,23.98 24.81,23.78l91.87 -7.63c1.7,6.81 50.21,14.22 40.93,-18.7 -4.07,-14.4 -18.93,-31.19 -40.09,-23.14 -2.39,-11.02 53.37,-19.53 54.32,35.83 0.18,10.42 32.58,9.19 32.56,-1.71 -5.98,-39.85 -16.8,-50.43 -40.36,-40.73 -1.88,-3.47 8.54,-13.72 7.13,-17.01 -2.76,-6.55 -17.13,-6.79 -18.99,-14.19 42.3,-36.68 -10.2,-42.79 -5.49,-54.32 23.56,-57.58 44.14,-94.77 83.67,-133.82 18.18,-17.91 41.04,-39.13 55.72,-63.73 10.74,-18.06 18.82,-40.84 26.37,-90.67 18.48,-57.4 72.07,-228.24 134.07,-248.07 -7.54,8.77 -16.95,23.76 -26.43,41.37 -4.53,8.42 -9.08,17.48 -13.43,26.73 -18.83,40.1 -33.96,84.22 -28.65,100.37 3.93,12.02 10.64,28.91 9.08,40.13 -0.58,4.33 9.84,18.11 6.23,15.33 -26.49,-20.26 -56.62,17.71 -56.32,38.29 -5.93,87.52 -12.53,63.95 -96.7,152.85 -18.57,19.6 -27.47,42.26 -39.87,64.04 -12.72,22.3 -16.97,54.98 -13.41,84.47 0.75,6.26 1.85,12.25 3.23,17.84 1.38,5.43 3.09,10.64 5.13,15.45 1.1,2.62 2.2,4.92 3.22,6.83l3.43 6.29 0.02 -0.02c10.32,18.87 17.73,32.48 18.21,45.4 0.93,24.65 -14.3,35.23 -57.98,36.77l-141.36 5.07c-35.66,1.26 -47.12,-5.99 -47.97,-28.69 -0.28,-7.7 1.79,-15.17 4.55,-25.17 1.28,-4.67 1.79,-6.27 2.27,-8.11 3.08,-11.71 12.44,-28.44 11.88,-46.59 -1.56,-50.73 12.5,-92.53 28.91,-134.54 23.94,-61.38 47.95,-113.87 24.02,-243.35z"/>
    <path class="fil1" d="M1142.59 1990.57c22.24,52.94 51.37,128.06 21.38,167.71 -10.98,22.26 -30.24,29.41 -22.16,55.52l0.02 -0.02c8.19,16.87 59.51,87.58 37.01,101.61l0.02 0.04c-3.47,2.14 -7.4,3.28 -11.83,3.36 -68.98,1.26 -296.1,51.3 -184.49,-84.81 29.23,-46.79 -15.35,-94.72 -45.81,-127.7l21.8 -23.56c27.55,39.67 70.95,98.2 48.15,148.55 -1.92,4.25 14.37,5.41 11.52,10 -1.26,1.98 -21.18,7.39 -22.4,9.64 -41.65,76.28 67.39,52.53 111.55,52.29 -15.31,-14.46 -13.79,-28.93 0.16,-43.38 -7.34,35.35 27.81,49.49 61.47,44.55 12.96,-31.26 -52.98,-53.52 -62.72,-74.26 0,-0.02 4.57,-33.9 1.63,-34.76 -58.37,-17.11 5.07,-14.89 13.2,-18.38 65.26,-27.77 5.73,-155.38 -18.61,-192.77l3.74 -2.4c11.5,3.82 24.03,10.22 36.37,8.77z"/>
    <path class="fil1" d="M1030 1978.17c58.31,13.35 150.04,17.95 219.56,-10.58 70.23,-28.81 105.12,-53.03 196.52,-118.49 2.19,-1.57 27.35,-25.11 29.6,-26.73l12.8 25.02c-103.19,72.15 -154.82,101.79 -229.76,132.54 -77.34,31.72 -166.9,26.27 -233.8,10.98l5.08 -12.74z"/>
    <path class="fil0" d="M1081.14 1807.62c13.78,167.13 175.4,96.28 319.18,45.12 -70.73,62.34 -272.34,131.06 -341.62,12.65 0,0 23.92,-59.23 22.44,-57.77z"/>
    <path class="fil1" d="M995.96 1374.19c104.17,-52.69 204.86,-86.1 321.09,-129.53 -91.63,13.44 -230.72,57.6 -335.63,123.08 -74.14,46.3 -152.16,132 -182.36,214.15 50.34,-49.17 89.43,-153.3 196.9,-207.7z"/>
    <path class="fil1" d="M1689.57 1472.09c0.26,13.14 33.86,132.72 33.88,145.62 0.26,125.11 -10.46,241.1 -43.4,358.62 -3.01,10.82 -14.59,52.31 -22.32,92.69 -10.92,57.02 -11.5,100.96 0.18,127.83 28.31,22.16 45.92,38.25 48.11,57.64 2.42,21.46 4.62,30.98 -8.04,36.03 -0.6,-1.06 -1.2,-2.08 -1.82,-3.11l-212.63 0c1.76,4.01 3.57,7.98 5.37,11.97 -12.96,-1.17 -21.74,-4.05 -23.48,-10.3 -0.08,-0.18 -7.88,-31.28 9.64,-60.83 15.9,-48.53 17.29,-109 10.37,-179.05 -5.35,-54.48 -6.13,-125.29 2.29,-168.87 -14.99,-9.75 -36.47,-63.21 -14.29,-162.33 10.64,-47.45 -0.34,-94.47 1.73,-112.77 15.28,35.81 20.95,100 12.46,158.33 -4.41,30.38 -4.61,51.17 7.97,81.35 23.83,34.84 62.2,9.5 58.87,-49.87 21.88,82.49 -33.14,89.3 -49.91,90.8 -8.4,43.16 -2.97,177.31 4.23,233.41 1.26,15.21 3.68,28.79 4.83,42.34 1.86,22.46 23.94,30.61 23.7,34.04 -0.42,6.11 -24.25,3.62 -25.89,10.22 -10.54,10.27 -13.02,21.39 -19.41,33.86 -9.6,16.19 -2.05,32 4.7,38.99 11.51,11.88 83.2,4.95 99.55,2.32 67.68,-1.56 42.93,-49.51 22.82,-65 16.47,4.43 56.6,30.76 30.31,61.12 30.64,7.61 38.67,2.32 42.58,-8.04 -10.86,-58 -46.5,-41.75 -56.18,-53.84 -6.15,-7.73 -8.86,-24.5 -9.08,-46.38 -0.2,-23.16 -20.44,-27.49 -14.67,-30.02 16.13,-7.07 17.32,-19.59 18,-25.86 3.72,-33.84 10.26,-71.01 17.75,-103.99 3.39,-14.89 6.95,-29 10.44,-41.48 3.57,-12.8 7.07,-23.86 10.34,-32.44l0.08 -0.24 0.02 -0.06c20.66,-54.92 35.3,-241.1 27.77,-317.3l-6.87 -145.4zm-20.9 462.7l0.02 0 -0.02 0z"/>
    <path class="fil1" d="M1768.01 1487.6c64.34,93.65 125.01,199.84 205.07,276.1 39.65,37.77 99.52,93.45 107.58,129.14l0.02 0.14 0.08 0.08c3.83,17.13 3.26,42.67 2.66,68.6 -0.7,30.68 -1.38,60.27 0.52,69.51l3.87 0.36 0.08 0.14c2.81,3.87 5.27,7.89 7.39,11.96 2.11,3.99 3.89,8.02 5.41,11.96 24.45,63.78 -18.27,55.82 -56.12,57.67 -21.26,1.06 -47.48,2.68 -68.56,2.68 -41.62,0 -76.8,2.23 -79.61,-14.46l-0.04 -0.2 -1.8 -4.45c-6.85,-33.58 13.5,-48.69 24.64,-66.94 4.45,-20.88 -2.62,-59.87 -10.17,-68.49l-0.08 -0.08 -0.04 -0.02 0 0c-1.15,-1.32 0.26,-8.82 -2.77,-11.66 -30.6,-28.89 -68.42,-65.36 -101.91,-93.31 -15.14,-12.62 -38.69,-32.1 -52.81,-34.8 -13.93,-2.69 -29.56,-4.05 -49.01,3.46l-12.48 -13.76c26.73,-10.3 49.33,-13.11 70.83,-8.96 21.33,4.11 40.49,14.87 60.69,31.74 28.73,23.96 58.44,61.55 83.55,83.97 4.71,4.19 18.99,11.7 22.9,15.43 3.85,3.59 8.7,0.42 10.72,2.74l0.1 0.08 0.02 0.05 0 0c8.31,9.57 -4.79,33.34 -3.21,52.89 1.89,23.24 -3.58,24.01 10.5,51.29 -18.31,8.9 -36.22,18.54 -30.97,44.37 6.61,32.86 88.12,16.45 106.99,16.45 28.71,10.63 4.69,-20.8 18.88,-30.06 9.35,40.31 33.96,21.96 41.37,21.38 25.63,-12.6 1.56,-51.03 -37.11,-57.06 24.39,-20.24 14.15,-38.94 -0.92,-46.25 24.25,-3.67 24.23,-83.93 1.87,-112.04 -39.2,-49.35 -58.41,-72.96 -92.45,-105.39 -11.22,-10.7 -44.86,-55.59 -58.11,-58.33 -22.06,-4.59 -23.5,42.72 -28.77,15.13 -4.27,-22.34 5.45,-34.77 -3.01,-56.79 -21.6,-56.24 -70.63,-119.87 -100,-162.83l4.21 -21.44z"/>
    <path class="fil0" d="M1835.85 1421.4c0,0 -59.43,22.04 -65.68,73.31 -6.29,51.27 -58.6,136.59 -58.6,136.59 -15.99,-69.45 45.84,-91.53 42.35,-138.33 -1.58,-21.94 14.87,-47.23 26.15,-57.49l55.78 -14.08z"/>
    <path class="fil0" d="M1695.76 1310.19c-5.37,33.13 -30.98,66.69 -19.68,97.16 30.74,82.99 6.19,94.83 13.13,140.98 9.55,63.49 11.56,92.41 -42.6,50.09 -29.3,-22.9 -40.78,-66.32 -109.76,-77.18 -130.22,-20.5 -140.4,-72.19 -140.08,-72.47l22.86 -19.5c0.24,11.24 5.63,-7.17 8.7,1.02 11.54,30.9 40.21,42.68 65.3,55.68 56.6,29.46 104.47,30.18 174.48,99.25 10.44,-41.96 5.45,-90.93 -7.6,-159.25 -7.57,-39.88 20.44,-68.13 35.25,-115.78z"/>
    <path class="fil0" d="M1780.45 2175.85c195.46,-149.99 394.58,-69.57 547.54,117.92 6.23,7.61 2.84,12.56 8.93,20.55 -158.3,-186.14 -372.87,-286.62 -558.01,-117.77 -52.22,47.61 -93.41,35.86 -140.44,50.31 66.36,-52.07 93.79,-34.08 141.98,-71.01z"/>
    <path class="fil0" d="M1637.09 2229.45c45.64,-14.91 82.87,69.43 146.43,24.36 -16.71,40.18 -15.51,69.81 0.06,107.72 0.64,1.58 22.26,-163.76 163.27,-201.97 141.7,-38.37 272.42,31.28 382.4,161.54 5.35,6.31 2.43,10.17 7.67,16.79 -117.01,-133.11 -254.94,-204.82 -401.09,-148.69 -95.81,36.8 -127.93,115.83 -143.22,203.83 -3.9,22.44 -50.57,-51.58 -26.79,-114.05 -81.78,15.95 -121.46,-47.13 -128.73,-49.53z"/>
    <path class="fil0" d="M2327.03 2363.65c-44.54,-59.69 -148.35,-136.41 -227.98,-150.73 -69.44,-12.48 -132.12,17.01 -140.57,105.23 -23.29,-12.66 -35.85,7.41 -61.3,-18.99 -4.28,18.97 -13.74,32.52 -26.42,46.82 -4.47,3.37 -9.44,7.53 -15.07,12.56l-20.96 20.22c-22.54,-40.13 -23.98,-83.21 21.6,-139.87 -24.57,49.17 -31.74,87.94 -12.9,102.52 23.3,-4.93 39.79,-32.38 51.61,-65.52 14.71,25.37 34.76,15.85 53.76,23.27 13.12,-85.92 81.87,-110.53 151.59,-97.94 74.74,13.48 194.76,93.85 224.49,156.08 0,0 -1.1,7.42 2.15,6.35z"/>
    <path class="fil1" d="M2287.8 2361.99c-1.79,1.04 -84.28,-26.31 -151.84,-26.41 -52.34,-0.06 -47.87,43.46 -103.43,54.62 -17.87,3.61 -40.63,4.67 -57.3,-3.6 -26.87,-13.31 -33.1,-44.09 0.78,-55.25 22.74,-7.47 37.83,7.9 38.19,31.92 22.28,-2.92 17.95,-61.69 -37.69,-52.15 -31.44,8.59 -40.66,37.29 -31.32,60.73 11.7,10.8 23.78,21.18 36.29,31.11 15.79,4.13 34.94,2.67 50.63,-0.58 49.83,-10.27 52.6,-46.08 104.47,-50.11 46.28,-3.6 99.08,6.82 127.85,13.61 9.98,2.36 -10.82,10.68 11.62,-0.6l11.75 -3.29z"/>
    <path class="fil0" d="M2303.48 2351.49c-49.37,-38.93 -102.76,-77.16 -171.65,-78.9 -34.16,-0.86 -83.77,3.38 -104.73,64.07 -2.18,6.3 -5.69,14.47 -11.06,22.3 -4.07,5.96 -10.66,10.82 -15.01,9.56 18.72,10.06 25.45,-2.32 29.68,-12.76 21.86,-53.94 51.15,-71.55 101.84,-70.89 68.45,0.86 124.01,35.52 170.21,77.7l0.72 -11.08z"/>
    <path class="fil0" d="M2095.26 2360.57c-25.12,25.6 -25.32,60.11 -12.96,79.22 21.54,33.26 77.48,30.76 79.47,-7.47 5.63,-33.04 -47.29,-52.56 -54.02,-10.26 -3.37,-19.01 9.27,-34.08 25.6,-37.63 37.63,-8.17 58.77,28.45 45.45,60.35 -18.18,43.52 -73.8,39.85 -97.38,17.89 -26.29,-24.44 -28.87,-70.26 13.84,-102.1z"/>
    <path class="fil0" d="M2333.78 2431.46c5.35,1.04 11.38,-4.17 11.58,-6.29 5.53,-56.13 -22.98,-201.87 -77.98,-225.58 29.75,-19.27 47.36,-3.94 63.47,14.41 19.48,22.18 29.8,113.11 33.69,116.15 0,-6.57 -14.93,-78.56 -10.48,-130.96 1.76,-21.03 17.03,-45.18 33.48,-57.86l0 -12.62c-29.26,18.31 -47.11,39.19 -47.11,69.08 -28.89,-19.83 -51.07,-29.45 -96.98,-3.32 58.05,31.61 109.24,181.33 90.33,236.99z"/>
    <path class="fil0" d="M854.79 2587.54c245,163.28 494.58,75.72 686.29,-128.39 7.81,-8.3 3.56,-13.69 11.2,-22.38 -198.43,202.67 -464.15,308.88 -696.19,125.06 -65.46,-51.83 -113.05,-25.62 -151.96,15.53 62.29,-18.33 90.31,-30.05 150.66,10.18z"/>
    <path class="fil0" d="M706.44 2576.16c13.08,-53.06 30.79,-109.18 130.51,-78.38 -20.94,-40.14 -17.69,-43.88 -25.1,-86.66 -0.16,-0.92 27.93,39.91 84.91,87.92 41.6,35.04 98.1,77.26 172.58,93.45 149.51,32.48 315.13,-24.91 449.05,-140.58 12.23,-10.56 23.87,-21.39 35.25,-32.37 -1.18,-1.85 -2.39,-3.71 -3.53,-5.58 -11.96,11.39 -24.3,22.61 -37.55,33.37 -138.21,112.2 -299.1,174.49 -465.99,123.38 -50.65,-15.53 -98.45,-48.59 -136,-84.31 -51.46,-48.99 -88.48,-100.77 -131.26,-98.92 19.65,46.54 9.11,49.35 26.47,86.33 -102.51,-15.97 -109.5,74.66 -99.34,102.35z"/>
    <path class="fil0" d="M823.19 2413.34c11.04,-17.15 47.02,15.13 66.22,21.58 -19.24,-40.15 11.66,-49.09 36.04,-54.78 2.09,-0.46 21.34,115.51 183.7,153.86 140.33,33.18 296.18,-33.04 420.64,-154.18 -1.14,-1.96 -2.24,-3.94 -3.34,-5.93 -129.38,118.12 -281.85,187.74 -439.28,135.29 -110.36,-36.77 -143.74,-110.28 -158.53,-152.88 -22.56,2.2 -66.5,25.01 -50.55,61.99 -36.35,-30.59 -77.12,-32.74 -89.81,-28.29l34.91 23.34z"/>
    <path class="fil0" d="M1505.85 2335.06c-45.84,20.4 -115.17,34.32 -164.3,25.37 -65.92,-12.02 -108.34,-60.89 -96.03,-110.08 -17.05,0.22 -60.83,7.77 -54.52,67.38 3.7,-23.86 18.27,-52.2 40.27,-51.79 -11.4,42.87 35.04,91.62 113.83,104.47 49.47,8.05 117.51,-4.85 163.26,-28.14 0.34,-0.14 0.66,-0.3 0.94,-0.44 -1.14,-2.24 -2.31,-4.48 -3.45,-6.77z"/>
    <path class="fil0" d="M1472.71 2422.88c-23.9,14.61 -59.93,34.88 -88.24,44.42 -71.43,23.99 -164.86,7.24 -202.95,0.08 -15.15,-2.84 -34.32,12.24 -41.39,26.31 -14.73,-2.7 -37.95,-43.18 1.16,-80.93 11.8,3.11 17.29,3.29 18.13,5.45 -8.46,3.15 -15.27,5.89 -20.84,11.94 -13.22,14.33 -12.66,33.99 2.85,38.33 25.38,-28.79 58.16,-15.46 90.34,-6.45 41.8,11.74 103.09,12.79 151.78,-1.32 30.33,-8.8 62.75,-28.97 90.06,-42.84 4.87,3.13 0.7,4.03 -0.9,5.01z"/>
    <path class="fil0" d="M1142.09 2415.67c-37.21,-9.12 -49.01,-56.52 -69.25,-68.63 46.17,-44.66 141.34,60.41 230.44,63.98 62.82,2.54 138.45,-14.81 212.79,-56.16 1.44,2.72 2.89,5.43 4.37,8.11 -120.64,69.87 -265.23,79.81 -377.71,4.51 -13.71,-9.16 -27.51,-17.07 -42.94,-15.95 23.66,25.67 16.67,39.69 61.25,66.26l-18.95 -2.12z"/>
    <path class="fil0" d="M1226.52 2349.37c-25.56,-17.82 -31.76,-27.57 -89.34,1.52l-16.41 -11.04c53.98,-26.55 70.73,-31.2 105.75,9.52z"/>
    <path class="fil0" d="M1197.53 2305.71c-49.23,-36.29 -198.3,31.37 -301.21,-14.97 45.42,113.87 116.69,100.6 301.21,14.97zm-49.55 11.36c-34.1,-18.37 -150.82,20.54 -222.08,-2.93 31.45,57.67 94.25,46.31 222.08,2.93z"/>
    <path class="fil0" d="M1596.06 2481.19c7.65,140.57 37.92,238.61 132.6,382.85 16.27,24.81 13.74,38.96 17.71,80.89 46.36,3.65 95.65,-17.59 89.92,-64.4 31.34,15.93 75.7,42.04 112.31,19.32 -1.75,-46.54 -26.97,-74.22 -60.55,-102.87 9.82,-1.9 17.83,-12.96 25.78,-35.72 -13.64,-3.95 -46.96,-7.2 -80.48,-22.56 -49.75,-22.83 -106.22,-64.72 -134.95,-140.78 -4.85,-4.71 -9.66,-9.5 -14.4,-14.29 8.01,83.2 81.58,146.93 137.85,171.72 30.19,13.28 66.06,12.38 73.99,15.99 -6.11,15.14 -18.75,20.29 -33.4,19.77 31.4,29.15 63.26,56.56 63.68,98.84 -38.39,7.52 -79.59,-17.11 -115.91,-48.39 34.06,78.93 -17.68,81.57 -45.93,89.51 0.74,-30.1 -7.23,-65.26 -20.23,-84.3 -91.77,-134.36 -124.51,-238.73 -132.79,-345.69 -5.13,-6.55 -10.22,-13.2 -15.2,-19.89z"/>
    <path class="fil0" d="M1846.05 2832.95c-99.64,-52.26 -184.74,-135.41 -207.86,-299.13 5.87,6.84 11.84,13.63 17.87,20.3 11.45,137.11 98.18,214.21 189.99,278.83z"/>
    <path class="fil0" d="M1473.13 2602.69c6.53,32.74 -9.48,60.35 -27.55,69.53 -31.46,15.98 -71.47,-13.43 -55.06,-44.87 11.34,-29.11 59.49,-18.77 44.64,18.28 11.38,-13.53 9.12,-31.74 -1.26,-42.56 -23.88,-24.95 -56.64,-6.07 -61.75,25.89 -6.99,43.6 35.7,67.9 63.37,61.93 30.82,-6.63 54.2,-41.9 37.61,-88.2z"/>
    <path class="fil0" d="M1557.79 2426.07c-23.17,24.74 -59.33,69.28 -78.51,123.26 -8.61,24.29 -10.2,50.55 -8.51,78.34 1.86,30.54 8.71,57.15 14.48,86.7 4.11,20.86 3.95,44.06 -18.09,55.88 24.65,-4.48 29.94,-20.57 30.26,-37.3 0.58,-30.82 -3.71,-62.82 -5.13,-93.65 -1.27,-27.92 -1.51,-54.3 2.58,-74.02 12.64,-61.25 36.09,-98.38 65.06,-135.93 -0.72,-1.1 -1.44,-2.16 -2.14,-3.28z"/>
    <path class="fil0" d="M1583.35 2463.74c-8.15,15.52 -16.41,35.44 -18.13,54.74 -2.51,28.29 11.18,88.48 26.37,110.3 6.41,9.19 0.86,-16.75 0.98,-17.72 -1.48,-4.4 -2.85,-8.73 -4.13,-13 -15.97,-53.48 -15.81,-96.6 -3.22,-131.7l-1.87 -2.62z"/>
    <path class="fil0" d="M1613.19 2630c-18.66,15.29 -30.46,21.84 -49.81,17.59 12.5,6.01 25.32,17.87 31.29,43.92 -12.02,2.83 -44.36,15.27 -58.42,3.29 1.9,26.3 -7.72,53.89 -22.66,71.45 -14.97,17.55 -34.11,27.93 -48.91,25.44 2.22,-0.96 3.38,-9.29 5.91,-9.47 29.61,-2.15 38.63,-14.31 45.56,-37.53 6.47,-21.6 1,-53.84 -7.19,-92.15 24.38,36.61 49.47,32.5 63.83,24.62 -8.41,-28.47 -22.94,-26.14 -36.7,-55.98 19.05,2.37 37.42,22.24 57.16,7.08 -6.83,-12.09 -15.05,-38.31 -10.22,-50.4 10.06,34.59 20.78,46.35 30.16,52.14z"/>
    <path class="fil0" d="M1549.29 2498.9c-15.01,34.12 -28.77,83.33 -11.5,125.33 3.77,9.17 21.44,30.55 21.56,29.57 -1.48,-4.39 -4.35,-22.22 -7.29,-26.49 -19.62,-28.55 -15.35,-86.25 -0.06,-129.35l-2.71 0.94z"/>
    <path class="fil0" d="M1485.13 2512.14c-22.62,20.34 -54.84,46.87 -56.26,83.52 -0.3,8.05 10.98,34.98 11.42,34.28 0.38,-3.73 4.27,-17.83 3.53,-21.98 -4.87,-27.49 17.77,-68.75 43.62,-95.62l-2.31 -0.2z"/>
    <path class="fil0" d="M1518.96 2704.63c48.48,-49.11 85.61,48.47 143.5,23.91 -37.13,86.15 -112.07,45.56 -143.5,-23.91zm18.85 7.08c22.18,-16.81 74.09,43.36 108.5,30.31 -49.41,41.7 -93.67,4.73 -108.5,-30.31z"/>
    <path class="fil0" d="M1471.31 2274.15c1.32,3.99 -41.82,1.32 -37.77,41.12 4.05,39.75 -28.31,51.67 -28.31,51.67l63.35 -14.59 38.67 -14.5c-6.95,-13.77 -13.54,-27.71 -19.87,-41.82 -9.02,-12.88 -16.65,-23.56 -16.07,-21.88z"/>
    <path class="fil0" d="M2342.45 2388.84c-1.04,1.02 -3.54,8.33 -4.26,6.77 -32.36,-67.96 -96.4,-20.05 -74.02,21.46 12.16,22.54 49.83,22.34 52.96,-1.7 3.65,-21.42 -30.02,-31.18 -34.38,-3.79 -2.19,-12.32 6.01,-22.06 16.59,-24.38 24.36,-5.27 38.07,18.47 29.45,39.15 -11.78,28.17 -53.3,27.81 -68.99,9.64 -31.79,-36.81 -9.59,-82.46 36.65,-84.16 38.39,-1.44 43.7,38.71 46,37.01z"/>
    <path class="fil0" d="M2229.05 2491.83c16.67,-7.78 32.48,7.75 9.64,12.22 -36.17,7.03 -60.87,-28.87 -44.26,-56.38 11.16,-18.56 44,-20.34 49.77,5.81 3.64,21.42 -32.72,27.51 -37.07,0.12 -2.19,12.3 4.95,23.64 21.38,26.47 24.58,4.2 40.21,-19.52 31.57,-40.18 -11.76,-28.17 -53.31,-27.81 -68.98,-9.66 -31.76,36.81 -11.42,84.68 38.13,83.72 77.68,-1.53 18.81,-52.42 -0.18,-22.12z"/>
    <path class="fil1" d="M2386.45 2553.84l-0.08 0 0 -0.04c-89.46,0 -174.77,-17.77 -252.56,-49.93 -12.96,-5.35 -25.44,-10.98 -37.36,-16.81l0 -0.02c-62.94,-30.76 -120.24,-71.25 -169.87,-119.46 -14.63,-14.19 -23.43,-22.34 -30.7,-22.92l-0.02 0c-7.27,-0.58 -16.73,5.97 -33.56,21.02l-35.97 34.66 -0.12 0.12 -1.94 1.8c-2.08,1.91 -4.11,3.77 -5.61,5.23 -10.02,9.84 -13.58,19.24 14.95,47.33l0.04 0 0.04 0.06 0 0.02c19.83,19.54 40.75,38.07 62.65,55.44 21.88,17.39 44.7,33.64 68.41,48.65 121.86,77.2 266.54,121.98 421.7,121.98l0 -0.04 0.11 0 0 0.04c107.71,0 210.42,-21.62 303.95,-60.65 15.37,-6.43 30.35,-13.24 44.92,-20.46 75.66,-37.34 144.42,-86.51 203.85,-145 28.57,-28.13 25.01,-37.53 14.97,-47.37l-0.04 0c-2.12,-2.1 -3.81,-3.62 -5.55,-5.23l-1.94 -1.8 -0.14 -0.12 -35.97 -34.66c-16.83,-15.05 -26.27,-21.6 -33.56,-21.02l-0.02 0c-7.25,0.58 -16.05,8.71 -30.64,22.86l0.04 0.04 -0.06 0.04 -0.08 0.04c-16.67,16.15 -34.1,31.42 -52.31,45.7 -18.1,14.23 -37.13,27.59 -57.01,40.06 -101.52,63.61 -221.72,100.44 -350.52,100.44zm-0.08 -19.3l0 -0.02 0.08 0c125.01,0 241.6,-35.66 340,-97.33 19,-11.94 37.49,-24.93 55.34,-38.93 17.7,-13.91 34.65,-28.72 50.7,-44.3l-0.02 0 0.06 -0.08 0.06 -0.02c17.85,-17.32 28.89,-27.31 42.86,-28.44l0 0c13.96,-1.14 27.14,7.02 48.36,25.99l0.26 0.26 36.09 34.76 0 0 1.94 1.81c2.29,2.1 4.53,4.17 6.01,5.61l-0.04 0.02c18.44,18.07 26.17,34.14 -14.88,74.57 -60.89,59.95 -131.38,110.33 -208.98,148.63 -15.25,7.52 -30.6,14.51 -46.05,20.96 -95.81,40.04 -201.12,62.16 -311.6,62.2l0 0.02 -0.11 0 0 -0.02c-159.1,0 -307.41,-45.89 -432.28,-125.01 -24.29,-15.41 -47.71,-32.06 -70.11,-49.85 -22.4,-17.79 -43.86,-36.79 -64.24,-56.85l-0.02 0 -0.06 -0.04 0 -0.04c-41.09,-40.43 -33.34,-56.5 -14.88,-74.59 2.1,-2.09 4.02,-3.83 5.95,-5.61l1.94 -1.81 0 0 36.09 -34.76 0.26 -0.26c21.24,-18.97 34.42,-27.13 48.36,-25.99l0 0c13.97,1.13 25.01,11.12 42.84,28.44 48.19,46.78 103.77,86.05 164.86,115.93l0.04 0c12.18,5.95 24.29,11.4 36.23,16.37 75.42,31.17 158.17,48.38 244.94,48.38z"/>
    <path class="fil1" d="M2386.45 2886.87l-0.08 0 0 -0.04c-102.18,-0.02 -200.7,-15.35 -293.39,-43.82 -45.2,-13.87 -89.1,-30.94 -131.46,-50.9 -217.31,-102.42 -391.27,-280.99 -486.99,-500.93l-5.85 -13.42 14.85 0 212.63 0 5.81 0 2.78 5.01 0 0c18.9,33.1 40.08,64.65 63.34,94.41 23.32,29.79 48.79,57.9 76.18,84.03 140.67,134.33 331.74,216.94 542.18,216.94l0 -0.04 0.09 0 0 0.04c97.37,0 190.64,-17.74 276.76,-50.1 28.15,-10.59 55.44,-22.68 81.63,-36.12 135.62,-69.57 248.19,-177.46 323.25,-309.22l2.8 -4.95 5.75 0 212.65 0 14.87 0 -5.85 13.42 -0.04 0.1c-21.38,49.09 -46.63,96.1 -75.32,140.58 -28.67,44.44 -60.93,86.54 -96.36,125.89 -181.83,201.94 -446.09,329.06 -740.23,329.08l0 0.04zm-0.08 -19.3l0 -0.02 0.08 0 0 0.02c288.31,0 547.3,-124.63 725.57,-322.59 34.6,-38.41 66.2,-79.7 94.45,-123.46 25.56,-39.63 48.31,-81.23 67.9,-124.43l-191.91 0c-76.88,132.72 -191.11,241.44 -328.48,311.89 -27.19,13.97 -55.16,26.39 -83.69,37.11 -88.18,33.16 -183.83,51.29 -283.75,51.31l0 0.04 -0.09 0 0 -0.04c-215.79,-0.02 -411.68,-84.67 -555.87,-222.38 -28.03,-26.75 -54.1,-55.52 -78,-86.06 -22.8,-29.15 -43.6,-59.87 -62.15,-91.87l-191.87 0c94.99,209.48 262.84,379.37 471.42,477.67 41.33,19.48 84.37,36.19 128.83,49.85 90.93,27.91 187.5,42.96 287.56,42.96z"/>
    <path class="fil0" d="M3301.62 2274.15c-1.36,3.99 41.78,1.32 37.75,41.12 -4.05,39.75 28.31,51.67 28.31,51.67l-63.35 -14.59 -45.87 -17.23c0,0 44.5,-64.94 43.16,-60.97z"/>
    <path class="fil1" d="M1582.07 2367.52l62.47 -38.35 28.94 45.52 -10.58 6.5 -21.04 -33.13 -13.87 8.52 19.6 30.82 -10.52 6.45 -19.6 -30.82 -17.01 10.44 21.82 34.3 -10.52 6.46 -29.69 -46.71zm56.4 43.58l9.66 10.68c-3.45,3.51 -5.27,6.97 -5.55,10.42 -0.26,3.42 0.9,6.93 3.57,10.52 2.8,3.8 5.75,6.09 8.81,6.83 3.09,0.78 5.71,0.38 7.92,-1.2 1.4,-0.98 2.3,-2.25 2.68,-3.77 0.4,-1.52 0.2,-3.57 -0.56,-6.09 -0.52,-1.74 -2.02,-5.53 -4.41,-11.34 -3.08,-7.47 -4.38,-13.35 -3.94,-17.55 0.6,-5.93 3.28,-10.6 7.99,-13.97 3.05,-2.16 6.49,-3.32 10.4,-3.52 3.87,-0.21 7.69,0.8 11.44,2.98 3.73,2.2 7.25,5.55 10.58,10.06 5.45,7.35 7.87,14.04 7.37,20.1 -0.56,6.07 -3.48,11.14 -8.83,15.24l-9.26 -11.44c2.68,-2.7 4.09,-5.37 4.19,-7.99 0.12,-2.63 -1.06,-5.59 -3.53,-8.92 -2.52,-3.42 -5.23,-5.63 -8.09,-6.55 -1.87,-0.6 -3.55,-0.34 -5.09,0.76 -1.41,1.02 -2.21,2.47 -2.33,4.37 -0.18,2.38 1.17,6.97 4.07,13.7 2.85,6.76 4.57,12.03 5.13,15.83 0.54,3.81 0.14,7.42 -1.28,10.8 -1.41,3.39 -3.99,6.41 -7.76,9.12 -3.4,2.42 -7.29,3.79 -11.64,4.05 -4.37,0.24 -8.55,-0.78 -12.5,-3.17 -3.99,-2.36 -7.86,-6.09 -11.62,-11.18 -5.47,-7.41 -7.94,-14.35 -7.38,-20.8 0.55,-6.45 3.87,-12.48 9.96,-17.97zm36.83 85.64l46.87 -38.67 -14.05 -16.45 9.58 -7.86 37.61 44.06 -9.56 7.88 -14.01 -16.43 -46.86 38.67 -9.58 -11.2zm86 -12.59l18.89 19.24c4.27,4.31 7.17,7.93 8.74,10.86 2.08,3.9 3.02,8.07 2.8,12.48 -0.18,4.39 -1.4,8.78 -3.68,13.12 -2.27,4.33 -5.9,8.86 -10.86,13.57 -4.35,4.15 -8.64,7.19 -12.85,9.14 -5.13,2.34 -10.08,3.44 -14.82,3.26 -3.61,-0.08 -7.44,-1.22 -11.51,-3.34 -3,-1.61 -6.43,-4.35 -10.27,-8.26l-19.42 -19.78 52.98 -50.29zm1.36 19.02l-35.06 33.32 7.69 7.83c2.88,2.95 5.13,4.91 6.75,5.91 2.13,1.27 4.25,1.99 6.37,2.15 2.15,0.14 4.75,-0.58 7.84,-2.11 3.04,-1.56 6.65,-4.26 10.76,-8.15 4.08,-3.89 6.87,-7.23 8.37,-10.02 1.48,-2.8 2.23,-5.43 2.21,-7.85 -0.04,-2.45 -0.81,-4.87 -2.31,-7.24 -1.1,-1.78 -3.76,-4.81 -7.97,-9.11l-4.65 -4.73zm1.8 85.49l9.44 -10.32 10.48 9.28 -9.44 10.32 -10.48 -9.28zm91.65 -17.91l23.2 17.83c4.61,3.51 7.9,6.33 9.86,8.44 1.94,2.12 3.35,4.45 4.17,7.03 0.82,2.57 1.04,5.25 0.66,8.18 -0.38,2.88 -1.56,5.57 -3.53,8.01 -2.12,2.69 -4.79,4.59 -8.03,5.69 -3.25,1.1 -6.55,1.26 -9.94,0.46 2.7,3.71 4.07,7.54 4.03,11.4 -0.04,3.93 -1.37,7.5 -3.99,10.8 -2.06,2.59 -4.67,4.67 -7.86,6.17 -3.16,1.51 -6.41,2.19 -9.69,2.01 -3.29,-0.16 -6.63,-1.27 -10.04,-3.33 -2.08,-1.3 -6.89,-4.77 -14.41,-10.48l-19.77 -15.15 45.34 -57.06zm4.19 18.49l-10.5 13.21 7.69 5.89c4.57,3.51 7.46,5.63 8.68,6.35 2.18,1.3 4.31,1.84 6.33,1.58 2.04,-0.26 3.79,-1.3 5.27,-3.14 1.42,-1.77 2.06,-3.57 1.94,-5.43 -0.12,-1.87 -1.06,-3.65 -2.82,-5.39 -1.04,-1.02 -4.35,-3.65 -9.86,-7.88l-6.73 -5.19zm-18.04 22.71l-12.12 15.24 10.84 8.32c4.23,3.24 6.99,5.21 8.32,5.83 1.98,1.04 4,1.36 6.07,0.98 2.04,-0.34 3.88,-1.54 5.49,-3.57 1.38,-1.7 2.1,-3.48 2.2,-5.33 0.08,-1.84 -0.44,-3.64 -1.58,-5.43 -1.18,-1.74 -4.43,-4.7 -9.76,-8.77l-9.46 -7.27zm48.07 71.17l16.89 -25.57 0.62 -49.59 14.61 9.34 -1.3 33.3 30.09 -14.93 14.37 9.18 -45.99 20.73 -16.85 25.49 -12.44 -7.95zm112.03 31.29l5.43 -10.98 28.81 13.83 -12.87 25.92c-4.12,1.31 -9.33,1.71 -15.66,1.21 -6.32,-0.54 -12.21,-2.11 -17.66,-4.71 -6.91,-3.31 -12.24,-7.64 -15.99,-12.97 -3.7,-5.33 -5.55,-11.26 -5.51,-17.81 0.06,-6.55 1.63,-12.96 4.71,-19.19 3.37,-6.78 7.8,-12.12 13.31,-16.01 5.51,-3.87 11.72,-5.89 18.71,-6.01 5.29,-0.14 11.12,1.32 17.43,4.34 8.24,3.95 13.83,8.72 16.75,14.33 2.95,5.59 3.59,11.7 1.95,18.31l-14.47 -3.9c0.64,-3.65 0.14,-7.04 -1.54,-10.12 -1.64,-3.07 -4.39,-5.53 -8.24,-7.37 -5.85,-2.81 -11.4,-3.21 -16.65,-1.25 -5.27,2.01 -9.65,6.58 -13.2,13.75 -3.83,7.71 -4.97,14.34 -3.39,19.89 1.59,5.53 5.19,9.64 10.84,12.37 2.83,1.34 5.89,2.14 9.24,2.4 3.35,0.28 6.43,0.12 9.2,-0.44l4.1 -8.25 -15.3 -7.34zm43.74 9.54c2.68,-6.91 5.99,-12.28 9.91,-16.17 2.91,-2.83 6.25,-5.13 10.02,-6.85 3.77,-1.71 7.54,-2.63 11.26,-2.71 5.01,-0.2 10.28,0.8 15.89,2.93 10.12,3.8 17.01,9.94 20.7,18.43 3.67,8.46 3.34,18.19 -0.94,29.19 -4.29,10.92 -10.62,18.32 -19.08,22.21 -8.43,3.88 -17.71,3.9 -27.81,0.1 -10.24,-3.85 -17.15,-10 -20.8,-18.4 -3.64,-8.39 -3.36,-17.99 0.85,-28.73zm14.48 4.93c-2.98,7.65 -3.44,14.14 -1.42,19.43 2.08,5.31 5.87,9 11.4,11.08 5.53,2.11 10.84,1.87 15.93,-0.74 5.07,-2.56 9.16,-7.75 12.2,-15.61 3.05,-7.73 3.55,-14.16 1.6,-19.29 -1.98,-5.13 -5.83,-8.76 -11.52,-10.9 -5.75,-2.16 -11.1,-1.98 -16.15,0.56 -4.97,2.54 -8.99,7.67 -12.04,15.47zm72.45 61.73l-3.64 -76.82 15.44 4.63 1.87 56.6 33.2 -46.06 15.09 4.55 -46.75 61.65 -15.21 -4.55zm51.94 14.95l12.78 -71.29 53.8 9.32 -2.18 12.06 -39.12 -6.78 -2.84 15.81 36.41 6.32 -2.17 12 -36.38 -6.31 -3.51 19.39 40.53 7.03 -2.14 12.01 -55.18 -9.56zm71.85 11.64l7.69 -72.01 31.14 3.22c7.85,0.81 13.44,2.05 16.87,3.69 3.41,1.68 6.01,4.27 7.79,7.79 1.79,3.55 2.43,7.42 1.97,11.67 -0.58,5.41 -2.69,9.71 -6.27,12.88 -3.59,3.21 -8.68,4.91 -15.21,5.17 3,2.16 5.43,4.45 7.27,6.85 1.85,2.43 4.23,6.61 7.18,12.58l7.45 14.97 -17.69 -1.82 -9.02 -16.79c-3.21,-5.99 -5.43,-9.78 -6.67,-11.38 -1.24,-1.61 -2.63,-2.75 -4.11,-3.47 -1.52,-0.7 -3.97,-1.22 -7.37,-1.58l-3.01 -0.3 -3.18 30.05 -14.83 -1.52zm19.25 -40.03l10.92 1.14c7.12,0.72 11.58,0.9 13.41,0.48 1.82,-0.4 3.3,-1.28 4.47,-2.63 1.16,-1.32 1.84,-3.06 2.08,-5.22 0.26,-2.43 -0.2,-4.45 -1.36,-6.08 -1.14,-1.62 -2.91,-2.76 -5.25,-3.4 -1.18,-0.28 -4.79,-0.74 -10.8,-1.36l-11.52 -1.19 -1.95 18.26zm59.33 47.6l2.57 -72.37 14.46 0.52 28.43 49.35 1.71 -48.33 13.82 0.49 -2.58 72.35 -14.93 -0.52 -27.97 -48.19 -1.68 47.18 -13.83 -0.48zm78.1 1.29l-5.15 -72.26 22.21 -1.5 16.85 48.33 9.63 -50.17 22.28 -1.52 5.13 72.23 -13.78 0.94 -4.01 -56.85 -10.56 57.85 -14.28 0.98 -18.6 -55.86 4.05 56.86 -13.77 0.97zm89.95 -6.88l-12.79 -71.29 53.76 -9.31 2.17 12.04 -39.11 6.81 2.84 15.79 36.41 -6.31 2.14 12.02 -36.41 6.29 3.47 19.44 40.53 -7.04 2.17 12.01 -55.18 9.55zm71.73 -10.76l-19.06 -69.94 13.99 -3.69 41.84 39.05 -12.73 -46.7 13.37 -3.53 19.05 69.95 -14.42 3.8 -41.12 -38.07 12.44 45.61 -13.36 3.52zm91.77 -24.96l-19.92 -56.89 -20.66 7 -4.07 -11.58 55.37 -18.76 4.06 11.62 -20.63 6.96 19.91 56.86 -14.06 4.79zm56.36 -57.95c-3.17,-6.69 -4.81,-12.76 -4.93,-18.23 -0.06,-4.03 0.58,-7.96 1.94,-11.84 1.39,-3.83 3.33,-7.14 5.83,-9.84 3.35,-3.67 7.72,-6.71 13.17,-9.2 9.84,-4.51 19.11,-5.13 27.87,-1.82 8.73,3.27 15.67,10.26 20.74,20.94 5.03,10.62 6.01,20.21 3,28.91 -3.02,8.66 -9.46,15.25 -19.23,19.72 -9.94,4.56 -19.24,5.19 -27.93,1.94 -8.68,-3.27 -15.49,-10.14 -20.46,-20.58zm13.66 -6.81c3.55,7.45 7.98,12.28 13.27,14.51 5.33,2.22 10.66,2.12 16.05,-0.34 5.35,-2.47 8.87,-6.4 10.52,-11.79 1.62,-5.39 0.64,-11.86 -2.97,-19.47 -3.57,-7.53 -7.91,-12.36 -13.02,-14.53 -5.11,-2.16 -10.44,-1.96 -16.01,0.58 -5.55,2.53 -9.12,6.48 -10.76,11.78 -1.6,5.27 -0.64,11.71 2.92,19.26zm80.15 2.97l-36.81 -62.7 43.74 -24.82 6.23 10.62 -30.85 17.51 8.71 14.8 26.63 -15.08 6.25 10.6 -26.63 15.12 15.65 26.63 -12.92 7.32zm81.95 -49.17l-42.26 -59.29 12.2 -8.38 18.76 26.33 5.85 -43.28 16.37 -11.26 -6.25 38.73 49.75 19.72 -15.77 10.84 -36.41 -16.41 -2.82 16.71 12.76 17.91 -12.18 8.38zm63.49 -44.89l-47.34 -55.44 41.81 -34.52 8.02 9.4 -30.44 25.08 10.48 12.31 28.35 -23.37 7.98 9.34 -28.33 23.36 12.88 15.11 31.52 -26.01 7.97 9.36 -42.9 35.38zm55.79 -46.1l-53 -50.29 21.76 -22.14c5.47,-5.57 9.92,-9.16 13.34,-10.78 3.43,-1.62 7.12,-2.03 11.02,-1.24 3.95,0.8 7.46,2.66 10.6,5.67 3.99,3.76 6.13,8.05 6.47,12.8 0.34,4.73 -1.42,9.72 -5.25,14.93 3.61,-1 6.94,-1.47 10,-1.41 3.07,0.04 7.88,0.79 14.47,2.19l16.61 3.44 -12.36 12.59 -19.02 -3.37c-6.77,-1.2 -11.18,-1.8 -13.22,-1.84 -2.05,-0.02 -3.81,0.34 -5.33,1.06 -1.48,0.76 -3.41,2.32 -5.79,4.75l-2.09 2.12 22.12 21 -10.33 10.52zm-20.24 -39.55l7.63 -7.78c4.97,-5.03 7.84,-8.39 8.66,-10.05 0.78,-1.67 1,-3.37 0.64,-5.09 -0.38,-1.71 -1.34,-3.31 -2.93,-4.85 -1.78,-1.69 -3.68,-2.57 -5.69,-2.69 -2.02,-0.1 -4.02,0.58 -5.97,1.99 -0.96,0.76 -3.52,3.24 -7.73,7.51l-8.04 8.21 13.43 12.75zm117.29 -65.4l-10.4 12.18 -16.95 -5.71 -18.93 22.16 8.91 15.15 -10.13 11.88 -37.97 -68.14 10.1 -11.85 75.37 24.33zm-39.91 2.22l-27.47 -9.63 14.55 24.76 12.92 -15.13zm47.71 -12.5l-59.11 -42.22 8.74 -11.82 49.06 35.05 21.74 -29.42 10.04 7.2 -30.47 41.21zm73.73 -107.96l-8.57 13.53 -17.62 -3.39 -15.59 24.57 10.98 13.78 -8.37 13.15 -47.25 -62.28 8.32 -13.12 78.1 13.76zm-39.21 7.68l-28.59 -5.77 17.93 22.52 10.66 -16.75z"/>
    <path class="fil1" d="M1997.73 2448.55l49.65 29.83c10.8,6.49 13.24,18.92 7.35,37.27l-1.88 4.95c-7.78,12.96 -19.5,18.57 -35.13,16.91l6.72 31.92 -0.91 1.5 -22.66 -13.62 -10.74 -56.41 0.42 -0.66 27.65 16.61c6.38,3.85 12.81,2.01 19.28,-5.49 3.95,-6.57 2.88,-12.52 -3.21,-17.89l-32.11 -19.32 -36.13 60.19 -2.39 0.61 -13.08 -7.9 -0.58 -2.34 45.38 -75.56 2.37 -0.6zm127.27 167.16l-51.13 -19.63c-5.09,-1.95 -8.6,-5.19 -10.52,-9.7 -1.95,-4.49 -1.95,-9.2 -0.08,-14.11l26.52 -69.04 17.18 6.59 -26.49 69.07 51.11 19.61 26.53 -69.04 17.05 6.53 -26.53 69.06c-1.82,4.81 -4.93,8.28 -9.21,10.44 -4.33,2.17 -9.14,2.25 -14.43,0.22zm155.26 -36.24l-35.98 -7 -14.13 72.62 -17.91 -3.49 14.1 -72.63 -35.84 -6.96 3.5 -18.07 89.79 17.43 -3.53 18.1zm26.49 -13.19l57.87 3.03c12.56,0.68 20.55,10.5 23.98,29.49l0.66 5.23c-0.78,15.09 -8.48,25.55 -23.08,31.4l20.92 25.06 -0.08 1.73 -26.43 -1.39 -35.95 -44.74 0.04 -0.78 32.24 1.68c7.43,0.41 12.24,-4.24 14.43,-13.9 0.4,-7.65 -3.33,-12.42 -11.24,-14.31l-37.39 -1.94 -3.69 70.09 -1.82 1.64 -15.25 -0.8 -1.62 -1.8 4.59 -88.04 1.82 -1.65zm188.6 88.72l-54.72 4.79c-9.71,0.86 -15.93,-2.68 -18.61,-10.68 -0.58,-1.84 -0.98,-3.86 -1.18,-6.07l-4.83 -55.34c-0.42,-4.79 0.92,-9.22 4.07,-13.22 3.12,-4.03 7.29,-6.25 12.5,-6.71l54.72 -4.79c5.13,-0.42 9.62,0.98 13.42,4.28 3.81,3.31 5.95,7.46 6.37,12.47l4.85 55.36c1.09,12.22 -4.46,18.87 -16.59,19.91zm-1.58 -18.33l-4.87 -55.34 -54.72 4.79 4.85 55.34 54.74 -4.79zm143.56 -16.47l-11.04 3.17 -75.88 -40.8 16.57 57.81 -17.55 5.03 -25.46 -88.83 10.9 -3.1 76.01 40.73 -16.57 -57.78 17.56 -5.05 25.46 88.82zm52.88 -21.36l-17.05 6.53 -33.1 -86.21 17.05 -6.56 33.1 86.24zm128.25 -66.7l-21.9 12.12 -42.48 -15.31 -9.53 44.16 -22.04 12.21 16.07 -61.64 -60.85 -19.17 22.02 -12.2 42.51 15.29 9.54 -44.12 21.88 -12.17 -15.83 61.7 60.61 19.13z"/>
    <path class="fil1" d="M2387.46 1135.46c114.37,0 217.89,46.34 292.85,121.26 75.02,74.97 121.42,178.54 121.42,292.85 0,114.47 -46.36,218.06 -121.3,292.99 -74.94,74.94 -178.54,121.31 -292.97,121.31 -114.35,-0.1 -217.94,-46.45 -292.86,-121.43 -74.91,-74.93 -121.26,-178.5 -121.26,-292.87 0,-114.35 46.37,-217.92 121.28,-292.83 74.92,-74.92 178.49,-121.28 292.84,-121.28zm262.29 151.99c-67.08,-67.04 -159.81,-108.55 -262.29,-108.55 -102.35,0 -195.04,41.51 -262.1,108.57 -67.06,67.07 -108.56,159.75 -108.56,262.1 0,102.49 41.48,195.22 108.54,262.32 67.06,67.08 159.77,108.62 262.12,108.62 102.44,-0.1 195.15,-41.6 262.23,-108.68 67.09,-67.08 108.58,-159.81 108.58,-262.26 0,-102.43 -41.47,-195.11 -108.52,-262.12z"/>
    <path class="fil0" d="M2147.9 1244.68l172.23 169.32c12.69,2.03 18.86,-1.86 24.37,-11.66l-5.95 -239.47 -12.04 2.12 1.72 232.86 -169.53 -163.31 -10.8 10.14zm283.72 -81.17l-0.18 240.76c7.53,10.4 14.64,12.02 25.46,8.99l167.29 -176 -9.48 -7.19 -166.14 168.51 -4.37 -235.35 -12.58 0.28z"/>
    <path class="fil0" d="M2003.94 1501.14l244.36 -1.54c10.38,-7.55 12.01,-14.65 9.02,-25.49l-171.17 -163.73 -9.4 8.61 165.86 163.44 -241.18 5.23 2.51 13.48z"/>
    <path class="fil0" d="M2084.85 1785.08l173.19 -174.16c2,-12.68 -1.86,-18.87 -11.66,-24.4l-240.96 5.25 -0.56 12.74 237.01 -1.72 -168.3 174.54 11.28 7.75z"/>
    <path class="fil0" d="M2342.66 1932.93l0.98 -250.2c-7.56,-10.4 -14.67,-12 -25.51,-8.99l-171.21 178.62 8.61 9.42 170.94 -173.36 2.72 247.01 13.47 -2.5z"/>
    <path class="fil0" d="M2633.24 1850.34l-178.28 -177.34c-12.68,-2.03 -18.87,1.88 -24.42,11.66l4.4 250.11 12.75 0.58 -0.87 -246.23 178.69 172.52 7.73 -11.3z"/>
    <path class="fil0" d="M2771.94 1586.7l-245.17 0.7c-10.4,7.53 -12,14.67 -9.02,25.51l180.29 167.88 9.42 -8.61 -175.02 -167.61 242 -4.39 -2.5 -13.48z"/>
    <path class="fil0" d="M2685.18 1306.93l-168.17 169.15c-2,12.7 1.89,18.87 11.68,24.4l240.94 -5.23 0.56 -12.74 -237.03 1.7 163.32 -169.53 -11.3 -7.75z"/>
    <path class="fil0" d="M2336.26 1939.8l0 -363.26 0 363.26zm101.35 -369.05l0 369.05 0 -369.05zm-52.18 -81.35c31.7,0 57.41,25.73 57.41,57.45 0,8.51 -1.91,16.63 -5.23,23.9 -9.06,19.8 -28.99,33.52 -52.18,33.52 -20.85,0 -39.13,-11.1 -49.17,-27.73 -5.25,-8.68 -8.25,-18.85 -8.25,-29.69 0,-31.72 25.71,-57.45 57.42,-57.45z"/>
    <path class="fil1" d="M2314.54 1939.8l0 -357.93c-2.2,-4.43 -3.98,-9.06 -5.31,-13.81 -1.92,-6.93 -2.94,-14.06 -2.94,-21.21 0,-21.8 8.88,-41.6 23.16,-55.93 14.43,-14.36 34.18,-23.24 55.98,-23.24 21.8,0 41.6,8.9 55.97,23.26 14.28,14.33 23.16,34.11 23.16,55.91 0,5.71 -0.64,11.36 -1.83,16.79 -0.92,3.9 -2.04,7.63 -3.4,11.22l0 364.94 -43.44 0 0 -319.92c-9.4,3.93 -19.7,6.11 -30.46,6.11 -9.61,0 -18.87,-1.72 -27.45,-4.91l0 318.72 -43.44 0zm96.12 -418.3c-6.41,-6.39 -15.35,-10.38 -25.23,-10.38 -9.87,0 -18.81,4.01 -25.28,10.42 -6.41,6.45 -10.42,15.43 -10.42,25.31 0,3.5 0.44,6.77 1.26,9.67 0.86,3.17 2.16,6.17 3.77,8.82 3.24,5.25 7.75,9.64 13.08,12.62 5.15,2.91 11.16,4.59 17.59,4.59 7.12,0 13.75,-2.08 19.24,-5.59 5.77,-3.71 10.44,-9.02 13.26,-15.21 1.04,-2.3 1.89,-4.75 2.43,-7.25 0.46,-2.42 0.76,-5.01 0.76,-7.65 0,-9.9 -4.03,-18.88 -10.46,-25.35z"/>
   </g>
   <g>
    <path class="fil2" d="M6849 1256.85l-113.79 -142.34 106.56 -125.86 -70.36 0 -94.91 119.82 0 -119.82 -57.09 0 0 268.2 57.09 0 0 -82.44 20.92 -24.92 81.22 107.36 70.36 0zm215.93 0l0 -50.27 -132.69 0 0 -60.71 129.88 0 0 -50.27 -129.88 0 0 -56.69 132.69 0 0 -50.26 -189.78 0 0 268.2 189.78 0zm261.78 0l-60.32 -102.14c28.95,-6.84 58.71,-32.17 58.71,-79.61 0,-49.86 -34.18,-86.45 -90.07,-86.45l-125.45 0 0 268.2 57.08 0 0 -95.31 41.83 0 52.67 95.31 65.55 0zm-100.13 -145.56l-59.92 0 0 -72.38 59.92 0c22.92,0 40.21,13.67 40.21,36.19 0,22.52 -17.29,36.19 -40.21,36.19zm391.64 145.56l-103.34 -268.2 -71.57 0 -103.75 268.2 65.15 0 16.89 -45.44 114.99 0 16.49 45.44 65.14 0zm-97.3 -95.7l-83.65 0 41.83 -115.4 41.82 115.4zm292.72 95.7l0 -50.27 -113.4 0 0 -217.93 -57.08 0 0 268.2 170.48 0zm289.91 0l-103.34 -268.2 -71.57 0 -103.75 268.2 65.15 0 16.89 -45.44 114.99 0 16.49 45.44 65.14 0zm-97.3 -95.7l-83.65 0 41.83 -115.4 41.82 115.4zm320.46 100.52c72.39,0 107.37,-36.99 107.37,-86.04 0,-100.13 -154.01,-71.58 -154.01,-114.21 0,-16.08 13.67,-26.93 38.2,-26.93 27.35,0 56.3,9.24 78.01,29.36l31.77 -41.83c-26.54,-24.52 -61.92,-37.39 -104.55,-37.39 -63.12,0 -101.73,36.99 -101.73,81.63 0,100.92 154.41,68.35 154.41,115.79 0,15.28 -15.28,29.76 -46.65,29.76 -36.98,0 -66.35,-16.48 -85.23,-36.18l-30.97 43.42c24.93,25.33 61.92,42.62 113.38,42.62zm260.17 -4.82l0 -217.94 78 0 0 -50.26 -213.91 0 0 50.26 78.41 0 0 217.94 57.5 0zm338.96 0l-103.34 -268.2 -71.58 0 -103.74 268.2 65.15 0 16.89 -45.44 114.99 0 16.49 45.44 65.14 0zm-97.3 -95.7l-83.65 0 41.82 -115.4 41.83 115.4zm215.91 95.7l0 -217.94 78.01 0 0 -50.26 -213.92 0 0 50.26 78.42 0 0 217.94 57.49 0zm304.39 0l0 -50.27 -132.7 0 0 -60.71 129.88 0 0 -50.27 -129.88 0 0 -56.69 132.7 0 0 -50.26 -189.79 0 0 268.2 189.79 0zm364.71 0l-60.32 -102.14c28.96,-6.84 58.71,-32.17 58.71,-79.61 0,-49.86 -34.18,-86.45 -90.07,-86.45l-125.45 0 0 268.2 57.09 0 0 -95.31 41.82 0 52.67 95.31 65.55 0zm-100.12 -145.56l-59.92 0 0 -72.38 59.92 0c22.92,0 40.2,13.67 40.2,36.19 0,22.52 -17.28,36.19 -40.2,36.19zm262.56 150.38c81.63,0 121.03,-45.43 121.03,-112.18l0 -160.84 -58.31 0 0 159.22c0,37.4 -21.31,63.14 -62.72,63.14 -41.41,0 -63.14,-25.74 -63.14,-63.14l0 -159.22 -57.89 0 0 161.24c0,65.94 39.4,111.78 121.03,111.78zm293.13 -4.82l0 -217.94 78.01 0 0 -50.26 -213.92 0 0 50.26 78.42 0 0 217.94 57.49 0zm331.73 0l-60.31 -102.14c28.95,-6.84 58.71,-32.17 58.71,-79.61 0,-49.86 -34.19,-86.45 -90.08,-86.45l-125.45 0 0 268.2 57.09 0 0 -95.31 41.82 0 52.68 95.31 65.54 0zm-100.12 -145.56l-59.92 0 0 -72.38 59.92 0c22.92,0 40.2,13.67 40.2,36.19 0,22.52 -17.28,36.19 -40.2,36.19zm268.59 150.38c81.22,0 140.34,-57.9 140.34,-138.72 0,-80.82 -59.12,-138.73 -140.34,-138.73 -80.82,0 -139.92,57.91 -139.92,138.73 0,80.82 59.1,138.72 139.92,138.72zm0 -50.66c-49.46,0 -81.22,-38.2 -81.22,-88.06 0,-50.27 31.76,-88.06 81.22,-88.06 49.47,0 81.63,37.79 81.63,88.06 0,49.86 -32.16,88.06 -81.63,88.06zm420.59 45.84l0 -268.2 -57.1 0 0 168.48 -124.24 -168.48 -58.71 0 0 268.2 57.09 0 0 -174.92 127.88 174.92 55.08 0zm110.16 0l0 -268.2 -57.09 0 0 268.2 57.09 0zm296.35 0l-97.3 -137.92 91.27 -130.28 -68.76 0 -60.71 91.67 -61.53 -91.67 -67.96 0 91.29 130.68 -97.32 137.52 67.96 0 67.56 -98.11 67.15 98.11 68.35 0z"/>
    <polygon class="fil3" points="6080.34,2686.06 5357.24,2686.06 5357.24,2457.1 5817.58,2457.1 5817.58,2456.87 5867.36,2456.87 5867.36,1566.63 6111.11,1645.99 6111.11,2686.06 "/>
    <path class="fil3" d="M6516.72 2686.06l-213 0 0 -1126.58c0,-37.91 -2.81,-70.53 -8.39,-97.75 -5.11,-24.89 -12.54,-45.42 -22.22,-61.55 -5.84,-6.97 -12.12,-13.18 -18.76,-18.64 -7.52,-6.04 -15.65,-11.46 -24.3,-16.12 -7.95,-4.27 -17.18,-7.55 -27.54,-9.73 -11.23,-2.35 -23.91,-3.54 -38.1,-3.54 -19.43,0 -36.52,3.8 -51.24,11.39 -14.83,7.64 -27.93,19.38 -39.18,35.16 -12.26,17.18 -21.46,35.63 -27.55,55.3 -1.34,4.33 -2.53,8.72 -3.58,13.22l-227.37 -74.01c3.35,-9.44 6.98,-18.75 10.9,-27.96 9.99,-23.49 21.56,-45.42 34.6,-65.61 13.17,-20.44 27.98,-39.31 44.29,-56.51 16.34,-17.25 34.39,-32.7 54.03,-46.3 19.62,-13.61 40.65,-25.28 62.97,-34.89 22.68,-9.78 46.55,-17.12 71.54,-21.99 25.03,-4.83 50.95,-7.27 77.88,-7.27 112.38,0 203.23,36.42 272.51,109.23 34.56,36.35 60.53,79.6 77.8,129.63 17.02,48.98 25.48,104.37 25.48,166.09l0 1148.43 -30.77 0z"/>
    <path class="fil3" d="M7005.42 1865.48c-22.58,0.49 -40.93,8.42 -54.08,20.35 -14.4,13.08 -22.81,30.99 -23.87,49.15 -1.77,29.61 15.22,49.32 38.19,58.86 11.98,4.99 25.43,7.62 38.89,7.85 13.62,0.23 27.38,-1.97 39.91,-6.56 25.02,-9.17 44.4,-29.18 43.89,-59.82l-0.15 -0.8c-0.35,-16.95 -8.58,-33.99 -22.31,-46.95 -14.51,-13.69 -35.16,-22.57 -59.58,-22.17l-0.89 0.09zm1024.88 556.56c0,-7.76 -1.32,-14.58 -3.96,-20.39 -2.68,-5.93 -6.89,-11.4 -12.5,-16.32 -5.34,-4.66 -14.15,-8.63 -26.32,-11.81 -15.17,-3.96 -34.39,-6.33 -57.52,-7.04 -39.59,-1.35 -68.07,4.01 -85.32,15.99 -13.27,9.22 -19.95,24.87 -19.95,46.86 0,9.04 1.88,16.5 5.63,22.31 4,6.21 10.71,11.68 20.06,16.36 25.36,12.82 51.48,19.16 78.31,19.16 25.18,0 50.51,-6.34 75.88,-19.02 8.69,-4.35 15.12,-10.07 19.2,-17.04 4.36,-7.22 6.49,-16.94 6.49,-29.06zm-750.97 -45.69l-33.23 0.14 -41.63 0.92c-60.18,1.81 -120.27,3.75 -180.44,6.05 -15.74,0.74 -31.09,2.43 -45.97,5.06 -14.13,2.49 -27.38,5.88 -39.64,10.06 -6.44,2.25 -10.76,4.85 -12.86,7.76 -1.93,2.9 -2.77,7.47 -2.42,13.68l0 0.29c0.56,11.53 2.58,21.11 5.95,28.64 2.63,5.91 6.33,10.68 10.93,14.13 6.12,4.59 13.34,8.11 21.59,10.5 8.88,2.58 19.47,3.87 31.68,3.87 37.82,0 84.23,-10.17 139.15,-30.49 28.52,-10.55 56.6,-22.67 84.19,-36.38 21.09,-10.44 41.98,-21.87 62.7,-34.23zm54.43 -406.82c0.33,20.4 -2.18,39.78 -7.25,58.02 -5.27,18.94 -13.4,36.75 -24.02,53.44 -9.82,15.42 -20.7,29.58 -32.6,42.38 -11.93,12.87 -25.2,24.73 -39.66,35.46 -10.46,7.78 -21.5,14.96 -33.06,21.57l467.63 -8.04c48.5,-0.82 130.63,-8.87 204.46,-26.18 50.01,-11.72 94.84,-27.26 118.85,-46.68 11.53,-9.47 21.72,-19.96 30.54,-31.31 8.77,-11.3 16.27,-23.67 22.41,-36.97 6.19,-13.4 10.85,-26.78 13.94,-40.01 2.96,-12.7 4.44,-25.41 4.44,-38.11 0,-12.89 -1.34,-25.52 -3.99,-37.79 -2.74,-12.93 -6.8,-25.31 -12.1,-37.24 -5.34,-12.05 -12.07,-24.01 -20.08,-35.86 -7.46,-11.25 -16.29,-22.06 -26.32,-32.45 -19.04,-19.73 -42.86,-35.55 -71.41,-47.37 -14.36,-5.95 -29.41,-10.41 -45.05,-13.33 -15.79,-2.93 -32.95,-4.43 -51.38,-4.43 -31.31,0 -59.27,3.06 -83.86,9.16 -23.68,5.88 -44.61,14.65 -62.68,26.23 -15.61,10.01 -27.31,23.07 -35.02,39.07 -8.21,17.07 -12.35,38.28 -12.35,63.55l0 154.17 -248.79 80.93 0 -227.81c0,-12.57 -1.39,-24.21 -4.15,-34.81 -2.75,-10.6 -7.01,-20.81 -12.64,-30.56 -5.88,-10.15 -12.84,-19.55 -20.76,-28.13 -8.05,-8.72 -16.98,-16.51 -26.75,-23.35 -10.29,-7.2 -21.56,-13.62 -33.71,-19.17 -12.39,-5.67 -25.76,-10.48 -39.94,-14.37 -14.69,-4.01 -29.65,-7.03 -44.91,-9.02 -14.77,-1.93 -30.64,-2.91 -47.47,-2.91 -29.76,0 -55.45,1.03 -77.02,3.05l-3.51 0.35c118.84,7.08 254.93,45.5 258.21,238.52zm-514.41 225.87l9.77 -4.48c-22.15,-12.65 -42.7,-27.94 -61.67,-45.9 -26.63,-25.24 -47.35,-54.78 -62.12,-88.53 -14.38,-32.9 -22.99,-69.63 -25.75,-110.07 -3.52,-41.73 -2.51,-80.64 2.97,-116.62 5.6,-36.79 15.92,-70.73 30.95,-101.67 14.9,-30.71 32.69,-57.65 53.3,-80.76 20.64,-23.16 44.27,-42.58 70.81,-58.29 43.01,-27.19 92,-47.59 146.89,-61.09 54.17,-13.31 113.81,-19.99 178.87,-19.99 97.35,0 186.59,18.14 267.69,54.34 16.45,7.12 47.37,27.18 64.34,37.1 7.9,4.59 15.16,9.51 21.96,14.74l1.29 -1.45c5.56,-6.35 11.84,-11.77 18.76,-16.39l0.14 -0.14c5.24,-3.47 10.94,-6.46 17.08,-8.9 18.36,-11.44 38.72,-21.92 60.99,-31.34 22.81,-9.64 47.16,-17.95 72.92,-24.8 26.17,-6.96 53.12,-12.19 80.8,-15.57 27.92,-3.44 56.8,-5.17 86.49,-5.17 54.34,0 104.69,8.48 151.03,25.4 21.91,7.97 43.22,17.14 63.99,27.52 20.62,10.15 40.01,21.38 58.15,33.47l1.01 0.87c22.65,16.31 43.83,35.54 63.45,57.59 19.36,21.76 37.6,46.63 54.6,74.56 17.25,28.28 30.66,56.47 40.22,84.48 9.73,28.53 15.54,57.05 17.37,85.47l0 1.43c0.86,36.61 -1.34,72.37 -6.66,107.16 -5.32,35 -13.88,69.94 -25.59,104.62 -12.24,36.3 -29.02,68.44 -50.28,96.31 -9.47,12.44 -19.79,24.02 -30.99,34.73 7.12,5.04 13.75,10.34 19.85,15.9 20.44,18.61 35.18,40.1 44.12,64.37 7.76,20.97 13.15,41.91 16.15,62.76 3,20.73 3.58,41.59 1.7,62.43 -1.73,21.42 -6.23,42.05 -13.28,61.74 -6.82,19.5 -16.43,37.81 -28.6,54.85 -11.58,16.26 -24.61,31.1 -38.93,44.49 -14.35,13.43 -30.03,25.41 -46.93,35.91 -16.32,10.15 -33.54,19.19 -51.54,27.07 -17.72,7.75 -36.19,14.32 -55.32,19.64 -19.13,5.34 -37.79,9.33 -55.93,11.95 -18.8,2.72 -37.08,4.08 -54.69,4.08l-1.15 -0.16c-26.22,-0.87 -50.86,-3.26 -73.85,-7.12 -23.73,-3.97 -46.06,-9.55 -66.83,-16.62 -20.35,-6.94 -39.64,-15.05 -57.74,-24.34 -18.47,-9.44 -35.08,-19.8 -49.82,-30.94 -15.01,-11.36 -28.61,-23.84 -40.74,-37.41 -12.29,-13.76 -22.72,-28.2 -31.18,-43.24 -8.74,-15.54 -15.38,-31.83 -19.85,-48.74 -3.96,-15 -6.19,-30.21 -6.66,-45.61 -17.98,11.47 -53.26,36.22 -70.51,44.59 -42.82,26.03 -84.03,50.34 -123.52,72.84 -42.41,24.17 -82.84,46.48 -121.17,66.81 -42.09,22.24 -83.46,39.03 -124.13,50.26 -41.54,11.5 -82.09,17.25 -121.57,17.25 -59.51,0.67 -110.61,-5.02 -153.13,-17.25 -45.66,-13.09 -82.34,-33.74 -110.02,-61.89 -69.13,-70.3 -90.78,-186.89 -66.46,-280.74 17.02,-65.42 68.5,-122.24 128.95,-151.51z"/>
    <path class="fil3" d="M9063.69 2497.7l-6.96 -8.23c-22.31,-27.02 -43.67,-59.23 -63.99,-96.5l-0.1 -0.25c-58.74,-109.92 -67.87,-233.94 -76.06,-345.93 -6.66,-90.85 -12.75,-173.25 -44.55,-225.52l-9.45 -11.13c-10.67,-12.54 -23.16,-21.96 -37.41,-28.15 -14.54,-6.33 -31.53,-9.5 -50.91,-9.5 -25.2,0 -46.49,5.21 -63.81,15.59 -17.22,10.32 -31.43,26.32 -42.54,47.87 -25.69,49.86 -37.97,120.78 -38.37,193 -0.42,76.6 12.42,153.65 36.66,208.2l0.59 1.21c6.63,16.93 14.58,33.34 23.79,49.13 9.32,15.96 19.64,30.9 30.94,44.75 11.58,14.21 24.19,27.82 37.74,40.83 13.5,12.9 27.65,24.94 42.37,36.03 40.74,28.62 90.98,51.03 150.65,67.08 30.47,8.19 59.52,14.35 87.01,18.41l24.4 3.11zm457.31 -629.4l-9.75 -15.36c-18.35,-28.95 -39.89,-50.47 -64.51,-64.5 -24.39,-13.88 -52.57,-20.82 -84.49,-20.82 -68.24,0 -122.03,30.1 -161.25,90.27 -6.82,11.76 -13.08,24.99 -18.68,39.64 -5.79,15.14 -10.76,31.57 -14.9,49.19 -13.95,59.71 -16.02,119.57 -7.53,177.93 8.15,55.91 26.04,110.67 52.51,162.92l5.5 8.43c11.35,17.42 23.37,34.6 35.96,51.45 12.47,16.71 24.78,32.07 36.83,46.01 11.55,13.36 23.76,25.08 36.49,35.1 8.23,6.46 16.67,12.18 25.27,17.13 9.87,-5.62 19.5,-11.82 28.81,-18.63 13.21,-9.64 26.37,-21.01 39.42,-34.06 25.93,-25.93 49.6,-56.43 70.88,-91.42 40.86,-66.76 65.56,-150.37 68.92,-234.02 2.81,-69.99 -9.36,-139.78 -39.48,-199.26zm525.97 648.62c-65.79,64.09 -141.43,112.54 -227.13,144.93 -85.28,32.21 -180.23,48.5 -285.08,48.5 -16.4,0 -33.91,-0.66 -52.48,-1.95 -17.46,-1.21 -36.16,-3.14 -55.95,-5.71 -20.51,-2.66 -38.95,-6.43 -55.23,-11.28 -12.16,-3.66 -23.34,-7.87 -33.49,-12.66l-22.67 7.17c-9.6,2.93 -20.11,5.87 -31.26,8.77l-28.16 6.89c-9.14,2.11 -18.23,4.03 -27.21,5.74 -9.12,1.74 -18.66,3.21 -28.52,4.32 -9.22,1.05 -19.04,1.8 -29.37,2.23l-30.9 0.93 -34.81 0.42c-203.43,0 -371.24,-55.92 -503.35,-167.69 -116.3,-99.71 -191.29,-260.86 -212.39,-425.95 -20.5,-160.61 9.76,-326.02 102.37,-443.8 35.69,-45.36 77.3,-79.56 124.72,-102.49 47.39,-22.92 100.16,-34.41 158.2,-34.41 38.62,0 73.51,3.64 104.66,10.86 32.25,7.48 60.38,18.87 84.31,34.04 23.82,15.11 45.59,35.18 65.28,60.1 9.73,12.34 18.91,25.82 27.52,40.47 4.89,-5.92 9.89,-11.72 15.04,-17.41 16.72,-18.5 34.44,-35.4 53.05,-50.63l2.28 -1.69c37.29,-25.15 77.67,-44.13 121.02,-56.8 43.1,-12.61 88.69,-18.94 136.7,-18.94 119.54,0 221.34,49.86 305.28,149.55 72.17,85.82 109.88,191.72 120.13,301.49 11.27,120.67 -10.84,246.26 -57.01,354.67l-0.96 2.17c-11.07,21.29 -23.58,41.82 -37.41,61.49 -13.48,19.17 -28.55,37.76 -45.14,55.65 -9.66,10.43 -19.79,20.48 -30.38,30.14 37.4,-8.35 72.61,-20.56 105.61,-36.64 44.43,-21.66 84.84,-50.26 121.14,-85.79 32.35,-32.46 60.05,-73.41 81.45,-118.98 21.88,-46.65 37.34,-98.24 44.63,-150.58 4.09,-29.48 5.63,-118.82 4.34,-229.59 -1.19,-101.8 -4.88,-221.77 -11.25,-330.57l241.9 -101.24 1.36 98.24c4.94,106.93 8.14,225.35 9.64,327.03 1.71,115.49 1.26,208.89 -1.27,239.65 -6.38,77.49 -26.19,153.56 -58.63,223.89 -31.64,68.54 -75.42,131.71 -130.58,185.46z"/>
    <path class="fil4" d="M11872.4 1491.47c0,-15.63 -1.62,-28.43 -4.81,-38.32 -2.57,-7.95 -6.09,-13.97 -10.48,-17.95 -5.64,-5.11 -11.69,-8.98 -18.04,-11.54 -5.68,-2.32 -11.89,-3.49 -18.52,-3.49 -8.67,0 -16.67,1.36 -23.93,4.05 -7.69,2.91 -15,7.25 -21.96,13.06 -6.12,4.99 -10.62,10.85 -13.56,17.47 -3.02,6.79 -4.54,15 -4.54,24.56 0,22.15 5.46,40.15 16.34,53.89 4.52,5.7 9.96,10.01 16.24,12.86 6.66,3.01 14.74,4.53 24.12,4.53 9.8,0 18.33,-1.48 25.52,-4.4 6.61,-2.68 12.45,-6.78 17.38,-12.22 5.6,-6.16 9.74,-12.66 12.33,-19.43 2.6,-6.77 3.91,-14.48 3.91,-23.07zm463.26 1194.59l-215.43 0 0 -1231.04c0,-15.58 -4.25,-30.68 -12.75,-45.28 -4.86,-8.21 -10.18,-15.57 -15.94,-21.94 -6.02,-6.66 -12.97,-12.92 -20.77,-18.7 -6.14,-4.6 -12.94,-9 -20.35,-13.16l6.36 11.52c20.13,38.9 30.23,83.49 30.23,133.72 0,34.53 -6,67.15 -17.97,97.74 -11.89,30.45 -29.68,58.65 -53.26,84.5 -24.19,26.52 -52.88,46.46 -86,59.75 -32.54,13.06 -68.96,19.6 -109.23,19.6 -91.82,0 -161.92,-27.4 -210.16,-82.13 -23.68,-26.87 -41.52,-58.09 -53.4,-93.5 -11.62,-34.7 -17.46,-73.11 -17.46,-115.12 0,-52.83 9.85,-101.17 29.48,-144.91 19.69,-43.87 49.09,-82.69 88.12,-116.4 39.1,-33.78 87.69,-58.6 145.65,-74.4 56.33,-15.37 121.61,-22.19 195.73,-20.51l2.53 0.12c114.48,12.14 203.93,52.6 268.29,121.37 32.75,35.02 57.22,77.08 73.36,126.11 15.8,48.22 23.73,103.06 23.73,164.5l0 1158.16 -30.76 0z"/>
    <path class="fil4" d="M13761.89 2445.87l0 -419.87c0,-34.72 -4.51,-66.81 -13.5,-96.18 -8.93,-29.23 -22.41,-56.48 -40.32,-81.71 -14.93,-21.04 -39.22,-37.2 -72.81,-48.4 -37.22,-12.4 -85.57,-18.64 -145.02,-18.64 -86.45,0 -150.2,19.98 -191.17,59.94 -40.69,39.66 -61.04,101.35 -61.04,184.99l0 419.87 523.86 0zm221.58 246.34l-1443.79 0 0 -1140.49 258.5 0 0 894.15 183.77 0 0 -342.12c0,-87.57 6.73,-165.3 23.35,-233.48 17.15,-70.3 44.81,-129.98 86.3,-179.07 42.15,-49.87 97.81,-88.45 166.8,-114.22 65.54,-24.51 142.87,-37.4 231.84,-37.4 106.12,0 195.32,15.54 267.92,45 77.16,31.31 135.62,78.4 175.84,139.39 16.08,24.4 30.39,50.75 42.29,79.28 11.89,28.53 21.66,59.73 28.65,93.9 6.89,33.61 10.76,68.11 12.88,103.58 2.14,36.19 2.58,71.68 2.58,107.87l0 583.61 -36.93 0z"/>
    <path class="fil3" d="M5152.12 1523.73c165.69,0 304.65,66.47 403.73,174.39 100.55,109.51 158.05,260.82 158.05,426.56 0,128.87 -34.69,249.03 -97.25,347.45 -63.8,100.39 -156.48,178.02 -271.2,219.82l-83.64 -230.74c61.44,-22.37 111.79,-65.07 147.19,-120.79 37.82,-59.49 58.78,-134.05 58.78,-215.74 0,-103.81 -33.71,-196.07 -92.65,-260.25 -53.73,-58.53 -130.4,-94.58 -223.01,-94.58 -92.61,0 -169.28,36.05 -223.01,94.58 -58.93,64.18 -92.64,156.44 -92.64,260.25 0,104.16 26.98,189.72 78.34,245.98 45.94,50.33 115.87,79.6 208.06,79.6l0 246.12c-165.7,0 -297.2,-58.95 -389.76,-160.38 -93.6,-102.55 -142.76,-245.53 -142.76,-411.32 0,-165.74 57.5,-317.05 158.04,-426.56 99.08,-107.92 238.05,-174.39 403.73,-174.39z"/>
    <polygon class="fil4" points="11845.79,2686.06 11122.68,2686.06 11122.68,2457.1 11583.03,2457.1 11583.03,2456.87 11632.8,2456.87 11632.8,1863.21 11876.55,1937.14 11876.55,2686.06 "/>
    <path class="fil4" d="M10917.57 1523.73c165.68,0 304.65,66.47 403.73,174.39 100.54,109.51 158.04,260.82 158.04,426.56 0,128.87 -34.69,249.03 -97.24,347.45 -63.8,100.39 -156.48,178.02 -271.21,219.82l-83.64 -230.74c61.44,-22.37 111.79,-65.07 147.2,-120.79 37.81,-59.49 58.77,-134.05 58.77,-215.74 0,-103.81 -33.71,-196.07 -92.64,-260.25 -53.74,-58.53 -130.4,-94.58 -223.01,-94.58 -92.61,0 -169.28,36.05 -223.02,94.58 -58.93,64.18 -92.64,156.44 -92.64,260.25 0,104.16 26.98,189.72 78.34,245.98 45.94,50.33 115.88,79.6 208.07,79.6l0 246.12c-165.7,0 -297.21,-58.95 -389.76,-160.38 -93.61,-102.55 -142.77,-245.53 -142.77,-411.32 0,-165.74 57.5,-317.05 158.04,-426.56 99.08,-107.92 238.05,-174.39 403.74,-174.39z"/>
    <path class="fil4" d="M14425.63 2686.06l-213 0 0 -1126.58c0,-37.91 -2.81,-70.53 -8.39,-97.75 -5.11,-24.89 -12.54,-45.42 -22.22,-61.55 -5.84,-6.97 -12.12,-13.18 -18.77,-18.64 -7.52,-6.04 -15.64,-11.46 -24.29,-16.12 -7.96,-4.27 -17.18,-7.55 -27.54,-9.73 -11.23,-2.35 -23.91,-3.54 -38.11,-3.54 -19.43,0 -36.52,3.8 -51.24,11.39 -14.82,7.64 -27.92,19.38 -39.17,35.16 -12.26,17.18 -21.47,35.63 -27.56,55.3 -1.34,4.33 -2.53,8.72 -3.57,13.22l-227.37 -74.01c3.34,-9.44 6.97,-18.75 10.9,-27.96 9.99,-23.49 21.55,-45.42 34.6,-65.61 13.17,-20.44 27.97,-39.31 44.28,-56.51 16.34,-17.25 34.39,-32.7 54.03,-46.3 19.62,-13.61 40.65,-25.28 62.98,-34.89 22.67,-9.78 46.55,-17.12 71.54,-21.99 25.03,-4.83 50.94,-7.27 77.87,-7.27 112.39,0 203.24,36.42 272.51,109.23 34.57,36.35 60.54,79.6 77.8,129.63 17.02,48.98 25.48,104.37 25.48,166.09l0 1148.43 -30.76 0z"/>
   </g>
  </g>
 </g>
</svg>
