<?xml version="1.0" encoding="UTF-8"?>
<!DOCTYPE svg PUBLIC "-//W3C//DTD SVG 1.1//EN" "http://www.w3.org/Graphics/SVG/1.1/DTD/svg11.dtd">
<!-- Creator: CorelDRAW 2020 (64-Bit) -->
<svg xmlns="http://www.w3.org/2000/svg" xml:space="preserve" width="95mm" height="35mm" version="1.1" style="shape-rendering:geometricPrecision; text-rendering:geometricPrecision; image-rendering:optimizeQuality; fill-rule:evenodd; clip-rule:evenodd"
viewBox="0 0 9500 3500"
 xmlns:xlink="http://www.w3.org/1999/xlink"
 xmlns:xodm="http://www.corel.com/coreldraw/odm/2003">
 <defs>
  <style type="text/css">
   <![CDATA[
    .fil0 {fill:#1C1B17}
    .fil1 {fill:#1C1B17;fill-rule:nonzero}
   ]]>
  </style>
 </defs>
 <g id="Layer_x0020_1">
  <metadata id="CorelCorpID_0Corel-Layer"/>
  <g id="_1380770318560">
   <g>
    <path class="fil0" d="M3670.72 1618.48c-52.79,-32.91 -212.62,28.46 -322.92,-13.59 46.97,84.65 109.12,100.55 215.99,61.73 1.42,-0.51 -4.18,-17.02 -2.74,-17.56 2.25,-0.83 12.64,13.73 14.98,12.95 5.96,-1.98 -6.8,-16.45 -0.15,-19.31 2.71,-1.15 24.6,9.57 27.4,8.3 4.09,-1.84 8.28,-3.78 12.53,-5.79 0.93,-1.4 -7.91,-8.37 29.23,-32.81 3.55,-2.32 5.22,16.42 9.16,14.44 5.42,-2.69 10.92,-5.49 16.52,-8.36zm-55.01 9.84c-36.55,-16.66 -159.81,19.1 -236.22,-2.2 33.74,52.32 99.19,41.57 236.22,2.2z"/>
    <path class="fil0" d="M5424.26 698.1c163.71,8.03 195.45,190.62 127.31,216.7 -6.76,-13.89 -6.6,-26.18 -4.71,-38.44 2.74,-17.6 -16.63,-27.86 -36.11,-10.11 5.19,-27.62 15.14,-47.38 6.33,-69.15 -6.85,-16.94 -31.29,-33.96 -46.79,-64.25 50.64,48.86 72.18,61.27 57.35,114.15 22.46,-13.81 28.96,8.47 32.49,25.15 28.14,-46.94 -10.97,-142.66 -135.87,-174.05z"/>
    <path class="fil0" d="M5466.68 735.67c-11.23,-5.33 -30.57,9.62 -33.77,18.13 -3.2,8.53 8.82,39.61 -5.09,43.14 -13.93,3.55 -45.38,-1.32 -53.05,8.12 -7.67,9.44 7.5,53.53 7.5,53.53 0,0 -7.65,-37.46 5.97,-49.22 13.64,-11.76 58.46,12.47 59.44,-3.98 -3.21,-13.84 -8.68,-32.17 -4.52,-46.08 3.03,-10.13 13.15,-16.66 23.52,-23.64z"/>
    <path class="fil0" d="M5353.78 819.27c0,0 0.09,16.9 -12.74,35.01 -20.3,28.7 -72.94,33.3 -101.44,18.8 -49.28,-25.08 -41.61,-44.61 -65.46,-63.49 -12.68,-10.03 -30.02,-17.09 -43.5,-21.51 -22.48,-7.35 -21.61,-15.74 -1.53,-33.12 14.27,-12.36 48.43,-27.91 98.35,-3.4 -59.92,-3.79 -93.09,3.12 -99.32,22.67 6.81,-3.09 47.44,2.94 63.79,26.53 28.53,41.22 36.1,59.06 83.39,62.31 49.06,3.39 78.46,-43.8 78.46,-43.8z"/>
    <path class="fil1" d="M5159.81 685.1c-59.3,-27.44 -128.08,-70.61 -138.67,-137.11 -3.48,-21.86 1.32,-13.05 12.92,0.46 16.48,19.19 37.29,33.27 48.75,40.95l-28.92 -32.51c-12.38,-17.68 -23.03,-31.76 -33.91,-59.75 -9.13,-15.1 -11.71,12.42 -11.59,16.87 1.18,42.59 15.43,79.43 40.82,111.34 27.92,35.12 69.35,64.26 121.74,88.5l-11.14 -28.75z"/>
    <path class="fil0" d="M5233.64 648.42c0,0 5.38,-4.22 13.92,-6.01 8.52,-1.79 15.42,8.05 22.81,23.33 7.37,15.28 -11.84,-16.83 -22.18,-17.56 -10.34,-0.73 -14.55,0.24 -14.55,0.24z"/>
    <path class="fil0" d="M5258 654.91c0.17,0.67 -1.9,10.97 -10.95,9.66 -5.93,-0.86 -10.96,-9.56 -6.22,-13.91l4.29 -3.93 7.4 0.66c0,0 5.29,6.88 5.48,7.52z"/>
    <path class="fil0" d="M4169.8 698.1c-163.71,8.03 -195.45,190.62 -127.32,216.7 6.78,-13.89 6.61,-26.18 4.72,-38.44 -2.74,-17.6 16.63,-27.86 36.1,-10.11 -5.18,-27.62 -15.14,-47.38 -6.32,-69.15 6.85,-16.94 31.29,-33.96 46.79,-64.25 -50.64,48.86 -72.18,61.27 -57.35,114.15 -22.45,-13.81 -28.96,8.47 -32.5,25.15 -28.13,-46.94 10.98,-142.66 135.88,-174.05z"/>
    <path class="fil0" d="M4127.38 735.67c11.23,-5.33 30.57,9.62 33.77,18.13 3.2,8.53 -8.82,39.61 5.08,43.14 13.94,3.55 45.39,-1.32 53.07,8.12 7.66,9.44 -7.51,53.53 -7.51,53.53 0,0 7.65,-37.46 -5.97,-49.22 -13.64,-11.76 -58.46,12.47 -59.44,-3.98 3.21,-13.84 8.71,-32.17 4.53,-46.08 -3.04,-10.13 -13.17,-16.66 -23.53,-23.64z"/>
    <path class="fil0" d="M4240.27 819.27c0,0 -0.09,16.9 12.75,35.01 20.3,28.7 72.95,33.3 101.43,18.8 49.29,-25.08 41.6,-44.61 65.47,-63.49 12.68,-10.03 30.02,-17.09 43.5,-21.51 22.47,-7.35 21.61,-15.74 1.53,-33.12 -14.27,-12.36 -48.44,-27.91 -98.36,-3.4 59.93,-3.79 93.09,3.12 99.32,22.67 -6.79,-3.09 -47.43,2.94 -63.78,26.53 -28.54,41.22 -36.11,59.06 -83.39,62.31 -49.06,3.39 -78.47,-43.8 -78.47,-43.8z"/>
    <path class="fil1" d="M4434.25 685.1c59.3,-27.44 128.08,-70.61 138.67,-137.11 3.48,-21.86 -1.32,-13.05 -12.92,0.46 -16.48,19.19 -37.28,33.27 -48.76,40.95l28.94 -32.51c12.38,-17.68 23.02,-31.76 33.91,-59.75 9.12,-15.1 11.7,12.42 11.57,16.87 -1.18,42.59 -15.42,79.43 -40.8,111.34 -27.93,35.12 -69.36,64.26 -121.74,88.5l11.13 -28.75z"/>
    <path class="fil0" d="M4360.42 648.42c0,0 -5.39,-4.22 -13.93,-6.01 -8.51,-1.79 -15.41,8.05 -22.8,23.33 -7.37,15.28 11.84,-16.83 22.19,-17.56 10.33,-0.73 14.54,0.24 14.54,0.24z"/>
    <path class="fil0" d="M4336.06 654.91c-0.18,0.67 1.9,10.97 10.95,9.66 5.93,-0.86 10.96,-9.56 6.23,-13.91l-4.3 -3.93 -7.4 0.66c0,0 -5.29,6.88 -5.48,7.52z"/>
    <path class="fil0" d="M4633.91 349.62l6.14 0 57.18 68.81c-32.11,4.8 -56.9,32.29 -56.9,65.19l0 0c0,29.12 19.43,53.99 46.16,62.65 0.42,0.14 6.24,0.26 6.66,0.4l-46.85 55.23 -12.39 0 0 -252.28zm59.57 0l205.4 0 -56.48 68.06 -27.6 0 0 -0.44 -0.89 0 -35.46 0 -0.88 0 0 0.44 -27.61 0 -56.48 -68.06zm258.83 0l6.14 0 0 252.28 -12.39 0 -46.85 -55.23c0.43,-0.14 6.24,-0.26 6.66,-0.4 26.74,-8.66 46.17,-33.53 46.17,-62.65l0 0c0,-32.9 -24.8,-60.39 -56.91,-65.19l57.18 -68.81zm-59.68 252.28l-77.83 0 0 -16.08 0 -15.56 0 -114.8 62.01 0c18.36,0 33.4,11.57 33.4,28.16l0 0c0,16.58 -15.04,30.14 -33.4,30.14l-58.75 0 15.93 18.84 58.64 69.3zm-115.06 0l-77.85 0 58.65 -69.3 15.95 -18.84 -58.77 0c-18.37,0 -33.4,-13.56 -33.4,-30.14l0 0c0,-16.59 15.03,-28.16 33.4,-28.16l62.02 0 0 114.8 0 15.56 0 16.08z"/>
    <path class="fil1" d="M4890.8 276.77c1.62,-24.27 29.56,-65.58 60.03,-68.86 11.71,-9.37 61.57,-0.45 76.66,13.39 25.33,19.61 40.47,66.75 53.42,106.41 14.2,43.51 32.83,96.45 65.96,140.83 37.74,29.11 63.51,-21.23 79.07,43.12 3.5,8.57 1.26,24.23 6.4,27.22 5.15,2.99 17.7,-6.68 31.23,-5.46 35.65,-11.84 42.43,13.21 48.26,22.6 3.92,6.34 -1.16,18.71 5.79,22.73 15.32,8.84 41.84,6.32 57.42,5.6 14.86,-0.71 50.46,2.77 66.87,33.35 8.75,16.31 10.24,35.93 4.9,52.25 -4.73,14.39 -38.13,38.5 -55.4,43.18 -12.58,5.29 9.32,7.12 14.98,4.99 7.15,-2.67 16.93,-7.24 25.1,-10.82 25.34,-11.05 54.01,3.14 82.37,1 77.41,3.94 183.9,10.56 279.98,45.76 95.02,34.81 193.93,98.72 254.49,220.79 7.64,15.4 24.45,55.79 27.64,101.36 -18.63,-30.25 -41.56,-50.67 -70.9,-69.78 28.92,25.69 60.49,75.03 76.69,113.65 13.3,31.61 19.42,83.38 0.58,120.48 -2.88,50.15 17.6,73.05 26.4,122.3 0,0.04 -9.46,21.47 -6.67,50.34 3.38,34.83 22.85,79.13 20.63,91.49 43.52,-63.76 48.45,-63.3 23.65,-136.79 -3.61,-10.65 -38.99,-47.27 -34.08,-133.05 1.33,-23.21 2.66,-46.45 2.78,-70.33l0 -0.06 0.01 -6.21 0 -0.06c-0.15,-36.42 -4.7,-67.08 -13.28,-96.81 -8.54,-29.65 -20.95,-58.07 -36.9,-90.21 -64.64,-130.32 -162.17,-199.09 -263.8,-236.31 -100.57,-36.84 -204.19,-42.38 -283.61,-46.45 -32.51,-1.64 -39.9,-42.02 -51.31,-63.25 -25.59,-47.65 -58.94,-60.56 -85.62,-59.31 -21.56,1.01 -41.12,0.81 -53.17,-18.67 -7.08,-12.79 -13.39,-25.53 -36.17,-29.33 -17.9,-2.98 -36.66,8.72 -43.93,-10.65 -5.34,-14.26 -11.6,-30.98 -33.92,-41.26 -10.47,-4.82 -19.98,-7.16 -28.9,-9.37 -10.84,-2.65 -20.55,-5.03 -26.48,-11.79 -32.67,-37.28 -47.33,-82.17 -60.62,-122.87 -14.48,-44.38 -27.52,-84.23 -60.17,-109.52 -12.07,-9.33 -26.4,-15.68 -41.49,-18.81 -17.44,-3.59 -35.95,-2.82 -53.22,2.75 -17.47,5.63 -33.68,16.09 -46.26,31.84 -9.93,12.45 -17.55,28.18 -21.61,47.33l-2.19 15.99c-1.43,10.41 0.53,12.1 8.66,6.08 13.66,-10.14 22.75,-3.2 33.9,-12.65 10.39,8.43 10.12,29.8 24.45,22.56 4.66,-2.36 -6.86,-9.8 0.13,-23.18 13.82,-26.46 44.44,-22.66 51.2,-2.77 10.39,30.56 13.6,101.6 21.78,151.61 5.02,30.5 9.52,58.13 14.33,76.52l0 0.07 0.03 0.09c19.46,74.22 73.13,84.87 112.79,120.78 22.54,20.36 13.02,46.76 18.3,72.2 4.03,19.47 34.85,48.81 82.38,54.13 3.62,-1.41 -38.82,-24.37 -55.02,-43.5 -11.82,-13.94 -13.44,-31.46 -13.17,-37.35l0 -0.07c1.03,-21.71 -1.09,-35.82 -20.14,-53.06 -26.22,-23.72 -79.63,-53.9 -96.23,-81.12 -35.39,-57.99 -30.77,-145.93 -42.66,-212.09 -6.61,-36.76 -15.68,-65.46 -33.35,-73.18 -38.74,-16.93 -64.94,30.94 -88.99,20.21z"/>
    <path class="fil1" d="M6082.09 1237.57c-17.08,38.94 -30.26,107.88 -22.11,139.63 8,31.21 20.23,60.5 33.62,92.26l-0.01 0.01 0.05 0.14 0.06 0.06c5.96,14.23 8.2,30.33 8.73,46.02 0.21,6.14 1.54,15.36 -15.06,17.65 -0.11,3.6 15.33,7.62 16.04,11.14 2.51,12.56 9.15,24.43 11.88,34.87l1.79 6.72c4.99,18.11 -14.69,18.85 -19.48,18.69l-72.08 -5.99c-1.34,5.35 -39.41,11.18 -32.12,-14.7 3.18,-11.32 14.87,-24.52 31.46,-18.19 1.88,-8.66 -41.89,-15.36 -42.62,28.15 -0.13,8.19 -25.56,7.24 -25.55,-1.34 4.7,-31.32 13.18,-39.63 31.66,-32.02 1.48,-2.72 -6.68,-10.79 -5.59,-13.36 2.17,-5.15 13.44,-5.34 14.9,-11.16 -33.19,-28.84 8,-33.63 4.32,-42.69 -18.51,-45.27 -34.65,-74.51 -65.67,-105.2 -14.27,-14.09 -32.21,-30.76 -43.71,-50.1 -8.44,-14.19 -14.78,-32.1 -20.7,-71.27 -14.49,-45.13 -56.55,-179.41 -105.2,-195.01 5.91,6.9 13.3,18.68 20.74,32.52 3.56,6.63 7.12,13.74 10.54,21.02 14.78,31.52 26.65,66.2 22.48,78.89 -3.09,9.45 -8.35,22.73 -7.12,31.54 0.45,3.42 -7.73,14.25 -4.89,12.06 20.78,-15.92 44.43,13.92 44.19,30.1 4.66,68.8 9.81,50.28 75.86,120.15 14.59,15.42 21.57,33.23 31.31,50.35 9.99,17.53 13.32,43.21 10.52,66.39 -0.59,4.92 -1.45,9.64 -2.55,14.02 -1.07,4.28 -2.41,8.37 -4.01,12.16 -0.87,2.06 -1.74,3.86 -2.54,5.36l-2.69 4.95 -0.03 -0.02c-8.08,14.83 -13.91,25.53 -14.28,35.69 -0.71,19.38 11.23,27.68 45.51,28.91l110.92 3.98c27.99,0.99 36.98,-4.71 37.64,-22.56 0.22,-6.05 -1.39,-11.92 -3.56,-19.77 -1.01,-3.68 -1.4,-4.94 -1.79,-6.39 -2.41,-9.2 -9.75,-22.35 -9.32,-36.62 1.22,-39.88 -9.81,-72.74 -22.68,-105.76 -18.8,-48.25 -37.63,-89.52 -18.86,-191.28z"/>
    <path class="fil1" d="M5773.92 1316.04c-12.2,41.91 -32.8,101.08 -16.77,131.83 8.62,17.5 23.72,23.12 17.38,43.64l-0.02 -0.01c-6.42,13.27 -46.68,68.85 -29.03,79.87l-0.01 0.03c2.71,1.69 5.79,2.59 9.25,2.65 54.15,1 232.37,40.32 144.78,-66.68 -22.94,-36.76 12.05,-74.45 35.94,-100.36l-17.09 -18.53c-21.63,31.18 -55.69,77.2 -37.78,116.78 1.51,3.33 -11.29,4.24 -9.06,7.85 1,1.56 16.64,5.81 17.6,7.58 32.68,59.96 -52.89,41.3 -87.53,41.11 12.02,-11.38 10.82,-22.74 -0.14,-34.11 5.76,27.79 -21.81,38.91 -48.24,35.02 -10.15,-24.57 41.58,-42.06 49.23,-58.38 0,-0.01 -3.61,-26.64 -1.29,-27.32 45.81,-13.46 -3.96,-11.7 -10.35,-14.44 -51.22,-21.84 -4.5,-122.14 14.61,-151.53l-2.94 -1.89c-9.02,3 -18.85,8.02 -28.54,6.89z"/>
    <path class="fil1" d="M5856.94 1297.05c-45.76,10.49 -112.4,23.36 -166.97,0.93 -55.12,-22.66 -82.47,-41.7 -154.19,-93.15 -1.72,-1.22 -21.47,-19.74 -23.24,-21.02l-10.05 19.68c80.98,56.71 121.49,80.01 180.32,104.18 60.68,24.95 130.95,20.66 183.45,8.64l-9.32 -19.26z"/>
    <path class="fil0" d="M5822.14 1172.22c-13.05,133.2 -149.19,84.84 -250.47,35.47 55.52,49.01 213.71,103.04 268.07,9.94 0,0 -18.76,-46.55 -17.6,-45.41z"/>
    <path class="fil1" d="M5888.97 831.51c-81.74,-41.41 -160.74,-67.68 -251.95,-101.83 71.9,10.57 181.04,45.29 263.37,96.77 58.17,36.39 119.39,103.76 143.08,168.34 -39.49,-38.67 -70.15,-120.52 -154.5,-163.28z"/>
    <path class="fil1" d="M5344.72 908.48c-0.21,10.32 -26.58,104.31 -26.59,114.46 -0.21,98.35 8.21,189.52 34.05,281.9 2.36,8.51 11.45,41.14 17.51,72.86 8.57,44.83 9.03,79.37 -0.13,100.49 -22.22,17.43 -36.04,30.07 -37.76,45.32 -1.8,16.06 -3.45,23.62 4.98,27.72l1.05 -1.84 166.86 0c-1.39,3.2 -2.84,6.37 -4.27,9.54 11.13,-0.81 18.74,-3.05 20.19,-8.24 0.04,-0.14 6.17,-24.58 -7.58,-47.82 -12.48,-38.14 -13.55,-85.67 -8.14,-140.74 4.19,-42.83 4.82,-98.49 -1.79,-132.75 11.77,-7.67 28.62,-49.69 11.2,-127.61 -8.34,-37.3 0.28,-74.26 -1.34,-88.64 -11.99,28.15 -16.43,78.61 -9.79,124.46 3.47,23.88 3.63,40.22 -6.25,63.95 -18.71,27.39 -48.8,7.46 -46.2,-39.21 -17.15,64.85 26.02,70.2 39.2,71.38 6.56,33.93 2.31,139.38 -3.33,183.49 -1,11.94 -2.9,22.62 -3.8,33.27 -1.46,17.66 -18.79,24.07 -18.6,26.76 0.33,4.81 19.01,2.86 20.3,8.03 8.29,8.09 10.23,16.83 15.25,26.63 7.53,12.73 1.6,25.15 -3.71,30.65 -9.03,9.33 -65.25,3.88 -78.1,1.82 -53.11,-1.22 -33.69,-38.91 -17.91,-51.09 -12.93,3.48 -44.41,24.18 -23.78,48.03 -24.04,5.99 -30.35,1.84 -33.41,-6.32 8.52,-45.59 36.5,-32.81 44.08,-42.31 4.82,-6.09 6.96,-19.27 7.13,-36.46 0.15,-18.21 16.04,-21.61 11.51,-23.59 -12.67,-5.56 -13.58,-15.41 -14.11,-20.34 -2.93,-26.6 -8.06,-55.83 -13.94,-81.74 -2.66,-11.71 -5.45,-22.79 -8.18,-32.61 -2.81,-10.06 -5.57,-18.75 -8.12,-25.5l-0.06 -0.18 -0.03 -0.05c-16.2,-43.18 -27.7,-189.52 -21.78,-249.42l5.39 -114.3zm16.39 363.72l0 0 0 0z"/>
    <path class="fil1" d="M5283.17 920.67c-50.49,73.61 -98.09,157.09 -160.93,217.04 -31.1,29.69 -78.09,73.45 -84.4,101.5l-0.02 0.12 -0.07 0.06c-2.99,13.46 -2.55,33.54 -2.09,53.93 0.53,24.11 1.1,47.37 -0.4,54.64l-3.04 0.27 -0.07 0.12c-2.21,3.03 -4.12,6.2 -5.8,9.39 -1.64,3.14 -3.05,6.31 -4.23,9.42 -19.18,50.13 14.33,43.87 44.03,45.32 16.67,0.84 37.24,2.11 53.79,2.11 32.64,0 60.27,1.75 62.48,-11.37l0.01 -0.15 1.44 -3.51c5.36,-26.39 -10.61,-38.26 -19.34,-52.61 -3.5,-16.41 2.04,-47.06 7.98,-53.84l0.05 -0.06 0.04 -0.02 -0.01 0c0.91,-1.03 -0.19,-6.93 2.17,-9.17 24.01,-22.71 53.7,-51.38 79.96,-73.34 11.9,-9.93 30.38,-25.23 41.46,-27.37 10.93,-2.11 23.19,-3.17 38.46,2.74l9.79 -10.82c-20.97,-8.11 -38.7,-10.3 -55.57,-7.05 -16.75,3.23 -31.78,11.69 -47.62,24.94 -22.57,18.85 -45.88,48.39 -65.58,66.02 -3.68,3.29 -14.9,9.19 -17.97,12.12 -3.01,2.82 -6.81,0.34 -8.41,2.17l-0.07 0.05 -0.02 0.04 0 0c-6.53,7.53 3.75,26.21 2.51,41.58 -1.47,18.27 2.83,18.88 -8.24,40.33 14.38,6.99 28.44,14.56 24.33,34.86 -5.21,25.83 -69.15,12.93 -83.97,12.93 -22.53,8.36 -3.68,-16.35 -14.81,-23.62 -7.35,31.69 -26.64,17.27 -32.47,16.81 -20.12,-9.92 -1.23,-40.13 29.11,-44.86 -19.15,-15.91 -11.08,-30.6 0.73,-36.35 -19.02,-2.88 -19.01,-65.99 -1.47,-88.09 30.77,-38.78 45.82,-57.34 72.55,-82.84 8.82,-8.41 35.22,-43.69 45.59,-45.85 17.32,-3.61 18.45,33.59 22.59,11.89 3.35,-17.55 -4.28,-27.32 2.35,-44.63 16.94,-44.21 55.43,-94.24 78.47,-128l-3.29 -16.85z"/>
    <path class="fil0" d="M5229.92 868.62c0,0 46.63,17.33 51.55,57.64 4.93,40.3 45.98,107.36 45.98,107.36 12.55,-54.58 -35.97,-71.94 -33.25,-108.74 1.27,-17.24 -11.66,-37.12 -20.51,-45.19l-43.77 -11.07z"/>
    <path class="fil0" d="M5339.85 781.21c4.23,26.03 24.29,52.42 15.45,76.36 -24.14,65.25 -4.86,74.56 -10.3,110.84 -7.5,49.9 -9.06,72.63 33.42,39.37 22.99,-18 32.02,-52.14 86.13,-60.68 102.18,-16.11 110.17,-56.74 109.92,-56.96l-17.94 -15.33c-0.22,8.85 -4.42,-5.63 -6.82,0.8 -9.06,24.29 -31.56,33.55 -51.24,43.78 -44.41,23.14 -81.99,23.72 -136.94,78.01 -8.16,-32.98 -4.26,-71.47 5.98,-125.19 5.95,-31.34 -16.03,-53.55 -27.66,-91z"/>
    <path class="fil0" d="M5273.42 1461.69c-153.39,-117.91 -309.64,-54.68 -429.67,92.69 -4.87,5.98 -2.22,9.87 -7.01,16.15 124.23,-146.31 292.58,-225.3 437.86,-92.57 40.98,37.43 73.3,28.19 110.22,39.54 -52.07,-40.93 -73.61,-26.78 -111.4,-55.81z"/>
    <path class="fil0" d="M5385.9 1503.82c-35.83,-11.72 -65.03,54.57 -114.91,19.16 13.11,31.58 12.18,54.87 -0.03,84.67 -0.52,1.24 -17.48,-128.73 -128.13,-158.76 -111.19,-30.18 -213.76,24.59 -300.07,126.97 -4.19,4.96 -1.9,8 -6.02,13.2 91.82,-104.63 200.06,-161 314.73,-116.88 75.19,28.92 100.4,91.05 112.39,160.23 3.06,17.63 39.69,-40.54 21.02,-89.65 64.17,12.53 95.31,-37.06 101.02,-38.94z"/>
    <path class="fil0" d="M4844.51 1609.32c34.95,-46.93 116.41,-107.24 178.89,-118.49 54.48,-9.82 103.68,13.37 110.31,82.72 18.27,-9.96 28.11,5.83 48.08,-14.94 3.91,17.18 13.16,28.7 25.45,41.95 1.71,1.46 3.51,3.03 5.42,4.74l17.55 16.94c18.25,-31.83 19.82,-65.95 -16.35,-111 19.28,38.64 24.89,69.12 10.13,80.6 -18.3,-3.88 -31.23,-25.45 -40.51,-51.51 -11.53,19.94 -27.28,12.46 -42.18,18.28 -10.3,-67.53 -64.24,-86.88 -118.95,-76.99 -58.67,10.6 -152.82,73.78 -176.15,122.71 0,0 0.85,5.81 -1.69,4.99z"/>
    <path class="fil1" d="M4875.3 1608.01c1.4,0.81 66.13,-20.69 119.13,-20.76 41.07,-0.05 37.57,34.17 81.18,42.94 14,2.83 31.88,3.66 44.95,-2.83 21.1,-10.46 25.99,-34.67 -0.6,-43.43 -17.84,-5.88 -29.68,6.21 -29.98,25.08 -17.47,-2.29 -14.08,-48.49 29.59,-40.98 23.61,6.46 31.23,27.4 25.42,45.33 -10.19,9.55 -20.77,18.71 -31.73,27.42 -11.91,2.51 -25.79,1.36 -37.33,-1.02 -39.1,-8.07 -41.27,-36.23 -81.98,-39.39 -36.32,-2.83 -77.74,5.36 -100.32,10.7 -7.83,1.85 8.49,8.4 -9.11,-0.47l-9.22 -2.59z"/>
    <path class="fil0" d="M4862.98 1599.76c38.73,-30.61 80.65,-60.65 134.69,-62.02 26.82,-0.68 65.74,2.66 82.19,50.36 1.71,4.94 4.47,11.38 8.67,17.54 3.2,4.67 8.37,8.49 11.78,7.5 -14.69,7.91 -19.97,-1.82 -23.27,-10.03 -17.16,-42.4 -40.14,-56.24 -79.92,-55.72 -53.72,0.67 -97.3,27.92 -133.57,61.08l-0.57 -8.71z"/>
    <path class="fil0" d="M5026.36 1606.88c19.73,20.14 19.88,47.26 10.18,62.28 -16.91,26.16 -60.8,24.18 -62.36,-5.86 -4.4,-25.98 37.12,-41.32 42.39,-8.08 2.65,-14.94 -7.27,-26.78 -20.09,-29.58 -29.51,-6.42 -46.12,22.37 -35.66,47.45 14.26,34.21 57.91,31.33 76.42,14.06 20.62,-19.21 22.64,-55.23 -10.88,-80.27z"/>
    <path class="fil0" d="M4839.2 1662.62c-4.2,0.82 -8.91,-3.28 -9.07,-4.94 -4.34,-44.12 18.03,-158.7 61.17,-177.33 -23.33,-15.16 -37.15,-3.1 -49.79,11.33 -15.27,17.44 -23.39,88.91 -26.43,91.3 0,-5.17 11.71,-61.76 8.23,-102.95 -1.4,-16.54 -13.36,-35.5 -26.27,-45.49l0 -9.91c22.94,14.39 36.95,30.81 36.95,54.31 22.67,-15.6 40.08,-23.16 76.1,-2.62 -45.54,24.85 -85.72,142.55 -70.89,186.3z"/>
    <path class="fil0" d="M5999.76 1785.31c-192.26,128.35 -388.09,59.52 -538.53,-100.93 -6.12,-6.52 -2.79,-10.75 -8.79,-17.59 155.71,159.31 364.21,242.8 546.29,98.32 51.35,-40.76 88.7,-20.16 119.24,12.21 -48.88,-14.42 -70.86,-23.63 -118.21,7.99z"/>
    <path class="fil0" d="M6116.16 1776.37c-10.27,-41.72 -24.16,-85.83 -102.41,-61.62 16.42,-31.55 13.88,-34.5 19.7,-68.12 0.11,-0.73 -21.92,31.37 -66.63,69.12 -32.64,27.54 -76.97,60.72 -135.42,73.45 -117.32,25.53 -247.28,-19.58 -352.37,-110.51 -9.97,-8.63 -19.43,-17.5 -28.7,-26.47 0.92,-1.45 1.85,-2.91 2.77,-4.37 9.71,9.3 19.7,18.47 30.51,27.23 108.45,88.21 234.69,137.19 365.66,97 39.73,-12.2 77.26,-38.19 106.72,-66.28 40.37,-38.51 69.43,-79.21 103,-77.76 -15.42,36.6 -7.17,38.8 -20.78,67.87 80.45,-12.54 85.92,58.69 77.95,80.46z"/>
    <path class="fil0" d="M6024.55 1648.37c-8.67,-13.48 -36.91,11.9 -51.96,16.97 15.09,-31.56 -9.16,-38.59 -28.28,-43.06 -1.64,-0.37 -16.76,90.8 -144.15,120.94 -110.54,26.18 -233.33,-26.36 -331.16,-122.25 0.87,-1.53 1.71,-3.09 2.58,-4.64 101.76,93.47 221.85,148.78 345.82,107.38 86.61,-28.91 112.8,-86.69 124.4,-120.17 17.7,1.74 52.17,19.65 39.67,48.73 28.53,-24.05 60.51,-25.74 70.48,-22.24l-27.4 18.34z"/>
    <path class="fil0" d="M5487.64 1586.29c35.97,16.35 91.16,27.6 130.15,20.49 51.73,-9.45 85.01,-47.86 75.36,-86.52 13.38,0.16 47.74,6.1 42.77,52.96 -2.89,-18.77 -14.33,-41.03 -31.59,-40.71 8.96,33.7 -27.49,72.02 -89.32,82.11 -38.82,6.33 -92.21,-3.81 -128.09,-22.11 -0.92,-0.38 -1.56,-0.8 -2,-1.23 0.84,-1.67 1.71,-3.34 2.55,-5.03 0.07,0.01 0.13,0.03 0.17,0.04z"/>
    <path class="fil0" d="M5514.87 1655.87c18.8,11.48 47.03,27.42 69.26,34.92 56.02,18.85 129.36,5.68 159.24,0.06 11.89,-2.24 26.94,9.64 32.49,20.69 11.55,-2.12 29.76,-33.95 -0.92,-63.62 -9.26,2.43 -13.57,2.58 -14.22,4.29 6.63,2.46 11.98,4.62 16.35,9.37 10.38,11.28 9.93,26.73 -2.24,30.14 -19.92,-22.64 -45.64,-12.15 -70.89,-5.06 -32.79,9.23 -80.89,10.04 -119.1,-1.06 -23.79,-6.91 -49.24,-22.77 -70.65,-33.66 -3.84,2.46 -0.58,3.16 0.68,3.93z"/>
    <path class="fil0" d="M5774.31 1650.2c29.2,-7.17 38.46,-44.43 54.35,-53.94 -36.24,-35.11 -110.92,47.48 -180.83,50.29 -49.67,2.01 -109.55,-11.83 -168.28,-44.86 -1.14,2.12 -2.27,4.24 -3.41,6.34 94.92,55.6 209,63.76 297.67,4.3 10.74,-7.21 21.59,-13.42 33.69,-12.54 -18.57,20.17 -13.09,31.2 -48.06,52.08l14.87 -1.67z"/>
    <path class="fil0" d="M5708.07 1598.09c20.05,-14.01 24.91,-21.67 70.09,1.19l12.89 -8.68c-42.36,-20.86 -55.51,-24.51 -82.98,7.49z"/>
    <path class="fil0" d="M5923.19 1617.07c53.4,-33.29 215.1,28.8 326.68,-13.74 -47.51,85.64 -110.39,101.72 -218.5,62.44 -1.44,-0.51 4.23,-17.21 2.77,-17.76 -2.28,-0.83 -12.79,13.89 -15.16,13.1 -6.03,-2 6.88,-16.63 0.16,-19.53 -2.74,-1.17 -24.89,9.68 -27.73,8.39 -4.13,-1.85 -8.37,-3.82 -12.67,-5.86 -0.94,-1.41 8,-8.46 -29.57,-33.18 -3.59,-2.35 -5.29,16.6 -9.27,14.6 -5.48,-2.72 -11.05,-5.55 -16.71,-8.46zm55.64 9.96c36.99,-16.86 161.68,19.32 238.97,-2.22 -34.11,52.92 -100.33,42.04 -238.97,2.22z"/>
    <path class="fil0" d="M5730.81 1563.77c38.63,-28.53 155.61,24.66 236.35,-11.77 -35.64,89.51 -91.56,79.09 -236.35,11.77zm38.88 8.93c26.77,-14.44 118.35,16.15 174.28,-2.3 -24.69,45.33 -73.97,36.4 -174.28,2.3z"/>
    <path class="fil0" d="M5418.23 1699.24c-5.78,111.83 -29.34,189.2 -104.19,303.43 -12.76,19.49 -10.78,30.62 -13.91,63.59 -36.37,2.86 -75.05,-13.84 -70.55,-50.63 -24.59,12.52 -59.42,33.04 -88.12,15.18 1.37,-36.58 21.17,-58.34 47.52,-80.86 -7.71,-1.49 -14.02,-10.19 -20.27,-28.08 10.73,-3.1 36.89,-5.66 63.18,-17.74 39.6,-18.21 84.63,-51.82 106.88,-113.26 3.51,-3.48 7.01,-6.98 10.47,-10.53 -5.33,66.34 -63.75,117.22 -108.33,136.87 -23.69,10.46 -51.83,9.75 -58.06,12.58 4.79,11.91 14.73,15.95 26.22,15.55 -24.64,22.91 -49.63,44.47 -49.97,77.69 30.12,5.91 62.45,-13.45 90.94,-38.03 -26.71,62.04 13.89,64.12 36.05,70.36 -0.6,-23.66 5.67,-51.31 15.89,-66.27 72.67,-106.61 98.16,-189.2 104.34,-274.12 4.06,-5.18 8,-10.44 11.91,-15.73z"/>
    <path class="fil0" d="M5221.91 1978.22c78.69,-41.31 145.78,-107.25 163.43,-237.49 -4.65,5.47 -9.37,10.91 -14.19,16.25 -8.26,109.08 -76.72,170.13 -149.24,221.24z"/>
    <path class="fil0" d="M5514.56 1797.21c-5.14,25.74 7.42,47.45 21.61,54.66 24.67,12.57 56.08,-10.55 43.19,-35.26 -8.89,-22.89 -46.66,-14.76 -35.01,14.36 -8.93,-10.63 -7.16,-24.94 0.98,-33.45 18.75,-19.6 44.45,-4.77 48.46,20.35 5.48,34.27 -28.02,53.38 -49.74,48.69 -24.17,-5.22 -42.5,-32.94 -29.49,-69.35z"/>
    <path class="fil0" d="M5447.1 1657.3c18.13,19.22 47.3,54.75 62.62,97.97 6.76,19.09 8.01,39.74 6.68,61.59 -1.46,24 -6.83,44.92 -11.36,68.15 -3.22,16.4 -3.09,34.64 14.19,43.93 -19.33,-3.53 -23.49,-16.17 -23.75,-29.33 -0.44,-24.23 2.92,-49.38 4.04,-73.62 1,-21.93 1.18,-42.68 -2.01,-58.18 -10.06,-48.8 -28.84,-78.1 -51.98,-108.03 0.53,-0.83 1.05,-1.66 1.57,-2.48z"/>
    <path class="fil0" d="M5427.34 1686.62c6.62,12.4 13.55,28.67 14.95,44.4 1.97,22.24 -8.77,69.55 -20.7,86.7 -5.03,7.23 -0.66,-13.16 -0.75,-13.92 1.16,-3.46 2.22,-6.87 3.23,-10.22 12.77,-42.86 12.4,-77.23 1.96,-105.11l1.31 -1.85z"/>
    <path class="fil0" d="M5404.65 1818.69c14.65,12.02 23.91,17.16 39.09,13.83 -9.81,4.72 -19.88,14.04 -24.56,34.52 9.44,2.23 34.81,11.99 45.85,2.59 -1.5,20.67 6.04,42.36 17.78,56.16 11.73,13.79 26.76,21.95 38.38,20 -1.74,-0.75 -2.67,-7.31 -4.64,-7.45 -23.24,-1.69 -30.31,-11.25 -35.76,-29.5 -5.07,-16.98 -0.78,-42.33 5.65,-72.43 -19.13,28.76 -38.82,25.55 -50.09,19.36 6.61,-22.39 18,-20.56 28.8,-44.01 -14.95,1.86 -29.38,17.47 -44.86,5.55 5.37,-9.49 11.81,-30.1 8.01,-39.6 -7.89,27.17 -16.3,36.42 -23.65,40.98z"/>
    <path class="fil0" d="M5454.79 1715.63c11.78,26.82 22.57,65.51 9.02,98.51 -2.97,7.22 -16.81,24.02 -16.93,23.25 1.17,-3.44 3.42,-17.46 5.74,-20.82 15.4,-22.43 12.05,-67.8 0.04,-101.68l2.13 0.74z"/>
    <path class="fil0" d="M5505.14 1726.04c17.74,15.99 43.03,36.85 44.12,65.65 0.26,6.33 -8.59,27.5 -8.93,26.95 -0.31,-2.94 -3.36,-14.02 -2.78,-17.27 3.83,-21.62 -13.94,-54.05 -34.23,-75.16l1.82 -0.17z"/>
    <path class="fil0" d="M5478.59 1877.35c-38.05,-38.6 -67.17,38.1 -112.6,18.8 29.13,67.73 87.94,35.81 112.6,-18.8zm-14.8 5.57c-17.4,-13.22 -58.13,34.09 -85.13,23.82 38.78,32.79 73.5,3.72 85.13,-23.82z"/>
    <path class="fil0" d="M5515.99 1538.96c-1.06,3.13 32.8,1.04 29.63,32.31 -3.18,31.25 22.21,40.63 22.21,40.63l-49.72 -11.46 -31.77 -11.96c4.25,-8.4 8.33,-16.91 12.26,-25.49 8.89,-12.8 17.94,-25.64 17.39,-24.03z"/>
    <path class="fil0" d="M4832.42 1629.12c0.78,0.8 2.76,6.55 3.34,5.32 25.39,-53.42 75.64,-15.77 58.07,16.87 -9.54,17.72 -39.1,17.56 -41.55,-1.35 -2.86,-16.83 23.56,-24.5 26.98,-2.97 1.72,-9.68 -4.72,-17.34 -13.01,-19.16 -19.13,-4.16 -29.89,14.51 -23.12,30.76 9.24,22.16 41.82,21.88 54.13,7.58 24.96,-28.93 7.54,-64.8 -28.76,-66.15 -30.11,-1.14 -34.29,30.43 -36.08,29.1z"/>
    <path class="fil0" d="M4921.39 1710.08c-13.08,-6.12 -25.5,6.09 -7.55,9.6 28.38,5.53 47.76,-22.69 34.73,-44.33 -8.77,-14.57 -34.53,-15.98 -39.06,4.58 -2.86,16.83 25.66,21.63 29.09,0.09 1.72,9.68 -3.88,18.59 -16.77,20.81 -19.32,3.3 -31.56,-15.34 -24.79,-31.58 9.23,-22.16 41.83,-21.87 54.13,-7.59 24.93,28.92 8.97,66.56 -29.92,65.8 -60.95,-1.2 -14.75,-41.2 0.14,-17.38z"/>
    <path class="fil0" d="M4796.19 1656.3c58.49,0 105.93,30.7 105.93,68.53 0,2.64 -0.23,5.23 -0.67,7.78 -4.56,0.97 -9.14,1.87 -13.74,2.72 0.46,-2.27 0.7,-4.58 0.7,-6.91 0,-31.97 -44.07,-62.25 -91.72,-62.25 -47.67,0 -92.24,29.8 -92.24,61.77 0,2.55 0.28,5.06 0.81,7.53 -4.8,-0.88 -9.57,-1.83 -14.33,-2.84 -0.45,-2.55 -0.69,-5.16 -0.69,-7.8 0,-37.83 47.45,-68.53 105.95,-68.53z"/>
    <path class="fil1" d="M4703.26 276.77c-1.63,-24.27 -29.56,-65.58 -60.03,-68.86 -11.71,-9.37 -61.58,-0.45 -76.66,13.39 -25.32,19.61 -40.47,66.75 -53.42,106.41 -14.19,43.51 -32.84,96.45 -65.96,140.83 -37.74,29.11 -63.51,-21.23 -79.07,43.12 -3.51,8.57 -1.27,24.23 -6.4,27.22 -5.15,2.99 -17.7,-6.68 -31.24,-5.46 -35.64,-11.84 -42.43,13.21 -48.25,22.6 -3.92,6.34 1.16,18.71 -5.79,22.73 -15.32,8.84 -41.84,6.32 -57.41,5.6 -14.87,-0.71 -50.47,2.77 -66.88,33.35 -8.75,16.31 -10.24,35.93 -4.9,52.25 4.72,14.39 38.11,38.5 55.4,43.18 12.59,5.29 -9.32,7.12 -14.98,4.99 -7.16,-2.67 -16.93,-7.24 -25.1,-10.82 -25.34,-11.05 -54.01,3.14 -82.37,1 -77.41,3.94 -183.9,10.56 -279.98,45.76 -95.03,34.81 -193.93,98.72 -254.49,220.79 -7.64,15.4 -24.46,55.79 -27.65,101.36 18.64,-30.25 41.57,-50.67 70.92,-69.78 -28.94,25.69 -60.5,75.03 -76.71,113.65 -13.29,31.61 -19.41,83.38 -0.57,120.48 2.87,50.15 -17.61,73.05 -26.4,122.3 0,0.04 9.46,21.47 6.67,50.34 -3.38,34.83 -22.85,79.13 -20.63,91.49 -43.53,-63.76 -48.46,-63.3 -23.65,-136.79 3.61,-10.65 38.98,-47.27 34.08,-133.05 -1.33,-23.21 -2.66,-46.45 -2.79,-70.33l0 -0.06 0 -6.21 0 -0.06c0.14,-36.42 4.7,-67.08 13.28,-96.81 8.54,-29.65 20.95,-58.07 36.88,-90.21 64.66,-130.32 162.2,-199.09 263.82,-236.31 100.57,-36.84 204.18,-42.38 283.61,-46.45 32.51,-1.64 39.89,-42.02 51.3,-63.25 25.58,-47.65 58.95,-60.56 85.63,-59.31 21.56,1.01 41.12,0.81 53.17,-18.67 7.08,-12.79 13.39,-25.53 36.17,-29.33 17.89,-2.98 36.66,8.72 43.92,-10.65 5.34,-14.26 11.61,-30.98 33.92,-41.26 10.48,-4.82 19.99,-7.16 28.91,-9.37 10.84,-2.65 20.55,-5.03 26.48,-11.79 32.67,-37.28 47.33,-82.17 60.62,-122.87 14.49,-44.38 27.5,-84.23 60.17,-109.52 12.07,-9.33 26.4,-15.68 41.48,-18.81 17.45,-3.59 35.96,-2.82 53.23,2.75 17.47,5.63 33.68,16.09 46.25,31.84 9.94,12.45 17.56,28.18 21.63,47.33l2.18 15.99c1.43,10.41 -0.53,12.1 -8.66,6.08 -13.66,-10.14 -22.77,-3.2 -33.9,-12.65 -10.4,8.43 -10.12,29.8 -24.45,22.56 -4.65,-2.36 6.85,-9.8 -0.13,-23.18 -13.82,-26.46 -44.43,-22.66 -51.2,-2.77 -10.39,30.56 -13.61,101.6 -21.79,151.61 -5,30.5 -9.52,58.13 -14.32,76.52l0 0.07 -0.03 0.09c-19.46,74.22 -73.12,84.87 -112.8,120.78 -22.52,20.36 -13.01,46.76 -18.29,72.2 -4.03,19.47 -34.87,48.81 -82.38,54.13 -3.61,-1.41 38.82,-24.37 55.02,-43.5 11.83,-13.94 13.44,-31.46 13.16,-37.35l0 -0.07c-1.02,-21.71 1.09,-35.82 20.15,-53.06 26.22,-23.72 79.63,-53.9 96.23,-81.12 35.39,-57.99 30.77,-145.93 42.66,-212.09 6.61,-36.76 15.68,-65.46 33.36,-73.18 38.73,-16.93 64.92,30.94 88.98,20.21z"/>
    <path class="fil1" d="M3511.97 1237.57c17.08,38.94 30.25,107.88 22.11,139.63 -8,31.21 -20.24,60.5 -33.62,92.26l0.02 0.01 -0.06 0.14 -0.06 0.06c-5.97,14.23 -8.21,30.33 -8.73,46.02 -0.22,6.14 -1.53,15.36 15.06,17.65 0.11,3.6 -15.33,7.62 -16.04,11.14 -2.53,12.56 -9.15,24.43 -11.88,34.87l-1.79 6.72c-5,18.11 14.68,18.85 19.47,18.69l72.08 -5.99c1.34,5.35 39.41,11.18 32.12,-14.7 -3.19,-11.32 -14.86,-24.52 -31.45,-18.19 -1.87,-8.66 41.88,-15.36 42.62,28.15 0.13,8.19 25.56,7.24 25.55,-1.34 -4.69,-31.32 -13.18,-39.63 -31.67,-32.02 -1.47,-2.72 6.7,-10.79 5.6,-13.36 -2.17,-5.15 -13.44,-5.34 -14.9,-11.16 33.19,-28.84 -8,-33.63 -4.32,-42.69 18.5,-45.27 34.65,-74.51 65.66,-105.2 14.26,-14.09 32.2,-30.76 43.72,-50.1 8.44,-14.19 14.77,-32.1 20.7,-71.27 14.49,-45.13 56.55,-179.41 105.2,-195.01 -5.91,6.9 -13.3,18.68 -20.74,32.52 -3.56,6.63 -7.13,13.74 -10.54,21.02 -14.77,31.52 -26.65,66.2 -22.48,78.89 3.09,9.45 8.35,22.73 7.12,31.54 -0.45,3.42 7.72,14.25 4.89,12.06 -20.78,-15.92 -44.43,13.92 -44.19,30.1 -4.66,68.8 -9.82,50.28 -75.88,120.15 -14.57,15.42 -21.55,33.23 -31.29,50.35 -9.98,17.53 -13.31,43.21 -10.52,66.39 0.59,4.92 1.45,9.64 2.54,14.02 1.08,4.28 2.42,8.37 4.02,12.16 0.87,2.06 1.74,3.86 2.53,5.36l2.7 4.95 0.01 -0.02c8.09,14.83 13.92,25.53 14.29,35.69 0.72,19.38 -11.22,27.68 -45.5,28.91l-110.92 3.98c-27.99,0.99 -36.99,-4.71 -37.65,-22.56 -0.21,-6.05 1.4,-11.92 3.58,-19.77 1,-3.68 1.4,-4.94 1.78,-6.39 2.42,-9.2 9.76,-22.35 9.32,-36.62 -1.22,-39.88 9.81,-72.74 22.68,-105.76 18.8,-48.25 37.63,-89.52 18.86,-191.28z"/>
    <path class="fil1" d="M3820.14 1316.04c17.45,41.62 40.3,100.66 16.77,131.83 -8.62,17.5 -23.72,23.12 -17.39,43.64l0.02 -0.01c6.43,13.27 46.69,68.85 29.04,79.87l0.01 0.03c-2.71,1.69 -5.79,2.59 -9.27,2.65 -54.13,1 -232.35,40.32 -144.77,-66.68 22.93,-36.76 -12.04,-74.45 -35.94,-100.36l17.1 -18.53c21.63,31.18 55.68,77.2 37.79,116.78 -1.51,3.33 11.27,4.24 9.04,7.85 -0.99,1.56 -16.63,5.81 -17.59,7.58 -32.68,59.96 52.89,41.3 87.53,41.11 -12.01,-11.38 -10.82,-22.74 0.12,-34.11 -5.74,27.79 21.83,38.91 48.24,35.02 10.17,-24.57 -41.57,-42.06 -49.21,-58.38 0,-0.01 3.59,-26.64 1.28,-27.32 -45.8,-13.46 3.97,-11.7 10.36,-14.44 51.21,-21.84 4.5,-122.14 -14.61,-151.53l2.94 -1.89c9.02,3 18.85,8.02 28.54,6.89z"/>
    <path class="fil1" d="M3731.79 1306.29c45.76,10.49 117.73,14.12 172.29,-8.31 55.11,-22.66 82.48,-41.7 154.21,-93.15 1.71,-1.22 21.45,-19.74 23.22,-21.02l10.05 19.68c-80.97,56.71 -121.49,80.01 -180.3,104.18 -60.69,24.95 -130.96,20.66 -183.46,8.64l3.99 -10.02z"/>
    <path class="fil0" d="M3771.92 1172.22c10.81,131.38 137.64,75.68 250.46,35.47 -55.51,49.01 -213.71,103.04 -268.06,9.94 0,0 18.76,-46.55 17.6,-45.41z"/>
    <path class="fil1" d="M3705.09 831.51c81.74,-41.41 160.74,-67.68 251.95,-101.83 -71.9,10.57 -181.04,45.29 -263.37,96.77 -58.17,36.39 -119.4,103.76 -143.08,168.34 39.49,-38.67 70.15,-120.52 154.5,-163.28z"/>
    <path class="fil1" d="M4249.34 908.48c0.21,10.32 26.57,104.31 26.59,114.46 0.21,98.35 -8.21,189.52 -34.05,281.9 -2.36,8.51 -11.45,41.14 -17.52,72.86 -8.57,44.83 -9.02,79.37 0.14,100.49 22.22,17.43 36.04,30.07 37.75,45.32 1.9,16.87 3.63,24.35 -6.31,28.31 -0.47,-0.82 -0.95,-1.63 -1.42,-2.43l-166.84 0c1.38,3.14 2.79,6.27 4.2,9.39 -10.16,-0.9 -17.05,-3.17 -18.43,-8.09 -0.05,-0.14 -6.18,-24.58 7.58,-47.82 12.47,-38.14 13.55,-85.67 8.14,-140.74 -4.2,-42.83 -4.82,-98.49 1.79,-132.75 -11.77,-7.67 -28.62,-49.69 -11.21,-127.61 8.35,-37.3 -0.27,-74.26 1.35,-88.64 11.99,28.15 16.44,78.61 9.78,124.46 -3.46,23.88 -3.63,40.22 6.25,63.95 18.7,27.39 48.8,7.46 46.2,-39.21 17.16,64.85 -26.01,70.2 -39.17,71.38 -6.58,33.93 -2.33,139.38 3.31,183.49 1,11.94 2.91,22.62 3.8,33.27 1.46,17.66 18.78,24.07 18.6,26.76 -0.34,4.81 -19.02,2.86 -20.31,8.03 -8.27,8.09 -10.22,16.83 -15.24,26.63 -7.53,12.73 -1.6,25.15 3.7,30.65 9.02,9.33 65.27,3.88 78.11,1.82 53.11,-1.22 33.68,-38.91 17.9,-51.09 12.93,3.48 44.42,24.18 23.79,48.03 24.04,5.99 30.35,1.84 33.41,-6.32 -8.53,-45.59 -36.5,-32.81 -44.08,-42.31 -4.83,-6.09 -6.95,-19.27 -7.13,-36.46 -0.16,-18.21 -16.04,-21.61 -11.51,-23.59 12.66,-5.56 13.58,-15.41 14.12,-20.34 2.92,-26.6 8.05,-55.83 13.93,-81.74 2.65,-11.71 5.45,-22.79 8.2,-32.61 2.79,-10.06 5.55,-18.75 8.1,-25.5l0.06 -0.18 0.02 -0.05c16.21,-43.18 27.71,-189.52 21.79,-249.42l-5.39 -114.3zm-16.4 363.72l0.02 0 -0.02 0z"/>
    <path class="fil1" d="M4310.89 920.67c50.49,73.61 98.09,157.09 160.93,217.04 31.1,29.69 78.08,73.45 84.4,101.5l0.03 0.12 0.05 0.06c3,13.46 2.56,33.54 2.1,53.93 -0.55,24.11 -1.09,47.37 0.41,54.64l3.04 0.27 0.06 0.12c2.19,3.03 4.13,6.2 5.79,9.39 1.65,3.14 3.06,6.31 4.24,9.42 19.18,50.13 -14.33,43.87 -44.03,45.32 -16.68,0.84 -37.26,2.11 -53.8,2.11 -32.65,0 -60.26,1.75 -62.47,-11.37l-0.02 -0.15 -1.42 -3.51c-5.38,-26.39 10.6,-38.26 19.33,-52.61 3.5,-16.41 -2.05,-47.06 -7.98,-53.84l-0.07 -0.06 -0.02 -0.02 0 0c-0.9,-1.03 0.2,-6.93 -2.17,-9.17 -24.01,-22.71 -53.7,-51.38 -79.96,-73.34 -11.89,-9.93 -30.37,-25.23 -41.46,-27.37 -10.92,-2.11 -23.18,-3.17 -38.45,2.74l-9.79 -10.82c20.97,-8.11 38.7,-10.3 55.57,-7.05 16.75,3.23 31.78,11.69 47.62,24.94 22.56,18.85 45.87,48.39 65.57,66.02 3.7,3.29 14.91,9.19 17.97,12.12 3.02,2.82 6.82,0.34 8.42,2.17l0.07 0.05 0.02 0.04 -0.01 0c6.53,7.53 -3.76,26.21 -2.5,41.58 1.47,18.27 -2.82,18.88 8.23,40.33 -14.38,6.99 -28.43,14.56 -24.31,34.86 5.19,25.83 69.14,12.93 83.96,12.93 22.53,8.36 3.68,-16.35 14.81,-23.62 7.34,31.69 26.64,17.27 32.47,16.81 20.11,-9.92 1.23,-40.13 -29.12,-44.86 19.14,-15.91 11.1,-30.6 -0.73,-36.35 19.02,-2.88 19.01,-65.99 1.47,-88.09 -30.76,-38.78 -45.83,-57.34 -72.55,-82.84 -8.81,-8.41 -35.2,-43.69 -45.59,-45.85 -17.32,-3.61 -18.45,33.59 -22.58,11.89 -3.35,-17.55 4.29,-27.32 -2.35,-44.63 -16.95,-44.21 -55.43,-94.24 -78.47,-128l3.29 -16.85z"/>
    <path class="fil0" d="M4364.13 868.62c0,0 -46.63,17.33 -51.54,57.64 -4.93,40.3 -45.98,107.36 -45.98,107.36 -12.55,-54.58 35.97,-71.94 33.24,-108.74 -1.26,-17.24 11.66,-37.12 20.52,-45.19l43.76 -11.07z"/>
    <path class="fil0" d="M4254.2 781.21c-4.22,26.03 -24.3,52.42 -15.44,76.36 24.12,65.25 4.86,74.56 10.3,110.84 7.5,49.9 9.06,72.63 -33.42,39.37 -23,-18 -32.01,-52.14 -86.13,-60.68 -102.18,-16.11 -110.17,-56.74 -109.92,-56.96l17.94 -15.33c0.2,8.85 4.42,-5.63 6.83,0.8 9.05,24.29 31.55,33.55 51.23,43.78 44.41,23.14 81.98,23.72 136.92,78.01 8.19,-32.98 4.27,-71.47 -5.96,-125.19 -5.95,-31.34 16.03,-53.55 27.65,-91z"/>
    <path class="fil0" d="M4320.65 1461.69c153.38,-117.91 309.63,-54.68 429.66,92.69 4.88,5.98 2.22,9.87 7.01,16.15 -124.23,-146.31 -292.59,-225.3 -437.87,-92.57 -40.97,37.43 -73.3,28.19 -110.2,39.54 52.07,-40.93 73.6,-26.78 111.4,-55.81z"/>
    <path class="fil0" d="M4208.16 1503.82c35.82,-11.72 65.04,54.57 114.9,19.16 -13.1,31.58 -12.17,54.87 0.04,84.67 0.52,1.24 17.48,-128.73 128.13,-158.76 111.19,-30.18 213.76,24.59 300.07,126.97 4.19,4.96 1.89,8 6.02,13.2 -91.83,-104.63 -200.06,-161 -314.74,-116.88 -75.18,28.92 -100.38,91.05 -112.38,160.23 -3.07,17.63 -39.69,-40.54 -21.01,-89.65 -64.18,12.53 -95.32,-37.06 -101.03,-38.94z"/>
    <path class="fil0" d="M4749.55 1609.32c-34.95,-46.93 -116.4,-107.24 -178.89,-118.49 -54.49,-9.82 -103.68,13.37 -110.31,82.72 -18.27,-9.96 -28.12,5.83 -48.1,-14.94 -3.36,14.92 -10.78,25.57 -20.74,36.81 -3.5,2.65 -7.39,5.93 -11.81,9.88l-16.46 15.9c-17.68,-31.56 -18.81,-65.42 16.96,-109.96 -19.27,38.64 -24.91,69.12 -10.13,80.6 18.28,-3.88 31.23,-25.45 40.51,-51.51 11.53,19.94 27.28,12.46 42.18,18.28 10.3,-67.53 64.23,-86.88 118.95,-76.99 58.65,10.6 152.82,73.78 176.15,122.71 0,0 -0.86,5.81 1.69,4.99z"/>
    <path class="fil1" d="M4718.77 1608.01c-1.4,0.81 -66.14,-20.69 -119.14,-20.76 -41.08,-0.05 -37.57,34.17 -81.18,42.94 -14.01,2.83 -31.88,3.66 -44.96,-2.83 -21.09,-10.46 -25.98,-34.67 0.61,-43.43 17.85,-5.88 29.68,6.21 29.98,25.08 17.47,-2.29 14.09,-48.49 -29.58,-40.98 -24.67,6.75 -31.9,29.3 -24.57,47.72 9.18,8.5 18.67,16.66 28.47,24.47 12.38,3.24 27.41,2.09 39.73,-0.46 39.1,-8.07 41.28,-36.23 81.98,-39.39 36.32,-2.83 77.75,5.36 100.32,10.7 7.84,1.85 -8.49,8.4 9.11,-0.47l9.23 -2.59z"/>
    <path class="fil0" d="M4731.07 1599.76c-38.74,-30.61 -80.64,-60.65 -134.69,-62.02 -26.81,-0.68 -65.73,2.66 -82.18,50.36 -1.71,4.94 -4.47,11.38 -8.68,17.54 -3.19,4.67 -8.37,8.49 -11.77,7.5 14.69,7.91 19.97,-1.82 23.28,-10.03 17.15,-42.4 40.13,-56.24 79.92,-55.72 53.71,0.67 97.29,27.92 133.56,61.08l0.56 -8.71z"/>
    <path class="fil0" d="M4567.69 1606.88c-19.72,20.14 -19.88,47.26 -10.17,62.28 16.9,26.16 60.79,24.18 62.36,-5.86 4.4,-25.98 -37.12,-41.32 -42.4,-8.08 -2.64,-14.94 7.28,-26.78 20.09,-29.58 29.53,-6.42 46.12,22.37 35.67,47.45 -14.26,34.21 -57.91,31.33 -76.42,14.06 -20.62,-19.21 -22.66,-55.23 10.87,-80.27z"/>
    <path class="fil0" d="M4754.85 1662.62c4.2,0.82 8.92,-3.28 9.08,-4.94 4.34,-44.12 -18.03,-158.7 -61.18,-177.33 23.35,-15.16 37.16,-3.1 49.8,11.33 15.28,17.44 23.38,88.91 26.43,91.3 0,-5.17 -11.72,-61.76 -8.23,-102.95 1.39,-16.54 13.37,-35.5 26.29,-45.49l0 -9.91c-22.96,14.39 -36.97,30.81 -36.97,54.31 -22.67,-15.6 -40.08,-23.16 -76.1,-2.62 45.54,24.85 85.72,142.55 70.88,186.3z"/>
    <path class="fil0" d="M3594.3 1785.31c192.25,128.35 388.09,59.52 538.53,-100.93 6.12,-6.52 2.79,-10.75 8.79,-17.59 -155.71,159.31 -364.21,242.8 -546.29,98.32 -51.36,-40.76 -88.71,-20.16 -119.23,12.21 48.87,-14.42 70.84,-23.63 118.2,7.99z"/>
    <path class="fil0" d="M3477.9 1776.37c10.26,-41.72 24.16,-85.83 102.41,-61.62 -16.42,-31.55 -13.88,-34.5 -19.7,-68.12 -0.13,-0.73 21.92,31.37 66.63,69.12 32.64,27.54 76.97,60.72 135.43,73.45 117.31,25.53 247.27,-19.58 352.36,-110.51 9.58,-8.3 18.71,-16.82 27.65,-25.45 -0.93,-1.45 -1.86,-2.92 -2.77,-4.38 -9.39,8.95 -19.06,17.77 -29.46,26.22 -108.45,88.21 -234.7,137.19 -365.66,97 -39.74,-12.2 -77.26,-38.19 -106.72,-66.28 -40.38,-38.51 -69.43,-79.21 -103,-77.76 15.42,36.6 7.17,38.8 20.78,67.87 -80.44,-12.54 -85.92,58.69 -77.95,80.46z"/>
    <path class="fil0" d="M3569.51 1648.37c8.67,-13.48 36.9,11.9 51.97,16.97 -15.1,-31.56 9.15,-38.59 28.27,-43.06 1.64,-0.37 16.75,90.8 144.15,120.94 110.12,26.08 232.4,-25.97 330.06,-121.19 -0.88,-1.54 -1.75,-3.1 -2.61,-4.67 -101.52,92.85 -221.17,147.59 -344.69,106.35 -86.61,-28.91 -112.8,-86.69 -124.4,-120.17 -17.71,1.74 -52.19,19.65 -39.67,48.73 -28.53,-24.05 -60.52,-25.74 -70.48,-22.24l27.4 18.34z"/>
    <path class="fil0" d="M4105.19 1586.85c-35.98,16.02 -90.38,26.96 -128.92,19.93 -51.73,-9.45 -85.01,-47.86 -75.36,-86.52 -13.38,0.16 -47.74,6.1 -42.78,52.96 2.9,-18.77 14.34,-41.03 31.59,-40.71 -8.94,33.7 27.5,72.02 89.33,82.11 38.82,6.33 92.21,-3.81 128.09,-22.11 0.28,-0.12 0.53,-0.24 0.75,-0.35 -0.89,-1.77 -1.82,-3.53 -2.7,-5.31z"/>
    <path class="fil0" d="M4079.18 1655.87c-18.76,11.48 -47.02,27.42 -69.25,34.92 -56.04,18.85 -129.36,5.68 -159.24,0.06 -11.89,-2.24 -26.94,9.64 -32.48,20.69 -11.56,-2.12 -29.78,-33.95 0.9,-63.62 9.27,2.43 13.58,2.58 14.23,4.29 -6.63,2.46 -11.97,4.62 -16.35,9.37 -10.38,11.28 -9.93,26.73 2.24,30.14 19.92,-22.64 45.64,-12.15 70.89,-5.06 32.79,9.23 80.89,10.04 119.1,-1.06 23.79,-6.91 49.24,-22.77 70.66,-33.66 3.83,2.46 0.56,3.16 -0.7,3.93z"/>
    <path class="fil0" d="M3819.75 1650.2c-29.21,-7.17 -38.46,-44.43 -54.35,-53.94 36.23,-35.11 110.92,47.48 180.83,50.29 49.29,2 108.65,-11.65 166.98,-44.14 1.13,2.13 2.26,4.26 3.41,6.37 -94.65,54.93 -208.1,62.74 -296.37,3.55 -10.75,-7.21 -21.58,-13.42 -33.69,-12.54 18.57,20.17 13.08,31.2 48.06,52.08l-14.87 -1.67z"/>
    <path class="fil0" d="M3885.99 1598.09c-20.05,-14.01 -24.91,-21.67 -70.09,1.19l-12.89 -8.68c42.36,-20.86 55.51,-24.51 82.98,7.49z"/>
    <path class="fil0" d="M3863.25 1563.77c-38.63,-28.53 -155.61,24.66 -236.35,-11.77 35.64,89.51 91.56,79.09 236.35,11.77zm-38.88 8.93c-26.76,-14.44 -118.35,16.15 -174.28,-2.3 24.69,45.33 73.97,36.4 174.28,2.3z"/>
    <path class="fil0" d="M4175.96 1701.71c6.01,110.51 29.76,187.56 104.06,300.96 12.77,19.49 10.78,30.62 13.9,63.59 36.38,2.86 75.06,-13.84 70.56,-50.63 24.59,12.52 59.4,33.04 88.12,15.18 -1.37,-36.58 -21.17,-58.34 -47.52,-80.86 7.71,-1.49 14,-10.19 20.25,-28.08 -10.71,-3.1 -36.87,-5.66 -63.17,-17.74 -39.04,-17.94 -83.33,-50.87 -105.89,-110.65 -3.8,-3.71 -7.58,-7.47 -11.29,-11.24 6.28,65.4 64.02,115.5 108.16,134.97 23.7,10.46 51.84,9.75 58.06,12.58 -4.79,11.91 -14.72,15.95 -26.21,15.55 24.64,22.91 49.63,44.47 49.97,77.69 -30.12,5.91 -62.45,-13.45 -90.95,-38.03 26.72,62.04 -13.88,64.12 -36.04,70.36 0.59,-23.66 -5.68,-51.31 -15.88,-66.27 -72.01,-105.62 -97.7,-187.66 -104.19,-271.74 -4.03,-5.16 -8.01,-10.38 -11.94,-15.64z"/>
    <path class="fil0" d="M4372.14 1978.22c-78.19,-41.07 -144.97,-106.45 -163.11,-235.14 4.61,5.38 9.28,10.71 14.03,15.96 8.98,107.78 77.03,168.39 149.08,219.18z"/>
    <path class="fil0" d="M4079.5 1797.21c5.14,25.74 -7.43,47.45 -21.61,54.66 -24.68,12.57 -56.08,-10.55 -43.2,-35.26 8.9,-22.89 46.67,-14.76 35.02,14.36 8.94,-10.63 7.16,-24.94 -0.98,-33.45 -18.74,-19.6 -44.45,-4.77 -48.47,20.35 -5.48,34.27 28.03,53.38 49.74,48.69 24.18,-5.22 42.53,-32.94 29.5,-69.35z"/>
    <path class="fil0" d="M4145.94 1658.38c-18.18,19.45 -46.56,54.46 -61.6,96.89 -6.76,19.09 -8.01,39.74 -6.68,61.59 1.46,24 6.84,44.92 11.36,68.15 3.22,16.4 3.09,34.64 -14.19,43.93 19.33,-3.53 23.48,-16.17 23.74,-29.33 0.45,-24.23 -2.92,-49.38 -4.03,-73.62 -1,-21.93 -1.18,-42.68 2.02,-58.18 9.92,-48.15 28.33,-77.33 51.06,-106.84 -0.56,-0.87 -1.13,-1.72 -1.68,-2.59z"/>
    <path class="fil0" d="M4166 1688c-6.4,12.2 -12.88,27.85 -14.23,43.02 -1.97,22.24 8.77,69.55 20.69,86.7 5.04,7.23 0.67,-13.16 0.76,-13.92 -1.16,-3.46 -2.22,-6.87 -3.23,-10.22 -12.54,-42.05 -12.4,-75.93 -2.53,-103.52l-1.46 -2.06z"/>
    <path class="fil0" d="M4189.41 1818.69c-14.64,12.02 -23.91,17.16 -39.09,13.83 9.81,4.72 19.88,14.04 24.56,34.52 -9.44,2.23 -34.8,11.99 -45.85,2.59 1.5,20.67 -6.04,42.36 -17.78,56.16 -11.73,13.79 -26.75,21.95 -38.38,20 1.74,-0.75 2.67,-7.31 4.64,-7.45 23.24,-1.69 30.31,-11.25 35.76,-29.5 5.07,-16.98 0.78,-42.33 -5.65,-72.43 19.13,28.76 38.82,25.55 50.09,19.36 -6.61,-22.39 -17.99,-20.56 -28.8,-44.01 14.95,1.86 29.37,17.47 44.86,5.55 -5.37,-9.49 -11.81,-30.1 -8.03,-39.6 7.91,27.17 16.32,36.42 23.67,40.98z"/>
    <path class="fil0" d="M4139.27 1715.63c-11.77,26.82 -22.58,65.51 -9.03,98.51 2.96,7.22 16.83,24.02 16.93,23.25 -1.16,-3.44 -3.42,-17.46 -5.73,-20.82 -15.4,-22.43 -12.05,-67.8 -0.05,-101.68l-2.12 0.74z"/>
    <path class="fil0" d="M4088.92 1726.04c-17.75,15.99 -43.03,36.85 -44.14,65.65 -0.24,6.33 8.62,27.5 8.96,26.95 0.3,-2.94 3.35,-14.02 2.77,-17.27 -3.82,-21.62 13.94,-54.05 34.22,-75.16l-1.81 -0.17z"/>
    <path class="fil0" d="M4115.47 1877.35c38.05,-38.6 67.17,38.1 112.6,18.8 -29.13,67.73 -87.94,35.81 -112.6,-18.8zm14.8 5.57c17.4,-13.22 58.13,34.09 85.13,23.82 -38.78,32.79 -73.5,3.72 -85.13,-23.82z"/>
    <path class="fil0" d="M4078.07 1538.96c1.05,3.13 -32.8,1.04 -29.63,32.31 3.18,31.25 -22.21,40.63 -22.21,40.63l49.71 -11.46 30.35 -11.42c-5.46,-10.81 -10.64,-21.77 -15.6,-32.87 -7.07,-10.11 -13.07,-18.51 -12.62,-17.19z"/>
    <path class="fil0" d="M4761.65 1629.12c-0.81,0.8 -2.78,6.55 -3.35,5.32 -25.39,-53.42 -75.64,-15.77 -58.07,16.87 9.54,17.72 39.1,17.56 41.55,-1.35 2.86,-16.83 -23.56,-24.5 -26.98,-2.97 -1.72,-9.68 4.72,-17.34 13.01,-19.16 19.13,-4.16 29.88,14.51 23.12,30.76 -9.25,22.16 -41.82,21.88 -54.13,7.58 -24.96,-28.93 -7.54,-64.8 28.76,-66.15 30.11,-1.14 34.29,30.43 36.09,29.1z"/>
    <path class="fil0" d="M4672.67 1710.08c13.08,-6.12 25.49,6.09 7.55,9.6 -28.38,5.53 -47.76,-22.69 -34.73,-44.33 8.77,-14.57 34.53,-15.98 39.06,4.58 2.86,16.83 -25.67,21.63 -29.09,0.09 -1.71,9.68 3.89,18.59 16.77,20.81 19.3,3.3 31.56,-15.34 24.79,-31.58 -9.23,-22.16 -41.83,-21.87 -54.14,-7.59 -24.92,28.92 -8.96,66.56 29.93,65.8 60.96,-1.2 14.75,-41.2 -0.14,-17.38z"/>
    <path class="fil1" d="M4796.18 1758.83l-0.06 0 0 -0.05c-70.2,0 -137.16,-13.96 -198.18,-39.24 -10.18,-4.21 -19.97,-8.64 -29.32,-13.22l0 -0.02c-49.39,-24.17 -94.35,-56 -133.31,-93.9 -11.46,-11.15 -18.37,-17.56 -24.07,-18.01l-0.03 0c-5.7,-0.46 -13.12,4.69 -26.32,16.52l-28.23 27.24 -0.1 0.11 -1.52 1.41c-1.64,1.49 -3.21,2.96 -4.4,4.11 -7.86,7.74 -10.65,15.12 11.74,37.2l0.02 0 0.04 0.04 0 0.03c15.56,15.35 31.97,29.91 49.16,43.58 17.17,13.67 35.08,26.44 53.67,38.24 95.62,60.69 209.16,95.89 330.91,95.89l0 -0.04 0.07 0 0 0.04c84.53,-0.01 165.13,-17 238.51,-47.69 12.06,-5.05 23.83,-10.4 35.26,-16.07 59.37,-29.37 113.32,-68.01 159.95,-113.99 22.42,-22.11 19.63,-29.49 11.74,-37.23l-0.02 0c-1.68,-1.66 -2.99,-2.85 -4.36,-4.11l-1.52 -1.41 -0.12 -0.11 -28.21 -27.24c-13.21,-11.83 -20.62,-16.98 -26.33,-16.52l-0.03 0c-5.69,0.45 -12.58,6.85 -24.03,17.97l0.02 0.02 -0.04 0.03 -0.06 0.04c-13.08,12.7 -26.77,24.7 -41.05,35.93 -14.2,11.17 -29.14,21.69 -44.73,31.49 -79.67,50.01 -173.99,78.96 -275.05,78.96zm-0.06 -15.17l0 -0.03 0.06 0c98.1,0 189.58,-28.04 266.8,-76.52 14.9,-9.37 29.41,-19.58 43.41,-30.6 13.9,-10.93 27.19,-22.56 39.78,-34.81l-0.01 -0.01 0.05 -0.05 0.05 -0.03c14,-13.61 22.67,-21.46 33.62,-22.34l0 0c10.95,-0.9 21.3,5.5 37.96,20.42l0.2 0.2 28.31 27.34 0 -0.01 1.53 1.41c1.79,1.66 3.56,3.29 4.71,4.43l-0.02 0.01c14.46,14.21 20.53,26.84 -11.69,58.62 -47.78,47.13 -103.09,86.72 -163.99,116.83 -11.95,5.91 -24,11.41 -36.12,16.48 -75.18,31.47 -157.83,48.87 -244.52,48.89l0 0.02 -0.07 0 0 -0.02c-124.85,0 -241.22,-36.07 -339.22,-98.26 -19.04,-12.11 -37.42,-25.2 -55,-39.19 -17.58,-13.99 -34.41,-28.92 -50.41,-44.69l-0.01 0 -0.05 -0.03 0 -0.03c-32.25,-31.79 -26.16,-44.41 -11.69,-58.63 1.66,-1.64 3.16,-3.01 4.69,-4.43l1.52 -1.41 0 0.01 28.31 -27.34 0.2 -0.2c16.66,-14.92 27.02,-21.32 37.95,-20.42l0 0c10.96,0.88 19.63,8.73 33.62,22.34 37.81,36.78 81.43,67.66 129.36,91.13l0.04 0c9.56,4.68 19.05,8.97 28.42,12.87 59.18,24.5 124.11,38.05 192.21,38.05z"/>
    <path class="fil1" d="M4796.18 2020.61l-0.07 0 0 -0.04c-80.18,-0.01 -157.49,-12.06 -230.22,-34.44 -35.46,-10.9 -69.92,-24.31 -103.15,-40 -170.53,-80.52 -307.03,-220.88 -382.13,-393.78l-4.6 -10.55 11.67 0 166.84 0 4.55 0 2.18 3.94 0.01 -0.01c14.82,26.02 31.44,50.82 49.7,74.22 18.3,23.41 38.28,45.51 59.77,66.06 110.39,105.59 260.32,170.53 425.45,170.53l0 -0.03 0.06 0 0 0.03c76.41,-0.01 149.6,-13.94 217.18,-39.38 22.09,-8.33 43.49,-17.82 64.04,-28.4 106.43,-54.69 194.75,-139.5 253.66,-243.08l2.2 -3.88 4.51 0 166.86 0 11.66 0 -4.59 10.55 -0.02 0.07c-16.78,38.59 -36.59,75.54 -59.11,110.52 -22.5,34.93 -47.81,68.02 -75.61,98.95 -142.67,158.75 -350.03,258.67 -580.84,258.68l0 0.04zm-0.07 -15.17l0 -0.02 0.07 0 0 0.02c226.22,0 429.46,-97.97 569.33,-253.59 27.15,-30.19 51.95,-62.65 74.11,-97.04 20.08,-31.17 37.91,-63.86 53.29,-97.82l-150.59 0c-60.32,104.33 -149.96,189.79 -257.75,245.18 -21.34,10.97 -43.27,20.73 -65.68,29.17 -69.19,26.06 -144.23,40.32 -222.65,40.33l0 0.03 -0.06 0 0 -0.03c-169.33,-0.01 -323.04,-66.56 -436.19,-174.82 -21.99,-21.02 -42.45,-43.64 -61.2,-67.65 -17.89,-22.9 -34.21,-47.05 -48.77,-72.21l-150.57 0c74.56,164.67 206.26,298.22 369.93,375.5 32.43,15.3 66.2,28.44 101.09,39.18 71.34,21.94 147.13,33.77 225.64,33.77z"/>
    <path class="fil0" d="M5514.29 1538.96c-1.06,3.13 32.79,1.04 29.63,32.31 -3.18,31.25 22.21,40.63 22.21,40.63l-49.72 -11.46 -35.98 -13.55c0,0 34.92,-51.05 33.86,-47.93z"/>
    <path class="fil1" d="M4164.99 1612.36l49.02 -30.15 22.7 35.78 -8.3 5.11 -16.51 -26.04 -10.87 6.69 15.37 24.22 -8.25 5.09 -15.38 -24.24 -13.34 8.21 17.11 26.96 -8.25 5.08 -23.3 -36.71zm44.26 34.25l7.57 8.39c-2.7,2.76 -4.13,5.49 -4.34,8.19 -0.22,2.7 0.7,5.46 2.8,8.28 2.19,3 4.51,4.79 6.92,5.37 2.42,0.62 4.47,0.3 6.19,-0.94 1.11,-0.78 1.81,-1.77 2.11,-2.97 0.32,-1.2 0.17,-2.8 -0.43,-4.79 -0.41,-1.37 -1.58,-4.35 -3.46,-8.92 -2.42,-5.87 -3.45,-10.48 -3.11,-13.79 0.49,-4.67 2.59,-8.33 6.28,-10.97 2.39,-1.7 5.1,-2.63 8.16,-2.78 3.04,-0.16 6.04,0.64 8.98,2.35 2.93,1.73 5.69,4.36 8.3,7.9 4.28,5.78 6.19,11.04 5.79,15.81 -0.44,4.76 -2.74,8.75 -6.93,11.97l-7.27 -8.99c2.11,-2.12 3.21,-4.21 3.28,-6.27 0.11,-2.07 -0.82,-4.41 -2.75,-7.01 -1.99,-2.71 -4.11,-4.44 -6.37,-5.15 -1.45,-0.48 -2.78,-0.27 -3.99,0.6 -1.1,0.79 -1.72,1.93 -1.82,3.42 -0.14,1.88 0.91,5.48 3.19,10.78 2.24,5.3 3.58,9.44 4.03,12.44 0.43,3 0.11,5.82 -1.01,8.49 -1.11,2.65 -3.14,5.05 -6.08,7.16 -2.68,1.91 -5.73,2.98 -9.14,3.19 -3.43,0.19 -6.71,-0.62 -9.81,-2.5 -3.12,-1.85 -6.16,-4.78 -9.11,-8.79 -4.3,-5.82 -6.23,-11.27 -5.8,-16.34 0.42,-5.08 3.04,-9.81 7.82,-14.13zm28.89 67.31l36.78 -30.39 -11.02 -12.92 7.51 -6.19 29.52 34.64 -7.5 6.19 -10.99 -12.91 -36.78 30.4 -7.52 -8.82zm67.49 -9.89l14.83 15.12c3.34,3.39 5.62,6.24 6.84,8.54 1.64,3.07 2.38,6.35 2.22,9.82 -0.15,3.44 -1.11,6.9 -2.9,10.31 -1.79,3.41 -4.62,6.97 -8.53,10.68 -3.41,3.25 -6.77,5.65 -10.07,7.16 -4.02,1.85 -7.9,2.73 -11.63,2.58 -2.83,-0.07 -5.84,-0.96 -9.03,-2.64 -2.37,-1.25 -5.05,-3.41 -8.06,-6.49l-15.24 -15.54 41.57 -39.54zm1.07 14.96l-27.52 26.18 6.04 6.17c2.26,2.31 4.02,3.86 5.3,4.64 1.66,1 3.33,1.57 5,1.69 1.68,0.1 3.73,-0.45 6.14,-1.66 2.4,-1.22 5.23,-3.35 8.44,-6.4 3.22,-3.07 5.41,-5.69 6.58,-7.87 1.16,-2.21 1.75,-4.27 1.73,-6.18 -0.03,-1.93 -0.63,-3.84 -1.8,-5.69 -0.87,-1.41 -2.97,-3.79 -6.26,-7.17l-3.65 -3.71zm1.4 67.2l7.42 -8.11 8.22 7.3 -7.41 8.11 -8.23 -7.3zm71.93 -14.08l18.2 14.01c3.62,2.77 6.2,4.99 7.73,6.65 1.53,1.66 2.63,3.49 3.28,5.51 0.65,2.02 0.82,4.14 0.51,6.43 -0.3,2.27 -1.22,4.38 -2.76,6.31 -1.66,2.11 -3.76,3.6 -6.31,4.47 -2.54,0.86 -5.14,0.99 -7.8,0.36 2.13,2.91 3.2,5.93 3.16,8.96 -0.02,3.09 -1.06,5.9 -3.13,8.5 -1.6,2.03 -3.65,3.66 -6.16,4.84 -2.49,1.18 -5.03,1.72 -7.6,1.58 -2.59,-0.12 -5.2,-1 -7.88,-2.62 -1.64,-1.02 -5.41,-3.75 -11.31,-8.23l-15.52 -11.91 35.59 -44.86zm3.28 14.54l-8.23 10.38 6.03 4.63c3.59,2.76 5.85,4.42 6.81,4.99 1.71,1.03 3.37,1.45 4.97,1.24 1.61,-0.19 2.98,-1.02 4.14,-2.46 1.1,-1.39 1.6,-2.82 1.52,-4.28 -0.1,-1.46 -0.84,-2.87 -2.22,-4.23 -0.82,-0.8 -3.41,-2.88 -7.73,-6.2l-5.29 -4.07zm-14.15 17.84l-9.51 12 8.5 6.53c3.32,2.55 5.49,4.09 6.53,4.58 1.56,0.82 3.14,1.07 4.77,0.78 1.6,-0.27 3.04,-1.22 4.31,-2.81 1.07,-1.34 1.64,-2.74 1.72,-4.2 0.07,-1.44 -0.34,-2.86 -1.24,-4.26 -0.92,-1.38 -3.48,-3.7 -7.66,-6.9l-7.42 -5.72zm37.72 55.95l13.26 -20.09 0.48 -38.99 11.46 7.34 -1.03 26.18 23.63 -11.74 11.26 7.22 -36.08 16.3 -13.21 20.03 -9.77 -6.25zm87.9 24.61l4.27 -8.64 22.61 10.87 -10.1 20.38c-3.24,1.02 -7.33,1.34 -12.3,0.94 -4.95,-0.42 -9.57,-1.65 -13.85,-3.69 -5.42,-2.61 -9.61,-6.01 -12.54,-10.19 -2.91,-4.2 -4.37,-8.86 -4.33,-14.02 0.05,-5.14 1.27,-10.18 3.7,-15.08 2.64,-5.32 6.12,-9.52 10.44,-12.57 4.31,-3.06 9.19,-4.64 14.68,-4.74 4.16,-0.1 8.73,1.04 13.68,3.42 6.46,3.1 10.84,6.85 13.14,11.26 2.31,4.39 2.82,9.2 1.53,14.4l-11.35 -3.07c0.5,-2.88 0.1,-5.53 -1.21,-7.95 -1.3,-2.42 -3.45,-4.35 -6.47,-5.81 -4.58,-2.2 -8.94,-2.51 -13.06,-0.97 -4.14,1.58 -7.57,5.17 -10.36,10.81 -3.01,6.07 -3.89,11.27 -2.66,15.64 1.24,4.34 4.08,7.58 8.51,9.71 2.21,1.06 4.63,1.68 7.25,1.9 2.63,0.22 5.04,0.09 7.21,-0.35l3.22 -6.5 -12.01 -5.75zm34.33 7.48c2.11,-5.42 4.69,-9.65 7.78,-12.7 2.28,-2.23 4.9,-4.03 7.86,-5.39 2.96,-1.34 5.91,-2.06 8.84,-2.13 3.92,-0.14 8.06,0.63 12.46,2.3 7.94,2.99 13.36,7.82 16.24,14.49 2.87,6.65 2.63,14.3 -0.74,22.96 -3.36,8.58 -8.33,14.39 -14.96,17.45 -6.62,3.05 -13.91,3.07 -21.82,0.08 -8.03,-3.03 -13.47,-7.86 -16.33,-14.46 -2.86,-6.6 -2.64,-14.15 0.67,-22.6zm11.36 3.88c-2.34,6.01 -2.7,11.12 -1.11,15.29 1.63,4.16 4.6,7.06 8.95,8.71 4.33,1.64 8.5,1.45 12.49,-0.59 3.98,-2.02 7.18,-6.1 9.58,-12.27 2.38,-6.09 2.78,-11.14 1.26,-15.16 -1.56,-4.04 -4.58,-6.89 -9.05,-8.58 -4.5,-1.7 -8.71,-1.55 -12.67,0.44 -3.9,2 -7.06,6.04 -9.45,12.16zm56.86 48.52l-2.86 -60.38 12.12 3.64 1.46 44.5 26.04 -36.21 11.85 3.57 -36.69 48.46 -11.92 -3.58zm40.75 11.76l10.03 -56.04 42.21 7.32 -1.71 9.49 -30.7 -5.33 -2.22 12.43 28.57 4.96 -1.7 9.43 -28.56 -4.95 -2.75 15.23 31.81 5.53 -1.68 9.45 -43.3 -7.52zm56.38 9.15l6.03 -56.6 24.44 2.53c6.16,0.63 10.54,1.61 13.23,2.91 2.68,1.31 4.72,3.34 6.12,6.11 1.4,2.79 1.9,5.83 1.54,9.17 -0.45,4.26 -2.1,7.64 -4.92,10.14 -2.82,2.5 -6.82,3.85 -11.93,4.05 2.36,1.71 4.26,3.51 5.71,5.39 1.44,1.9 3.32,5.2 5.62,9.88l5.85 11.78 -13.89 -1.44 -7.06 -13.19c-2.52,-4.72 -4.27,-7.7 -5.24,-8.95 -0.98,-1.26 -2.06,-2.16 -3.23,-2.73 -1.2,-0.54 -3.11,-0.96 -5.78,-1.23l-2.36 -0.24 -2.51 23.62 -11.62 -1.2zm15.1 -31.47l8.58 0.9c5.57,0.57 9.08,0.7 10.51,0.38 1.43,-0.32 2.6,-1.01 3.51,-2.06 0.91,-1.04 1.45,-2.41 1.63,-4.12 0.21,-1.9 -0.15,-3.49 -1.06,-4.77 -0.9,-1.28 -2.28,-2.17 -4.13,-2.68 -0.93,-0.22 -3.75,-0.58 -8.46,-1.06l-9.04 -0.93 -1.54 14.34zm46.55 37.43l2.02 -56.89 11.36 0.4 22.3 38.8 1.34 -37.99 10.84 0.37 -2.01 56.89 -11.72 -0.42 -21.96 -37.89 -1.31 37.1 -10.86 -0.37zm61.29 1l-4.04 -56.79 17.42 -1.19 13.22 38 7.58 -39.44 17.47 -1.2 4.03 56.78 -10.82 0.74 -3.15 -44.69 -8.29 45.48 -11.21 0.77 -14.58 -43.91 3.18 44.7 -10.81 0.75zm70.58 -5.39l-10.03 -56.04 42.19 -7.34 1.7 9.48 -30.7 5.35 2.23 12.41 28.57 -4.96 1.69 9.45 -28.57 4.95 2.72 15.27 31.8 -5.53 1.7 9.44 -43.3 7.52zm56.29 -8.47l-14.96 -54.98 10.97 -2.9 32.84 30.69 -9.98 -36.71 10.48 -2.76 14.96 54.97 -11.33 3 -32.26 -29.93 9.76 35.86 -10.48 2.76zm72 -19.63l-15.63 -44.71 -16.2 5.49 -3.19 -9.09 43.43 -14.74 3.19 9.13 -16.18 5.46 15.63 44.71 -11.05 3.75zm44.24 -45.54c-2.49,-5.26 -3.78,-10.03 -3.88,-14.33 -0.05,-3.17 0.47,-6.26 1.53,-9.31 1.09,-3.02 2.61,-5.61 4.58,-7.74 2.61,-2.88 6.05,-5.27 10.32,-7.23 7.73,-3.54 15,-4.02 21.88,-1.43 6.86,2.57 12.28,8.07 16.27,16.47 3.94,8.34 4.72,15.89 2.35,22.72 -2.37,6.8 -7.41,11.98 -15.09,15.5 -7.79,3.58 -15.09,4.08 -21.92,1.52 -6.81,-2.57 -12.15,-7.96 -16.04,-16.17zm10.72 -5.35c2.77,5.85 6.25,9.64 10.41,11.39 4.17,1.76 8.36,1.68 12.58,-0.26 4.21,-1.93 6.97,-5.03 8.26,-9.26 1.27,-4.23 0.51,-9.33 -2.33,-15.31 -2.8,-5.92 -6.21,-9.72 -10.21,-11.43 -4.01,-1.7 -8.2,-1.53 -12.56,0.46 -4.36,1.99 -7.17,5.09 -8.45,9.26 -1.26,4.16 -0.51,9.21 2.3,15.15zm62.89 2.32l-28.88 -49.28 34.32 -19.51 4.89 8.34 -24.22 13.76 6.84 11.66 20.9 -11.87 4.9 8.33 -20.9 11.89 12.28 20.93 -10.13 5.75zm64.3 -38.64l-33.16 -46.61 9.58 -6.59 14.71 20.7 4.59 -34.02 12.85 -8.85 -4.9 30.44 39.03 15.5 -12.37 8.52 -28.58 -12.9 -2.21 13.14 10.02 14.09 -9.56 6.58zm49.82 -35.29l-37.16 -43.59 32.82 -27.12 6.29 7.37 -23.88 19.73 8.23 9.68 22.24 -18.37 6.25 7.34 -22.23 18.36 10.11 11.87 24.73 -20.44 6.26 7.35 -33.66 27.82zm43.78 -36.23l-41.59 -39.54 17.08 -17.41c4.28,-4.38 7.77,-7.2 10.46,-8.47 2.7,-1.28 5.59,-1.6 8.66,-0.98 3.08,0.63 5.84,2.1 8.3,4.46 3.13,2.96 4.82,6.33 5.09,10.06 0.26,3.71 -1.12,7.64 -4.12,11.74 2.82,-0.79 5.44,-1.16 7.84,-1.11 2.41,0.04 6.18,0.61 11.36,1.73l13.02 2.7 -9.69 9.89 -14.92 -2.64c-5.31,-0.95 -8.77,-1.42 -10.38,-1.46 -1.6,-0.01 -2.99,0.27 -4.18,0.85 -1.17,0.59 -2.67,1.82 -4.55,3.72l-1.63 1.67 17.35 16.5 -8.1 8.29zm-15.88 -31.11l5.98 -6.1c3.9,-3.96 6.15,-6.6 6.79,-7.91 0.62,-1.3 0.79,-2.64 0.51,-4 -0.29,-1.35 -1.05,-2.6 -2.29,-3.81 -1.4,-1.33 -2.9,-2.02 -4.48,-2.11 -1.58,-0.09 -3.15,0.45 -4.68,1.56 -0.75,0.59 -2.77,2.55 -6.07,5.9l-6.31 6.46 10.55 10.01zm92.04 -51.4l-8.17 9.58 -13.3 -4.49 -14.85 17.41 6.99 11.92 -7.96 9.33 -29.79 -53.57 7.93 -9.3 59.15 19.12zm-31.33 1.74l-21.55 -7.56 11.41 19.46 10.14 -11.9zm37.43 -9.82l-46.37 -33.19 6.85 -9.29 38.51 27.54 17.05 -23.11 7.88 5.64 -23.92 32.41zm57.87 -84.86l-6.73 10.62 -13.82 -2.65 -12.24 19.31 8.62 10.83 -6.57 10.33 -37.08 -48.95 6.54 -10.32 61.28 10.83zm-30.77 6.02l-22.43 -4.52 14.07 17.69 8.36 -13.17z"/>
    <path class="fil1" d="M4491.15 1676.04l38.97 23.47c8.46,5.09 10.38,14.86 5.76,29.29l-1.47 3.89c-6.1,10.19 -15.3,14.61 -27.57,13.29l5.27 25.1 -0.71 1.17 -17.78 -10.7 -8.43 -44.34 0.33 -0.52 21.69 13.05c5.02,3.02 10.06,1.58 15.13,-4.31 3.09,-5.16 2.27,-9.85 -2.51,-14.06l-25.2 -15.19 -28.36 47.31 -1.86 0.47 -10.28 -6.19 -0.45 -1.86 35.61 -59.39 1.86 -0.48zm99.87 131.41l-40.12 -15.44c-3.99,-1.52 -6.75,-4.07 -8.26,-7.61 -1.52,-3.54 -1.53,-7.24 -0.06,-11.08l20.81 -54.29 13.49 5.19 -20.8 54.28 40.12 15.43 20.81 -54.29 13.38 5.15 -20.82 54.29c-1.43,3.77 -3.86,6.5 -7.24,8.21 -3.38,1.7 -7.16,1.75 -11.31,0.16zm121.84 -28.49l-28.25 -5.5 -11.08 57.08 -14.06 -2.73 11.07 -57.09 -28.13 -5.48 2.76 -14.2 70.45 13.71 -2.76 14.21zm20.78 -10.36l45.4 2.38c9.86,0.53 16.13,8.24 18.82,23.18l0.52 4.11c-0.61,11.86 -6.65,20.09 -18.1,24.69l16.41 19.7 -0.08 1.35 -20.73 -1.08 -28.21 -35.18 0.04 -0.61 25.29 1.32c5.83,0.31 9.61,-3.34 11.33,-10.92 0.31,-6.02 -2.62,-9.78 -8.82,-11.25l-29.35 -1.54 -2.88 55.1 -1.43 1.29 -11.97 -0.63 -1.27 -1.42 3.6 -69.2 1.43 -1.29zm148 69.75l-42.94 3.76c-7.63,0.67 -12.5,-2.12 -14.62,-8.39 -0.45,-1.46 -0.76,-3.04 -0.92,-4.78l-3.8 -43.51c-0.32,-3.76 0.74,-7.24 3.2,-10.38 2.45,-3.17 5.72,-4.92 9.82,-5.28l42.94 -3.77c4.01,-0.34 7.53,0.78 10.53,3.38 2.98,2.58 4.66,5.85 5,9.79l3.8 43.51c0.84,9.62 -3.5,14.84 -13.01,15.67zm-1.26 -14.42l-3.81 -43.5 -42.94 3.76 3.81 43.51 42.94 -3.77zm112.65 -12.95l-8.65 2.49 -59.55 -32.06 13 45.43 -13.77 3.96 -19.98 -69.82 8.55 -2.44 59.66 32.02 -13 -45.43 13.76 -3.96 19.98 69.81zm41.49 -16.78l-13.37 5.14 -25.97 -67.79 13.37 -5.15 25.97 67.8zm100.65 -52.44l-17.18 9.53 -33.34 -12.04 -7.49 34.72 -17.28 9.6 12.6 -48.45 -47.74 -15.08 17.27 -9.59 33.36 12.02 7.48 -34.69 17.18 -9.55 -12.43 48.49 47.57 15.04z"/>
    <path class="fil1" d="M4796.96 644.18c89.66,0 170.82,36.39 229.57,95.23 58.81,58.88 95.17,140.22 95.17,229.97 0,89.87 -36.33,171.22 -95.08,230.08 -58.75,58.85 -139.94,95.25 -229.66,95.25 -89.65,-0.07 -170.82,-36.47 -229.56,-95.35 -58.72,-58.85 -95.05,-140.15 -95.05,-229.98 0,-89.81 36.34,-171.12 95.07,-229.96 58.74,-58.84 139.9,-95.24 229.54,-95.24zm206.06 118.91c-52.7,-52.77 -125.54,-85.42 -206.06,-85.42 -80.41,0 -153.21,32.65 -205.9,85.43 -52.69,52.79 -85.28,125.72 -85.28,206.28 0,80.66 32.58,153.64 85.26,206.43 52.69,52.82 125.51,85.48 205.92,85.48 80.49,-0.07 153.32,-32.72 206.02,-85.52 52.71,-52.79 85.29,-125.77 85.29,-206.39 0,-80.61 -32.57,-153.54 -85.25,-206.29z"/>
    <path class="fil0" d="M4496.02 931.3l191.75 -1.21c8.15,-5.93 9.42,-11.52 7.08,-20.04l-134.31 -128.7 -7.39 6.78 130.15 128.47 -189.25 4.11 1.97 10.59zm602.65 67.26l-192.39 0.56c-8.17,5.92 -9.42,11.51 -7.08,20.04l141.48 131.97 7.39 -6.76 -137.33 -131.77 189.89 -3.43 -1.96 -10.61zm-108.84 207.25l-139.91 -139.41c-9.94,-1.58 -14.79,1.48 -19.15,9.17l3.45 196.6 10.01 0.47 -0.67 -193.56 140.2 135.61 6.07 -8.88zm40.76 -427.17l-131.95 132.96c-1.6,9.99 1.46,14.85 9.14,19.2l189.07 -4.14 0.44 -10 -185.98 1.34 128.14 -133.27 -8.86 -6.09zm-421.61 -48.94l135.15 133.11c9.96,1.58 14.81,-1.48 19.13,-9.16l-4.68 -188.27 -9.43 1.68 1.34 183.06 -133.02 -128.37 -8.49 7.95zm222.64 -63.79l-0.16 189.26c5.93,8.16 11.51,9.43 20,7.05l131.26 -138.34 -7.44 -5.66 -130.36 132.47 -3.43 -185 -9.87 0.22zm-272.1 488.59l135.89 -136.89c1.58,-9.98 -1.47,-14.85 -9.15,-19.19l-189.07 4.12 -0.44 10.02 185.99 -1.34 -132.09 137.19 8.87 6.09zm202.3 116.23l0.76 -196.68c-5.92,-8.16 -11.51,-9.44 -20.01,-7.07l-134.35 140.41 6.76 7.41 134.13 -136.27 2.14 194.17 10.57 -1.97z"/>
    <g>
     <path class="fil0" d="M4756.79 1276.14l0 -285.57 0 285.57zm79.53 -290.12l0 290.12 0 -290.12zm-40.94 -63.94c24.87,0 45.05,20.21 45.05,45.15 0,6.71 -1.5,13.08 -4.11,18.79 -7.1,15.56 -22.75,26.35 -40.94,26.35 -16.37,0 -30.71,-8.72 -38.59,-21.8 -4.11,-6.81 -6.47,-14.82 -6.47,-23.34 0,-24.94 20.17,-45.15 45.06,-45.15z"/>
    </g>
    <path class="fil1" d="M4740.08 1276.13l0 -281.43c-1.72,-3.47 -3.13,-7.11 -4.18,-10.88 -1.49,-5.4 -2.3,-10.98 -2.3,-16.59 0,-17.04 6.92,-32.5 18.1,-43.71 11.16,-11.25 26.62,-18.19 43.68,-18.19 17.05,0 32.5,6.94 43.67,18.13 11.17,11.27 18.09,26.73 18.09,43.77 0,4.47 -0.5,8.88 -1.43,13.14 -0.66,2.99 -1.56,5.96 -2.68,8.86l0 286.9 -33.43 0 0 -251.98c-7.45,3.2 -15.64,4.97 -24.22,4.97 -7.65,0 -15.03,-1.44 -21.87,-4.06l0 251.07 -33.43 0zm75.36 -329.02c-5.16,-5.1 -12.24,-8.29 -20.06,-8.29 -7.83,0 -14.92,3.19 -20.04,8.32 -5.15,5.11 -8.31,12.23 -8.31,20.09 0,2.79 0.35,5.38 0.99,7.7 0.7,2.53 1.73,4.89 3.01,7.01 2.58,4.18 6.16,7.66 10.39,10.05 4.02,2.33 8.79,3.64 13.96,3.64 5.66,0 10.91,-1.63 15.28,-4.45 4.57,-2.94 8.25,-7.15 10.51,-12.09 0.79,-1.73 1.43,-3.68 1.9,-5.78 0.41,-1.91 0.64,-3.95 0.64,-6.08 0,-7.86 -3.16,-14.98 -8.27,-20.12z"/>
   </g>
   <g id="_1380770317744">
    <path class="fil1" d="M4611.03 3062.03c13.97,-1.39 23.4,-6.65 28.29,-15.74 4.91,-9.1 7.33,-19.26 7.33,-30.46l0 -291.88c0,-14.01 -4.53,-25.03 -13.62,-33.07 -9.07,-8.08 -21.65,-12.08 -37.74,-12.08 -14.67,0 -26.72,4 -36.15,12.08 -9.43,8.04 -14.15,19.06 -14.15,33.07l0 291.88c0,10.5 3.52,20.66 10.47,30.46 7,9.8 16.45,14.7 28.31,14.7l0 75.6c-20.98,0 -40.34,-3.15 -58.17,-9.44 -17.82,-6.31 -33.18,-14.71 -46.11,-25.22 -12.94,-10.49 -23.24,-22.57 -30.92,-36.21 -7.7,-13.65 -11.52,-28.18 -11.52,-43.58l0 -305.53c0,-17.52 4.18,-33.26 12.56,-47.26 8.39,-14.01 19.57,-25.89 33.55,-35.69 13.96,-9.81 30.58,-17.53 49.77,-23.12 19.23,-5.61 40.02,-8.4 62.36,-8.4 22.36,0 43.17,2.79 62.36,8.4 19.23,5.59 36,13.31 50.33,23.12 14.31,9.8 25.49,21.87 33.54,36.21 8.02,14.38 12.03,29.94 12.03,46.74l0 305.53c0,14.7 -3.49,28.88 -10.46,42.52 -7.01,13.66 -16.77,25.73 -29.35,36.22 -12.58,10.52 -27.59,19.08 -45.07,25.73 -17.49,6.67 -36.69,9.98 -57.64,9.98l0 -74.56zm491.68 110.25c0,34.3 -12.94,61.95 -38.79,82.95 -25.86,21 -60.78,31.51 -104.81,31.51 -41.23,0 -75.29,-10.32 -102.19,-30.97 -26.92,-20.66 -40.36,-48.48 -40.36,-83.49l0 -99.74c0,-17.5 3.84,-33.07 11.54,-46.73 7.69,-13.64 17.99,-25.36 30.92,-35.17 12.91,-9.79 27.59,-17.49 44.01,-23.11 16.43,-5.58 33.01,-8.73 49.79,-9.44l-1.06 0c9.79,-1.39 18.69,-6.81 26.75,-16.29 8.02,-9.43 12.05,-20.8 12.05,-34.12l0 -182.66c0,-14.02 -3.15,-25.05 -9.45,-33.1 -6.28,-8.05 -13.61,-12.07 -22,-12.07 -7.69,0 -14.5,4.02 -20.44,12.07 -5.93,8.05 -8.91,19.08 -8.91,33.1l0 80.84 -107.94 0 0 -88.21c0,-17.49 3.83,-33.24 11.52,-47.26 7.69,-13.99 17.81,-25.9 30.41,-35.7 12.56,-9.78 27.06,-17.5 43.47,-23.09 16.43,-5.61 33.72,-8.4 51.89,-8.4 18.15,0 35.64,2.79 52.42,8.4 16.75,5.59 31.42,13.31 43.99,23.09 12.59,9.8 22.72,21.88 30.42,36.25 7.67,14.33 11.5,29.9 11.5,46.71l0 196.36c0,12.59 -3.47,25.02 -10.46,37.27 -6.99,12.23 -19.56,23.95 -37.74,35.17 11.88,6.98 21.5,15.05 28.84,24.13 7.33,9.12 12.73,17.5 16.25,25.22 3.49,6.98 5.75,13.46 6.79,19.41 1.06,5.95 1.59,11.73 1.59,17.33l0 99.74zm-107.96 -16.77c-10.48,6.29 -23.41,9.42 -38.79,9.42 -12.56,0 -23.05,-2.79 -31.45,-8.39l0 9.43c0,14.02 3.16,24.89 9.45,32.56 6.28,7.71 14.67,11.57 25.15,11.57 23.74,0 35.64,-14.72 35.64,-44.13l0 -10.46zm-34.59 -65.12c6.98,0 13.45,-2.1 19.39,-6.3 5.93,-4.2 8.9,-11.2 8.9,-20.98 0,-7.73 -2.44,-14.2 -7.34,-19.45 -4.88,-5.24 -12.22,-7.86 -22,-7.86 -17.47,0 -26.55,8.74 -27.25,26.23 0,11.9 2.97,19.63 8.9,23.1 5.94,3.51 12.4,5.26 19.4,5.26zm313.32 -85.04c0,7.69 1.93,15.93 5.77,24.67 3.85,8.74 9.26,15.57 16.25,20.46 -4.89,-5.59 -7.87,-11.72 -8.91,-18.36 -1.04,-6.65 -1.57,-12.07 -1.57,-16.29l0 -27.28c0,-28.72 8.38,-50.75 25.16,-66.16 16.77,-15.4 44.72,-23.11 83.84,-23.11 37.73,0 67.61,8.76 89.63,26.26 22,17.51 33,40.61 33,69.3l0 42c0,28.01 -11.18,50.76 -33.54,68.26 -22.36,17.5 -52.39,26.24 -90.13,26.24l-88.05 0c-41.91,0 -75.64,-9.62 -101.14,-28.87 -25.5,-19.25 -38.25,-46.38 -38.25,-81.37l0 -304.49c0,-35.02 12.93,-62.12 38.77,-81.4 25.86,-19.24 59.75,-28.87 101.66,-28.87l87.01 0c37.74,0 67.77,8.75 90.13,26.27 22.36,17.49 33.54,40.23 33.54,68.23l0 42c0,28.71 -11,51.81 -33,69.3 -22.02,17.5 -51.9,26.27 -89.63,26.27 -39.12,0 -67.07,-7.72 -83.84,-23.11 -16.78,-15.41 -25.16,-37.46 -25.16,-66.15l0 -27.31c0,-3.49 0.71,-8.92 2.09,-16.26 1.4,-7.36 4.56,-13.83 9.44,-19.44 -6.98,4.9 -12.58,11.74 -16.78,20.48 -4.18,8.74 -6.29,16.98 -6.29,24.68l0 274.05zm139.41 1.05c0,-9.81 -1.23,-18.22 -3.68,-25.21 -2.44,-7 -6.47,-10.5 -12.05,-10.5 -5.6,0 -9.59,3.31 -12.03,9.97 -2.47,6.65 -3.68,15.24 -3.68,25.74l0 16.8c0,9.1 1.04,17.3 3.14,24.67 2.1,7.34 6.29,11.03 12.57,11.03 10.5,0 15.73,-11.9 15.73,-35.7l0 -16.8zm0 -291.9c0,-23.81 -5.23,-35.7 -15.73,-35.7 -6.28,0 -10.47,3.68 -12.57,11.03 -2.1,7.34 -3.14,15.57 -3.14,24.67l0 16.8c0,10.5 1.21,19.07 3.68,25.73 2.44,6.65 6.43,9.96 12.03,9.96 5.58,0 9.61,-3.49 12.05,-10.5 2.45,-6.99 3.68,-15.39 3.68,-25.19l0 -16.8zm507.41 544.94l-166.64 0c-25.17,0 -48.24,-3.15 -69.19,-9.46 -20.98,-6.28 -39.3,-16.27 -55.02,-29.9 -15.73,-13.67 -27.95,-30.65 -36.69,-50.93 -8.74,-20.32 -13.1,-44.81 -13.1,-73.5l0 -376.95c0,-17.5 4.72,-33.25 14.15,-47.26 9.44,-13.99 21.84,-25.9 37.21,-35.71 15.36,-9.78 32.85,-17.5 52.4,-23.08 19.56,-5.62 39.84,-8.4 60.8,-8.4l0 75.6c-13.98,0 -27.08,4.02 -39.31,12.07 -12.23,8.05 -18.34,19.08 -18.34,33.1l0 365.37c0,31.5 6.11,55.13 18.34,70.88 12.23,15.74 28.48,23.61 48.75,23.61l166.64 0 0 74.56zm180.22 -238.34c0,17.48 -4.37,33.42 -13.11,47.75 -8.72,14.37 -20.62,26.44 -35.62,36.25 -15.03,9.78 -32.33,17.5 -51.89,23.09 -19.57,5.61 -40.18,8.4 -61.85,8.4 -21.64,0 -42.27,-2.79 -61.82,-8.4 -19.58,-5.59 -36.71,-13.48 -51.37,-23.63 -14.66,-10.14 -26.37,-22.22 -35.1,-36.23 -8.74,-13.99 -13.11,-29.75 -13.11,-47.23l0 -71.41 123.69 0 0 65.08c0,13.31 3.49,23.99 10.49,32.04 6.96,8.05 16.04,12.09 27.22,12.09 11.18,0 20.46,-4.04 27.79,-12.09 7.34,-8.05 11,-18.73 11,-32.04l0 -64.02c0,-13.3 -3.84,-24.15 -11.54,-32.56 -7.67,-8.39 -17.81,-13.31 -30.38,-14.7 -21.67,0 -42.12,-2.8 -61.33,-8.4 -19.2,-5.6 -35.96,-13.29 -50.3,-23.09 -14.32,-9.8 -25.68,-21.87 -34.05,-36.23 -8.4,-14.34 -12.59,-29.91 -12.59,-46.72l0 -75.61c0,-17.49 4.37,-33.24 13.11,-47.23 8.73,-14 20.44,-26.09 35.1,-36.23 14.66,-10.16 31.79,-18.04 51.37,-23.64 19.55,-5.6 40.18,-8.39 61.82,-8.39 21.67,0 42.28,2.79 61.85,8.39 19.56,5.6 36.86,13.48 51.89,23.64 15,10.14 26.9,22.39 35.62,36.75 8.74,14.34 13.11,29.92 13.11,46.71l0 71.4 -123.68 0 0 -64.04c0,-13.99 -3.66,-25.19 -11,-33.6 -7.33,-8.4 -16.61,-12.59 -27.79,-12.59 -11.18,0 -20.26,4.19 -27.22,12.59 -7,8.41 -10.49,19.61 -10.49,33.6l0 60.91c0,13.99 3.29,25.01 9.95,33.06 6.65,8.05 15.89,12.77 27.76,14.19 21.67,0 42.28,2.77 61.85,8.38 19.56,5.59 36.86,13.48 51.89,23.63 15,10.15 26.9,22.23 35.62,36.23 8.74,13.99 13.11,29.75 13.11,47.25l0 76.65z"/>
    <path class="fil1" d="M6271.47 3013.75c0,18.89 3.5,31.14 10.48,36.73 7,5.61 15.02,8.42 24.11,8.42 9.08,0 17.3,-3.16 24.63,-9.46 7.33,-6.3 11.01,-18.19 11.01,-35.69l0 -288.73c0,-17.53 -3.68,-29.41 -11.01,-35.73 -7.33,-6.29 -15.55,-9.44 -24.63,-9.44 -9.09,0 -17.11,2.95 -24.11,8.92 -6.98,5.95 -10.48,18.04 -10.48,36.25l0 80.84 -107.94 0 0 -88.21c0,-17.49 4.02,-33.24 12.04,-47.26 8.03,-13.99 18.69,-25.9 31.96,-35.7 13.29,-9.78 28.48,-17.5 45.59,-23.09 17.12,-5.61 34.76,-8.4 52.94,-8.4 18.86,0 36.86,2.79 53.99,8.4 17.11,5.59 32.31,13.31 45.58,23.09 13.28,9.8 23.92,21.88 31.96,36.25 8.05,14.33 12.07,29.9 12.07,46.71l0 302.4c0,16.79 -4.02,32.37 -12.07,46.72 -8.04,14.35 -18.68,26.42 -31.96,36.22 -13.27,9.8 -28.47,17.49 -45.58,23.09 -17.13,5.61 -35.13,8.42 -53.99,8.42 -18.18,0 -35.82,-2.65 -52.94,-7.89 -17.11,-5.24 -32.3,-12.94 -45.59,-23.1 -13.27,-10.15 -23.93,-22.23 -31.96,-36.22 -8.02,-13.99 -12.04,-29.75 -12.04,-47.24l0 -84.01 107.94 0 0 77.71zm478.07 -411.61c24.44,0 43.83,2.11 58.17,6.32 14.32,4.19 26.73,11.55 37.22,22.03 11.87,-11.91 26.01,-19.95 42.43,-24.15 16.43,-4.2 33.72,-6.29 51.89,-6.29 16.07,0 31.61,2.45 46.63,7.37 15.03,4.88 28.47,11.89 40.36,20.97 11.18,-9.81 25.32,-16.97 42.43,-21.52 17.14,-4.54 34.06,-6.82 50.83,-6.82 18.19,0 35.99,2.63 53.46,7.89 17.47,5.24 32.85,12.76 46.12,22.55 13.29,9.81 23.93,21.72 31.97,35.72 8.04,13.99 12.06,29.74 12.06,47.23l0 307.66c0,17.48 -4.54,33.24 -13.63,47.23 -9.09,14.01 -20.96,25.92 -35.65,35.71 -14.64,9.8 -31.78,17.33 -51.33,22.57 -19.58,5.24 -39.83,7.89 -60.81,7.89l0 -76.67c15.38,0 27.95,-3.66 37.74,-11.02 9.77,-7.34 14.67,-17.67 14.67,-30.98l0 -295.03c0,-13.99 -3.49,-24.85 -10.5,-32.55 -6.97,-7.7 -15,-11.55 -24.1,-11.55 -8.37,0 -16.05,3.5 -23.06,10.5 -6.97,7 -11.18,16.8 -12.55,29.41l0 414.73 -109.01 0 0 -413.69c-1.41,-13.3 -5.61,-23.45 -12.59,-30.45 -6.97,-7 -14.67,-10.5 -23.04,-10.5 -8.4,0 -16.07,3.5 -23.07,10.5 -6.98,7 -11.18,17.15 -12.58,30.45l0 413.69 -109.01 0 0 -404.26c0,-13.99 -4.01,-25.88 -12.04,-35.68 -8.04,-9.81 -20.1,-14.36 -36.17,-13.66l-95.36 0c-7.7,0 -14.69,4.02 -20.96,12.09 -6.31,8.05 -9.46,19.07 -9.46,33.08l0 24.15c7.01,-1.43 13.64,-2.11 19.92,-2.11 37.75,0 68.83,10.49 93.29,31.49 24.47,21 36.7,49.01 36.7,84l0 160.66c0,35.69 -12.23,63.87 -36.7,84.52 -24.46,20.64 -55.54,30.97 -93.29,30.97 -37.02,0 -67.59,-10.33 -91.7,-30.97 -24.1,-20.65 -36.16,-48.83 -36.16,-84.52l0 -303.45c0,-17.49 3.85,-33.24 11.54,-47.26 7.67,-13.99 17.8,-26.06 30.38,-36.22 12.58,-10.16 27.25,-18.04 44.03,-23.63 16.76,-5.61 34.26,-8.4 52.41,-8.4l98.52 0zm-88.05 265.65c0,-14 -1.57,-25.02 -4.71,-33.08 -3.15,-8.05 -8.57,-12.05 -16.26,-12.05 -6.98,0 -12.05,4 -15.19,12.05 -3.14,8.06 -4.73,19.08 -4.73,33.08l0 148.04c0,13.31 1.59,23.99 4.73,32.04 3.14,8.03 8.21,12.07 15.19,12.07 7.69,0 13.11,-4.04 16.26,-12.07 3.14,-8.05 4.71,-18.73 4.71,-32.04l0 -148.04zm660.43 -295.04c0,-13.99 -1.23,-24.85 -3.67,-32.55 -2.44,-7.69 -8.57,-11.55 -18.33,-11.55 -9.09,0 -14.86,3.86 -17.3,11.55 -2.45,7.7 -3.68,18.56 -3.68,32.55l0 14.7 -106.9 0 0 -22.06c0,-35 11.89,-62.82 35.63,-83.46 23.76,-20.67 54.51,-30.96 92.25,-30.96 37.02,0 67.77,10.29 92.23,30.96 24.45,20.64 36.68,48.46 36.68,83.46l0 565.95 -106.91 0 0 -558.59zm641.57 448.35c0,17.48 -4.54,33.42 -13.62,47.75 -9.09,14.37 -20.98,26.44 -35.65,36.25 -14.67,9.78 -31.8,17.5 -51.35,23.09 -19.55,5.61 -39.83,8.05 -60.79,7.35 -22.36,-0.7 -44.19,-3.33 -65.51,-7.87 -21.32,-4.55 -38.26,-13.83 -50.83,-27.83 -6.99,9.8 -16.44,18.21 -28.3,25.2 -11.87,7 -30.4,10.5 -55.54,10.5 -33.56,0 -60.28,-10.15 -80.19,-30.44 -19.92,-20.31 -29.89,-48.31 -29.89,-84l0 -109.21c0,-34.99 12.25,-62.83 36.69,-83.47 24.48,-20.65 58.01,-30.98 100.64,-30.98l13.62 0 0 -84c0,-19.6 4.36,-36.55 13.08,-50.91 8.76,-14.37 20.46,-26.28 35.12,-35.72 14.68,-9.43 31.63,-16.6 50.84,-21.5 19.21,-4.92 39.31,-7.36 60.27,-7.36 20.96,0 41.24,2.44 60.79,7.36 19.55,4.9 36.68,12.07 51.35,21.5 14.67,9.44 26.56,21.55 35.65,36.24 9.08,14.69 13.62,31.5 13.62,50.39l0 84 13.61 0c42.63,0 76.35,10.33 101.15,30.98 24.83,20.64 37.22,48.48 37.22,83.47l0 109.21c0,35.69 -10.14,63.87 -30.41,84.52 -20.26,20.64 -54.14,30.97 -101.65,30.97l-16.78 0 0 -76.65 16.78 0c7.67,0 13.6,-4.04 17.81,-12.07 4.18,-8.05 6.29,-18.73 6.29,-32.04l0 -96.59c0,-14 -2.11,-25.03 -6.29,-33.08 -4.21,-8.04 -12.23,-12.05 -24.12,-12.05l-13.61 0 0 146.99zm-110.08 -146.99l-102.7 0 0 131.24c0,36.39 17.11,54.59 51.37,54.59 17.44,0 30.4,-4.9 38.78,-14.7 8.37,-9.8 12.55,-22.75 12.55,-38.84l0 -132.29zm0 -76.67l0 -76.64c0,-16.8 -4.53,-28.71 -13.6,-35.71 -9.1,-6.97 -21.67,-10.48 -37.73,-10.48 -13.96,0 -26.02,3.32 -36.17,9.96 -10.14,6.64 -15.2,18.73 -15.2,36.23l0 76.64 102.7 0zm-232.64 260.39c9.06,0 15,-4.02 17.79,-12.04 2.8,-8.08 4.21,-20.15 4.21,-36.25l0 -135.43 -14.67 0c-11.89,0 -19.57,5.07 -23.07,15.22 -3.51,10.14 -5.24,20.11 -5.24,29.91l0 96.59c0,11.93 1.21,21.88 3.68,29.96 2.44,8.02 8.2,12.04 17.3,12.04zm620.42 -601.61l0 44.09c0,16.8 -3.85,31.65 -11.53,44.62 -7.68,12.93 -18,23.8 -30.92,32.53 -12.94,8.77 -27.78,15.25 -44.55,19.44 -16.77,4.2 -34.59,6.3 -53.45,6.3 -18.19,0 -35.64,-2.1 -52.39,-6.3 -16.78,-4.19 -31.63,-10.67 -44.57,-19.44 -12.92,-8.73 -23.22,-19.6 -30.93,-32.53 -7.69,-12.97 -11.51,-28.17 -11.51,-45.67l0 -43.04 106.91 0 0 36.75c0,13.99 3.32,23.95 9.95,29.9 6.63,5.97 14.16,8.92 22.54,8.92 9.08,0 16.75,-2.79 23.06,-8.4 6.29,-5.59 9.43,-15.39 9.43,-29.39l0 -37.78 107.96 0zm437 145.92c49.6,0 89.07,10.51 118.44,31.52 29.34,21 44,48.62 44,82.95l0 305.53c0,16.81 -4,32.38 -12.05,46.71 -8.02,14.37 -18.68,26.44 -31.95,36.25 -13.29,9.78 -28.49,17.5 -45.6,23.09 -17.1,5.61 -35.13,8.4 -53.99,8.4 -18.16,0 -35.8,-2.79 -52.93,-8.4 -17.11,-5.59 -32.31,-13.48 -45.59,-23.63 -13.26,-10.14 -23.92,-22.57 -31.97,-37.27 -8.03,-14.7 -12.03,-31.14 -12.03,-49.35l0 -293.99c0,-14.01 -3.5,-25.03 -10.5,-33.07 -6.98,-8.08 -15.03,-12.08 -24.09,-12.08 -8.4,0 -16.07,3.68 -23.06,11.03 -7.01,7.34 -11.18,17.66 -12.59,30.97l0 410.54 -107.94 0 0 -410.54c-1.41,-13.31 -5.77,-23.63 -13.11,-30.97 -7.35,-7.35 -14.85,-11.03 -22.52,-11.03 -9.09,0 -17.3,4 -24.64,12.08 -7.33,8.04 -11.01,19.06 -11.01,33.07l0 291.88c0,30.1 15.38,45.16 46.12,45.16l0 75.6c-51.71,0 -90.16,-10.33 -115.3,-30.97 -25.14,-20.65 -37.72,-48.49 -37.72,-83.48l0 -305.53c0,-17.52 4.01,-33.26 12.04,-47.26 8.04,-14.01 18.69,-25.89 31.97,-35.69 13.28,-9.81 28.48,-17.53 45.59,-23.12 17.13,-5.61 34.76,-8.4 52.95,-8.4 16.05,0 32.3,2.46 48.73,7.36 16.42,4.9 29.52,13.3 39.3,25.19 10.48,-11.89 24.45,-20.29 41.92,-25.19 17.47,-4.9 33.89,-7.36 49.27,-7.36 17.47,0 34.94,2.79 52.4,8.4 17.47,5.59 33,13.31 46.64,23.12 13.62,9.8 24.46,21.87 32.47,36.21 8.06,14.38 11.72,29.94 11.02,46.74l0 293.97c0,14.01 2.44,25.91 7.34,35.71 4.88,9.8 13.98,14.7 27.24,14.7 11.89,0 20.81,-4.74 26.74,-14.18 5.94,-9.43 8.9,-21.17 8.9,-35.16l0 -287.7c0,-14.01 -5.25,-25.03 -15.71,-33.07 -10.48,-8.08 -23.4,-12.08 -38.78,-12.08l0 -76.66zm288.35 -145.92l0 44.09c0,16.8 -3.84,31.65 -11.54,44.62 -7.68,12.93 -18,23.8 -30.91,32.53 -12.92,8.77 -27.78,15.25 -44.53,19.44 -16.79,4.2 -34.61,6.3 -53.47,6.3 -18.16,0 -35.64,-2.1 -52.41,-6.3 -16.76,-4.19 -31.62,-10.67 -44.55,-19.44 -12.92,-8.73 -23.22,-19.6 -30.91,-32.53 -7.69,-12.97 -11.53,-28.17 -11.53,-45.67l0 -43.04 106.91 0 0 36.75c0,13.99 3.31,23.95 9.94,29.9 6.64,5.97 14.17,8.92 22.55,8.92 9.09,0 16.77,-2.79 23.06,-8.4 6.27,-5.59 9.44,-15.39 9.44,-29.39l0 -37.78 107.95 0z"/>
    <path class="fil1" d="M631.4 3002.49c0,7.52 1.87,15.58 5.65,24.12 3.74,8.55 9.03,15.23 15.87,20 -4.79,-5.46 -7.69,-11.45 -8.7,-17.95 -1.03,-6.51 -1.55,-11.81 -1.55,-15.92l0 -26.68c0,-28.07 8.2,-49.63 24.6,-64.68 16.39,-15.05 43.72,-22.58 81.97,-22.58 36.88,0 66.11,8.56 87.62,25.66 21.5,17.11 32.27,39.7 32.27,67.75l0 41.06c0,27.38 -10.93,49.63 -32.79,66.74 -21.86,17.1 -51.24,25.66 -88.13,25.66l-86.07 0c-40.99,0 -73.96,-9.41 -98.89,-28.22 -24.92,-18.83 -37.4,-45.35 -37.4,-79.55l0 -297.72c0,-34.23 12.64,-60.73 37.93,-79.56 25.27,-18.83 58.38,-28.25 99.39,-28.25l85.04 0c36.89,0 66.27,8.58 88.13,25.7 21.86,17.1 32.79,39.34 32.79,66.7l0 41.07c0,28.06 -10.77,50.65 -32.27,67.75 -21.51,17.11 -50.74,25.67 -87.62,25.67 -38.25,0 -65.58,-7.53 -81.97,-22.57 -16.4,-15.08 -24.6,-36.64 -24.6,-64.68l0 -26.7c0,-3.42 0.68,-8.72 2.04,-15.92 1.37,-7.18 4.45,-13.51 9.23,-18.98 -6.83,4.78 -12.3,11.47 -16.39,20.01 -4.12,8.56 -6.15,16.6 -6.15,24.14l0 267.93zm136.29 1.03c0,-9.59 -1.21,-17.81 -3.59,-24.65 -2.39,-6.84 -6.32,-10.26 -11.8,-10.26 -5.46,0 -9.37,3.23 -11.76,9.76 -2.39,6.5 -3.6,14.87 -3.6,25.15l0 16.42c0,8.89 1.02,16.93 3.08,24.12 2.05,7.18 6.14,10.77 12.28,10.77 10.26,0 15.39,-11.62 15.39,-34.89l0 -16.42zm0 -285.4c0,-23.26 -5.13,-34.91 -15.39,-34.91 -6.14,0 -10.23,3.61 -12.28,10.79 -2.06,7.18 -3.08,15.25 -3.08,24.12l0 16.44c0,10.25 1.21,18.63 3.6,25.15 2.39,6.5 6.3,9.74 11.76,9.74 5.48,0 9.41,-3.43 11.8,-10.26 2.38,-6.85 3.59,-15.06 3.59,-24.63l0 -16.44zm608.8 299.78c0,17.08 -4.42,32.65 -13.32,46.69 -8.88,14.03 -20.5,25.83 -34.84,35.42 -14.35,9.59 -31.09,17.1 -50.2,22.57 -19.13,5.48 -38.95,7.88 -59.44,7.19 -21.87,-0.68 -43.22,-3.23 -64.06,-7.69 -20.82,-4.45 -37.39,-13.53 -49.68,-27.21 -6.84,9.59 -16.06,17.8 -27.68,24.63 -11.61,6.86 -29.72,10.27 -54.3,10.27 -32.8,0 -58.93,-9.91 -78.39,-29.76 -19.48,-19.85 -29.22,-47.23 -29.22,-82.11l0 -106.79c0,-34.2 11.97,-61.42 35.86,-81.61 23.91,-20.18 56.7,-30.27 98.39,-30.27l13.32 0 0 -82.13c0,-19.16 4.25,-35.75 12.8,-49.8 8.54,-14.03 19.98,-25.66 34.34,-34.89 14.34,-9.24 30.93,-16.25 49.69,-21.04 18.79,-4.8 38.43,-7.19 58.93,-7.19 20.49,0 40.31,2.39 59.44,7.19 19.11,4.79 35.85,11.8 50.2,21.04 14.34,9.23 25.96,21.05 34.84,35.41 8.9,14.37 13.32,30.8 13.32,49.28l0 82.13 13.33 0c41.66,0 74.61,10.09 98.88,30.27 24.27,20.19 36.38,47.41 36.38,81.61l0 106.79c0,34.88 -9.92,62.43 -29.72,82.62 -19.8,20.18 -52.94,30.27 -99.38,30.27l-16.41 0 0 -74.93 16.41 0c7.5,0 13.3,-3.94 17.4,-11.8 4.1,-7.88 6.14,-18.31 6.14,-31.32l0 -94.43c0,-13.69 -2.04,-24.47 -6.14,-32.35 -4.1,-7.86 -11.95,-11.79 -23.56,-11.79l-13.33 0 0 143.73zm-107.59 -143.73l-100.44 0 0 128.32c0,35.58 16.75,53.37 50.23,53.37 17.05,0 29.71,-4.79 37.92,-14.38 8.19,-9.58 12.29,-22.24 12.29,-37.96l0 -129.35zm0 -74.94l0 -74.95c0,-16.42 -4.45,-28.05 -13.31,-34.9 -8.9,-6.83 -21.19,-10.26 -36.9,-10.26 -13.66,0 -25.46,3.27 -35.34,9.74 -9.93,6.5 -14.89,18.32 -14.89,35.42l0 74.95 100.44 0zm-227.49 254.58c8.88,0 14.69,-3.93 17.42,-11.8 2.73,-7.88 4.1,-19.68 4.1,-35.42l0 -132.42 -14.35 0c-11.62,0 -19.12,4.95 -22.55,14.89 -3.41,9.91 -5.11,19.66 -5.11,29.25l0 94.43c0,11.66 1.18,21.39 3.58,29.27 2.39,7.87 8.02,11.8 16.91,11.8zm678.31 75.96c-33.49,-2.74 -59.25,-8.72 -77.36,-17.95 -18.1,-9.25 -31.25,-19.7 -39.46,-31.33 -8.19,-11.63 -12.98,-23.25 -14.32,-34.89 -1.39,-11.64 -2.07,-20.52 -2.07,-26.69l0 -294.63c0,-34.22 12.81,-61.42 38.43,-81.6 25.62,-20.19 60.97,-30.31 106.05,-30.31l108.64 0c17.08,0 33.8,2.76 50.2,8.22 16.4,5.49 30.75,13.02 43.04,22.6 12.29,9.59 22.2,21.22 29.73,34.9 7.5,13.68 11.26,29.09 11.26,46.19l0 294.63c0,17.13 -3.24,32.51 -9.73,46.2 -6.5,13.69 -15.55,25.48 -27.17,35.41 -11.61,9.92 -25.09,17.45 -40.47,22.59 -15.38,5.12 -31.58,7.68 -48.68,7.68 -36.87,0 -67.3,-10.09 -91.16,-30.27 -23.95,-20.19 -35.92,-47.39 -35.92,-81.61l0 -156.05c0,-17.1 1.72,-32.48 5.15,-46.17 3.42,-13.69 9.22,-25.5 17.41,-35.45 8.2,-9.9 19.31,-17.43 33.3,-22.56 14.01,-5.14 31.6,-7.71 52.79,-7.71 4.76,0 10.93,1.04 18.43,3.08 7.53,2.06 14.35,5.47 20.49,10.27l0 -34.9c0,-13.68 -4.26,-24.12 -12.8,-31.32 -8.53,-7.17 -19.63,-11.12 -33.29,-11.79l-81.98 0c-17.07,-0.69 -29.37,3.23 -36.9,11.79 -7.5,8.57 -11.26,19.69 -11.26,33.37l0 281.27c0,10.27 1.02,19.87 3.06,28.74 2.05,8.91 10.25,13.7 24.59,14.38l0 73.91zm105.55 -117.03c0,29.44 7.52,44.15 22.54,44.15 13.67,0 20.49,-14.71 20.49,-44.15l0 -142.69c0,-13.69 -1.69,-24.46 -5.1,-32.34 -3.42,-7.85 -8.54,-11.8 -15.39,-11.8 -7.5,0 -13.15,3.95 -16.9,11.8 -3.76,7.88 -5.64,18.65 -5.64,32.34l0 142.69zm618.03 -233.03c0,16.44 -3.42,30.81 -10.25,43.12 -6.84,12.32 -20.5,22.6 -41.01,30.8 15.06,6.16 27.35,16.26 36.9,30.29 9.57,14.01 14.36,28.57 14.36,43.62l0 54.42c0,17.1 -3.92,32.33 -11.79,45.68 -7.84,13.32 -18.27,24.8 -31.24,34.38 -12.98,9.58 -27.84,16.94 -44.59,22.08 -16.73,5.12 -33.98,7.7 -51.74,7.7l-140.38 0c-5.47,0 -10.43,1.52 -14.88,4.62 -4.42,3.07 -6.98,10.79 -7.67,23.08 0,12.34 2.73,20.03 8.19,23.1 5.47,3.09 10.24,4.63 14.36,4.63l273.59 0 0 73.92 -273.59 0c-36.9,0 -67.46,-8.4 -91.73,-25.17 -24.25,-16.77 -36.38,-42.6 -36.38,-77.51 0,-34.2 12.13,-58.68 36.38,-73.39 24.27,-14.7 54.83,-22.07 91.73,-22.07l140.38 0c8.17,0 15.88,-4.45 23.06,-13.34 7.17,-8.92 10.75,-20.18 10.75,-33.87l0 -42.09c0,-13.7 -2.22,-24.3 -6.66,-31.84 -4.44,-7.53 -14.86,-11.28 -31.25,-11.28l0 -74.93c14.34,0 24.27,-3.78 29.72,-11.3 5.45,-7.54 8.19,-18.14 8.19,-31.82l0 -41.07c0,-13.68 -3.58,-24.45 -10.75,-32.34 -7.18,-7.87 -15.58,-11.79 -25.11,-11.79l-126.06 0c-7.49,0 -14.83,3.59 -22.02,10.76 -7.17,7.2 -11.43,16.61 -12.8,28.25l0 30.78c5.46,-3.41 11.62,-5.82 18.43,-7.18 6.83,-1.37 12.64,-2.06 17.44,-2.06 36.89,0 65.06,10.1 84.51,30.27 19.49,20.21 29.23,47.07 29.23,80.61l0 44.13c0,34.23 -12.13,61.42 -36.38,81.62 -24.25,20.2 -54.84,30.28 -91.71,30.28 -36.89,0 -67.3,-10.08 -91.22,-30.28 -23.9,-20.2 -35.86,-47.39 -35.86,-81.62l0 -178.62c0,-17.1 3.95,-32.51 11.8,-46.19 7.86,-13.68 18.28,-25.31 31.25,-34.9 12.97,-9.58 27.83,-17.11 44.57,-22.6 16.74,-5.46 34.34,-8.22 52.76,-8.22l128.11 0c17.76,0 35.01,2.76 51.74,8.22 16.75,5.49 31.61,13.02 44.59,22.6 12.97,9.59 23.4,21.22 31.24,34.9 7.87,13.68 11.79,29.09 11.79,46.19l0 55.43zm-258.24 86.24c0,-13.7 -1.86,-24.47 -5.62,-32.34 -3.76,-7.87 -9.39,-11.81 -16.91,-11.81 -7.52,0 -12.99,4.62 -16.41,13.86 -3.41,9.25 -5.11,19.35 -5.11,30.29l0 31.84c0,13.68 1.7,24.28 5.11,31.81 3.42,7.53 8.89,11.29 16.41,11.29 7.52,0 13.15,-3.76 16.91,-11.29 3.76,-7.53 5.62,-18.13 5.62,-31.81l0 -31.84zm644.68 136.54c0,7.52 1.88,15.58 5.63,24.12 3.76,8.55 9.05,15.23 15.87,20 -4.78,-5.46 -7.67,-11.45 -8.68,-17.95 -1.03,-6.51 -1.55,-11.81 -1.55,-15.92l0 -26.68c0,-28.07 8.18,-49.63 24.59,-64.68 16.39,-15.05 43.72,-22.58 81.98,-22.58 36.88,0 66.1,8.56 87.63,25.66 21.51,17.11 32.25,39.7 32.25,67.75l0 41.06c0,27.38 -10.93,49.63 -32.77,66.74 -21.87,17.1 -51.24,25.66 -88.14,25.66l-86.08 0c-40.99,0 -73.95,-9.41 -98.87,-28.22 -24.93,-18.83 -37.42,-45.35 -37.42,-79.55l0 -297.72c0,-34.23 12.65,-60.73 37.93,-79.56 25.28,-18.83 58.39,-28.25 99.38,-28.25l85.06 0c36.9,0 66.27,8.58 88.14,25.7 21.84,17.1 32.77,39.34 32.77,66.7l0 41.07c0,28.06 -10.74,50.65 -32.25,67.75 -21.53,17.11 -50.75,25.67 -87.63,25.67 -38.26,0 -65.59,-7.53 -81.98,-22.57 -16.41,-15.08 -24.59,-36.64 -24.59,-64.68l0 -26.7c0,-3.42 0.68,-8.72 2.05,-15.92 1.36,-7.18 4.45,-13.51 9.22,-18.98 -6.83,4.78 -12.3,11.47 -16.39,20.01 -4.1,8.56 -6.15,16.6 -6.15,24.14l0 267.93zm136.28 1.03c0,-9.59 -1.18,-17.81 -3.58,-24.65 -2.4,-6.84 -6.32,-10.26 -11.78,-10.26 -5.47,0 -9.38,3.23 -11.8,9.76 -2.38,6.5 -3.57,14.87 -3.57,25.15l0 16.42c0,8.89 1.01,16.93 3.05,24.12 2.07,7.18 6.16,10.77 12.32,10.77 10.24,0 15.36,-11.62 15.36,-34.89l0 -16.42zm0 -285.4c0,-23.26 -5.12,-34.91 -15.36,-34.91 -6.16,0 -10.25,3.61 -12.32,10.79 -2.04,7.18 -3.05,15.25 -3.05,24.12l0 16.44c0,10.25 1.19,18.63 3.57,25.15 2.42,6.5 6.33,9.74 11.8,9.74 5.46,0 9.38,-3.43 11.78,-10.26 2.4,-6.85 3.58,-15.06 3.58,-24.63l0 -16.44zm653.91 542.02c13.65,-0.68 23.73,-2.74 30.21,-6.15 6.5,-3.42 9.75,-7.2 9.75,-11.3l0 -32.84c0,-5.48 -5.29,-9.77 -15.88,-12.84 -10.59,-3.07 -24.79,-4.62 -42.52,-4.62 -17.1,0 -30.92,1.55 -41.51,4.62 -10.59,3.07 -15.89,7.36 -15.89,12.84l0 32.84c0,4.8 3.6,8.89 10.77,12.31 7.18,3.43 16.9,5.14 29.2,5.14l0 61.6c-37.58,0 -68.66,-5.64 -93.26,-16.94 -24.59,-11.28 -36.89,-24.81 -36.89,-40.55l0 -73.9c0,-8.91 3.76,-16.77 11.28,-23.63 7.51,-6.84 17.92,-12.84 31.25,-17.94 13.32,-5.13 29.03,-9.07 47.14,-11.83 18.1,-2.74 37.4,-4.09 57.91,-4.09 21.17,0 40.81,1.35 58.91,4.09 18.12,2.76 33.81,6.7 47.13,11.83 13.33,5.1 23.74,11.1 31.27,17.94 7.51,6.86 11.26,14.72 11.26,23.63l0 73.9c0,15.06 -12.29,28.4 -36.89,40.04 -24.58,11.64 -55.67,17.45 -93.24,17.45l0 -61.6zm-318.69 0c13.66,-0.68 23.73,-2.74 30.22,-6.15 6.49,-3.42 9.73,-7.2 9.73,-11.3l0 -32.84c0,-5.48 -5.29,-9.77 -15.89,-12.84 -10.58,-3.07 -24.42,-4.62 -41.49,-4.62 -17.77,0 -31.95,1.55 -42.54,4.62 -10.57,3.07 -15.87,7.36 -15.87,12.84l0 32.84c0,4.8 3.57,8.89 10.75,12.31 7.19,3.43 16.91,5.14 29.21,5.14l0 61.6c-38.24,0 -69.33,-5.64 -93.24,-16.94 -23.92,-11.28 -35.87,-24.81 -35.87,-40.55l0 -73.9c0,-17.8 13.83,-31.84 41.51,-42.08 27.66,-10.28 63,-15.41 106.05,-15.41 20.51,0 39.8,1.35 57.9,4.09 18.1,2.76 33.82,6.7 47.13,11.83 13.32,5.1 23.92,11.1 31.77,17.94 7.86,6.86 11.8,14.72 11.8,23.63l0 73.9c0,7.53 -3.43,14.71 -10.25,21.55 -6.82,6.85 -16.06,13.02 -27.68,18.49 -11.59,5.47 -25.44,9.76 -41.5,12.84 -16.06,3.06 -33.3,4.61 -51.74,4.61l0 -61.6zm297.15 -651.86c48.51,0 87.12,10.27 115.81,30.81 28.69,20.54 43.03,47.56 43.03,81.09l0 298.73c0,16.43 -3.92,31.64 -11.78,45.68 -7.84,14.03 -18.27,25.83 -31.25,35.42 -12.98,9.59 -27.84,17.1 -44.58,22.57 -16.74,5.48 -34.31,8.21 -52.78,8.21 -17.75,0 -34.98,-2.73 -51.75,-8.21 -16.72,-5.47 -31.58,-13.17 -44.56,-23.09 -12.99,-9.92 -23.4,-22.08 -31.26,-36.45 -7.85,-14.36 -11.78,-30.43 -11.78,-48.24l0 -287.44c0,-13.68 -3.43,-24.45 -10.25,-32.32 -6.84,-7.89 -14.69,-11.83 -23.57,-11.83 -8.2,0 -15.7,3.61 -22.54,10.79 -6.83,7.18 -10.93,17.26 -12.3,30.28l0 401.39 -105.55 0 0 -401.39c-1.38,-13.02 -5.64,-23.1 -12.81,-30.28 -7.18,-7.18 -14.51,-10.79 -22.04,-10.79 -8.86,0 -16.91,3.94 -24.07,11.83 -7.18,7.87 -10.77,18.64 -10.77,32.32l0 285.38c0,29.44 15.05,44.15 45.1,44.15l0 73.9c-50.56,0 -88.12,-10.09 -112.72,-30.27 -24.58,-20.19 -36.89,-47.39 -36.89,-81.61l0 -298.73c0,-17.11 3.93,-32.51 11.79,-46.19 7.85,-13.7 18.27,-25.32 31.25,-34.9 12.98,-9.58 27.84,-17.14 44.56,-22.6 16.76,-5.48 34,-8.21 51.75,-8.21 15.72,0 31.61,2.41 47.67,7.18 16.04,4.8 28.86,13.02 38.43,24.64 10.23,-11.62 23.89,-19.84 40.99,-24.64 17.07,-4.77 33.13,-7.18 48.15,-7.18 17.09,0 34.16,2.73 51.23,8.21 17.08,5.46 32.28,13.02 45.61,22.6 13.32,9.58 23.9,21.38 31.75,35.41 7.88,14.04 11.46,29.25 10.77,45.68l0 287.44c0,13.68 2.39,25.31 7.17,34.89 4.78,9.59 13.67,14.38 26.64,14.38 11.62,0 20.33,-4.63 26.14,-13.86 5.8,-9.24 8.71,-20.7 8.71,-34.39l0 -281.28c0,-13.68 -5.12,-24.45 -15.37,-32.32 -10.25,-7.89 -22.88,-11.83 -37.93,-11.83l0 -74.93zm393.62 653.93c13.65,-0.69 23.58,-2.58 29.73,-5.65 6.15,-3.08 9.23,-6.68 9.23,-10.78l0 -34.9c0,-5.49 -5.32,-9.58 -15.9,-12.33 -10.59,-2.74 -24.42,-4.12 -41.49,-4.12 -16.41,0 -29.89,1.38 -40.49,4.12 -10.59,2.75 -15.9,6.84 -15.9,12.33l0 34.9c0,4.79 3.61,8.71 10.78,11.8 7.19,3.08 16.57,4.63 28.18,4.63l0 60.54c-37.57,0 -68.51,-5.46 -92.74,-16.4 -24.25,-10.97 -36.38,-24.29 -36.38,-40.04l0 -73.92c0,-17.78 14.02,-31.65 42.02,-41.57 27.99,-9.92 62.84,-14.89 104.53,-14.89 21.17,0 40.65,1.38 58.39,4.12 17.76,2.72 33.32,6.5 46.63,11.28 13.32,4.79 23.74,10.62 31.23,17.46 7.55,6.85 11.29,14.72 11.29,23.6l0 73.92c0,15.04 -12.29,28.23 -36.87,39.51 -24.6,11.31 -55.36,16.93 -92.24,16.93l0 -60.54zm-3.07 -204.29c13.66,-1.38 22.88,-6.5 27.68,-15.41 4.77,-8.89 7.15,-18.82 7.15,-29.77l0 -285.38c0,-13.68 -4.43,-24.45 -13.31,-32.32 -8.89,-7.89 -21.17,-11.83 -36.88,-11.83 -14.36,0 -26.15,3.94 -35.36,11.83 -9.22,7.87 -13.84,18.64 -13.84,32.32l0 285.38c0,10.27 3.42,20.19 10.24,29.77 6.84,9.59 16.06,14.38 27.67,14.38l0 73.9c-20.48,0 -39.43,-3.07 -56.86,-9.22 -17.42,-6.17 -32.45,-14.36 -45.09,-24.64 -12.66,-10.27 -22.73,-22.08 -30.23,-35.42 -7.53,-13.35 -11.29,-27.55 -11.29,-42.6l0 -298.73c0,-17.11 4.13,-32.51 12.31,-46.19 8.2,-13.7 19.13,-25.32 32.8,-34.9 13.66,-9.58 29.88,-17.14 48.67,-22.6 18.79,-5.48 39.09,-8.21 60.98,-8.21 21.85,0 42.17,2.73 60.96,8.21 18.78,5.46 35.18,13.02 49.19,22.6 14,9.58 24.93,21.38 32.81,35.41 7.83,14.04 11.76,29.25 11.76,45.68l0 298.73c0,14.36 -3.41,28.22 -10.24,41.57 -6.83,13.35 -16.41,25.15 -28.69,35.42 -12.3,10.28 -26.99,18.65 -44.07,25.15 -17.07,6.51 -35.85,9.74 -56.36,9.74l0 -72.87zm262.43 -592.32l0 43.12c0,16.42 -3.73,30.96 -11.25,43.61 -7.53,12.66 -17.6,23.27 -30.23,31.82 -12.66,8.55 -27.16,14.89 -43.55,19.01 -16.41,4.11 -33.82,6.15 -52.28,6.15 -17.74,0 -34.84,-2.04 -51.21,-6.15 -16.41,-4.12 -30.93,-10.46 -43.57,-19.01 -12.63,-8.55 -22.7,-19.16 -30.23,-31.82 -7.52,-12.65 -11.28,-27.54 -11.28,-44.64l0 -42.09 104.53 0 0 35.92c0,13.69 3.25,23.43 9.73,29.25 6.49,5.84 13.85,8.73 22.03,8.73 8.91,0 16.4,-2.73 22.56,-8.22 6.14,-5.46 9.22,-15.04 9.22,-28.73l0 -36.95 105.53 0z"/>
   </g>
  </g>
 </g>
</svg>
