<?xml version="1.0" encoding="UTF-8"?>
<!DOCTYPE svg PUBLIC "-//W3C//DTD SVG 1.1//EN" "http://www.w3.org/Graphics/SVG/1.1/DTD/svg11.dtd">
<!-- Creator: CorelDRAW 2020 (64-Bit) -->
<svg xmlns="http://www.w3.org/2000/svg" xml:space="preserve" width="100mm" height="26.5mm" version="1.1" style="shape-rendering:geometricPrecision; text-rendering:geometricPrecision; image-rendering:optimizeQuality; fill-rule:evenodd; clip-rule:evenodd"
viewBox="0 0 10000 2650"
 xmlns:xlink="http://www.w3.org/1999/xlink"
 xmlns:xodm="http://www.corel.com/coreldraw/odm/2003">
 <defs>
  <style type="text/css">
   <![CDATA[
    .fil0 {fill:#2B2A29;fill-rule:nonzero}
    .fil1 {fill:#009B94;fill-rule:nonzero}
    .fil2 {fill:#005287;fill-rule:nonzero}
   ]]>
  </style>
 </defs>
 <g id="Layer_x0020_1">
  <metadata id="CorelCorpID_0Corel-Layer"/>
  <g id="_2879462442624">
   <path class="fil0" d="M2621.77 802.89l-101.03 -126.38 94.61 -111.74 -62.48 0 -84.26 106.39 0 -106.39 -50.68 0 0 238.12 50.68 0 0 -73.19 18.57 -22.13 72.11 95.32 62.48 0zm191.71 0l0 -44.63 -117.81 0 0 -53.9 115.31 0 0 -44.63 -115.31 0 0 -50.33 117.81 0 0 -44.63 -168.5 0 0 238.12 168.5 0zm232.42 0l-53.55 -90.69c25.7,-6.06 52.12,-28.55 52.12,-70.68 0,-44.26 -30.35,-76.75 -79.97,-76.75l-111.38 0 0 238.12 50.68 0 0 -84.62 37.13 0 46.77 84.62 58.2 0zm-88.9 -129.23l-53.2 0 0 -64.26 53.2 0c20.35,0 35.7,12.13 35.7,32.12 0,20 -15.35,32.14 -35.7,32.14zm347.72 129.23l-91.75 -238.12 -63.55 0 -92.11 238.12 57.84 0 15 -40.34 102.09 0 14.65 40.34 57.83 0zm-86.39 -84.97l-74.27 0 37.13 -102.46 37.14 102.46zm259.89 84.97l0 -44.63 -100.68 0 0 -193.49 -50.68 0 0 238.12 151.36 0zm257.4 0l-91.75 -238.12 -63.55 0 -92.11 238.12 57.84 0 15 -40.34 102.09 0 14.64 40.34 57.84 0zm-86.39 -84.97l-74.27 0 37.13 -102.46 37.14 102.46zm284.52 89.25c64.26,0 95.33,-32.84 95.33,-76.39 0,-88.9 -136.74,-63.55 -136.74,-101.4 0,-14.28 12.14,-23.91 33.91,-23.91 24.28,0 49.99,8.21 69.26,26.06l28.21 -37.13c-23.57,-21.77 -54.98,-33.2 -92.82,-33.2 -56.04,0 -90.32,32.84 -90.32,72.47 0,89.61 137.09,60.69 137.09,102.81 0,13.57 -13.57,26.42 -41.42,26.42 -32.84,0 -58.9,-14.63 -75.67,-32.12l-27.5 38.55c22.14,22.49 54.98,37.84 100.67,37.84zm230.99 -4.28l0 -193.49 69.25 0 0 -44.63 -189.92 0 0 44.63 69.62 0 0 193.49 51.05 0zm300.94 0l-91.74 -238.12 -63.55 0 -92.11 238.12 57.84 0 14.99 -40.34 102.1 0 14.64 40.34 57.83 0zm-86.39 -84.97l-74.26 0 37.13 -102.46 37.13 102.46zm191.71 84.97l0 -193.49 69.25 0 0 -44.63 -189.92 0 0 44.63 69.62 0 0 193.49 51.05 0zm270.24 0l0 -44.63 -117.81 0 0 -53.9 115.31 0 0 -44.63 -115.31 0 0 -50.33 117.81 0 0 -44.63 -168.5 0 0 238.12 168.5 0zm323.81 0l-53.55 -90.69c25.7,-6.06 52.12,-28.55 52.12,-70.68 0,-44.26 -30.34,-76.75 -79.97,-76.75l-111.38 0 0 238.12 50.69 0 0 -84.62 37.13 0 46.77 84.62 58.19 0zm-88.89 -129.23l-53.2 0 0 -64.26 53.2 0c20.35,0 35.69,12.13 35.69,32.12 0,20 -15.34,32.14 -35.69,32.14zm233.11 133.51c72.48,0 107.45,-40.34 107.45,-99.6l0 -142.8 -51.76 0 0 141.37c0,33.2 -18.92,56.05 -55.69,56.05 -36.77,0 -56.05,-22.85 -56.05,-56.05l0 -141.37 -51.4 0 0 143.15c0,58.55 34.98,99.25 107.45,99.25zm260.26 -4.28l0 -193.49 69.26 0 0 -44.63 -189.93 0 0 44.63 69.62 0 0 193.49 51.05 0zm294.53 0l-53.56 -90.69c25.71,-6.06 52.13,-28.55 52.13,-70.68 0,-44.26 -30.35,-76.75 -79.97,-76.75l-111.38 0 0 238.12 50.68 0 0 -84.62 37.13 0 46.77 84.62 58.2 0zm-88.9 -129.23l-53.2 0 0 -64.26 53.2 0c20.35,0 35.7,12.13 35.7,32.12 0,20 -15.35,32.14 -35.7,32.14zm238.47 133.51c72.11,0 124.6,-51.4 124.6,-123.16 0,-71.76 -52.49,-123.17 -124.6,-123.17 -71.76,0 -124.23,51.41 -124.23,123.17 0,71.76 52.47,123.16 124.23,123.16zm0 -44.98c-43.91,0 -72.11,-33.92 -72.11,-78.18 0,-44.63 28.2,-78.18 72.11,-78.18 43.92,0 72.48,33.55 72.48,78.18 0,44.26 -28.56,78.18 -72.48,78.18zm373.42 40.7l0 -238.12 -50.7 0 0 149.59 -110.3 -149.59 -52.13 0 0 238.12 50.69 0 0 -155.3 113.53 155.3 48.91 0zm97.81 0l0 -238.12 -50.69 0 0 238.12 50.69 0zm263.11 0l-86.39 -122.45 81.03 -115.67 -61.05 0 -53.9 81.39 -54.62 -81.39 -60.34 0 81.05 116.02 -86.4 122.1 60.33 0 59.98 -87.11 59.62 87.11 60.69 0z"/>
   <polygon class="fil1" points="1939.32,2071.81 1297.31,2071.81 1297.31,1868.53 1706.03,1868.53 1706.03,1868.33 1750.22,1868.33 1750.22,1077.93 1966.63,1148.39 1966.63,2071.81 "/>
   <path class="fil1" d="M2326.75 2071.81l-189.11 0 0 -1000.23c0,-33.66 -2.49,-62.61 -7.45,-86.79 -4.53,-22.09 -11.13,-40.32 -19.72,-54.64 -5.19,-6.19 -10.77,-11.71 -16.67,-16.55 -6.67,-5.36 -13.88,-10.18 -21.57,-14.31 -7.06,-3.8 -15.25,-6.71 -24.45,-8.64 -9.97,-2.09 -21.22,-3.15 -33.83,-3.15 -17.25,0 -32.42,3.38 -45.49,10.12 -13.16,6.78 -24.79,17.2 -34.78,31.21 -10.89,15.25 -19.06,31.64 -24.47,49.1 -1.19,3.84 -2.24,7.75 -3.17,11.74l-201.87 -65.71c2.97,-8.38 6.19,-16.65 9.67,-24.83 8.88,-20.85 19.14,-40.32 30.73,-58.25 11.69,-18.15 24.83,-34.9 39.31,-50.17 14.51,-15.31 30.54,-29.03 47.97,-41.11 17.42,-12.08 36.1,-22.44 55.92,-30.97 20.13,-8.69 41.33,-15.21 63.52,-19.53 22.22,-4.29 45.23,-6.45 69.13,-6.45 99.79,0 180.45,32.33 241.95,96.98 30.69,32.27 53.75,70.67 69.08,115.09 15.11,43.48 22.62,92.66 22.62,147.46l0 1019.63 -27.32 0z"/>
   <path class="fil1" d="M2760.65 1343.26c-20.06,0.43 -36.34,7.48 -48.02,18.07 -12.79,11.62 -20.25,27.52 -21.2,43.64 -1.56,26.29 13.52,43.79 33.91,52.26 10.64,4.43 22.58,6.76 34.53,6.97 12.1,0.2 24.31,-1.75 35.43,-5.83 22.22,-8.14 39.43,-25.9 38.98,-53.11l-0.14 -0.71c-0.31,-15.05 -7.62,-30.18 -19.81,-41.69 -12.88,-12.15 -31.21,-20.03 -52.89,-19.68l-0.79 0.08zm909.93 494.14c0,-6.89 -1.18,-12.94 -3.51,-18.1 -2.39,-5.26 -6.12,-10.12 -11.11,-14.49 -4.73,-4.13 -12.55,-7.67 -23.36,-10.48 -13.47,-3.52 -30.54,-5.62 -51.07,-6.26 -35.15,-1.19 -60.44,3.56 -75.75,14.2 -11.78,8.19 -17.71,22.08 -17.71,41.61 0,8.02 1.67,14.65 5,19.8 3.54,5.51 9.5,10.38 17.8,14.53 22.52,11.38 45.71,17.01 69.53,17.01 22.36,0 44.84,-5.63 67.37,-16.89 7.71,-3.86 13.43,-8.93 17.05,-15.13 3.87,-6.41 5.76,-15.03 5.76,-25.8zm-666.75 -40.57l-29.5 0.13 -36.96 0.82c-53.43,1.61 -106.78,3.33 -160.2,5.37 -13.98,0.65 -27.61,2.15 -40.82,4.49 -12.54,2.22 -24.31,5.22 -35.19,8.94 -5.72,2 -9.56,4.3 -11.42,6.89 -1.72,2.57 -2.46,6.63 -2.15,12.14l0 0.26c0.5,10.24 2.29,18.74 5.28,25.43 2.34,5.25 5.62,9.47 9.71,12.54 5.44,4.07 11.85,7.2 19.17,9.32 7.88,2.29 17.28,3.44 28.12,3.44 33.59,0 74.79,-9.03 123.55,-27.07 25.32,-9.37 50.25,-20.13 74.75,-32.3 18.72,-9.27 37.27,-19.42 55.66,-30.4zm48.33 -361.19c0.29,18.12 -1.94,35.32 -6.44,51.52 -4.68,16.82 -11.89,32.63 -21.32,47.44 -8.72,13.69 -18.38,26.27 -28.94,37.63 -10.6,11.43 -22.38,21.96 -35.22,31.48 -9.29,6.91 -19.09,13.29 -29.36,19.16l415.19 -7.14c43.06,-0.73 115.98,-7.88 181.53,-23.24 44.41,-10.41 84.2,-24.21 105.52,-41.46 10.24,-8.41 19.28,-17.71 27.12,-27.79 7.79,-10.04 14.45,-21.01 19.9,-32.83 5.49,-11.89 9.63,-23.77 12.37,-35.52 2.63,-11.27 3.95,-22.56 3.95,-33.83 0,-11.45 -1.2,-22.66 -3.55,-33.56 -2.43,-11.47 -6.04,-22.47 -10.75,-33.06 -4.73,-10.7 -10.71,-21.32 -17.82,-31.84 -6.63,-9.98 -14.46,-19.58 -23.36,-28.81 -16.91,-17.51 -38.07,-31.56 -63.41,-42.06 -12.75,-5.28 -26.11,-9.24 -40,-11.83 -14.01,-2.6 -29.25,-3.93 -45.62,-3.93 -27.79,0 -52.61,2.71 -74.45,8.13 -21.03,5.22 -39.61,13.01 -55.65,23.29 -13.86,8.89 -24.25,20.48 -31.09,34.68 -7.3,15.16 -10.97,33.99 -10.97,56.43l0 136.88 -220.88 71.85 0 -202.26c0,-11.16 -1.24,-21.49 -3.69,-30.91 -2.44,-9.41 -6.22,-18.47 -11.22,-27.13 -5.22,-9.01 -11.4,-17.35 -18.43,-24.97 -7.15,-7.74 -15.08,-14.67 -23.75,-20.74 -9.14,-6.39 -19.14,-12.09 -29.94,-17.01 -10.99,-5.04 -22.87,-9.31 -35.46,-12.76 -13.03,-3.56 -26.32,-6.24 -39.87,-8.01 -13.11,-1.72 -27.2,-2.58 -42.15,-2.58 -26.41,0 -49.22,0.91 -68.38,2.71l-3.11 0.31c105.51,6.28 226.34,40.39 229.25,211.76zm-456.72 200.54l8.67 -3.98c-19.66,-11.22 -37.9,-24.8 -54.75,-40.75 -23.64,-22.41 -42.04,-48.64 -55.16,-78.6 -12.75,-29.21 -20.4,-61.82 -22.85,-97.72 -3.13,-37.06 -2.23,-71.61 2.63,-103.55 4.97,-32.66 14.14,-62.79 27.49,-90.26 13.22,-27.27 29.01,-51.19 47.32,-71.71 18.32,-20.56 39.3,-37.8 62.86,-51.75 38.19,-24.14 81.69,-42.26 130.42,-54.24 48.09,-11.82 101.05,-17.75 158.81,-17.75 86.43,0 165.66,16.11 237.67,48.25 14.6,6.32 42.05,24.13 57.12,32.94 7.01,4.07 13.46,8.44 19.5,13.08l1.14 -1.28c4.94,-5.64 10.52,-10.45 16.66,-14.56l0.13 -0.12c4.64,-3.08 9.71,-5.73 15.16,-7.9 16.3,-10.16 34.37,-19.46 54.15,-27.82 20.25,-8.57 41.87,-15.94 64.74,-22.02 23.24,-6.18 47.16,-10.83 71.74,-13.83 24.79,-3.05 50.43,-4.58 76.78,-4.58 48.25,0 92.96,7.52 134.1,22.54 19.45,7.08 38.37,15.22 56.81,24.44 18.31,9.01 35.52,18.98 51.63,29.71l0.9 0.78c20.11,14.47 38.91,31.55 56.33,51.13 17.19,19.32 33.38,41.4 48.48,66.19 15.32,25.12 27.22,50.14 35.71,75.01 8.64,25.33 13.8,50.65 15.42,75.89l0 1.27c0.76,32.5 -1.19,64.24 -5.91,95.14 -4.73,31.07 -12.33,62.09 -22.72,92.89 -10.87,32.22 -25.77,60.76 -44.64,85.5 -8.41,11.04 -17.58,21.33 -27.52,30.83 6.32,4.48 12.2,9.19 17.62,14.13 18.15,16.52 31.24,35.59 39.18,57.15 6.89,18.61 11.68,37.21 14.34,55.71 2.66,18.41 3.17,36.93 1.5,55.44 -1.53,19.01 -5.53,37.33 -11.78,54.81 -6.06,17.31 -14.59,33.57 -25.4,48.7 -10.28,14.43 -21.85,27.61 -34.56,39.5 -12.74,11.93 -26.66,22.56 -41.67,31.89 -14.49,9.01 -29.77,17.03 -45.75,24.03 -15.74,6.87 -32.14,12.71 -49.12,17.43 -16.99,4.74 -33.56,8.29 -49.66,10.61 -16.69,2.42 -32.92,3.62 -48.56,3.62l-1.02 -0.14c-23.28,-0.77 -45.16,-2.89 -65.56,-6.31 -21.08,-3.53 -40.9,-8.49 -59.34,-14.76 -18.07,-6.16 -35.2,-13.36 -51.27,-21.62 -16.4,-8.37 -31.14,-17.57 -44.22,-27.47 -13.34,-10.08 -25.41,-21.16 -36.18,-33.21 -10.91,-12.22 -20.17,-25.04 -27.68,-38.39 -7.76,-13.79 -13.66,-28.26 -17.62,-43.28 -3.52,-13.31 -5.5,-26.82 -5.92,-40.49 -15.96,10.19 -47.29,32.16 -62.6,39.6 -38.02,23.1 -74.61,44.68 -109.66,64.66 -37.66,21.46 -73.56,41.27 -107.59,59.32 -37.37,19.74 -74.09,34.65 -110.2,44.63 -36.89,10.2 -72.89,15.31 -107.95,15.31 -52.83,0.59 -98.2,-4.46 -135.95,-15.31 -40.54,-11.63 -73.1,-29.97 -97.68,-54.96 -61.38,-62.42 -80.6,-165.93 -59.01,-249.25 15.11,-58.09 60.82,-108.53 114.49,-134.52z"/>
   <path class="fil1" d="M4588.07 1904.58l-6.18 -7.31c-19.8,-23.99 -38.77,-52.59 -56.81,-85.68l-0.09 -0.22c-52.15,-97.59 -60.25,-207.7 -67.53,-307.13 -5.91,-80.66 -11.32,-153.82 -39.55,-200.23l-8.39 -9.88c-9.48,-11.13 -20.56,-19.5 -33.21,-24.99 -12.92,-5.62 -28,-8.44 -45.2,-8.44 -22.38,0 -41.29,4.63 -56.66,13.84 -15.28,9.17 -27.9,23.37 -37.77,42.51 -22.81,44.27 -33.71,107.23 -34.06,171.35 -0.38,68.01 11.02,136.42 32.54,184.85l0.53 1.07c5.88,15.04 12.95,29.61 21.12,43.62 8.27,14.17 17.44,27.44 27.47,39.73 10.28,12.62 21.48,24.7 33.51,36.25 11.98,11.46 24.54,22.15 37.61,31.99 36.17,25.42 80.78,45.31 133.76,59.56 27.05,7.28 52.85,12.74 77.25,16.35l21.66 2.76zm406.02 -558.81l-8.65 -13.64c-16.29,-25.71 -35.42,-44.81 -57.28,-57.26 -21.65,-12.33 -46.67,-18.49 -75.01,-18.49 -60.59,0 -108.34,26.72 -143.17,80.15 -6.05,10.43 -11.61,22.18 -16.58,35.19 -5.14,13.44 -9.56,28.03 -13.23,43.67 -12.38,53.02 -14.23,106.16 -6.68,157.97 7.23,49.65 23.11,98.27 46.62,144.66l4.88 7.48c10.08,15.47 20.75,30.72 31.93,45.68 11.07,14.83 22,28.47 32.7,40.85 10.25,11.86 21.09,22.26 32.39,31.17 7.31,5.72 14.81,10.8 22.44,15.2 8.76,-4.98 17.31,-10.5 25.58,-16.54 11.72,-8.56 23.41,-18.65 35,-30.24 23.02,-23.02 44.03,-50.11 62.93,-81.17 36.28,-59.27 58.2,-133.51 61.19,-207.77 2.49,-62.14 -8.32,-124.11 -35.06,-176.91zm466.99 575.87c-58.41,56.91 -125.57,99.92 -201.66,128.68 -75.72,28.6 -160.02,43.06 -253.11,43.06 -14.56,0 -30.1,-0.59 -46.59,-1.73 -15.5,-1.07 -32.1,-2.79 -49.68,-5.07 -18.21,-2.37 -34.57,-5.71 -49.04,-10.02 -10.79,-3.25 -20.72,-6.98 -29.73,-11.24l-20.13 6.37c-8.51,2.6 -17.85,5.21 -27.75,7.78l-25 6.12c-8.12,1.87 -16.18,3.58 -24.16,5.1 -8.1,1.54 -16.57,2.84 -25.32,3.84 -8.19,0.92 -16.91,1.59 -26.07,1.98l-27.44 0.82 -30.91 0.37c-180.61,0 -329.6,-49.64 -446.9,-148.88 -103.25,-88.53 -169.83,-231.61 -188.57,-378.18 -18.19,-142.6 8.67,-289.46 90.9,-394.02 31.68,-40.28 68.62,-70.64 110.73,-91.01 42.07,-20.34 88.92,-30.55 140.46,-30.55 34.28,0 65.26,3.24 92.92,9.65 28.63,6.64 53.61,16.75 74.85,30.23 21.15,13.41 40.48,31.23 57.96,53.36 8.64,10.94 16.79,22.91 24.43,35.92 4.34,-5.25 8.78,-10.41 13.35,-15.45 14.85,-16.43 30.58,-31.44 47.11,-44.96l2.03 -1.5c33.1,-22.33 68.95,-39.17 107.44,-50.43 38.26,-11.2 78.74,-16.82 121.37,-16.82 106.13,0 196.51,44.27 271.04,132.78 64.08,76.2 97.55,170.22 106.66,267.68 10,107.14 -9.63,218.65 -50.62,314.9l-0.85 1.92c-9.83,18.9 -20.94,37.13 -33.22,54.6 -11.97,17.01 -25.34,33.52 -40.07,49.41 -8.58,9.26 -17.57,18.18 -26.97,26.76 33.2,-7.42 64.46,-18.26 93.76,-32.54 39.45,-19.23 75.33,-44.62 107.55,-76.17 28.72,-28.81 53.31,-65.17 72.31,-105.63 19.44,-41.42 33.16,-87.23 39.63,-133.7 3.64,-26.16 5,-105.49 3.85,-203.83 -1.05,-90.39 -4.33,-196.91 -9.98,-293.5l214.77 -89.89 1.21 87.23c4.38,94.93 7.23,200.07 8.56,290.35 1.52,102.54 1.11,185.46 -1.13,212.77 -5.67,68.8 -23.26,136.34 -52.06,198.78 -28.09,60.85 -66.96,116.94 -115.93,164.66z"/>
   <path class="fil2" d="M7081.78 1011.2c0,-13.88 -1.44,-25.24 -4.27,-34.02 -2.28,-7.07 -5.41,-12.41 -9.31,-15.94 -5,-4.54 -10.37,-7.97 -16.01,-10.25 -5.05,-2.06 -10.56,-3.1 -16.44,-3.1 -7.7,0 -14.81,1.21 -21.25,3.6 -6.83,2.58 -13.31,6.44 -19.49,11.59 -5.44,4.43 -9.43,9.64 -12.05,15.52 -2.68,6.02 -4.03,13.32 -4.03,21.8 0,19.67 4.85,35.65 14.51,47.85 4.01,5.06 8.85,8.89 14.42,11.41 5.91,2.68 13.08,4.03 21.41,4.03 8.71,0 16.28,-1.32 22.66,-3.9 5.87,-2.39 11.05,-6.03 15.44,-10.86 4.97,-5.47 8.64,-11.24 10.94,-17.25 2.31,-6.01 3.47,-12.85 3.47,-20.48zm411.3 1060.61l-191.26 0 0 -1092.98c0,-13.83 -3.78,-27.24 -11.32,-40.2 -4.32,-7.29 -9.04,-13.82 -14.15,-19.48 -5.35,-5.91 -11.52,-11.47 -18.45,-16.59 -5.45,-4.09 -11.49,-7.99 -18.07,-11.7l5.66 10.24c17.86,34.53 26.83,74.12 26.83,118.72 0,30.66 -5.33,59.62 -15.95,86.78 -10.56,27.03 -26.35,52.07 -47.29,75.02 -21.48,23.55 -46.95,41.25 -76.35,53.05 -28.9,11.6 -61.23,17.4 -96.98,17.4 -81.53,0 -143.76,-24.32 -186.59,-72.91 -21.03,-23.87 -36.87,-51.58 -47.42,-83.02 -10.31,-30.81 -15.5,-64.91 -15.5,-102.21 0,-46.9 8.75,-89.83 26.17,-128.66 17.49,-38.95 43.59,-73.41 78.25,-103.35 34.71,-29.99 77.85,-52.02 129.31,-66.05 50.01,-13.64 107.97,-19.7 173.78,-18.21l2.25 0.11c101.64,10.77 181.06,46.7 238.2,107.75 29.08,31.1 50.8,68.44 65.12,111.97 14.03,42.82 21.08,91.5 21.08,146.05l0 1028.27 -27.32 0z"/>
   <path class="fil2" d="M8759.36 1858.56l0 -372.78c0,-30.83 -4.01,-59.32 -11.98,-85.4 -7.93,-25.95 -19.9,-50.14 -35.8,-72.54 -13.26,-18.68 -34.83,-33.03 -64.65,-42.97 -33.04,-11.01 -75.97,-16.55 -128.75,-16.55 -76.76,0 -133.36,17.74 -169.73,53.22 -36.13,35.21 -54.2,89.98 -54.2,164.24l0 372.78 465.11 0zm196.74 218.72l-1281.88 0 0 -1012.59 229.51 0 0 793.87 163.16 0 0 -303.75c0,-77.75 5.98,-146.76 20.74,-207.29 15.22,-62.42 39.78,-115.41 76.62,-159 37.42,-44.27 86.83,-78.52 148.09,-101.4 58.19,-21.76 126.85,-33.2 205.84,-33.2 94.22,0 173.41,13.79 237.87,39.95 68.5,27.79 120.41,69.6 156.12,123.75 14.27,21.66 26.99,45.06 37.55,70.39 10.56,25.34 19.23,53.04 25.44,83.37 6.11,29.84 9.55,60.47 11.42,91.96 1.91,32.13 2.3,63.65 2.3,95.78l0 518.16 -32.78 0z"/>
   <path class="fil1" d="M1115.2 1039.84c147.1,0 270.48,59.01 358.45,154.83 89.27,97.23 140.32,231.57 140.32,378.72 0,114.42 -30.8,221.11 -86.34,308.49 -56.64,89.13 -138.93,158.05 -240.79,195.16l-74.26 -204.86c54.55,-19.86 99.25,-57.77 130.69,-107.24 33.57,-52.82 52.18,-119.02 52.18,-191.55 0,-92.16 -29.93,-174.07 -82.25,-231.06 -47.71,-51.96 -115.78,-83.97 -198,-83.97 -82.23,0 -150.3,32.01 -198,83.97 -52.33,56.99 -82.26,138.9 -82.26,231.06 0,92.48 23.96,168.44 69.56,218.4 40.78,44.69 102.88,70.67 184.73,70.67l0 218.52c-147.12,0 -263.87,-52.34 -346.05,-142.4 -83.11,-91.05 -126.76,-217.99 -126.76,-365.19 0,-147.15 51.06,-281.49 140.32,-378.72 87.97,-95.82 211.35,-154.83 358.46,-154.83z"/>
   <polygon class="fil2" points="7058.15,2071.81 6416.15,2071.81 6416.15,1868.53 6824.86,1868.53 6824.86,1868.33 6869.06,1868.33 6869.06,1341.25 7085.47,1406.89 7085.47,2071.81 "/>
   <path class="fil2" d="M6234.03 1039.84c147.11,0 270.49,59.01 358.46,154.83 89.26,97.23 140.32,231.57 140.32,378.72 0,114.42 -30.8,221.11 -86.34,308.49 -56.65,89.13 -138.93,158.05 -240.79,195.16l-74.26 -204.86c54.55,-19.86 99.25,-57.77 130.69,-107.24 33.57,-52.82 52.18,-119.02 52.18,-191.55 0,-92.16 -29.93,-174.07 -82.25,-231.06 -47.71,-51.96 -115.78,-83.97 -198.01,-83.97 -82.22,0 -150.29,32.01 -198,83.97 -52.32,56.99 -82.25,138.9 -82.25,231.06 0,92.48 23.95,168.44 69.56,218.4 40.78,44.69 102.88,70.67 184.73,70.67l0 218.52c-147.12,0 -263.88,-52.34 -346.05,-142.4 -83.11,-91.05 -126.76,-217.99 -126.76,-365.19 0,-147.15 51.05,-281.49 140.32,-378.72 87.97,-95.82 211.35,-154.83 358.45,-154.83z"/>
   <path class="fil2" d="M9348.66 2071.81l-189.11 0 0 -1000.23c0,-33.66 -2.5,-62.61 -7.45,-86.79 -4.54,-22.09 -11.13,-40.32 -19.73,-54.64 -5.19,-6.19 -10.76,-11.71 -16.66,-16.55 -6.67,-5.36 -13.89,-10.18 -21.57,-14.31 -7.06,-3.8 -15.25,-6.71 -24.45,-8.64 -9.97,-2.09 -21.23,-3.15 -33.83,-3.15 -17.25,0 -32.43,3.38 -45.5,10.12 -13.16,6.78 -24.79,17.2 -34.78,31.21 -10.88,15.25 -19.06,31.64 -24.46,49.1 -1.19,3.84 -2.25,7.75 -3.18,11.74l-201.87 -65.71c2.98,-8.38 6.2,-16.65 9.68,-24.83 8.87,-20.85 19.14,-40.32 30.72,-58.25 11.69,-18.15 24.84,-34.9 39.32,-50.17 14.51,-15.31 30.53,-29.03 47.97,-41.11 17.42,-12.08 36.09,-22.44 55.91,-30.97 20.13,-8.69 41.33,-15.21 63.52,-19.53 22.22,-4.29 45.23,-6.45 69.14,-6.45 99.78,0 180.44,32.33 241.94,96.98 30.7,32.27 53.75,70.67 69.08,115.09 15.11,43.48 22.62,92.66 22.62,147.46l0 1019.63 -27.31 0z"/>
  </g>
 </g>
</svg>
